<svg width="40" height="40" viewBox="0 0 40 40" fill="none" xmlns="http://www.w3.org/2000/svg">
<mask id="path-1-outside-1_1375_278" maskUnits="userSpaceOnUse" x="1" y="5" width="38" height="29" fill="black">
<rect fill="white" x="1" y="5" width="38" height="29"/>
<path d="M29.1266 16.9853C29.2473 16.8347 29.4661 16.812 29.6153 16.9313C29.7644 17.052 29.7886 17.2708 29.6678 17.4199L25.8042 22.2309L25.7871 22.2493C25.6465 22.4013 25.459 22.4837 25.2672 22.4922C25.0783 22.5007 24.8851 22.4382 24.7289 22.3005L24.7246 22.2962H24.7232L22.459 20.2351C22.3169 20.1058 22.307 19.8857 22.4363 19.7436C22.5655 19.6016 22.7857 19.5916 22.9277 19.7209L25.1934 21.782C25.2076 21.7933 25.2232 21.799 25.2374 21.799C25.2502 21.7976 25.263 21.7919 25.2758 21.782L29.1296 16.9838L29.1266 16.9853ZM3.21024 21.9227H5.75144C6.08525 21.9227 6.3878 22.0591 6.60657 22.2778C6.61367 22.2849 6.62077 22.292 6.62787 22.3006C6.83526 22.5179 6.9631 22.8119 6.9631 23.1344V30.1882C6.9631 30.5206 6.82674 30.8231 6.60799 31.0419L6.60657 31.0433L6.60799 31.0448C6.38924 31.2635 6.08526 31.3999 5.75286 31.3999H3.21166C2.87928 31.3999 2.57672 31.2635 2.35795 31.0448L2.35653 31.0433L2.35511 31.0448C2.13636 30.826 2 30.522 2 30.1896V23.1358C2 22.802 2.13636 22.4994 2.35511 22.2807C2.36221 22.2736 2.36932 22.2665 2.37784 22.2594C2.59517 22.052 2.88919 21.9241 3.21166 21.9241L3.21024 21.9227ZM5.75144 22.6202H3.21024C3.0753 22.6202 2.95314 22.6727 2.86081 22.7565L2.84802 22.7708C2.75427 22.8645 2.69746 22.9923 2.69746 23.1344V30.1882C2.69746 30.3288 2.7557 30.4581 2.84802 30.5518H2.8466C2.94035 30.6456 3.06819 30.7024 3.21024 30.7024H5.75144C5.89206 30.7024 6.02133 30.6442 6.11507 30.5518H6.1165C6.20883 30.4581 6.26706 30.3302 6.26706 30.1882V23.1344C6.26706 22.9994 6.21451 22.8773 6.1307 22.785L6.11649 22.7707C6.02275 22.677 5.8949 22.6202 5.75286 22.6202H5.75144ZM6.9631 23.1344C6.84379 23.285 6.62501 23.3105 6.47442 23.1898C6.32385 23.0705 6.29828 22.8517 6.41902 22.7011L9.17186 19.7807C9.37357 19.5264 9.57812 19.3034 9.80113 19.0989C10.0213 18.8958 10.2599 18.7111 10.5355 18.5293L10.5341 18.5279L11.973 17.579L12.5056 15.8119C12.4971 15.2622 12.7116 14.8858 13.0312 14.6969C13.2272 14.5818 13.4545 14.5392 13.6903 14.5733C13.7286 14.5776 13.7656 14.5861 13.8039 14.5946C13.7897 14.008 13.7769 13.2111 13.7656 12.4483C13.7528 11.6657 13.7414 10.9185 13.7286 10.4597V10.4568C13.7215 10.2225 13.8125 10.0065 13.9644 9.84744C14.1122 9.69119 14.3196 9.58608 14.5539 9.56904C16.7471 9.3929 18.8238 8.86307 20.723 8.20256C22.6293 7.53922 24.3638 6.74093 25.8536 6.03355C25.8976 6.01224 25.9473 6.00088 25.9999 6.00088H26.0269C26.0837 5.99661 26.1433 6.00798 26.1987 6.03355C28.0141 6.89435 29.8424 7.70115 31.7202 8.33184C33.5895 8.95827 35.5158 9.41282 37.5398 9.57191C37.7728 9.59037 37.9802 9.69265 38.1265 9.84748C38.2785 10.0066 38.3694 10.2196 38.3651 10.4526C38.3552 11.008 38.3481 11.5648 38.341 12.1245C38.2913 16.0761 38.2373 20.1616 37.3012 22.9798C36.4873 25.4329 35.0597 27.6274 33.1863 29.4016C31.3141 31.1757 28.9972 32.5323 26.4077 33.3107C26.3225 33.3362 26.2359 33.349 26.145 33.3505C26.0555 33.3505 25.9688 33.3391 25.8836 33.3135C24.8168 33.0081 23.7813 32.5948 22.7969 32.0891C21.804 31.5792 20.8637 30.9726 19.9916 30.2851C19.841 30.1658 19.8154 29.9485 19.9347 29.7979C20.0541 29.6474 20.2714 29.6218 20.4219 29.7411C21.2543 30.3988 22.1577 30.9797 23.1151 31.4712C24.0554 31.9556 25.0483 32.3505 26.0739 32.6445C26.1009 32.653 26.1222 32.6559 26.1421 32.6559C26.1605 32.6559 26.1819 32.6516 26.2074 32.6445C28.6918 31.8988 30.9132 30.5991 32.706 28.8987C34.4986 27.1998 35.8651 25.102 36.6405 22.7623C37.5439 20.0464 37.5951 16.0165 37.6448 12.1176C37.6519 11.5537 37.659 10.9912 37.6689 10.4429C37.6689 10.4003 37.6519 10.3619 37.622 10.3321C37.588 10.2966 37.5382 10.2738 37.4814 10.2682C35.4004 10.1048 33.4189 9.63748 31.4971 8.9926C29.6263 8.36617 27.8167 7.57071 26.024 6.72413C24.5467 7.423 22.8379 8.20424 20.9487 8.86191C18.9984 9.54089 16.8621 10.0849 14.6065 10.2653C14.5497 10.2696 14.5 10.2937 14.4659 10.3293C14.4375 10.3605 14.419 10.3989 14.4204 10.4415V10.4443C14.4332 10.896 14.4446 11.6503 14.4574 12.4401C14.473 13.3875 14.4886 14.3861 14.5071 14.9827V15.0097C14.9659 15.467 15.3253 16.2966 15.2528 17.4997C15.2159 18.1233 15.0156 18.8847 14.7486 19.5708C14.4616 20.308 14.0937 20.9713 13.7642 21.2994C13.7386 21.3264 13.723 21.3506 13.7202 21.3719C13.7187 21.3733 13.7173 21.3705 13.7187 21.3733C13.7202 21.3761 13.7301 21.3818 13.7472 21.3918C13.8224 21.4287 13.9474 21.4429 14.1335 21.4216C14.3395 21.4031 14.544 21.3733 14.7486 21.3563V21.3548L18.1037 21.0963C18.6477 21.0551 19.071 21.1361 19.3949 21.2966C19.7997 21.4955 20.0426 21.8094 20.1761 22.1645C20.3011 22.4983 20.3196 22.8648 20.277 23.1971C20.2344 23.5224 20.1293 23.8236 20.0014 24.0381C20.2145 24.7454 20.3295 25.3662 20.3139 25.8619C20.2997 26.3293 20.1747 26.6986 19.9191 26.95C20.1776 28.2639 19.5583 28.8363 19.2316 29.1361L19.2046 29.1659L19.206 29.1673C19.1818 29.1943 19.1364 29.244 19.1463 29.3065C19.1634 29.4102 19.1733 29.5139 19.1762 29.6162C19.1889 30.1091 19.0313 30.5253 18.7841 30.8349C18.5299 31.1503 18.1804 31.3548 17.8211 31.4159C17.7614 31.4259 17.6975 31.4315 17.6322 31.4344L11.1092 31.6134C10.8678 31.6205 10.6434 31.6063 10.4218 31.5693C10.1959 31.5338 9.98001 31.4784 9.75841 31.4017L9.74136 31.396L8.19023 30.8634C8.00842 30.8009 7.91041 30.6048 7.9729 30.423C8.0354 30.2412 8.23143 30.1432 8.41323 30.2057L9.96861 30.7384L9.98566 30.7426C10.1774 30.808 10.3564 30.8563 10.5325 30.8833C10.7129 30.9117 10.8962 30.923 11.0922 30.9188L17.6151 30.7384C17.6435 30.7369 17.6748 30.7341 17.7089 30.7284C17.9049 30.6958 18.0995 30.5793 18.2444 30.3989C18.3964 30.21 18.493 29.9486 18.4844 29.6361C18.4816 29.5693 18.4759 29.4969 18.4617 29.4202C18.3964 29.0239 18.591 28.8094 18.6933 28.6972L18.6947 28.6986L18.6961 28.6972C18.7103 28.6773 18.7259 28.6588 18.7458 28.6403L18.7643 28.6233C19.0043 28.4031 19.4717 27.9727 19.2046 26.9131C19.1592 26.7639 19.2188 26.5977 19.3594 26.5139C19.5313 26.4102 19.6137 26.1773 19.6251 25.842C19.6393 25.3889 19.5199 24.7909 19.2984 24.092C19.2586 23.977 19.2799 23.8449 19.3651 23.7468C19.4631 23.6361 19.5569 23.396 19.5938 23.1091C19.6236 22.8761 19.6123 22.6247 19.5313 22.4059C19.4574 22.2071 19.3197 22.031 19.0938 21.9187C18.8765 21.8122 18.5725 21.7582 18.1606 21.7909L14.8069 22.0494L14.216 22.1133C13.8878 22.1503 13.635 22.1062 13.4517 22.0182C13.2898 21.9386 13.1762 21.825 13.1066 21.6929C13.0341 21.5537 13.0157 21.4031 13.0427 21.2511C13.0711 21.0906 13.1534 20.9358 13.2813 20.8094C13.5441 20.548 13.8551 19.977 14.108 19.3236C14.3509 18.6986 14.5341 18.0125 14.5654 17.4614C14.6293 16.379 14.3026 15.7071 13.9191 15.4131C13.8097 15.3293 13.7003 15.281 13.6009 15.2668C13.5213 15.2554 13.4489 15.2668 13.3907 15.3009C13.2742 15.3705 13.1961 15.5452 13.206 15.8307C13.2103 15.8747 13.206 15.9202 13.1932 15.9628L12.608 17.9031C12.5853 17.9784 12.537 18.0466 12.4659 18.0935L10.9219 19.112V19.1105L10.9205 19.112C10.6833 19.2682 10.473 19.4316 10.2756 19.6134C10.0796 19.7938 9.89917 19.9898 9.71881 20.2156L6.96597 23.1361L6.9631 23.1344ZM19.7855 19.6755C19.7855 19.8673 19.6293 20.0235 19.4375 20.0235C19.2444 20.0235 19.0881 19.8673 19.0881 19.6755C19.0881 15.8333 22.2032 12.7195 26.0456 12.7195C27.966 12.7195 29.7059 13.4979 30.9645 14.7564C32.223 16.0149 33.0014 17.7536 33.0014 19.6753C33.0014 21.5971 32.223 23.3357 30.9645 24.5943C29.7059 25.8528 27.9659 26.6312 26.0456 26.6312C25.0413 26.6312 24.0868 26.4181 23.2217 26.0318C22.324 25.634 21.5285 25.0517 20.8794 24.3329C20.7501 24.1909 20.7629 23.9693 20.9049 23.8414C21.047 23.7122 21.2686 23.7249 21.3964 23.8684C21.9803 24.5147 22.6976 25.0403 23.5044 25.3982C24.2785 25.742 25.1379 25.9338 26.0456 25.9338C27.7743 25.9338 29.3382 25.2335 30.4718 24.1014C31.6053 22.9692 32.3056 21.4025 32.3056 19.6752C32.3056 17.9465 31.6053 16.3811 30.4718 15.249C29.3397 14.1155 27.7743 13.4152 26.0456 13.4152C22.5882 13.4152 19.7855 16.218 19.7855 19.6755Z"/>
</mask>
<path d="M29.1266 16.9853C29.2473 16.8347 29.4661 16.812 29.6153 16.9313C29.7644 17.052 29.7886 17.2708 29.6678 17.4199L25.8042 22.2309L25.7871 22.2493C25.6465 22.4013 25.459 22.4837 25.2672 22.4922C25.0783 22.5007 24.8851 22.4382 24.7289 22.3005L24.7246 22.2962H24.7232L22.459 20.2351C22.3169 20.1058 22.307 19.8857 22.4363 19.7436C22.5655 19.6016 22.7857 19.5916 22.9277 19.7209L25.1934 21.782C25.2076 21.7933 25.2232 21.799 25.2374 21.799C25.2502 21.7976 25.263 21.7919 25.2758 21.782L29.1296 16.9838L29.1266 16.9853ZM3.21024 21.9227H5.75144C6.08525 21.9227 6.3878 22.0591 6.60657 22.2778C6.61367 22.2849 6.62077 22.292 6.62787 22.3006C6.83526 22.5179 6.9631 22.8119 6.9631 23.1344V30.1882C6.9631 30.5206 6.82674 30.8231 6.60799 31.0419L6.60657 31.0433L6.60799 31.0448C6.38924 31.2635 6.08526 31.3999 5.75286 31.3999H3.21166C2.87928 31.3999 2.57672 31.2635 2.35795 31.0448L2.35653 31.0433L2.35511 31.0448C2.13636 30.826 2 30.522 2 30.1896V23.1358C2 22.802 2.13636 22.4994 2.35511 22.2807C2.36221 22.2736 2.36932 22.2665 2.37784 22.2594C2.59517 22.052 2.88919 21.9241 3.21166 21.9241L3.21024 21.9227ZM5.75144 22.6202H3.21024C3.0753 22.6202 2.95314 22.6727 2.86081 22.7565L2.84802 22.7708C2.75427 22.8645 2.69746 22.9923 2.69746 23.1344V30.1882C2.69746 30.3288 2.7557 30.4581 2.84802 30.5518H2.8466C2.94035 30.6456 3.06819 30.7024 3.21024 30.7024H5.75144C5.89206 30.7024 6.02133 30.6442 6.11507 30.5518H6.1165C6.20883 30.4581 6.26706 30.3302 6.26706 30.1882V23.1344C6.26706 22.9994 6.21451 22.8773 6.1307 22.785L6.11649 22.7707C6.02275 22.677 5.8949 22.6202 5.75286 22.6202H5.75144ZM6.9631 23.1344C6.84379 23.285 6.62501 23.3105 6.47442 23.1898C6.32385 23.0705 6.29828 22.8517 6.41902 22.7011L9.17186 19.7807C9.37357 19.5264 9.57812 19.3034 9.80113 19.0989C10.0213 18.8958 10.2599 18.7111 10.5355 18.5293L10.5341 18.5279L11.973 17.579L12.5056 15.8119C12.4971 15.2622 12.7116 14.8858 13.0312 14.6969C13.2272 14.5818 13.4545 14.5392 13.6903 14.5733C13.7286 14.5776 13.7656 14.5861 13.8039 14.5946C13.7897 14.008 13.7769 13.2111 13.7656 12.4483C13.7528 11.6657 13.7414 10.9185 13.7286 10.4597V10.4568C13.7215 10.2225 13.8125 10.0065 13.9644 9.84744C14.1122 9.69119 14.3196 9.58608 14.5539 9.56904C16.7471 9.3929 18.8238 8.86307 20.723 8.20256C22.6293 7.53922 24.3638 6.74093 25.8536 6.03355C25.8976 6.01224 25.9473 6.00088 25.9999 6.00088H26.0269C26.0837 5.99661 26.1433 6.00798 26.1987 6.03355C28.0141 6.89435 29.8424 7.70115 31.7202 8.33184C33.5895 8.95827 35.5158 9.41282 37.5398 9.57191C37.7728 9.59037 37.9802 9.69265 38.1265 9.84748C38.2785 10.0066 38.3694 10.2196 38.3651 10.4526C38.3552 11.008 38.3481 11.5648 38.341 12.1245C38.2913 16.0761 38.2373 20.1616 37.3012 22.9798C36.4873 25.4329 35.0597 27.6274 33.1863 29.4016C31.3141 31.1757 28.9972 32.5323 26.4077 33.3107C26.3225 33.3362 26.2359 33.349 26.145 33.3505C26.0555 33.3505 25.9688 33.3391 25.8836 33.3135C24.8168 33.0081 23.7813 32.5948 22.7969 32.0891C21.804 31.5792 20.8637 30.9726 19.9916 30.2851C19.841 30.1658 19.8154 29.9485 19.9347 29.7979C20.0541 29.6474 20.2714 29.6218 20.4219 29.7411C21.2543 30.3988 22.1577 30.9797 23.1151 31.4712C24.0554 31.9556 25.0483 32.3505 26.0739 32.6445C26.1009 32.653 26.1222 32.6559 26.1421 32.6559C26.1605 32.6559 26.1819 32.6516 26.2074 32.6445C28.6918 31.8988 30.9132 30.5991 32.706 28.8987C34.4986 27.1998 35.8651 25.102 36.6405 22.7623C37.5439 20.0464 37.5951 16.0165 37.6448 12.1176C37.6519 11.5537 37.659 10.9912 37.6689 10.4429C37.6689 10.4003 37.6519 10.3619 37.622 10.3321C37.588 10.2966 37.5382 10.2738 37.4814 10.2682C35.4004 10.1048 33.4189 9.63748 31.4971 8.9926C29.6263 8.36617 27.8167 7.57071 26.024 6.72413C24.5467 7.423 22.8379 8.20424 20.9487 8.86191C18.9984 9.54089 16.8621 10.0849 14.6065 10.2653C14.5497 10.2696 14.5 10.2937 14.4659 10.3293C14.4375 10.3605 14.419 10.3989 14.4204 10.4415V10.4443C14.4332 10.896 14.4446 11.6503 14.4574 12.4401C14.473 13.3875 14.4886 14.3861 14.5071 14.9827V15.0097C14.9659 15.467 15.3253 16.2966 15.2528 17.4997C15.2159 18.1233 15.0156 18.8847 14.7486 19.5708C14.4616 20.308 14.0937 20.9713 13.7642 21.2994C13.7386 21.3264 13.723 21.3506 13.7202 21.3719C13.7187 21.3733 13.7173 21.3705 13.7187 21.3733C13.7202 21.3761 13.7301 21.3818 13.7472 21.3918C13.8224 21.4287 13.9474 21.4429 14.1335 21.4216C14.3395 21.4031 14.544 21.3733 14.7486 21.3563V21.3548L18.1037 21.0963C18.6477 21.0551 19.071 21.1361 19.3949 21.2966C19.7997 21.4955 20.0426 21.8094 20.1761 22.1645C20.3011 22.4983 20.3196 22.8648 20.277 23.1971C20.2344 23.5224 20.1293 23.8236 20.0014 24.0381C20.2145 24.7454 20.3295 25.3662 20.3139 25.8619C20.2997 26.3293 20.1747 26.6986 19.9191 26.95C20.1776 28.2639 19.5583 28.8363 19.2316 29.1361L19.2046 29.1659L19.206 29.1673C19.1818 29.1943 19.1364 29.244 19.1463 29.3065C19.1634 29.4102 19.1733 29.5139 19.1762 29.6162C19.1889 30.1091 19.0313 30.5253 18.7841 30.8349C18.5299 31.1503 18.1804 31.3548 17.8211 31.4159C17.7614 31.4259 17.6975 31.4315 17.6322 31.4344L11.1092 31.6134C10.8678 31.6205 10.6434 31.6063 10.4218 31.5693C10.1959 31.5338 9.98001 31.4784 9.75841 31.4017L9.74136 31.396L8.19023 30.8634C8.00842 30.8009 7.91041 30.6048 7.9729 30.423C8.0354 30.2412 8.23143 30.1432 8.41323 30.2057L9.96861 30.7384L9.98566 30.7426C10.1774 30.808 10.3564 30.8563 10.5325 30.8833C10.7129 30.9117 10.8962 30.923 11.0922 30.9188L17.6151 30.7384C17.6435 30.7369 17.6748 30.7341 17.7089 30.7284C17.9049 30.6958 18.0995 30.5793 18.2444 30.3989C18.3964 30.21 18.493 29.9486 18.4844 29.6361C18.4816 29.5693 18.4759 29.4969 18.4617 29.4202C18.3964 29.0239 18.591 28.8094 18.6933 28.6972L18.6947 28.6986L18.6961 28.6972C18.7103 28.6773 18.7259 28.6588 18.7458 28.6403L18.7643 28.6233C19.0043 28.4031 19.4717 27.9727 19.2046 26.9131C19.1592 26.7639 19.2188 26.5977 19.3594 26.5139C19.5313 26.4102 19.6137 26.1773 19.6251 25.842C19.6393 25.3889 19.5199 24.7909 19.2984 24.092C19.2586 23.977 19.2799 23.8449 19.3651 23.7468C19.4631 23.6361 19.5569 23.396 19.5938 23.1091C19.6236 22.8761 19.6123 22.6247 19.5313 22.4059C19.4574 22.2071 19.3197 22.031 19.0938 21.9187C18.8765 21.8122 18.5725 21.7582 18.1606 21.7909L14.8069 22.0494L14.216 22.1133C13.8878 22.1503 13.635 22.1062 13.4517 22.0182C13.2898 21.9386 13.1762 21.825 13.1066 21.6929C13.0341 21.5537 13.0157 21.4031 13.0427 21.2511C13.0711 21.0906 13.1534 20.9358 13.2813 20.8094C13.5441 20.548 13.8551 19.977 14.108 19.3236C14.3509 18.6986 14.5341 18.0125 14.5654 17.4614C14.6293 16.379 14.3026 15.7071 13.9191 15.4131C13.8097 15.3293 13.7003 15.281 13.6009 15.2668C13.5213 15.2554 13.4489 15.2668 13.3907 15.3009C13.2742 15.3705 13.1961 15.5452 13.206 15.8307C13.2103 15.8747 13.206 15.9202 13.1932 15.9628L12.608 17.9031C12.5853 17.9784 12.537 18.0466 12.4659 18.0935L10.9219 19.112V19.1105L10.9205 19.112C10.6833 19.2682 10.473 19.4316 10.2756 19.6134C10.0796 19.7938 9.89917 19.9898 9.71881 20.2156L6.96597 23.1361L6.9631 23.1344ZM19.7855 19.6755C19.7855 19.8673 19.6293 20.0235 19.4375 20.0235C19.2444 20.0235 19.0881 19.8673 19.0881 19.6755C19.0881 15.8333 22.2032 12.7195 26.0456 12.7195C27.966 12.7195 29.7059 13.4979 30.9645 14.7564C32.223 16.0149 33.0014 17.7536 33.0014 19.6753C33.0014 21.5971 32.223 23.3357 30.9645 24.5943C29.7059 25.8528 27.9659 26.6312 26.0456 26.6312C25.0413 26.6312 24.0868 26.4181 23.2217 26.0318C22.324 25.634 21.5285 25.0517 20.8794 24.3329C20.7501 24.1909 20.7629 23.9693 20.9049 23.8414C21.047 23.7122 21.2686 23.7249 21.3964 23.8684C21.9803 24.5147 22.6976 25.0403 23.5044 25.3982C24.2785 25.742 25.1379 25.9338 26.0456 25.9338C27.7743 25.9338 29.3382 25.2335 30.4718 24.1014C31.6053 22.9692 32.3056 21.4025 32.3056 19.6752C32.3056 17.9465 31.6053 16.3811 30.4718 15.249C29.3397 14.1155 27.7743 13.4152 26.0456 13.4152C22.5882 13.4152 19.7855 16.218 19.7855 19.6755Z" fill="white"/>
<path d="M18.6918 28.844H18.6932V28.544H18.6918V28.844ZM29.1266 16.9853L28.8926 16.7976L29.2595 17.2542L29.1266 16.9853ZM29.6153 16.9313L29.804 16.6981L29.8026 16.697L29.6153 16.9313ZM29.6678 17.4199L29.4346 17.2312L29.4339 17.2321L29.6678 17.4199ZM25.8042 22.2309L26.0246 22.4343L26.0316 22.4268L26.0381 22.4187L25.8042 22.2309ZM25.7871 22.2493L26.0073 22.4531L26.0076 22.4528L25.7871 22.2493ZM25.2672 22.4922L25.2539 22.1925L25.2537 22.1925L25.2672 22.4922ZM24.7289 22.3005L24.5167 22.5126L24.5234 22.5193L24.5305 22.5255L24.7289 22.3005ZM24.7246 22.2962L24.9367 22.0841L24.8489 21.9962H24.7246V22.2962ZM24.7232 22.2962L24.5212 22.518L24.6071 22.5962H24.7232V22.2962ZM22.459 20.2351L22.6609 20.0133L22.6609 20.0132L22.459 20.2351ZM22.9277 19.7209L22.7258 19.9428L22.7259 19.9428L22.9277 19.7209ZM25.1934 21.782L24.9915 22.0039L24.9985 22.0103L25.006 22.0162L25.1934 21.782ZM25.2374 21.799V22.099H25.254L25.2705 22.0972L25.2374 21.799ZM25.2758 21.782L25.4599 22.0188L25.4877 21.9972L25.5097 21.9698L25.2758 21.782ZM29.1296 16.9838L29.3635 17.1717L28.9967 16.7148L29.1296 16.9838ZM3.21024 21.9227V21.6227H2.48554L2.9982 22.1349L3.21024 21.9227ZM6.60657 22.2778L6.8187 22.0657L6.81869 22.0657L6.60657 22.2778ZM6.62787 22.3006L6.39741 22.4926L6.40387 22.5004L6.41083 22.5077L6.62787 22.3006ZM6.60799 31.0419L6.39585 30.8298L6.39583 30.8298L6.60799 31.0419ZM6.60657 31.0433L6.39441 30.8312L6.18236 31.0433L6.39441 31.2554L6.60657 31.0433ZM6.60799 31.0448L6.82012 31.2569L7.03223 31.0448L6.82015 30.8326L6.60799 31.0448ZM2.35795 31.0448L2.14581 31.2569L2.14583 31.2569L2.35795 31.0448ZM2.35653 31.0433L2.56867 30.8312L2.35653 30.6191L2.14439 30.8312L2.35653 31.0433ZM2.35511 31.0448L2.14298 31.2569L2.35512 31.469L2.56725 31.2569L2.35511 31.0448ZM2.35511 22.2807L2.14298 22.0685L2.14297 22.0686L2.35511 22.2807ZM2.37784 22.2594L2.56989 22.4898L2.57765 22.4834L2.58495 22.4764L2.37784 22.2594ZM3.21166 21.9241V22.2241H3.93636L3.4237 21.7119L3.21166 21.9241ZM2.86081 22.7565L2.65918 22.5344L2.64796 22.5446L2.63782 22.5559L2.86081 22.7565ZM2.84802 22.7708L3.06015 22.9829L3.06573 22.9773L3.07101 22.9714L2.84802 22.7708ZM2.84802 30.5518V30.8518H3.56453L3.06177 30.3413L2.84802 30.5518ZM2.8466 30.5518V30.2518H2.12234L2.63447 30.764L2.8466 30.5518ZM6.11507 30.5518V30.2518H5.99215L5.90457 30.3381L6.11507 30.5518ZM6.1165 30.5518V30.8518H6.2421L6.33024 30.7623L6.1165 30.5518ZM6.1307 22.785L6.35284 22.5833L6.34796 22.578L6.34283 22.5728L6.1307 22.785ZM6.47442 23.1898L6.66209 22.9557L6.66074 22.9547L6.47442 23.1898ZM6.41902 22.7011L6.20072 22.4954L6.19248 22.5041L6.18497 22.5135L6.41902 22.7011ZM9.17186 19.7807L9.39016 19.9865L9.39894 19.9772L9.40689 19.9672L9.17186 19.7807ZM9.80113 19.0989L10.0039 19.32L10.0046 19.3194L9.80113 19.0989ZM10.5355 18.5293L10.7007 18.7797L11.0077 18.5772L10.7476 18.3172L10.5355 18.5293ZM10.5341 18.5279L10.3689 18.2774L10.0619 18.4799L10.3219 18.74L10.5341 18.5279ZM11.973 17.579L12.1381 17.8294L12.2289 17.7696L12.2602 17.6656L11.973 17.579ZM12.5056 15.8119L12.7929 15.8985L12.8063 15.8539L12.8056 15.8073L12.5056 15.8119ZM13.0312 14.6969L12.8793 14.4382L12.8786 14.4386L13.0312 14.6969ZM13.6903 14.5733L13.6473 14.8704L13.6572 14.8715L13.6903 14.5733ZM13.8039 14.5946L13.7389 14.8875L14.1131 14.9706L14.1038 14.5874L13.8039 14.5946ZM13.7656 12.4483L14.0655 12.4439L14.0655 12.4434L13.7656 12.4483ZM13.7286 10.4597H13.4285L13.4288 10.468L13.7286 10.4597ZM13.7286 10.4568H14.0288L14.0285 10.4477L13.7286 10.4568ZM13.9644 9.84744L14.1814 10.0547L14.1824 10.0535L13.9644 9.84744ZM14.5539 9.56904L14.5757 9.86825L14.578 9.86807L14.5539 9.56904ZM20.723 8.20256L20.8216 8.48592L20.8216 8.4859L20.723 8.20256ZM25.8536 6.03355L25.9823 6.30456L25.9842 6.30359L25.8536 6.03355ZM26.0269 6.00088V6.30088H26.0381L26.0493 6.30004L26.0269 6.00088ZM26.1987 6.03355L26.3273 5.76246L26.3245 5.76116L26.1987 6.03355ZM31.7202 8.33184L31.6247 8.61622L31.6249 8.61629L31.7202 8.33184ZM37.5398 9.57191L37.5635 9.27285L37.5633 9.27283L37.5398 9.57191ZM38.1265 9.84748L37.9085 10.0535L37.9096 10.0547L38.1265 9.84748ZM38.3651 10.4526L38.0652 10.4471V10.4472L38.3651 10.4526ZM38.341 12.1245L38.041 12.1207V12.1207L38.341 12.1245ZM37.3012 22.9798L37.0165 22.8852L37.0165 22.8853L37.3012 22.9798ZM33.1863 29.4016L32.98 29.1838L32.9799 29.1838L33.1863 29.4016ZM26.4077 33.3107L26.4939 33.598L26.4941 33.598L26.4077 33.3107ZM26.145 33.3505V33.6505L26.1496 33.6504L26.145 33.3505ZM25.8836 33.3135L25.9698 33.0261L25.9662 33.0251L25.8836 33.3135ZM22.7969 32.0891L22.934 31.8222L22.934 31.8222L22.7969 32.0891ZM19.9916 30.2851L19.8052 30.5202L19.8058 30.5207L19.9916 30.2851ZM19.9347 29.7979L20.1699 29.9843L20.1699 29.9842L19.9347 29.7979ZM20.4219 29.7411L20.2356 29.9762L20.236 29.9765L20.4219 29.7411ZM23.1151 31.4712L23.2525 31.2045L23.2521 31.2043L23.1151 31.4712ZM26.0739 32.6445L26.1643 32.3583L26.1566 32.3561L26.0739 32.6445ZM26.2074 32.6445L26.2877 32.9336L26.2937 32.9319L26.2074 32.6445ZM32.706 28.8987L32.4996 28.681L32.4995 28.681L32.706 28.8987ZM36.6405 22.7623L36.3559 22.6677L36.3557 22.668L36.6405 22.7623ZM37.6448 12.1176L37.9447 12.1214V12.1214L37.6448 12.1176ZM37.6689 10.4429L37.9689 10.4483V10.4429H37.6689ZM37.622 10.3321L37.4056 10.5399L37.4099 10.5442L37.622 10.3321ZM37.4814 10.2682L37.5113 9.96959L37.5049 9.96909L37.4814 10.2682ZM31.4971 8.9926L31.5925 8.70819L31.5923 8.70813L31.4971 8.9926ZM26.024 6.72413L26.1521 6.45286L26.0238 6.39231L25.8957 6.45295L26.024 6.72413ZM20.9487 8.86191L20.8501 8.57859L20.8501 8.57859L20.9487 8.86191ZM14.6065 10.2653L14.6289 10.5645L14.6304 10.5644L14.6065 10.2653ZM14.4659 10.3293L14.2494 10.1214L14.2439 10.1274L14.4659 10.3293ZM14.4204 10.4415H14.7206L14.7203 10.4315L14.4204 10.4415ZM14.4204 10.4443H14.1203L14.1205 10.4528L14.4204 10.4443ZM14.4574 12.4401L14.1574 12.4449L14.1574 12.445L14.4574 12.4401ZM14.5071 14.9827H14.8072L14.8069 14.9734L14.5071 14.9827ZM14.5071 15.0097H14.2071V15.1342L14.2953 15.2221L14.5071 15.0097ZM15.2528 17.4997L14.9534 17.4817L14.9533 17.482L15.2528 17.4997ZM14.7486 19.5708L14.469 19.4619L14.469 19.4619L14.7486 19.5708ZM13.7642 21.2994L13.5524 21.0868L13.5464 21.0931L13.7642 21.2994ZM13.7202 21.3719L13.9323 21.584L14.0041 21.5122L14.0175 21.4115L13.7202 21.3719ZM13.7187 21.3733L13.9871 21.2392L13.9871 21.2391L13.7187 21.3733ZM13.7472 21.3918L13.596 21.6509L13.6053 21.6563L13.615 21.6611L13.7472 21.3918ZM14.1335 21.4216L14.1067 21.1227L14.0994 21.1235L14.1335 21.4216ZM14.7486 21.3563L14.7735 21.6552L15.0486 21.6323V21.3563H14.7486ZM14.7486 21.3548L14.7255 21.0557L14.4486 21.0771V21.3548H14.7486ZM18.1037 21.0963L18.0811 20.7972L18.0807 20.7972L18.1037 21.0963ZM19.3949 21.2966L19.2617 21.5654L19.2626 21.5659L19.3949 21.2966ZM20.1761 22.1645L20.4571 22.0593L20.4569 22.0589L20.1761 22.1645ZM20.277 23.1971L20.5744 23.2361L20.5746 23.2353L20.277 23.1971ZM20.0014 24.0381L19.7437 23.8845L19.676 23.998L19.7142 24.1246L20.0014 24.0381ZM20.3139 25.8619L20.0141 25.8525L20.0141 25.8528L20.3139 25.8619ZM19.9191 26.95L19.7087 26.7361L19.5935 26.8494L19.6247 27.0079L19.9191 26.95ZM19.2316 29.1361L19.0288 28.915L19.0185 28.9244L19.0091 28.9348L19.2316 29.1361ZM19.2046 29.1659L18.9821 28.9646L18.7906 29.1762L18.9924 29.378L19.2046 29.1659ZM19.206 29.1673L19.4296 29.3673L19.6188 29.1558L19.4181 28.9552L19.206 29.1673ZM19.1463 29.3065L18.8501 29.3537L18.8503 29.3552L19.1463 29.3065ZM19.1762 29.6162L19.4761 29.6084L19.476 29.6078L19.1762 29.6162ZM18.7841 30.8349L19.0177 31.0232L19.0186 31.0221L18.7841 30.8349ZM17.8211 31.4159L17.8704 31.7118L17.8714 31.7117L17.8211 31.4159ZM17.6322 31.4344L17.6404 31.7343L17.6452 31.7341L17.6322 31.4344ZM11.1092 31.6134L11.101 31.3135L11.1004 31.3135L11.1092 31.6134ZM10.4218 31.5693L10.4711 31.2734L10.4684 31.273L10.4218 31.5693ZM9.75841 31.4017L9.85654 31.1182L9.85328 31.1171L9.75841 31.4017ZM9.74136 31.396L9.64392 31.6798L9.64649 31.6806L9.74136 31.396ZM8.19023 30.8634L8.09271 31.1471L8.0928 31.1471L8.19023 30.8634ZM7.9729 30.423L8.25661 30.5206L8.25661 30.5206L7.9729 30.423ZM8.41323 30.2057L8.3157 30.4894L8.31603 30.4895L8.41323 30.2057ZM9.96861 30.7384L9.87142 31.0222L9.88348 31.0263L9.89585 31.0294L9.96861 30.7384ZM9.98566 30.7426L10.0824 30.4587L10.0706 30.4546L10.0584 30.4516L9.98566 30.7426ZM10.5325 30.8833L10.5792 30.5869L10.578 30.5867L10.5325 30.8833ZM11.0922 30.9188L11.0987 31.2187L11.1005 31.2187L11.0922 30.9188ZM17.6151 30.7384L17.6234 31.0383L17.6301 31.038L17.6151 30.7384ZM17.7089 30.7284L17.7582 31.0243H17.7582L17.7089 30.7284ZM18.2444 30.3989L18.0106 30.2108L18.0105 30.211L18.2444 30.3989ZM18.4844 29.6361L18.7844 29.6279L18.7842 29.6233L18.4844 29.6361ZM18.4617 29.4202L18.1657 29.469L18.1667 29.4748L18.4617 29.4202ZM18.6933 28.6972L18.9054 28.485L18.6832 28.2628L18.4715 28.4951L18.6933 28.6972ZM18.6947 28.6986L18.4825 28.9107L18.6947 29.1228L18.9068 28.9107L18.6947 28.6986ZM18.6961 28.6972L18.9082 28.9093L18.9258 28.8917L18.9402 28.8715L18.6961 28.6972ZM18.7458 28.6403L18.5423 28.4199L18.5417 28.4205L18.7458 28.6403ZM18.7643 28.6233L18.5615 28.4022L18.5608 28.4029L18.7643 28.6233ZM19.2046 26.9131L19.4955 26.8398L19.4937 26.8326L19.4916 26.8256L19.2046 26.9131ZM19.3594 26.5139L19.513 26.7716L19.5144 26.7708L19.3594 26.5139ZM19.6251 25.842L19.9249 25.8522L19.9249 25.8514L19.6251 25.842ZM19.2984 24.092L19.5844 24.0013L19.5819 23.994L19.2984 24.092ZM19.3651 23.7468L19.1404 23.5481L19.1387 23.55L19.3651 23.7468ZM19.5938 23.1091L19.8914 23.1474L19.8914 23.1472L19.5938 23.1091ZM19.5313 22.4059L19.8127 22.3018L19.8125 22.3015L19.5313 22.4059ZM19.0938 21.9187L19.2273 21.6501L19.2259 21.6494L19.0938 21.9187ZM18.1606 21.7909L18.1836 22.09L18.1843 22.09L18.1606 21.7909ZM14.8069 22.0494L14.7838 21.7502L14.7746 21.7512L14.8069 22.0494ZM14.216 22.1133L14.1837 21.8151L14.1824 21.8152L14.216 22.1133ZM13.4517 22.0182L13.3195 22.2874L13.3218 22.2886L13.4517 22.0182ZM13.1066 21.6929L12.8404 21.8314L12.8412 21.8327L13.1066 21.6929ZM13.0427 21.2511L13.338 21.3036L13.3381 21.3034L13.0427 21.2511ZM13.2813 20.8094L13.4922 21.0227L13.4928 21.0221L13.2813 20.8094ZM14.108 19.3236L13.8284 19.2149L13.8282 19.2153L14.108 19.3236ZM14.5654 17.4614L14.2659 17.4437L14.2658 17.4444L14.5654 17.4614ZM13.9191 15.4131L14.1016 15.175L14.1015 15.175L13.9191 15.4131ZM13.6009 15.2668L13.5585 15.5638H13.5585L13.6009 15.2668ZM13.3907 15.3009L13.2391 15.042L13.2368 15.0434L13.3907 15.3009ZM13.206 15.8307L12.9062 15.8412L12.9065 15.8504L12.9074 15.8596L13.206 15.8307ZM13.1932 15.9628L13.4804 16.0494L13.4806 16.049L13.1932 15.9628ZM12.608 17.9031L12.8952 17.9898L12.8952 17.9898L12.608 17.9031ZM12.4659 18.0935L12.6311 18.3439L12.6312 18.3439L12.4659 18.0935ZM10.9219 19.112H10.6219V19.6692L11.0871 19.3624L10.9219 19.112ZM10.9219 19.1105H11.2219V18.3863L10.7098 18.8984L10.9219 19.1105ZM10.9205 19.112L11.0855 19.3625L11.111 19.3457L11.1326 19.3241L10.9205 19.112ZM10.2756 19.6134L10.4788 19.8341L10.4788 19.834L10.2756 19.6134ZM9.71881 20.2156L9.93711 20.4214L9.94555 20.4125L9.95322 20.4028L9.71881 20.2156ZM6.96597 23.1361L6.81469 23.3951L7.02067 23.5154L7.18428 23.3418L6.96597 23.1361ZM23.2217 26.0318L23.344 25.7579L23.3432 25.7575L23.2217 26.0318ZM20.8794 24.3329L21.102 24.1318L21.1013 24.131L20.8794 24.3329ZM20.9049 23.8414L21.1057 24.0644L21.1069 24.0633L20.9049 23.8414ZM21.3964 23.8684L21.1725 24.068L21.1738 24.0695L21.3964 23.8684ZM23.5044 25.3982L23.6261 25.124L23.6261 25.124L23.5044 25.3982ZM30.4718 24.1014L30.6838 24.3136L30.6838 24.3136L30.4718 24.1014ZM30.4718 15.249L30.2595 15.461L30.2598 15.4612L30.4718 15.249ZM29.3606 17.1729C29.3771 17.1525 29.407 17.1489 29.4279 17.1656L29.8026 16.697C29.5251 16.475 29.1176 16.5169 28.8926 16.7976L29.3606 17.1729ZM29.4265 17.1645C29.4482 17.1821 29.45 17.2122 29.4346 17.2312L29.901 17.6087C30.1271 17.3294 30.0806 16.922 29.804 16.6981L29.4265 17.1645ZM29.4339 17.2321L25.5703 22.043L26.0381 22.4187L29.9017 17.6078L29.4339 17.2321ZM25.5837 22.0274L25.5667 22.0458L26.0076 22.4528L26.0246 22.4343L25.5837 22.0274ZM25.5669 22.0456C25.4809 22.1385 25.3682 22.1874 25.2539 22.1925L25.2806 22.7919C25.5498 22.78 25.8121 22.6641 26.0073 22.4531L25.5669 22.0456ZM25.2537 22.1925C25.1406 22.1976 25.0239 22.1606 24.9273 22.0754L24.5305 22.5255C24.7464 22.7159 25.016 22.8039 25.2808 22.7919L25.2537 22.1925ZM24.941 22.0883L24.9367 22.0841L24.5125 22.5083L24.5167 22.5126L24.941 22.0883ZM24.7246 21.9962H24.7232V22.5962H24.7246V21.9962ZM24.9251 22.0744L22.6609 20.0133L22.257 20.457L24.5212 22.518L24.9251 22.0744ZM22.6609 20.0132C22.6419 19.9959 22.6399 19.9655 22.6581 19.9455L22.2144 19.5417C21.9741 19.8058 21.992 20.2158 22.2571 20.457L22.6609 20.0132ZM22.6581 19.9455C22.6754 19.9265 22.7058 19.9245 22.7258 19.9428L23.1296 19.499C22.8656 19.2587 22.4556 19.2766 22.2144 19.5417L22.6581 19.9455ZM22.7259 19.9428L24.9915 22.0039L25.3953 21.5601L23.1296 19.499L22.7259 19.9428ZM25.006 22.0162C25.0642 22.0628 25.1442 22.099 25.2374 22.099V21.499C25.3022 21.499 25.3509 21.5238 25.3808 21.5477L25.006 22.0162ZM25.2705 22.0972C25.351 22.0883 25.4147 22.054 25.4599 22.0188L25.0916 21.5452C25.1113 21.5299 25.1494 21.507 25.2043 21.5009L25.2705 22.0972ZM25.5097 21.9698L29.3635 17.1717L28.8957 16.7959L25.0419 21.5941L25.5097 21.9698ZM28.9967 16.7148L28.9937 16.7163L29.2595 17.2542L29.2624 17.2528L28.9967 16.7148ZM3.21024 22.2227H5.75144V21.6227H3.21024V22.2227ZM5.75144 22.2227C6.00192 22.2227 6.22922 22.3248 6.39444 22.49L6.81869 22.0657C6.54639 21.7934 6.16858 21.6227 5.75144 21.6227V22.2227ZM6.39443 22.49C6.39837 22.4939 6.39935 22.4949 6.39998 22.4956C6.40023 22.4958 6.39914 22.4947 6.39741 22.4926L6.85834 22.1085C6.8413 22.0881 6.82491 22.0719 6.8187 22.0657L6.39443 22.49ZM6.41083 22.5077C6.56756 22.6719 6.6631 22.8927 6.6631 23.1344H7.2631C7.2631 22.7311 7.10296 22.3639 6.84491 22.0935L6.41083 22.5077ZM6.6631 23.1344V30.1882H7.2631V23.1344H6.6631ZM6.6631 30.1882C6.6631 30.4371 6.5612 30.6644 6.39585 30.8298L6.82013 31.254C7.09228 30.9819 7.2631 30.6041 7.2631 30.1882H6.6631ZM6.39583 30.8298L6.39441 30.8312L6.81873 31.2554L6.82015 31.254L6.39583 30.8298ZM6.39441 31.2554L6.39583 31.2569L6.82015 30.8326L6.81873 30.8312L6.39441 31.2554ZM6.39586 30.8326C6.23079 30.9977 6.00212 31.0999 5.75286 31.0999V31.6999C6.1684 31.6999 6.54769 31.5293 6.82012 31.2569L6.39586 30.8326ZM5.75286 31.0999H3.21166V31.6999H5.75286V31.0999ZM3.21166 31.0999C2.96279 31.0999 2.73544 30.998 2.57008 30.8326L2.14583 31.2569C2.41799 31.529 2.79576 31.6999 3.21166 31.6999V31.0999ZM2.57009 30.8326L2.56867 30.8312L2.14439 31.2555L2.14581 31.2569L2.57009 30.8326ZM2.14439 30.8312L2.14297 30.8326L2.56725 31.2569L2.56867 31.2555L2.14439 30.8312ZM2.56724 30.8326C2.40218 30.6676 2.3 30.4389 2.3 30.1896H1.7C1.7 30.6052 1.87055 30.9844 2.14298 31.2569L2.56724 30.8326ZM2.3 30.1896V23.1358H1.7V30.1896H2.3ZM2.3 23.1358C2.3 22.8853 2.40204 22.658 2.56725 22.4928L2.14297 22.0686C1.87069 22.3409 1.7 22.7187 1.7 23.1358H2.3ZM2.56724 22.4928C2.57118 22.4889 2.57219 22.4879 2.57284 22.4873C2.5731 22.487 2.57197 22.4881 2.56989 22.4898L2.18579 22.0289C2.16534 22.0459 2.14919 22.0623 2.14298 22.0685L2.56724 22.4928ZM2.58495 22.4764C2.74919 22.3197 2.96999 22.2241 3.21166 22.2241V21.6241C2.80838 21.6241 2.44115 21.7843 2.17073 22.0423L2.58495 22.4764ZM3.4237 21.7119L3.42228 21.7105L2.9982 22.1349L2.99962 22.1364L3.4237 21.7119ZM5.75144 22.3202H3.21024V22.9202H5.75144V22.3202ZM3.21024 22.3202C2.99547 22.3202 2.80267 22.4042 2.65918 22.5344L3.06244 22.9787C3.1036 22.9413 3.15512 22.9202 3.21024 22.9202V22.3202ZM2.63782 22.5559L2.62503 22.5701L3.07101 22.9714L3.0838 22.9572L2.63782 22.5559ZM2.63589 22.5586C2.48792 22.7066 2.39746 22.9099 2.39746 23.1344H2.99746C2.99746 23.0747 3.02063 23.0224 3.06015 22.9829L2.63589 22.5586ZM2.39746 23.1344V30.1882H2.99746V23.1344H2.39746ZM2.39746 30.1882C2.39746 30.4126 2.49032 30.6162 2.63428 30.7623L3.06177 30.3413C3.02107 30.3 2.99746 30.245 2.99746 30.1882H2.39746ZM2.84802 30.2518H2.8466V30.8518H2.84802V30.2518ZM2.63447 30.764C2.78244 30.9119 2.9858 31.0024 3.21024 31.0024V30.4024C3.15059 30.4024 3.09826 30.3792 3.05873 30.3397L2.63447 30.764ZM3.21024 31.0024H5.75144V30.4024H3.21024V31.0024ZM5.75144 31.0024C5.97588 31.0024 6.1794 30.9095 6.32558 30.7656L5.90457 30.3381C5.86325 30.3788 5.80825 30.4024 5.75144 30.4024V31.0024ZM6.11507 30.8518H6.1165V30.2518H6.11507V30.8518ZM6.33024 30.7623C6.47388 30.6165 6.56706 30.4145 6.56706 30.1882H5.96706C5.96706 30.246 5.94377 30.2997 5.90275 30.3413L6.33024 30.7623ZM6.56706 30.1882V23.1344H5.96706V30.1882H6.56706ZM6.56706 23.1344C6.56706 22.9196 6.48309 22.7268 6.35284 22.5833L5.90856 22.9866C5.94592 23.0277 5.96706 23.0793 5.96706 23.1344H6.56706ZM6.34283 22.5728L6.32863 22.5586L5.90436 22.9829L5.91857 22.9971L6.34283 22.5728ZM6.32863 22.5586C6.18065 22.4106 5.9773 22.3202 5.75286 22.3202V22.9202C5.81251 22.9202 5.86484 22.9434 5.90436 22.9829L6.32863 22.5586ZM5.75286 22.3202H5.75144V22.9202H5.75286V22.3202ZM6.72798 22.9481C6.71143 22.9689 6.68219 22.9719 6.66209 22.9557L6.28675 23.4238C6.56782 23.6492 6.97615 23.601 7.19823 23.3207L6.72798 22.9481ZM6.66074 22.9547C6.63987 22.9381 6.63695 22.9089 6.65308 22.8888L6.18497 22.5135C5.95962 22.7945 6.00784 23.2028 6.2881 23.4249L6.66074 22.9547ZM6.63733 22.9069L9.39016 19.9865L8.95356 19.5749L6.20072 22.4954L6.63733 22.9069ZM9.40689 19.9672C9.60007 19.7236 9.79398 19.5125 10.0039 19.32L9.59836 18.8778C9.36225 19.0943 9.14707 19.3292 8.93683 19.5943L9.40689 19.9672ZM10.0046 19.3194C10.2115 19.1285 10.437 18.9537 10.7007 18.7797L10.3703 18.2789C10.0828 18.4685 9.83115 18.663 9.59771 18.8784L10.0046 19.3194ZM10.7476 18.3172L10.7462 18.3157L10.3219 18.74L10.3234 18.7414L10.7476 18.3172ZM10.6992 18.7783L12.1381 17.8294L11.8078 17.3285L10.3689 18.2774L10.6992 18.7783ZM12.2602 17.6656L12.7929 15.8985L12.2184 15.7254L11.6858 17.4924L12.2602 17.6656ZM12.8056 15.8073C12.7984 15.3411 12.9761 15.0779 13.1839 14.9551L12.8786 14.4386C12.4471 14.6936 12.1959 15.1833 12.2057 15.8166L12.8056 15.8073ZM13.1831 14.9556C13.3174 14.8768 13.4755 14.8454 13.6474 14.8702L13.7332 14.2764C13.4336 14.2331 13.1371 14.2869 12.8793 14.4382L13.1831 14.9556ZM13.6572 14.8715C13.676 14.8736 13.6955 14.8778 13.7389 14.8875L13.869 14.3018C13.8357 14.2943 13.7813 14.2816 13.7234 14.2751L13.6572 14.8715ZM14.1038 14.5874C14.0897 14.0023 14.0769 13.2068 14.0655 12.4439L13.4656 12.4528C13.477 13.2154 13.4898 14.0136 13.504 14.6019L14.1038 14.5874ZM14.0655 12.4434C14.0528 11.6621 14.0414 10.9124 14.0285 10.4513L13.4288 10.468C13.4415 10.9246 13.4528 11.6693 13.4656 12.4532L14.0655 12.4434ZM14.0286 10.4597V10.4568H13.4286V10.4597H14.0286ZM14.0285 10.4477C14.024 10.2983 14.0816 10.1591 14.1814 10.0547L13.7475 9.64021C13.5433 9.85396 13.4191 10.1466 13.4288 10.4659L14.0285 10.4477ZM14.1824 10.0535C14.2803 9.95001 14.4184 9.87968 14.5757 9.86825L14.5322 9.26983C14.2207 9.29248 13.944 9.43238 13.7465 9.64134L14.1824 10.0535ZM14.578 9.86807C16.8035 9.68934 18.9058 9.15215 20.8216 8.48592L20.6245 7.91921C18.7417 8.57399 16.6907 9.09646 14.5299 9.27L14.578 9.86807ZM20.8216 8.4859C22.744 7.81694 24.4907 7.01277 25.9822 6.30455L25.7249 5.76254C24.2368 6.46909 22.5145 7.2615 20.6244 7.91923L20.8216 8.4859ZM25.9842 6.30359C25.9859 6.30277 25.9908 6.30088 25.9999 6.30088V5.70088C25.9039 5.70088 25.8093 5.72171 25.7229 5.7635L25.9842 6.30359ZM25.9999 6.30088H26.0269V5.70088H25.9999V6.30088ZM26.0493 6.30004C26.0516 6.29987 26.0604 6.30012 26.073 6.30594L26.3245 5.76116C26.2263 5.71583 26.1158 5.69336 26.0044 5.70172L26.0493 6.30004ZM26.0702 6.30461C27.8896 7.16732 29.7303 7.97995 31.6247 8.61622L31.8157 8.04745C29.9545 7.42234 28.1386 6.62137 26.3273 5.76248L26.0702 6.30461ZM31.6249 8.61629C33.5116 9.24855 35.4624 9.70954 37.5163 9.87099L37.5633 9.27283C35.5693 9.11609 33.6674 8.66799 31.8155 8.04738L31.6249 8.61629ZM37.5161 9.87097C37.676 9.88364 37.8138 9.95339 37.9085 10.0535L38.3445 9.64142C38.1465 9.43191 37.8696 9.29711 37.5635 9.27285L37.5161 9.87097ZM37.9096 10.0547C38.0102 10.16 38.0679 10.2978 38.0652 10.4471L38.6651 10.4581C38.6709 10.1414 38.5468 9.85311 38.3434 9.64024L37.9096 10.0547ZM38.0652 10.4472C38.0552 11.0035 38.0481 11.5611 38.041 12.1207L38.641 12.1283C38.6481 11.5685 38.6552 11.0124 38.6651 10.458L38.0652 10.4472ZM38.041 12.1207C37.9911 16.0907 37.9345 20.1214 37.0165 22.8852L37.5859 23.0743C38.54 20.2018 38.5915 16.0616 38.641 12.1283L38.041 12.1207ZM37.0165 22.8853C36.2188 25.2895 34.8191 27.4421 32.98 29.1838L33.3926 29.6194C35.3004 27.8127 36.7558 25.5763 37.5859 23.0742L37.0165 22.8853ZM32.9799 29.1838C31.1419 30.9256 28.8661 32.2584 26.3214 33.0234L26.4941 33.598C29.1282 32.8061 31.4863 31.4259 33.3926 29.6193L32.9799 29.1838ZM26.3215 33.0233C26.2644 33.0405 26.2053 33.0495 26.1403 33.0505L26.1496 33.6504C26.2664 33.6486 26.3806 33.632 26.4939 33.598L26.3215 33.0233ZM26.145 33.0505C26.0814 33.0505 26.0241 33.0425 25.9698 33.0262L25.7974 33.6009C25.9135 33.6357 26.0295 33.6505 26.145 33.6505V33.0505ZM25.9662 33.0251C24.9188 32.7253 23.9015 32.3192 22.934 31.8222L22.6599 32.3559C23.6611 32.8703 24.7148 33.291 25.801 33.6019L25.9662 33.0251ZM22.934 31.8222C21.9586 31.3213 21.0345 30.7253 20.1773 30.0495L19.8058 30.5207C20.6929 31.22 21.6495 31.837 22.6599 32.3559L22.934 31.8222ZM20.1779 30.05C20.1567 30.0332 20.1539 30.0044 20.1699 29.9843L19.6996 29.6116C19.477 29.8925 19.5253 30.2984 19.8052 30.5202L20.1779 30.05ZM20.1699 29.9842C20.1867 29.963 20.2154 29.9602 20.2356 29.9762L20.6083 29.506C20.3274 29.2833 19.9214 29.3317 19.6996 29.6116L20.1699 29.9842ZM20.236 29.9765C21.0837 30.6463 22.0035 31.2378 22.9781 31.7381L23.2521 31.2043C22.3119 30.7217 21.4249 30.1512 20.6079 29.5057L20.236 29.9765ZM22.9777 31.7379C23.9354 32.2312 24.9466 32.6334 25.9912 32.9329L26.1566 32.3561C25.15 32.0676 24.1755 31.6799 23.2525 31.2045L22.9777 31.7379ZM25.9836 32.9306C26.038 32.9478 26.0898 32.9559 26.1421 32.9559V32.3559C26.147 32.3559 26.1524 32.3563 26.1577 32.3571C26.1627 32.3579 26.1651 32.3587 26.1642 32.3584L25.9836 32.9306ZM26.1421 32.9559C26.2023 32.9559 26.2553 32.9426 26.2877 32.9336L26.1271 32.3555C26.1196 32.3576 26.1175 32.3579 26.1189 32.3576C26.1202 32.3574 26.1287 32.3559 26.1421 32.3559V32.9559ZM26.2937 32.9319C28.8227 32.1727 31.0854 30.8493 32.9124 29.1164L32.4995 28.681C30.7411 30.3489 28.5609 31.6249 26.1212 32.3572L26.2937 32.9319ZM32.9123 29.1165C34.7391 27.3852 36.1335 25.2456 36.9253 22.8567L36.3557 22.668C35.5966 24.9584 34.2581 27.0144 32.4996 28.681L32.9123 29.1165ZM36.9252 22.857C37.8468 20.0865 37.8953 16.001 37.9447 12.1214L37.3448 12.1138C37.2948 16.032 37.2411 20.0064 36.3559 22.6677L36.9252 22.857ZM37.9447 12.1214C37.9518 11.5573 37.9589 10.9956 37.9689 10.4483L37.369 10.4374C37.359 10.9867 37.3519 11.5501 37.3448 12.1138L37.9447 12.1214ZM37.9689 10.4429C37.9689 10.3155 37.9165 10.2023 37.8342 10.1199L37.4099 10.5442C37.3873 10.5216 37.3689 10.485 37.3689 10.4429H37.9689ZM37.8385 10.1243C37.7477 10.0298 37.6279 9.98131 37.5113 9.96966L37.4516 10.5667C37.4486 10.5664 37.4282 10.5634 37.4056 10.5398L37.8385 10.1243ZM37.5049 9.96909C35.4538 9.80808 33.4968 9.34719 31.5925 8.70819L31.4016 9.27702C33.3409 9.92776 35.347 10.4015 37.4579 10.5672L37.5049 9.96909ZM31.5923 8.70813C29.7381 8.08721 27.9407 7.29752 26.1521 6.45286L25.8959 6.9954C27.6926 7.8439 29.5146 8.64512 31.4018 9.27708L31.5923 8.70813ZM25.8957 6.45295C24.4205 7.15082 22.7235 7.92639 20.8501 8.57859L21.0473 9.14524C22.9523 8.48209 24.6729 7.69518 26.1523 6.99532L25.8957 6.45295ZM20.8501 8.57859C18.9164 9.25178 16.8059 9.78847 14.5826 9.96629L14.6304 10.5644C16.9184 10.3814 19.0804 9.83001 21.0473 9.14523L20.8501 8.57859ZM14.5841 9.96617C14.4566 9.97574 14.3368 10.0305 14.2495 10.1215L14.6823 10.537C14.6631 10.557 14.6428 10.5634 14.6289 10.5645L14.5841 9.96617ZM14.2439 10.1274C14.1781 10.1998 14.1159 10.3109 14.1206 10.4515L14.7203 10.4315C14.7221 10.4868 14.6968 10.5212 14.6879 10.5311L14.2439 10.1274ZM14.1204 10.4415V10.4443H14.7204V10.4415H14.1204ZM14.1205 10.4528C14.1333 10.9021 14.1446 11.6537 14.1574 12.4449L14.7573 12.4352C14.7446 11.6468 14.7332 10.8899 14.7203 10.4358L14.1205 10.4528ZM14.1574 12.445C14.173 13.391 14.1887 14.3926 14.2072 14.992L14.8069 14.9734C14.7885 14.3796 14.773 13.384 14.7573 12.4351L14.1574 12.445ZM14.2071 14.9827V15.0097H14.8071V14.9827H14.2071ZM14.2953 15.2221C14.6807 15.6064 15.0218 16.3452 14.9534 17.4817L15.5523 17.5178C15.6287 16.2481 15.251 15.3277 14.7189 14.7972L14.2953 15.2221ZM14.9533 17.482C14.9189 18.0638 14.7293 18.7932 14.469 19.4619L15.0281 19.6796C15.3019 18.9761 15.5129 18.1828 15.5523 17.5175L14.9533 17.482ZM14.469 19.4619C14.1861 20.1887 13.8366 20.8041 13.5525 21.0869L13.9759 21.512C14.3509 21.1386 14.7371 20.4272 15.0281 19.6796L14.469 19.4619ZM13.5464 21.0931C13.5138 21.1276 13.439 21.211 13.4228 21.3323L14.0175 21.4115C14.0116 21.4562 13.9952 21.4853 13.9889 21.4954C13.9821 21.5065 13.9779 21.5101 13.982 21.5058L13.5464 21.0931ZM13.508 21.1598C13.535 21.1327 13.5708 21.1075 13.6153 21.091C13.6599 21.0744 13.7032 21.0704 13.7405 21.0731C13.807 21.0778 13.8559 21.1054 13.8525 21.1037C13.8525 21.1037 13.8525 21.1037 13.8525 21.1037C13.8525 21.1037 13.8525 21.1037 13.8525 21.1037C13.8525 21.1037 13.8524 21.1037 13.8524 21.1036C13.8523 21.1036 13.8521 21.1035 13.8518 21.1034C13.8514 21.1032 13.8506 21.1028 13.8496 21.1023C13.8478 21.1014 13.8436 21.0994 13.8382 21.097C13.8332 21.0948 13.8231 21.0906 13.81 21.0864C13.7984 21.0826 13.773 21.0751 13.7396 21.0727C13.7076 21.0705 13.6422 21.071 13.5723 21.1098C13.4931 21.1539 13.4493 21.2239 13.4306 21.2864C13.4147 21.34 13.4178 21.3846 13.4199 21.4046C13.4224 21.4274 13.427 21.4451 13.4297 21.4545C13.435 21.473 13.4409 21.4868 13.4426 21.4906C13.4449 21.4961 13.447 21.5004 13.4478 21.5021C13.4487 21.504 13.4495 21.5056 13.4498 21.5062C13.4501 21.5068 13.4504 21.5074 13.4504 21.5075L13.9871 21.2391C13.9864 21.2377 13.9876 21.2402 13.9889 21.2429C13.9896 21.2444 13.9916 21.2485 13.9939 21.2539C13.9955 21.2575 14.0014 21.2713 14.0066 21.2897C14.0093 21.299 14.0139 21.3167 14.0164 21.3394C14.0186 21.3594 14.0216 21.404 14.0057 21.4577C13.9871 21.5201 13.9432 21.5901 13.864 21.6341C13.7942 21.673 13.7288 21.6735 13.6968 21.6712C13.6635 21.6688 13.638 21.6613 13.6265 21.6576C13.6134 21.6534 13.6033 21.6492 13.5984 21.647C13.5896 21.6432 13.5818 21.6392 13.5842 21.6404C13.5842 21.6404 13.5842 21.6404 13.5842 21.6404C13.5843 21.6404 13.5843 21.6404 13.5843 21.6404C13.5843 21.6404 13.5844 21.6405 13.5844 21.6405C13.5845 21.6405 13.5847 21.6406 13.5849 21.6407C13.5852 21.6409 13.5858 21.6412 13.5866 21.6415C13.588 21.6422 13.5901 21.6433 13.5927 21.6445C13.5979 21.6469 13.6054 21.6502 13.6147 21.6536C13.6329 21.6603 13.6616 21.669 13.6978 21.6715C13.7354 21.6742 13.779 21.6702 13.824 21.6535C13.8689 21.6369 13.9049 21.6114 13.9323 21.584L13.508 21.1598ZM13.4504 21.5075C13.4707 21.5481 13.4956 21.5745 13.5062 21.5853C13.519 21.5983 13.5305 21.6076 13.5372 21.6128C13.5504 21.6231 13.5622 21.6306 13.5673 21.6337C13.5776 21.6402 13.5904 21.6476 13.596 21.6509L13.8983 21.1326C13.8869 21.126 13.8862 21.1255 13.8869 21.126C13.8872 21.1262 13.8952 21.1311 13.9056 21.1392C13.9109 21.1433 13.9212 21.1516 13.9331 21.1637C13.9429 21.1736 13.9671 21.1992 13.9871 21.2392L13.4504 21.5075ZM13.615 21.6611C13.769 21.7367 13.9649 21.7429 14.1676 21.7197L14.0994 21.1235C14.0204 21.1326 13.9634 21.133 13.9245 21.1296C13.8844 21.1262 13.8735 21.1196 13.8793 21.1224L13.615 21.6611ZM14.1603 21.7204C14.268 21.7107 14.3748 21.6982 14.4762 21.6864C14.579 21.6745 14.6767 21.6633 14.7735 21.6552L14.7237 21.0573C14.6159 21.0663 14.5091 21.0785 14.407 21.0904C14.3034 21.1024 14.205 21.114 14.1067 21.1228L14.1603 21.7204ZM15.0486 21.3563V21.3548H14.4486V21.3563H15.0486ZM14.7716 21.654L18.1267 21.3954L18.0807 20.7972L14.7255 21.0557L14.7716 21.654ZM18.1264 21.3955C18.6296 21.3574 18.9965 21.434 19.2617 21.5654L19.5281 21.0278C19.1455 20.8382 18.6659 20.7529 18.0811 20.7972L18.1264 21.3955ZM19.2626 21.5659C19.5903 21.7268 19.7851 21.977 19.8953 22.2701L20.4569 22.0589C20.3001 21.6418 20.0091 21.2641 19.5272 21.0273L19.2626 21.5659ZM19.8952 22.2697C19.999 22.5468 20.0175 22.8619 19.9794 23.159L20.5746 23.2353C20.6217 22.8677 20.6033 22.4498 20.4571 22.0593L19.8952 22.2697ZM19.9795 23.1582C19.9416 23.448 19.8482 23.7092 19.7437 23.8845L20.2591 24.1917C20.4103 23.9379 20.5272 23.5969 20.5744 23.2361L19.9795 23.1582ZM19.7142 24.1246C19.9235 24.8196 20.0282 25.4042 20.0141 25.8525L20.6138 25.8714C20.6309 25.3281 20.5055 24.6713 20.2887 23.9515L19.7142 24.1246ZM20.0141 25.8528C20.0012 26.2754 19.8898 26.558 19.7087 26.7361L20.1294 27.1639C20.4596 26.8391 20.5982 26.3831 20.6138 25.871L20.0141 25.8528ZM19.6247 27.0079C19.7427 27.6079 19.657 28.0134 19.5236 28.2949C19.3874 28.5826 19.1901 28.7669 19.0288 28.915L19.4344 29.3571C19.5997 29.2055 19.8755 28.9538 20.0659 28.5518C20.2592 28.1436 20.3539 27.606 20.2134 26.8921L19.6247 27.0079ZM19.0091 28.9348L18.9821 28.9646L19.427 29.3672L19.454 29.3373L19.0091 28.9348ZM18.9924 29.378L18.9939 29.3794L19.4181 28.9552L19.4167 28.9538L18.9924 29.378ZM18.9824 28.9673C18.9731 28.9776 18.9331 29.0205 18.9012 29.0777C18.8675 29.1383 18.8312 29.2351 18.8501 29.3537L19.4426 29.2594C19.4515 29.3154 19.433 29.3561 19.4255 29.3695C19.4199 29.3795 19.4147 29.384 19.4296 29.3673L18.9824 28.9673ZM18.8503 29.3552C18.8652 29.4457 18.8738 29.536 18.8763 29.6245L19.476 29.6078C19.4728 29.4918 19.4616 29.3747 19.4424 29.2578L18.8503 29.3552ZM18.8763 29.6239C18.8872 30.046 18.7529 30.3932 18.5497 30.6478L19.0186 31.0221C19.3097 30.6573 19.4907 30.1722 19.4761 29.6084L18.8763 29.6239ZM18.5506 30.6466C18.3398 30.908 18.0542 31.072 17.7708 31.1202L17.8714 31.7117C18.3066 31.6377 18.7199 31.3925 19.0177 31.0232L18.5506 30.6466ZM17.7718 31.12C17.7274 31.1274 17.6762 31.1322 17.6191 31.1347L17.6452 31.7341C17.7188 31.7309 17.7954 31.7243 17.8704 31.7118L17.7718 31.12ZM17.6239 31.1345L11.101 31.3135L11.1175 31.9132L17.6404 31.7343L17.6239 31.1345ZM11.1004 31.3135C10.8767 31.3201 10.6719 31.3069 10.4711 31.2734L10.3724 31.8652C10.6148 31.9056 10.8588 31.9208 11.1181 31.9132L11.1004 31.3135ZM10.4684 31.273C10.2615 31.2404 10.0629 31.1896 9.85654 31.1182L9.66028 31.6852C9.89716 31.7672 10.1303 31.8272 10.3752 31.8657L10.4684 31.273ZM9.85328 31.1171L9.83623 31.1114L9.64649 31.6806L9.66354 31.6863L9.85328 31.1171ZM9.8388 31.1123L8.28767 30.5796L8.0928 31.1471L9.64393 31.6798L9.8388 31.1123ZM8.28776 30.5797C8.25952 30.57 8.24904 30.5426 8.25661 30.5206L7.6892 30.3255C7.57177 30.6671 7.75731 31.0318 8.09271 31.1471L8.28776 30.5797ZM8.25661 30.5206C8.26631 30.4923 8.29367 30.4818 8.3157 30.4894L8.51076 29.922C8.16919 29.8046 7.80449 29.9901 7.6892 30.3255L8.25661 30.5206ZM8.31603 30.4895L9.87142 31.0222L10.0658 30.4545L8.51043 29.9219L8.31603 30.4895ZM9.89585 31.0294L9.9129 31.0337L10.0584 30.4516L10.0414 30.4473L9.89585 31.0294ZM9.8889 31.0266C10.0914 31.0956 10.2883 31.1493 10.4871 31.1798L10.578 30.5867C10.4245 30.5632 10.2634 30.5203 10.0824 30.4587L9.8889 31.0266ZM10.4859 31.1796C10.6855 31.211 10.8866 31.2233 11.0987 31.2187L11.0857 30.6188C10.9057 30.6228 10.7404 30.6123 10.5792 30.5869L10.4859 31.1796ZM11.1005 31.2187L17.6234 31.0383L17.6068 30.4385L11.0839 30.6189L11.1005 31.2187ZM17.6301 31.038C17.6676 31.0361 17.7106 31.0323 17.7582 31.0243L17.6595 30.4325C17.6389 30.4359 17.6194 30.4378 17.6001 30.4387L17.6301 31.038ZM17.7582 31.0243C18.0346 30.9783 18.2924 30.8182 18.4783 30.5868L18.0105 30.211C17.9066 30.3404 17.7751 30.4132 17.6595 30.4325L17.7582 31.0243ZM18.4781 30.5869C18.6768 30.34 18.7947 30.0084 18.7843 29.6279L18.1846 29.6443C18.1912 29.8888 18.116 30.0799 18.0106 30.2108L18.4781 30.5869ZM18.7842 29.6233C18.781 29.549 18.7744 29.4612 18.7567 29.3655L18.1667 29.4748C18.1774 29.5325 18.1822 29.5897 18.1847 29.6488L18.7842 29.6233ZM18.7577 29.3714C18.735 29.2338 18.7582 29.1412 18.7877 29.0763C18.8198 29.0058 18.865 28.9541 18.915 28.8992L18.4715 28.4951C18.3548 28.6232 18.0769 28.9301 18.1657 29.469L18.7577 29.3714ZM18.4811 28.9093L18.4825 28.9107L18.9068 28.4864L18.9054 28.485L18.4811 28.9093ZM18.9068 28.9107L18.9082 28.9093L18.484 28.485L18.4825 28.4864L18.9068 28.9107ZM18.9402 28.8715C18.9425 28.8683 18.9442 28.8662 18.9454 28.8649C18.9466 28.8635 18.948 28.862 18.9499 28.8602L18.5417 28.4205C18.5051 28.4545 18.4764 28.4886 18.452 28.5228L18.9402 28.8715ZM18.9493 28.8608L18.9678 28.8437L18.5608 28.4029L18.5423 28.4199L18.9493 28.8608ZM18.9671 28.8444C19.0897 28.7319 19.3101 28.532 19.4508 28.2001C19.5938 27.8629 19.6423 27.4223 19.4955 26.8398L18.9137 26.9864C19.034 27.4635 18.9824 27.7679 18.8984 27.9659C18.8122 28.1691 18.6789 28.2945 18.5615 28.4022L18.9671 28.8444ZM19.4916 26.8256C19.4854 26.8055 19.4936 26.7832 19.513 26.7716L19.2058 26.2562C18.944 26.4123 18.8329 26.7223 18.9176 27.0005L19.4916 26.8256ZM19.5144 26.7708C19.8271 26.5821 19.913 26.2035 19.9249 25.8522L19.3252 25.8319C19.3144 26.151 19.2355 26.2383 19.2045 26.257L19.5144 26.7708ZM19.9249 25.8514C19.9407 25.3471 19.8092 24.7105 19.5843 24.0013L19.0124 24.1827C19.2307 24.8713 19.3378 25.4307 19.3252 25.8326L19.9249 25.8514ZM19.5819 23.994C19.5758 23.9764 19.5794 23.9576 19.5915 23.9437L19.1387 23.55C18.9804 23.7321 18.9413 23.9775 19.0148 24.19L19.5819 23.994ZM19.5898 23.9456C19.7457 23.7694 19.8512 23.4594 19.8914 23.1474L19.2963 23.0708C19.2804 23.1937 19.2528 23.3035 19.2208 23.3906C19.1871 23.4822 19.155 23.5316 19.1404 23.5481L19.5898 23.9456ZM19.8914 23.1472C19.9253 22.8821 19.9152 22.579 19.8127 22.3018L19.25 22.5101C19.3093 22.6704 19.322 22.8701 19.2962 23.071L19.8914 23.1472ZM19.8125 22.3015C19.7149 22.0386 19.5283 21.7997 19.2273 21.6501L18.9603 22.1874C19.111 22.2623 19.2 22.3756 19.2501 22.5104L19.8125 22.3015ZM19.2259 21.6494C18.9456 21.512 18.5836 21.4564 18.1369 21.4918L18.1843 22.09C18.5615 22.06 18.8073 22.1124 18.9618 22.1881L19.2259 21.6494ZM18.1375 21.4918L14.7838 21.7503L14.8299 22.3485L18.1836 22.09L18.1375 21.4918ZM14.7746 21.7512L14.1837 21.8151L14.2482 22.4116L14.8391 22.3477L14.7746 21.7512ZM14.1824 21.8152C13.8964 21.8474 13.7028 21.806 13.5817 21.7478L13.3218 22.2886C13.5672 22.4065 13.8793 22.4531 14.2495 22.4115L14.1824 21.8152ZM13.584 21.7489C13.476 21.6958 13.4105 21.6261 13.372 21.553L12.8412 21.8327C12.9419 22.0239 13.1036 22.1814 13.3195 22.2874L13.584 21.7489ZM13.3727 21.5544C13.3334 21.479 13.3216 21.3963 13.338 21.3036L12.7473 21.1987C12.7098 21.4099 12.7348 21.6284 12.8405 21.8314L13.3727 21.5544ZM13.3381 21.3034C13.3549 21.2083 13.4053 21.1086 13.4922 21.0227L13.0704 20.5961C12.9016 20.763 12.7872 20.9729 12.7472 21.1989L13.3381 21.3034ZM13.4928 21.0221C13.803 20.7136 14.1324 20.0917 14.3878 19.4319L13.8282 19.2153C13.5778 19.8623 13.2851 20.3825 13.0697 20.5967L13.4928 21.0221ZM14.3876 19.4323C14.6366 18.7915 14.8312 18.0728 14.8649 17.4784L14.2658 17.4444C14.2371 17.9523 14.0651 18.6057 13.8284 19.2149L14.3876 19.4323ZM14.8648 17.4791C14.9322 16.3389 14.5923 15.5512 14.1016 15.175L13.7365 15.6512C14.0129 15.8631 14.3264 16.4191 14.2659 17.4437L14.8648 17.4791ZM14.1015 15.175C13.9614 15.0676 13.805 14.9929 13.6433 14.9698L13.5585 15.5638C13.5956 15.5691 13.6579 15.591 13.7366 15.6512L14.1015 15.175ZM13.6433 14.9698C13.5118 14.951 13.3678 14.9667 13.2391 15.042L13.5422 15.5598C13.5367 15.563 13.5336 15.5633 13.5354 15.563C13.5375 15.5627 13.545 15.5619 13.5585 15.5638L13.6433 14.9698ZM13.2368 15.0434C12.9769 15.1986 12.895 15.5198 12.9062 15.8412L13.5058 15.8203C13.5018 15.7048 13.5165 15.6312 13.532 15.5897C13.5472 15.5491 13.5583 15.5502 13.5446 15.5584L13.2368 15.0434ZM12.9074 15.8596C12.908 15.8656 12.9073 15.872 12.9059 15.8766L13.4806 16.049C13.5047 15.9684 13.5126 15.8839 13.5046 15.8018L12.9074 15.8596ZM12.906 15.8762L12.3208 17.8165L12.8952 17.9898L13.4804 16.0494L12.906 15.8762ZM12.3208 17.8164C12.3176 17.8269 12.3112 17.8362 12.3007 17.8431L12.6312 18.3439C12.7627 18.257 12.8529 18.1299 12.8952 17.9898L12.3208 17.8164ZM12.3008 17.8431L10.7567 18.8615L11.0871 19.3624L12.6311 18.3439L12.3008 17.8431ZM11.2219 19.112V19.1105H10.6219V19.112H11.2219ZM10.7098 18.8984L10.7084 18.8998L11.1326 19.3241L11.134 19.3227L10.7098 18.8984ZM10.7555 18.8614C10.5056 19.026 10.2824 19.1992 10.0724 19.3927L10.4788 19.834C10.6636 19.6639 10.8609 19.5104 11.0855 19.3625L10.7555 18.8614ZM10.0725 19.3926C9.86381 19.5846 9.67308 19.7922 9.4844 20.0284L9.95322 20.4028C10.1253 20.1874 10.2954 20.0029 10.4788 19.8341L10.0725 19.3926ZM9.50051 20.0098L6.74767 22.9303L7.18428 23.3418L9.93711 20.4214L9.50051 20.0098ZM7.11726 22.877L7.11439 22.8753L6.81181 23.3934L6.81469 23.3951L7.11726 22.877ZM19.4855 19.6755C19.4855 19.7016 19.4636 19.7235 19.4375 19.7235V20.3235C19.795 20.3235 20.0856 20.0329 20.0856 19.6755H19.4855ZM19.4375 19.7235C19.4092 19.7235 19.3881 19.7008 19.3881 19.6755H18.7881C18.7881 20.0337 19.0795 20.3235 19.4375 20.3235V19.7235ZM19.3881 19.6755C19.3881 15.9991 22.3688 13.0195 26.0456 13.0195V12.4195C22.0375 12.4195 18.7881 15.6675 18.7881 19.6755H19.3881ZM26.0456 13.0195C27.8833 13.0195 29.5478 13.764 30.7523 14.9686L31.1766 14.5443C29.864 13.2318 28.0487 12.4195 26.0456 12.4195V13.0195ZM30.7523 14.9686C31.9569 16.1731 32.7014 17.8363 32.7014 19.6753H33.3014C33.3014 17.6709 32.4891 15.8568 31.1766 14.5443L30.7523 14.9686ZM32.7014 19.6753C32.7014 21.5144 31.9569 23.1776 30.7523 24.3821L31.1766 24.8064C32.4891 23.4939 33.3014 21.6798 33.3014 19.6753H32.7014ZM30.7523 24.3821C29.5478 25.5867 27.8832 26.3312 26.0456 26.3312V26.9312C28.0486 26.9312 29.864 26.1189 31.1766 24.8064L30.7523 24.3821ZM26.0456 26.3312C25.0842 26.3312 24.1713 26.1273 23.344 25.7579L23.0994 26.3057C24.0022 26.7089 24.9984 26.9312 26.0456 26.9312V26.3312ZM23.3432 25.7575C22.4847 25.3771 21.7235 24.82 21.102 24.1318L20.6567 24.534C21.3336 25.2834 22.1632 25.891 23.1002 26.3061L23.3432 25.7575ZM21.1013 24.131C21.0854 24.1136 21.0856 24.0825 21.1056 24.0644L20.7042 23.6184C20.4402 23.8561 20.4148 24.2681 20.6575 24.5348L21.1013 24.131ZM21.1069 24.0633C21.124 24.0477 21.1544 24.0477 21.1725 24.068L21.6204 23.6688C21.3828 23.4022 20.97 23.3766 20.703 23.6195L21.1069 24.0633ZM21.1738 24.0695C21.7852 24.7463 22.5367 25.2971 23.3827 25.6725L23.6261 25.124C22.8584 24.7835 22.1753 24.2831 21.6191 23.6673L21.1738 24.0695ZM23.3827 25.6724C24.1945 26.0329 25.0953 26.2338 26.0456 26.2338V25.6338C25.1806 25.6338 24.3626 25.4511 23.6261 25.124L23.3827 25.6724ZM26.0456 26.2338C27.8571 26.2338 29.4963 25.4995 30.6838 24.3136L30.2598 23.8891C29.1801 24.9674 27.6915 25.6338 26.0456 25.6338V26.2338ZM30.6838 24.3136C31.8715 23.1274 32.6056 21.4851 32.6056 19.6752H32.0056C32.0056 21.3198 31.3391 22.8111 30.2598 23.8891L30.6838 24.3136ZM32.6056 19.6752C32.6056 17.8638 31.8715 16.2229 30.6838 15.0367L30.2598 15.4612C31.3392 16.5393 32.0056 18.0292 32.0056 19.6752H32.6056ZM30.684 15.037C29.4979 13.8493 27.857 13.1152 26.0456 13.1152V13.7152C27.6916 13.7152 29.1815 14.3816 30.2595 15.461L30.684 15.037ZM26.0456 13.1152C22.4225 13.1152 19.4855 16.0524 19.4855 19.6755H20.0856C20.0856 16.3837 22.7539 13.7152 26.0456 13.7152V13.1152Z" fill="white" mask="url(#path-1-outside-1_1375_278)"/>
</svg>
