<svg width="40" height="40" viewBox="0 0 40 40" fill="none" xmlns="http://www.w3.org/2000/svg">
<path d="M19.4559 30.1998C13.9719 30.1998 11.4199 27.5318 11.4199 21.7998C11.4199 16.0678 16.0839 13.2998 20.1959 10.8398C22.0279 9.74379 23.7599 8.71179 24.8919 7.52379L26.7999 5.52379C26.8449 5.47616 26.9009 5.44032 26.963 5.41939C27.025 5.39847 27.0913 5.39311 27.1559 5.40379C27.2197 5.41442 27.2799 5.44036 27.3315 5.47937C27.383 5.51838 27.4244 5.56931 27.4519 5.62779C27.5319 5.79979 29.3999 9.79979 29.3999 17.7998C29.3287 20.8021 28.3234 23.7075 26.5239 26.1118C24.5519 28.7478 22.0399 30.1998 19.4559 30.1998ZM26.9519 6.52379L25.4719 8.07579C24.2719 9.34379 22.4879 10.4038 20.6079 11.5278C16.6759 13.8758 12.2079 16.5398 12.2079 21.7998C12.2079 27.1278 14.3719 29.3998 19.4439 29.3998C24.5159 29.3998 28.5999 23.0558 28.5999 17.7998C28.5999 11.6518 27.4479 7.86779 26.9519 6.52379Z" fill="white"/>
<path d="M11 34.2002C10.9291 34.2001 10.8596 34.1811 10.7984 34.1453C10.7373 34.1094 10.6867 34.058 10.652 33.9962C10.5999 33.9043 10.5862 33.7956 10.6139 33.6937C10.6416 33.5918 10.7085 33.505 10.8 33.4522C10.832 33.4522 14.172 31.4922 14.4 27.7722C14.976 19.3202 23.328 16.3082 23.412 16.2802C23.4617 16.2629 23.5142 16.2555 23.5667 16.2585C23.6192 16.2614 23.6706 16.2747 23.718 16.2976C23.7653 16.3204 23.8077 16.3524 23.8427 16.3916C23.8777 16.4308 23.9047 16.4766 23.922 16.5262C23.9393 16.5758 23.9467 16.6284 23.9438 16.6809C23.9408 16.7334 23.9275 16.7848 23.9046 16.8321C23.8818 16.8795 23.8498 16.9219 23.8106 16.9569C23.7714 16.9919 23.7257 17.0189 23.676 17.0362C23.6 17.0642 15.74 19.9082 15.216 27.8362C14.944 31.9922 11.348 34.0682 11.216 34.1562C11.1496 34.1908 11.0747 34.2061 11 34.2002Z" fill="white"/>
</svg>
