<svg width="40" height="40" viewBox="0 0 40 40" fill="none" xmlns="http://www.w3.org/2000/svg">
<path fill-rule="evenodd" clip-rule="evenodd" d="M7.53957 16.9818C7.65286 17.7014 8.01934 18.3568 8.57301 18.8301C9.12668 19.3035 9.83116 19.5635 10.5596 19.5635C11.288 19.5635 11.9925 19.3035 12.5461 18.8301C13.0998 18.3568 13.4663 17.7014 13.5796 16.9818H7.53957ZM21.334 5.6434C21.6736 5.64348 22.0056 5.74428 22.288 5.93306C22.5703 6.12183 22.7904 6.39009 22.9202 6.70392C23.0501 7.01775 23.084 7.36305 23.0177 7.69615C22.9513 8.02925 22.7876 8.33519 22.5474 8.57527C22.3071 8.81536 22.0011 8.9788 21.6679 9.04494C21.3348 9.11107 20.9895 9.07693 20.6758 8.94682C20.362 8.81672 20.0939 8.59649 19.9054 8.31401C19.7168 8.03152 19.6162 7.69945 19.6164 7.3598C19.6171 6.90453 19.7983 6.46813 20.1203 6.14624C20.4423 5.82435 20.8787 5.64324 21.334 5.6426V5.6434ZM21.8708 6.8238C21.7645 6.7174 21.6291 6.64491 21.4817 6.61549C21.3342 6.58607 21.1813 6.60106 21.0424 6.65855C20.9035 6.71604 20.7847 6.81345 20.7011 6.93845C20.6176 7.06346 20.573 7.21044 20.573 7.3608C20.573 7.51117 20.6176 7.65815 20.7011 7.78316C20.7847 7.90816 20.9035 8.00557 21.0424 8.06306C21.1813 8.12055 21.3342 8.13554 21.4817 8.10612C21.6291 8.0767 21.7645 8.00421 21.8708 7.89781C22.0131 7.75531 22.093 7.56217 22.093 7.3608C22.093 7.15944 22.0131 6.9663 21.8708 6.8238ZM29.0896 16.9838C29.2029 17.7034 29.5693 18.3588 30.123 18.8321C30.6767 19.3055 31.3812 19.5655 32.1096 19.5655C32.838 19.5655 33.5425 19.3055 34.0961 18.8321C34.6498 18.3588 35.0163 17.7034 35.1296 16.9838H29.0896ZM29.27 19.3438C28.8964 18.9714 28.6001 18.5287 28.3983 18.0413C28.1964 17.5539 28.093 17.0313 28.094 16.5038C28.0937 16.4182 28.1167 16.3342 28.1604 16.2606L31.3896 9.7598C30.9615 9.63102 30.5758 9.39001 30.2724 9.06181H24.4C24.0806 9.63635 23.6069 10.1101 23.0324 10.4294V25.115C24.6824 25.2958 27.4384 25.5726 28.1568 26.8314L35.0112 24.3826C36.586 23.8202 38.2016 25.7026 37.2804 27.2302C36.9886 27.679 36.5746 28.035 36.0872 28.2562L23.0568 34.7686C23.0138 34.7944 22.9671 34.8134 22.9184 34.825C20.0964 35.4922 17.98 35.2538 15.3548 34.9582C14.2136 34.8294 12.9744 34.6898 11.5496 34.6118L11.872 35.9122C11.9017 36.0353 11.8816 36.1651 11.8161 36.2735C11.7505 36.3818 11.6448 36.4599 11.522 36.4906L6.29877 37.7842C6.17575 37.8138 6.046 37.7937 5.93775 37.7281C5.82951 37.6626 5.75152 37.557 5.72077 37.4342L2.46357 24.2798C2.44857 24.2189 2.44571 24.1556 2.45516 24.0936C2.46461 24.0316 2.48618 23.9721 2.51864 23.9184C2.55111 23.8647 2.59383 23.818 2.64436 23.7808C2.6949 23.7436 2.75226 23.7168 2.81317 23.7018L8.03637 22.4082C8.09731 22.3932 8.16061 22.3903 8.22267 22.3997C8.28472 22.4092 8.3443 22.4308 8.39799 22.4633C8.45168 22.4958 8.49843 22.5386 8.53556 22.5892C8.57269 22.6398 8.59947 22.6972 8.61437 22.7582L8.87957 23.8278C9.96116 22.8008 11.2897 22.0706 12.7364 21.7078C13.3162 21.5499 13.9223 21.5128 14.5171 21.5988C15.1119 21.6848 15.6826 21.8921 16.194 22.2078C17.3796 22.9046 18.4276 23.779 19.634 24.3782V10.4282C19.0594 10.1089 18.5857 9.63515 18.2664 9.0606H12.3952C12.0926 9.38916 11.7075 9.63061 11.28 9.7598L14.5096 16.2606C14.5528 16.3343 14.5756 16.4183 14.5756 16.5038C14.5756 17.5686 14.1526 18.5898 13.3997 19.3427C12.6467 20.0956 11.6256 20.5186 10.5608 20.5186C9.49598 20.5186 8.4748 20.0956 7.72188 19.3427C6.96896 18.5898 6.54597 17.5686 6.54597 16.5038C6.54592 16.4183 6.56886 16.3343 6.61237 16.2606L9.83997 9.7598C9.47143 9.64918 9.13336 9.45507 8.85203 9.19256C8.5707 8.93004 8.35369 8.6062 8.21786 8.24619C8.08202 7.88617 8.03103 7.49969 8.06884 7.11677C8.10664 6.73384 8.23223 6.36479 8.43584 6.0383C8.63945 5.7118 8.9156 5.43664 9.24284 5.23421C9.57007 5.03178 9.93957 4.90753 10.3226 4.87111C10.7057 4.83469 11.092 4.88708 11.4515 5.02421C11.811 5.16135 12.1341 5.37953 12.3956 5.6618H18.2664C18.5857 5.08726 19.0594 4.61354 19.634 4.2942V2.2798C19.634 2.1525 19.6845 2.03041 19.7746 1.94039C19.8646 1.85038 19.9867 1.7998 20.114 1.7998H22.554C22.6813 1.7998 22.8034 1.85038 22.8934 1.94039C22.9834 2.03041 23.034 2.1525 23.034 2.2798V4.2926C23.608 4.61239 24.0812 5.08638 24.4 5.661H30.2724C30.5339 5.37868 30.8571 5.16046 31.2166 5.02331C31.5762 4.88616 31.9626 4.83378 32.3457 4.87023C32.7289 4.90667 33.0984 5.03097 33.4257 5.23347C33.753 5.43596 34.0292 5.71119 34.2328 6.03777C34.4364 6.36436 34.562 6.73349 34.5998 7.11649C34.6376 7.4995 34.5865 7.88605 34.4506 8.24612C34.3147 8.60618 34.0976 8.93007 33.8162 9.19259C33.5348 9.45512 33.1966 9.64922 32.828 9.7598L36.0572 16.2602C36.1008 16.3338 36.1238 16.4178 36.1236 16.5034C36.1238 17.2975 35.8885 18.0739 35.4474 18.7343C35.0063 19.3946 34.3793 19.9094 33.6457 20.2134C32.9121 20.5174 32.1047 20.597 31.3259 20.4421C30.547 20.2873 29.8315 19.9053 29.27 19.3438ZM29.3444 16.0238H34.8732L32.1088 10.459L29.3444 16.0234V16.0238ZM13.3232 16.0238L10.56 10.459L7.79597 16.0234L13.3232 16.0238ZM22.0756 3.933V2.7598H20.592V3.933C21.081 3.8282 21.5866 3.8282 22.0756 3.933ZM24.76 6.619C24.8648 7.10799 24.8648 7.61362 24.76 8.1026H30.4944C30.9016 8.1026 30.8484 8.4594 31.422 8.7446C31.6576 8.86141 31.9192 8.91616 32.1819 8.90366C32.4446 8.89116 32.6998 8.81183 32.9232 8.67317C33.1467 8.53451 33.3311 8.34112 33.459 8.11129C33.5869 7.88147 33.654 7.62281 33.654 7.3598C33.654 7.0968 33.5869 6.83814 33.459 6.60832C33.3311 6.37849 33.1467 6.1851 32.9232 6.04644C32.6998 5.90778 32.4446 5.82845 32.1819 5.81595C31.9192 5.80345 31.6576 5.8582 31.422 5.975C30.8456 6.2618 30.902 6.6182 30.4944 6.6182L24.76 6.619ZM22.0756 10.7886C21.5866 10.8934 21.081 10.8934 20.592 10.7886V24.7758C21.0805 24.888 21.5762 24.9663 22.0756 25.0102V10.7886ZM17.906 8.1026C17.8012 7.61362 17.8012 7.10799 17.906 6.619H12.1736C11.766 6.619 11.8196 6.2622 11.246 5.9766C11.0103 5.8598 10.7488 5.80505 10.4861 5.81755C10.2234 5.83005 9.96818 5.90938 9.74469 6.04804C9.5212 6.1867 9.33679 6.38009 9.20892 6.60992C9.08104 6.83974 9.01393 7.0984 9.01393 7.3614C9.01393 7.62441 9.08104 7.88307 9.20892 8.11289C9.33679 8.34272 9.5212 8.53611 9.74469 8.67477C9.96818 8.81342 10.2234 8.89276 10.4861 8.90526C10.7488 8.91776 11.0103 8.86301 11.246 8.7462C11.822 8.4598 11.766 8.10341 12.1736 8.10341L17.906 8.1026ZM23.136 5.5598C22.7796 5.20335 22.3255 4.96059 21.8312 4.86221C21.3368 4.76384 20.8244 4.81427 20.3587 5.00714C19.893 5.2 19.495 5.52664 19.2149 5.94573C18.9349 6.36483 18.7854 6.85756 18.7854 7.3616C18.7854 7.86565 18.9349 8.35838 19.2149 8.77748C19.495 9.19657 19.893 9.5232 20.3587 9.71607C20.8244 9.90894 21.3368 9.95937 21.8312 9.861C22.3255 9.76262 22.7796 9.51986 23.136 9.1634C23.6138 8.6855 23.8822 8.03739 23.8822 7.3616C23.8822 6.68582 23.6138 6.03771 23.136 5.5598ZM22.536 26.023C22.5146 26.0222 22.4934 26.0199 22.4724 26.0162C21.6944 25.9645 20.923 25.8398 20.1684 25.6438C18.3916 25.019 17.2204 23.9206 15.7128 23.0342C15.3102 22.7831 14.86 22.618 14.3906 22.5492C13.9211 22.4803 13.4425 22.5093 12.9848 22.6342C11.508 22.9986 10.1735 23.7952 9.15197 24.9222L11.312 33.6422C12.9012 33.7182 14.2376 33.8686 15.4616 34.0066C17.9816 34.2906 20.0136 34.5194 22.6544 33.9034L35.662 27.403C35.9857 27.2599 36.2629 27.0289 36.462 26.7362C36.5508 26.5645 36.5886 26.3711 36.571 26.1786C36.5533 25.9861 36.481 25.8027 36.3624 25.6501C36.2439 25.4974 36.0841 25.3819 35.902 25.3171C35.7199 25.2524 35.5231 25.2411 35.3348 25.2846L28.2844 27.8046C28.2232 28.0494 28.1252 28.2834 27.9936 28.4986C27.4012 29.5058 26.4296 29.2654 25.488 29.2794C24.8293 29.289 24.2149 29.2997 23.6448 29.3114C20.0688 29.3798 18.2608 29.4142 15.6328 28.7442C15.5176 28.706 15.4212 28.6255 15.363 28.519C15.3047 28.4126 15.289 28.288 15.3189 28.1704C15.3488 28.0528 15.4221 27.9508 15.5242 27.8851C15.6262 27.8194 15.7493 27.7948 15.8688 27.8162C18.3832 28.4562 20.1452 28.4238 23.6288 28.357C24.1924 28.3466 24.8008 28.335 25.476 28.325C26.098 28.3158 26.9048 28.4658 27.1696 28.0158C27.2382 27.9318 27.2863 27.8329 27.31 27.727C27.3336 27.621 27.3322 27.5111 27.3058 27.4058C27.2795 27.3005 27.2288 27.2029 27.158 27.1207C27.0872 27.0385 26.9982 26.9739 26.898 26.9322C25.978 26.3918 24.0916 26.1918 22.534 26.0234L22.536 26.023ZM10.4676 34.2186L7.79997 23.4522L3.50637 24.5158L6.53357 36.741L10.8288 35.6774L10.4676 34.2186Z" fill="white"/>
</svg>
