<svg width="40" height="40" viewBox="0 0 40 40" fill="none" xmlns="http://www.w3.org/2000/svg">
<mask id="path-1-outside-1_1375_281" maskUnits="userSpaceOnUse" x="2.63672" y="2.63623" width="35" height="35" fill="black">
<rect fill="white" x="2.63672" y="2.63623" width="35" height="35"/>
<path d="M33.2049 21.4258V18.7681C33.2049 18.2553 32.837 17.8192 32.3355 17.7283L30.8157 17.4513C30.6622 17.4229 30.5543 17.3235 30.5145 17.1744C30.2816 16.3491 29.9506 15.5493 29.5287 14.7994C29.452 14.6644 29.4591 14.5153 29.5472 14.3889L30.4279 13.1204C30.7191 12.6985 30.668 12.1317 30.3086 11.7681L28.4279 9.88741C28.0643 9.52377 27.4975 9.47265 27.0756 9.76809L25.8071 10.6488C25.6793 10.7354 25.5301 10.744 25.3966 10.6672C24.648 10.2454 23.8469 9.91441 23.0216 9.68147C22.8725 9.6417 22.7745 9.52806 22.7446 9.38033L22.4677 7.86044C22.3767 7.35477 21.9364 6.99113 21.4279 6.99113H18.7702C18.2574 6.99113 17.8213 7.35902 17.7304 7.86044L17.4534 9.38033C17.425 9.53374 17.3256 9.6417 17.1764 9.68147C16.3512 9.91442 15.5514 10.2454 14.8015 10.6672C14.6665 10.744 14.5174 10.7369 14.3909 10.6488L13.1225 9.76809C12.7006 9.4769 12.1338 9.52803 11.7702 9.88741L9.88949 11.7681C9.52586 12.1317 9.47473 12.6985 9.77018 13.1204L10.6509 14.3889C10.7375 14.5167 10.746 14.6659 10.6693 14.7994C10.2474 15.548 9.9165 16.3491 9.68355 17.1744C9.64378 17.3235 9.53014 17.4215 9.38242 17.4513L7.86253 17.7283C7.35685 17.8192 6.99322 18.2596 6.99322 18.7681V21.4258C6.99322 21.9386 7.36111 22.3747 7.86253 22.4656L9.38242 22.7426C9.53583 22.771 9.64378 22.8704 9.68355 23.0195C9.9165 23.8448 10.2475 24.6446 10.6693 25.3945C10.746 25.5295 10.7389 25.6786 10.6509 25.805L9.77018 27.0735C9.47899 27.4954 9.53012 28.0622 9.88949 28.4258L11.7702 30.3065C12.1338 30.6701 12.7006 30.7213 13.1225 30.4258L14.3909 29.5451C14.5188 29.4585 14.6679 29.45 14.8015 29.5267C15.55 29.9485 16.3512 30.2795 17.1764 30.5124C17.3256 30.5522 17.4236 30.6658 17.4534 30.8136L17.7304 32.3335C17.8213 32.8391 18.2617 33.2028 18.7702 33.2028H21.4279C21.9407 33.2028 22.3767 32.8349 22.4677 32.3335L22.7446 30.8136C22.7731 30.6602 22.8725 30.5522 23.0216 30.5124C23.8469 30.2795 24.6466 29.9485 25.3966 29.5267C25.5316 29.45 25.6807 29.4571 25.8071 29.5451L27.0756 30.4258C27.4975 30.717 28.0643 30.6659 28.4279 30.3065L30.3086 28.4258C30.6722 28.0622 30.7233 27.4954 30.4279 27.0735L29.5472 25.805C29.4606 25.6772 29.452 25.5281 29.5287 25.3945C29.9506 24.646 30.2816 23.8448 30.5145 23.0195C30.5543 22.8704 30.6679 22.7724 30.8157 22.7426L32.3355 22.4656C32.8384 22.3789 33.2049 21.9386 33.2049 21.4258ZM32.533 21.4258C32.533 21.6147 32.4023 21.771 32.2162 21.8079L30.6963 22.0849C30.2886 22.1573 29.9761 22.4414 29.8668 22.8406C29.648 23.6147 29.3398 24.3647 28.9435 25.0664C28.7404 25.4258 28.7574 25.8477 28.9946 26.19L29.8753 27.4585C29.9847 27.6147 29.9662 27.8178 29.8313 27.9528L27.9506 29.8335C27.8156 29.9684 27.6125 29.9869 27.4563 29.8775L26.1878 28.9968C25.8454 28.761 25.4279 28.7425 25.0642 28.9457C24.3625 29.342 23.6139 29.6516 22.8384 29.869C22.4378 29.9812 22.1551 30.2909 22.0827 30.6985L21.8057 32.2184C21.773 32.4045 21.6168 32.5352 21.4236 32.5352H18.7659C18.577 32.5352 18.4207 32.4045 18.3838 32.2184L18.1068 30.6985C18.0344 30.2908 17.7503 29.9783 17.3511 29.869C16.577 29.6502 15.827 29.342 15.1253 28.9457C14.9577 28.8505 14.7801 28.8079 14.6054 28.8079C14.398 28.8079 14.1906 28.8732 14.006 29.0011L12.7375 29.8818C12.5813 29.9911 12.3781 29.9727 12.2432 29.8377L10.3625 27.957C10.2276 27.8221 10.2091 27.619 10.3185 27.4627L11.1992 26.1942C11.4349 25.8519 11.4534 25.4343 11.2503 25.0707C10.854 24.369 10.5443 23.6204 10.327 22.8448C10.2148 22.4442 9.90509 22.1616 9.49745 22.0891L7.97756 21.8122C7.79148 21.7795 7.6608 21.6232 7.6608 21.43V18.7724C7.6608 18.5835 7.79148 18.4272 7.97756 18.3903L9.49745 18.1133C9.90512 18.0408 10.2176 17.7567 10.327 17.3576C10.5457 16.5835 10.854 15.8335 11.2503 15.1318C11.4534 14.7724 11.4364 14.3505 11.1992 14.0082L10.3185 12.7397C10.2091 12.5835 10.2276 12.3803 10.3625 12.2454L12.2432 10.3647C12.3781 10.2298 12.5813 10.2113 12.7375 10.3207L14.006 11.2014C14.3483 11.4372 14.7659 11.4556 15.1295 11.2525C15.8313 10.8562 16.5798 10.5465 17.3554 10.3292C17.756 10.217 18.0386 9.90729 18.1111 9.49965L18.3881 7.97976C18.4207 7.79368 18.577 7.663 18.7702 7.663H21.4278C21.6168 7.663 21.773 7.79369 21.81 7.97976L22.0869 9.49965C22.1594 9.90732 22.4435 10.2198 22.8426 10.3292C23.6168 10.5479 24.3668 10.8562 25.0685 11.2525C25.4278 11.4556 25.8497 11.4386 26.192 11.2014L27.4605 10.3207C27.6168 10.2113 27.8199 10.2298 27.9548 10.3647L29.8355 12.2454C29.9705 12.3803 29.9889 12.5835 29.8796 12.7397L28.9989 14.0082C28.7631 14.3505 28.7446 14.7681 28.9477 15.1318C29.344 15.8335 29.6537 16.582 29.871 17.3576C29.9833 17.7582 30.2929 18.0408 30.7006 18.1133L32.2205 18.3903C32.4065 18.4229 32.5372 18.5792 32.5372 18.7724L32.5358 21.4258L32.533 21.4258ZM20.0999 13.6956C16.5686 13.6956 13.6966 16.5678 13.6966 20.0989C13.6966 23.63 16.5687 26.5022 20.0999 26.5022C23.631 26.5022 26.5031 23.63 26.5031 20.0989C26.5031 16.5678 23.631 13.6956 20.0999 13.6956ZM20.0999 25.8305C16.9394 25.8305 14.3682 23.2595 14.3682 20.0989C14.3682 16.9383 16.9393 14.3672 20.0999 14.3672C23.2605 14.3672 25.8315 16.9383 25.8315 20.0989C25.8315 23.2595 23.2605 25.8305 20.0999 25.8305ZM8.45914 8.93561C8.32846 8.80492 8.32846 8.59043 8.45914 8.45975C8.94634 7.97255 9.47049 7.51088 10.0159 7.08477C10.1608 6.97255 10.3725 6.99812 10.489 7.14301C10.6012 7.2879 10.5756 7.49954 10.4307 7.61603C9.90658 8.0237 9.40516 8.46261 8.9364 8.93279C8.87105 8.99813 8.78298 9.0308 8.7006 9.0308C8.61253 9.03364 8.5259 9.00095 8.45914 8.93561ZM5.84125 11.866C6.18642 11.2694 6.57562 10.6884 6.99467 10.1387C7.10689 9.98958 7.31853 9.96402 7.46344 10.0734C7.61258 10.1856 7.63815 10.3973 7.52878 10.5422C7.1282 11.0691 6.75463 11.626 6.42365 12.1998C6.36115 12.3092 6.24893 12.3674 6.13246 12.3674C6.07422 12.3674 6.01598 12.3532 5.96484 12.3234C5.80149 12.2339 5.7475 12.0265 5.84125 11.866ZM4.1978 15.8376C4.37536 15.1686 4.59838 14.5067 4.85973 13.8703C4.92933 13.6998 5.12535 13.616 5.2958 13.6842C5.46625 13.7538 5.55006 13.9498 5.48188 14.1203C5.23046 14.7353 5.01599 15.3717 4.84552 16.0123C4.80574 16.1615 4.6708 16.2637 4.52165 16.2637C4.49324 16.2637 4.46341 16.2595 4.43501 16.2524C4.25603 16.2012 4.14666 16.0152 4.1978 15.8376ZM3.97195 20.4344C3.78587 20.4344 3.63672 20.2852 3.63672 20.0991C3.63672 19.4088 3.68075 18.7142 3.7674 18.0267C3.78871 17.8406 3.96058 17.7142 4.14238 17.7355C4.32846 17.7568 4.45488 17.9287 4.43358 18.1105C4.35403 18.7682 4.31 19.4372 4.31 20.0991C4.31 20.2852 4.15803 20.4344 3.97195 20.4344ZM36.0018 24.3606C35.8242 25.0296 35.6012 25.6915 35.3398 26.3279C35.2859 26.4586 35.1623 26.5353 35.0273 26.5353C34.9833 26.5353 34.9435 26.5282 34.8995 26.5097C34.729 26.4401 34.6452 26.2441 34.7134 26.0736C34.9648 25.4628 35.1793 24.8265 35.3498 24.1859C35.3967 24.0083 35.5827 23.8989 35.7603 23.9501C35.9435 23.9969 36.0529 24.183 36.0018 24.3606ZM19.7647 3.97146C19.7647 3.78538 19.9138 3.63623 20.0999 3.63623C26.4264 3.64333 32.1625 7.25838 34.9068 12.9046L35.5034 11.1304C35.5616 10.9557 35.7548 10.862 35.9295 10.9202C36.1043 10.9785 36.198 11.1716 36.1398 11.3464L35.2818 13.8918C35.2534 13.9756 35.1909 14.0452 35.1142 14.085C35.0673 14.1063 35.0162 14.1219 34.965 14.1219C34.9281 14.1219 34.8926 14.1148 34.8599 14.1035L32.3145 13.2455C32.1398 13.1873 32.046 12.9941 32.1042 12.8194C32.1625 12.6446 32.3557 12.5509 32.5304 12.6091L34.3088 13.2086C31.6738 7.78673 26.1724 4.31364 20.1001 4.30928C19.914 4.30928 19.7647 4.15754 19.7647 3.97146ZM36.0716 16.0922C36.2165 16.6774 36.333 17.2783 36.4139 17.8734C36.4395 18.0595 36.3088 18.2257 36.127 18.2513C36.1128 18.2555 36.0986 18.2555 36.0801 18.2555C35.9125 18.2555 35.7705 18.132 35.7491 17.9643C35.6724 17.3905 35.5602 16.8152 35.4224 16.2555C35.3784 16.078 35.4878 15.8919 35.6668 15.8479C35.8415 15.801 36.0233 15.9104 36.0716 16.0922ZM15.6014 4.60491C15.5545 4.42736 15.6596 4.24128 15.8372 4.19441C16.502 4.01685 17.1895 3.87765 17.8741 3.78673C18.056 3.76116 18.2264 3.89185 18.252 4.07366C18.2776 4.25974 18.1469 4.42594 17.9651 4.45152C17.3074 4.53817 16.6526 4.67311 16.0119 4.84355C15.9835 4.85066 15.9537 4.85492 15.9253 4.85492C15.7761 4.85492 15.6412 4.7569 15.6014 4.60491ZM11.7476 6.29953C11.6524 6.13902 11.7107 5.93164 11.8712 5.84073C12.4677 5.49556 13.097 5.18306 13.7291 4.91742C13.8996 4.84498 14.097 4.92453 14.1695 5.09498C14.2419 5.26543 14.1624 5.46287 13.9919 5.53531C13.3811 5.79383 12.7817 6.09211 12.2064 6.42309C12.1524 6.4515 12.097 6.46712 12.0388 6.46712C11.9223 6.46996 11.8087 6.40891 11.7476 6.29953ZM31.7403 31.2624C31.871 31.3931 31.871 31.6076 31.7403 31.7383C31.2531 32.2255 30.729 32.6872 30.1835 33.1133C30.121 33.1602 30.0486 33.1829 29.9761 33.1829C29.8739 33.1829 29.7758 33.1388 29.7105 33.0522C29.5983 32.9073 29.6239 32.6957 29.7687 32.5792C30.2929 32.1715 30.7943 31.7283 31.2631 31.2624C31.3938 31.1317 31.6082 31.1318 31.7403 31.2624ZM36.5614 20.0992C36.5614 20.7895 36.5174 21.4841 36.4307 22.1716C36.4094 22.3421 36.2631 22.4656 36.0955 22.4656C36.0813 22.4656 36.0671 22.4656 36.0515 22.4614C35.8654 22.4401 35.739 22.2682 35.7603 22.0864C35.8441 21.4287 35.8838 20.7597 35.8881 20.0977C35.8881 19.9117 36.0373 19.7625 36.2233 19.7625C36.4123 19.7639 36.5614 19.9131 36.5614 20.0992ZM34.3583 28.3323C34.0131 28.9288 33.6267 29.5098 33.2049 30.0595C33.1395 30.1462 33.0372 30.1902 32.9364 30.1902C32.8639 30.1902 32.7943 30.1689 32.7333 30.1206C32.5841 30.0084 32.5585 29.7967 32.6679 29.6518C33.0713 29.1249 33.4421 28.5652 33.7731 27.9942C33.8682 27.8337 34.0713 27.7797 34.2319 27.8706C34.398 27.9643 34.452 28.1718 34.3583 28.3323ZM20.435 36.2272C20.435 36.4132 20.2859 36.5624 20.0998 36.5624C13.7732 36.5553 8.03723 32.9403 5.29286 27.294L4.69628 29.0682C4.63804 29.2429 4.44486 29.3366 4.27014 29.2784C4.09542 29.2202 4.00167 29.027 4.05991 28.8523L4.91788 26.3068C4.97612 26.1321 5.1693 26.0383 5.34402 26.0966L7.88947 26.9545C8.06419 27.0128 8.15794 27.206 8.0997 27.3807C8.04146 27.5554 7.84828 27.6492 7.67356 27.5909L5.89516 26.9915C8.52585 32.4119 14.0272 35.885 20.0995 35.8893C20.2856 35.8893 20.435 36.0411 20.435 36.2272ZM24.5983 35.5936C24.6452 35.7712 24.54 35.9573 24.3625 36.0042C23.6935 36.1817 23.0102 36.3209 22.3255 36.4118C22.3113 36.4161 22.2971 36.4161 22.2815 36.4161C22.1139 36.4161 21.9718 36.2925 21.9505 36.1249C21.925 35.9388 22.0556 35.7726 22.2375 35.747C22.8923 35.6604 23.55 35.5254 24.1906 35.355C24.3653 35.3067 24.55 35.4118 24.5983 35.5936ZM28.4521 33.899C28.5473 34.0595 28.489 34.2669 28.3285 34.3578C27.7319 34.703 27.1027 35.0155 26.4706 35.2811C26.4265 35.2996 26.3839 35.3067 26.3399 35.3067C26.2092 35.3067 26.0856 35.23 26.0302 35.0993C25.9578 34.9289 26.0373 34.7314 26.2078 34.659C26.8186 34.4005 27.418 34.1022 27.9933 33.7712C28.1538 33.6817 28.3612 33.7357 28.4521 33.899ZM4.12809 24.1063C3.98321 23.5211 3.86673 22.9202 3.78576 22.3251C3.76019 22.139 3.89088 21.9728 4.07269 21.9472C4.25877 21.9216 4.42497 22.0523 4.45055 22.2341C4.52725 22.808 4.63947 23.3833 4.77725 23.9429C4.82129 24.1205 4.71191 24.3066 4.53293 24.3506C4.50452 24.3577 4.47896 24.362 4.44913 24.362C4.30282 24.3606 4.16929 24.2597 4.12809 24.1063ZM23.4194 17.7681C23.5472 17.9031 23.5429 18.1133 23.408 18.244L19.0087 22.4414C18.9434 22.5039 18.8596 22.5366 18.7758 22.5366C18.6891 22.5366 18.6053 22.5039 18.54 22.4386L16.4306 20.3519C16.2999 20.2212 16.2957 20.0096 16.4263 19.8761C16.557 19.7454 16.7687 19.7411 16.9022 19.8718L18.7786 21.7298L22.9419 17.7581C23.0811 17.6303 23.2929 17.6332 23.4194 17.7681Z"/>
</mask>
<path d="M33.2049 21.4258V18.7681C33.2049 18.2553 32.837 17.8192 32.3355 17.7283L30.8157 17.4513C30.6622 17.4229 30.5543 17.3235 30.5145 17.1744C30.2816 16.3491 29.9506 15.5493 29.5287 14.7994C29.452 14.6644 29.4591 14.5153 29.5472 14.3889L30.4279 13.1204C30.7191 12.6985 30.668 12.1317 30.3086 11.7681L28.4279 9.88741C28.0643 9.52377 27.4975 9.47265 27.0756 9.76809L25.8071 10.6488C25.6793 10.7354 25.5301 10.744 25.3966 10.6672C24.648 10.2454 23.8469 9.91441 23.0216 9.68147C22.8725 9.6417 22.7745 9.52806 22.7446 9.38033L22.4677 7.86044C22.3767 7.35477 21.9364 6.99113 21.4279 6.99113H18.7702C18.2574 6.99113 17.8213 7.35902 17.7304 7.86044L17.4534 9.38033C17.425 9.53374 17.3256 9.6417 17.1764 9.68147C16.3512 9.91442 15.5514 10.2454 14.8015 10.6672C14.6665 10.744 14.5174 10.7369 14.3909 10.6488L13.1225 9.76809C12.7006 9.4769 12.1338 9.52803 11.7702 9.88741L9.88949 11.7681C9.52586 12.1317 9.47473 12.6985 9.77018 13.1204L10.6509 14.3889C10.7375 14.5167 10.746 14.6659 10.6693 14.7994C10.2474 15.548 9.9165 16.3491 9.68355 17.1744C9.64378 17.3235 9.53014 17.4215 9.38242 17.4513L7.86253 17.7283C7.35685 17.8192 6.99322 18.2596 6.99322 18.7681V21.4258C6.99322 21.9386 7.36111 22.3747 7.86253 22.4656L9.38242 22.7426C9.53583 22.771 9.64378 22.8704 9.68355 23.0195C9.9165 23.8448 10.2475 24.6446 10.6693 25.3945C10.746 25.5295 10.7389 25.6786 10.6509 25.805L9.77018 27.0735C9.47899 27.4954 9.53012 28.0622 9.88949 28.4258L11.7702 30.3065C12.1338 30.6701 12.7006 30.7213 13.1225 30.4258L14.3909 29.5451C14.5188 29.4585 14.6679 29.45 14.8015 29.5267C15.55 29.9485 16.3512 30.2795 17.1764 30.5124C17.3256 30.5522 17.4236 30.6658 17.4534 30.8136L17.7304 32.3335C17.8213 32.8391 18.2617 33.2028 18.7702 33.2028H21.4279C21.9407 33.2028 22.3767 32.8349 22.4677 32.3335L22.7446 30.8136C22.7731 30.6602 22.8725 30.5522 23.0216 30.5124C23.8469 30.2795 24.6466 29.9485 25.3966 29.5267C25.5316 29.45 25.6807 29.4571 25.8071 29.5451L27.0756 30.4258C27.4975 30.717 28.0643 30.6659 28.4279 30.3065L30.3086 28.4258C30.6722 28.0622 30.7233 27.4954 30.4279 27.0735L29.5472 25.805C29.4606 25.6772 29.452 25.5281 29.5287 25.3945C29.9506 24.646 30.2816 23.8448 30.5145 23.0195C30.5543 22.8704 30.6679 22.7724 30.8157 22.7426L32.3355 22.4656C32.8384 22.3789 33.2049 21.9386 33.2049 21.4258ZM32.533 21.4258C32.533 21.6147 32.4023 21.771 32.2162 21.8079L30.6963 22.0849C30.2886 22.1573 29.9761 22.4414 29.8668 22.8406C29.648 23.6147 29.3398 24.3647 28.9435 25.0664C28.7404 25.4258 28.7574 25.8477 28.9946 26.19L29.8753 27.4585C29.9847 27.6147 29.9662 27.8178 29.8313 27.9528L27.9506 29.8335C27.8156 29.9684 27.6125 29.9869 27.4563 29.8775L26.1878 28.9968C25.8454 28.761 25.4279 28.7425 25.0642 28.9457C24.3625 29.342 23.6139 29.6516 22.8384 29.869C22.4378 29.9812 22.1551 30.2909 22.0827 30.6985L21.8057 32.2184C21.773 32.4045 21.6168 32.5352 21.4236 32.5352H18.7659C18.577 32.5352 18.4207 32.4045 18.3838 32.2184L18.1068 30.6985C18.0344 30.2908 17.7503 29.9783 17.3511 29.869C16.577 29.6502 15.827 29.342 15.1253 28.9457C14.9577 28.8505 14.7801 28.8079 14.6054 28.8079C14.398 28.8079 14.1906 28.8732 14.006 29.0011L12.7375 29.8818C12.5813 29.9911 12.3781 29.9727 12.2432 29.8377L10.3625 27.957C10.2276 27.8221 10.2091 27.619 10.3185 27.4627L11.1992 26.1942C11.4349 25.8519 11.4534 25.4343 11.2503 25.0707C10.854 24.369 10.5443 23.6204 10.327 22.8448C10.2148 22.4442 9.90509 22.1616 9.49745 22.0891L7.97756 21.8122C7.79148 21.7795 7.6608 21.6232 7.6608 21.43V18.7724C7.6608 18.5835 7.79148 18.4272 7.97756 18.3903L9.49745 18.1133C9.90512 18.0408 10.2176 17.7567 10.327 17.3576C10.5457 16.5835 10.854 15.8335 11.2503 15.1318C11.4534 14.7724 11.4364 14.3505 11.1992 14.0082L10.3185 12.7397C10.2091 12.5835 10.2276 12.3803 10.3625 12.2454L12.2432 10.3647C12.3781 10.2298 12.5813 10.2113 12.7375 10.3207L14.006 11.2014C14.3483 11.4372 14.7659 11.4556 15.1295 11.2525C15.8313 10.8562 16.5798 10.5465 17.3554 10.3292C17.756 10.217 18.0386 9.90729 18.1111 9.49965L18.3881 7.97976C18.4207 7.79368 18.577 7.663 18.7702 7.663H21.4278C21.6168 7.663 21.773 7.79369 21.81 7.97976L22.0869 9.49965C22.1594 9.90732 22.4435 10.2198 22.8426 10.3292C23.6168 10.5479 24.3668 10.8562 25.0685 11.2525C25.4278 11.4556 25.8497 11.4386 26.192 11.2014L27.4605 10.3207C27.6168 10.2113 27.8199 10.2298 27.9548 10.3647L29.8355 12.2454C29.9705 12.3803 29.9889 12.5835 29.8796 12.7397L28.9989 14.0082C28.7631 14.3505 28.7446 14.7681 28.9477 15.1318C29.344 15.8335 29.6537 16.582 29.871 17.3576C29.9833 17.7582 30.2929 18.0408 30.7006 18.1133L32.2205 18.3903C32.4065 18.4229 32.5372 18.5792 32.5372 18.7724L32.5358 21.4258L32.533 21.4258ZM20.0999 13.6956C16.5686 13.6956 13.6966 16.5678 13.6966 20.0989C13.6966 23.63 16.5687 26.5022 20.0999 26.5022C23.631 26.5022 26.5031 23.63 26.5031 20.0989C26.5031 16.5678 23.631 13.6956 20.0999 13.6956ZM20.0999 25.8305C16.9394 25.8305 14.3682 23.2595 14.3682 20.0989C14.3682 16.9383 16.9393 14.3672 20.0999 14.3672C23.2605 14.3672 25.8315 16.9383 25.8315 20.0989C25.8315 23.2595 23.2605 25.8305 20.0999 25.8305ZM8.45914 8.93561C8.32846 8.80492 8.32846 8.59043 8.45914 8.45975C8.94634 7.97255 9.47049 7.51088 10.0159 7.08477C10.1608 6.97255 10.3725 6.99812 10.489 7.14301C10.6012 7.2879 10.5756 7.49954 10.4307 7.61603C9.90658 8.0237 9.40516 8.46261 8.9364 8.93279C8.87105 8.99813 8.78298 9.0308 8.7006 9.0308C8.61253 9.03364 8.5259 9.00095 8.45914 8.93561ZM5.84125 11.866C6.18642 11.2694 6.57562 10.6884 6.99467 10.1387C7.10689 9.98958 7.31853 9.96402 7.46344 10.0734C7.61258 10.1856 7.63815 10.3973 7.52878 10.5422C7.1282 11.0691 6.75463 11.626 6.42365 12.1998C6.36115 12.3092 6.24893 12.3674 6.13246 12.3674C6.07422 12.3674 6.01598 12.3532 5.96484 12.3234C5.80149 12.2339 5.7475 12.0265 5.84125 11.866ZM4.1978 15.8376C4.37536 15.1686 4.59838 14.5067 4.85973 13.8703C4.92933 13.6998 5.12535 13.616 5.2958 13.6842C5.46625 13.7538 5.55006 13.9498 5.48188 14.1203C5.23046 14.7353 5.01599 15.3717 4.84552 16.0123C4.80574 16.1615 4.6708 16.2637 4.52165 16.2637C4.49324 16.2637 4.46341 16.2595 4.43501 16.2524C4.25603 16.2012 4.14666 16.0152 4.1978 15.8376ZM3.97195 20.4344C3.78587 20.4344 3.63672 20.2852 3.63672 20.0991C3.63672 19.4088 3.68075 18.7142 3.7674 18.0267C3.78871 17.8406 3.96058 17.7142 4.14238 17.7355C4.32846 17.7568 4.45488 17.9287 4.43358 18.1105C4.35403 18.7682 4.31 19.4372 4.31 20.0991C4.31 20.2852 4.15803 20.4344 3.97195 20.4344ZM36.0018 24.3606C35.8242 25.0296 35.6012 25.6915 35.3398 26.3279C35.2859 26.4586 35.1623 26.5353 35.0273 26.5353C34.9833 26.5353 34.9435 26.5282 34.8995 26.5097C34.729 26.4401 34.6452 26.2441 34.7134 26.0736C34.9648 25.4628 35.1793 24.8265 35.3498 24.1859C35.3967 24.0083 35.5827 23.8989 35.7603 23.9501C35.9435 23.9969 36.0529 24.183 36.0018 24.3606ZM19.7647 3.97146C19.7647 3.78538 19.9138 3.63623 20.0999 3.63623C26.4264 3.64333 32.1625 7.25838 34.9068 12.9046L35.5034 11.1304C35.5616 10.9557 35.7548 10.862 35.9295 10.9202C36.1043 10.9785 36.198 11.1716 36.1398 11.3464L35.2818 13.8918C35.2534 13.9756 35.1909 14.0452 35.1142 14.085C35.0673 14.1063 35.0162 14.1219 34.965 14.1219C34.9281 14.1219 34.8926 14.1148 34.8599 14.1035L32.3145 13.2455C32.1398 13.1873 32.046 12.9941 32.1042 12.8194C32.1625 12.6446 32.3557 12.5509 32.5304 12.6091L34.3088 13.2086C31.6738 7.78673 26.1724 4.31364 20.1001 4.30928C19.914 4.30928 19.7647 4.15754 19.7647 3.97146ZM36.0716 16.0922C36.2165 16.6774 36.333 17.2783 36.4139 17.8734C36.4395 18.0595 36.3088 18.2257 36.127 18.2513C36.1128 18.2555 36.0986 18.2555 36.0801 18.2555C35.9125 18.2555 35.7705 18.132 35.7491 17.9643C35.6724 17.3905 35.5602 16.8152 35.4224 16.2555C35.3784 16.078 35.4878 15.8919 35.6668 15.8479C35.8415 15.801 36.0233 15.9104 36.0716 16.0922ZM15.6014 4.60491C15.5545 4.42736 15.6596 4.24128 15.8372 4.19441C16.502 4.01685 17.1895 3.87765 17.8741 3.78673C18.056 3.76116 18.2264 3.89185 18.252 4.07366C18.2776 4.25974 18.1469 4.42594 17.9651 4.45152C17.3074 4.53817 16.6526 4.67311 16.0119 4.84355C15.9835 4.85066 15.9537 4.85492 15.9253 4.85492C15.7761 4.85492 15.6412 4.7569 15.6014 4.60491ZM11.7476 6.29953C11.6524 6.13902 11.7107 5.93164 11.8712 5.84073C12.4677 5.49556 13.097 5.18306 13.7291 4.91742C13.8996 4.84498 14.097 4.92453 14.1695 5.09498C14.2419 5.26543 14.1624 5.46287 13.9919 5.53531C13.3811 5.79383 12.7817 6.09211 12.2064 6.42309C12.1524 6.4515 12.097 6.46712 12.0388 6.46712C11.9223 6.46996 11.8087 6.40891 11.7476 6.29953ZM31.7403 31.2624C31.871 31.3931 31.871 31.6076 31.7403 31.7383C31.2531 32.2255 30.729 32.6872 30.1835 33.1133C30.121 33.1602 30.0486 33.1829 29.9761 33.1829C29.8739 33.1829 29.7758 33.1388 29.7105 33.0522C29.5983 32.9073 29.6239 32.6957 29.7687 32.5792C30.2929 32.1715 30.7943 31.7283 31.2631 31.2624C31.3938 31.1317 31.6082 31.1318 31.7403 31.2624ZM36.5614 20.0992C36.5614 20.7895 36.5174 21.4841 36.4307 22.1716C36.4094 22.3421 36.2631 22.4656 36.0955 22.4656C36.0813 22.4656 36.0671 22.4656 36.0515 22.4614C35.8654 22.4401 35.739 22.2682 35.7603 22.0864C35.8441 21.4287 35.8838 20.7597 35.8881 20.0977C35.8881 19.9117 36.0373 19.7625 36.2233 19.7625C36.4123 19.7639 36.5614 19.9131 36.5614 20.0992ZM34.3583 28.3323C34.0131 28.9288 33.6267 29.5098 33.2049 30.0595C33.1395 30.1462 33.0372 30.1902 32.9364 30.1902C32.8639 30.1902 32.7943 30.1689 32.7333 30.1206C32.5841 30.0084 32.5585 29.7967 32.6679 29.6518C33.0713 29.1249 33.4421 28.5652 33.7731 27.9942C33.8682 27.8337 34.0713 27.7797 34.2319 27.8706C34.398 27.9643 34.452 28.1718 34.3583 28.3323ZM20.435 36.2272C20.435 36.4132 20.2859 36.5624 20.0998 36.5624C13.7732 36.5553 8.03723 32.9403 5.29286 27.294L4.69628 29.0682C4.63804 29.2429 4.44486 29.3366 4.27014 29.2784C4.09542 29.2202 4.00167 29.027 4.05991 28.8523L4.91788 26.3068C4.97612 26.1321 5.1693 26.0383 5.34402 26.0966L7.88947 26.9545C8.06419 27.0128 8.15794 27.206 8.0997 27.3807C8.04146 27.5554 7.84828 27.6492 7.67356 27.5909L5.89516 26.9915C8.52585 32.4119 14.0272 35.885 20.0995 35.8893C20.2856 35.8893 20.435 36.0411 20.435 36.2272ZM24.5983 35.5936C24.6452 35.7712 24.54 35.9573 24.3625 36.0042C23.6935 36.1817 23.0102 36.3209 22.3255 36.4118C22.3113 36.4161 22.2971 36.4161 22.2815 36.4161C22.1139 36.4161 21.9718 36.2925 21.9505 36.1249C21.925 35.9388 22.0556 35.7726 22.2375 35.747C22.8923 35.6604 23.55 35.5254 24.1906 35.355C24.3653 35.3067 24.55 35.4118 24.5983 35.5936ZM28.4521 33.899C28.5473 34.0595 28.489 34.2669 28.3285 34.3578C27.7319 34.703 27.1027 35.0155 26.4706 35.2811C26.4265 35.2996 26.3839 35.3067 26.3399 35.3067C26.2092 35.3067 26.0856 35.23 26.0302 35.0993C25.9578 34.9289 26.0373 34.7314 26.2078 34.659C26.8186 34.4005 27.418 34.1022 27.9933 33.7712C28.1538 33.6817 28.3612 33.7357 28.4521 33.899ZM4.12809 24.1063C3.98321 23.5211 3.86673 22.9202 3.78576 22.3251C3.76019 22.139 3.89088 21.9728 4.07269 21.9472C4.25877 21.9216 4.42497 22.0523 4.45055 22.2341C4.52725 22.808 4.63947 23.3833 4.77725 23.9429C4.82129 24.1205 4.71191 24.3066 4.53293 24.3506C4.50452 24.3577 4.47896 24.362 4.44913 24.362C4.30282 24.3606 4.16929 24.2597 4.12809 24.1063ZM23.4194 17.7681C23.5472 17.9031 23.5429 18.1133 23.408 18.244L19.0087 22.4414C18.9434 22.5039 18.8596 22.5366 18.7758 22.5366C18.6891 22.5366 18.6053 22.5039 18.54 22.4386L16.4306 20.3519C16.2999 20.2212 16.2957 20.0096 16.4263 19.8761C16.557 19.7454 16.7687 19.7411 16.9022 19.8718L18.7786 21.7298L22.9419 17.7581C23.0811 17.6303 23.2929 17.6332 23.4194 17.7681Z" fill="white"/>
<path d="M33.2049 21.4258V18.7681C33.2049 18.2553 32.837 17.8192 32.3355 17.7283L30.8157 17.4513C30.6622 17.4229 30.5543 17.3235 30.5145 17.1744C30.2816 16.3491 29.9506 15.5493 29.5287 14.7994C29.452 14.6644 29.4591 14.5153 29.5472 14.3889L30.4279 13.1204C30.7191 12.6985 30.668 12.1317 30.3086 11.7681L28.4279 9.88741C28.0643 9.52377 27.4975 9.47265 27.0756 9.76809L25.8071 10.6488C25.6793 10.7354 25.5301 10.744 25.3966 10.6672C24.648 10.2454 23.8469 9.91441 23.0216 9.68147C22.8725 9.6417 22.7745 9.52806 22.7446 9.38033L22.4677 7.86044C22.3767 7.35477 21.9364 6.99113 21.4279 6.99113H18.7702C18.2574 6.99113 17.8213 7.35902 17.7304 7.86044L17.4534 9.38033C17.425 9.53374 17.3256 9.6417 17.1764 9.68147C16.3512 9.91442 15.5514 10.2454 14.8015 10.6672C14.6665 10.744 14.5174 10.7369 14.3909 10.6488L13.1225 9.76809C12.7006 9.4769 12.1338 9.52803 11.7702 9.88741L9.88949 11.7681C9.52586 12.1317 9.47473 12.6985 9.77018 13.1204L10.6509 14.3889C10.7375 14.5167 10.746 14.6659 10.6693 14.7994C10.2474 15.548 9.9165 16.3491 9.68355 17.1744C9.64378 17.3235 9.53014 17.4215 9.38242 17.4513L7.86253 17.7283C7.35685 17.8192 6.99322 18.2596 6.99322 18.7681V21.4258C6.99322 21.9386 7.36111 22.3747 7.86253 22.4656L9.38242 22.7426C9.53583 22.771 9.64378 22.8704 9.68355 23.0195C9.9165 23.8448 10.2475 24.6446 10.6693 25.3945C10.746 25.5295 10.7389 25.6786 10.6509 25.805L9.77018 27.0735C9.47899 27.4954 9.53012 28.0622 9.88949 28.4258L11.7702 30.3065C12.1338 30.6701 12.7006 30.7213 13.1225 30.4258L14.3909 29.5451C14.5188 29.4585 14.6679 29.45 14.8015 29.5267C15.55 29.9485 16.3512 30.2795 17.1764 30.5124C17.3256 30.5522 17.4236 30.6658 17.4534 30.8136L17.7304 32.3335C17.8213 32.8391 18.2617 33.2028 18.7702 33.2028H21.4279C21.9407 33.2028 22.3767 32.8349 22.4677 32.3335L22.7446 30.8136C22.7731 30.6602 22.8725 30.5522 23.0216 30.5124C23.8469 30.2795 24.6466 29.9485 25.3966 29.5267C25.5316 29.45 25.6807 29.4571 25.8071 29.5451L27.0756 30.4258C27.4975 30.717 28.0643 30.6659 28.4279 30.3065L30.3086 28.4258C30.6722 28.0622 30.7233 27.4954 30.4279 27.0735L29.5472 25.805C29.4606 25.6772 29.452 25.5281 29.5287 25.3945C29.9506 24.646 30.2816 23.8448 30.5145 23.0195C30.5543 22.8704 30.6679 22.7724 30.8157 22.7426L32.3355 22.4656C32.8384 22.3789 33.2049 21.9386 33.2049 21.4258ZM32.533 21.4258C32.533 21.6147 32.4023 21.771 32.2162 21.8079L30.6963 22.0849C30.2886 22.1573 29.9761 22.4414 29.8668 22.8406C29.648 23.6147 29.3398 24.3647 28.9435 25.0664C28.7404 25.4258 28.7574 25.8477 28.9946 26.19L29.8753 27.4585C29.9847 27.6147 29.9662 27.8178 29.8313 27.9528L27.9506 29.8335C27.8156 29.9684 27.6125 29.9869 27.4563 29.8775L26.1878 28.9968C25.8454 28.761 25.4279 28.7425 25.0642 28.9457C24.3625 29.342 23.6139 29.6516 22.8384 29.869C22.4378 29.9812 22.1551 30.2909 22.0827 30.6985L21.8057 32.2184C21.773 32.4045 21.6168 32.5352 21.4236 32.5352H18.7659C18.577 32.5352 18.4207 32.4045 18.3838 32.2184L18.1068 30.6985C18.0344 30.2908 17.7503 29.9783 17.3511 29.869C16.577 29.6502 15.827 29.342 15.1253 28.9457C14.9577 28.8505 14.7801 28.8079 14.6054 28.8079C14.398 28.8079 14.1906 28.8732 14.006 29.0011L12.7375 29.8818C12.5813 29.9911 12.3781 29.9727 12.2432 29.8377L10.3625 27.957C10.2276 27.8221 10.2091 27.619 10.3185 27.4627L11.1992 26.1942C11.4349 25.8519 11.4534 25.4343 11.2503 25.0707C10.854 24.369 10.5443 23.6204 10.327 22.8448C10.2148 22.4442 9.90509 22.1616 9.49745 22.0891L7.97756 21.8122C7.79148 21.7795 7.6608 21.6232 7.6608 21.43V18.7724C7.6608 18.5835 7.79148 18.4272 7.97756 18.3903L9.49745 18.1133C9.90512 18.0408 10.2176 17.7567 10.327 17.3576C10.5457 16.5835 10.854 15.8335 11.2503 15.1318C11.4534 14.7724 11.4364 14.3505 11.1992 14.0082L10.3185 12.7397C10.2091 12.5835 10.2276 12.3803 10.3625 12.2454L12.2432 10.3647C12.3781 10.2298 12.5813 10.2113 12.7375 10.3207L14.006 11.2014C14.3483 11.4372 14.7659 11.4556 15.1295 11.2525C15.8313 10.8562 16.5798 10.5465 17.3554 10.3292C17.756 10.217 18.0386 9.90729 18.1111 9.49965L18.3881 7.97976C18.4207 7.79368 18.577 7.663 18.7702 7.663H21.4278C21.6168 7.663 21.773 7.79369 21.81 7.97976L22.0869 9.49965C22.1594 9.90732 22.4435 10.2198 22.8426 10.3292C23.6168 10.5479 24.3668 10.8562 25.0685 11.2525C25.4278 11.4556 25.8497 11.4386 26.192 11.2014L27.4605 10.3207C27.6168 10.2113 27.8199 10.2298 27.9548 10.3647L29.8355 12.2454C29.9705 12.3803 29.9889 12.5835 29.8796 12.7397L28.9989 14.0082C28.7631 14.3505 28.7446 14.7681 28.9477 15.1318C29.344 15.8335 29.6537 16.582 29.871 17.3576C29.9833 17.7582 30.2929 18.0408 30.7006 18.1133L32.2205 18.3903C32.4065 18.4229 32.5372 18.5792 32.5372 18.7724L32.5358 21.4258L32.533 21.4258ZM20.0999 13.6956C16.5686 13.6956 13.6966 16.5678 13.6966 20.0989C13.6966 23.63 16.5687 26.5022 20.0999 26.5022C23.631 26.5022 26.5031 23.63 26.5031 20.0989C26.5031 16.5678 23.631 13.6956 20.0999 13.6956ZM20.0999 25.8305C16.9394 25.8305 14.3682 23.2595 14.3682 20.0989C14.3682 16.9383 16.9393 14.3672 20.0999 14.3672C23.2605 14.3672 25.8315 16.9383 25.8315 20.0989C25.8315 23.2595 23.2605 25.8305 20.0999 25.8305ZM8.45914 8.93561C8.32846 8.80492 8.32846 8.59043 8.45914 8.45975C8.94634 7.97255 9.47049 7.51088 10.0159 7.08477C10.1608 6.97255 10.3725 6.99812 10.489 7.14301C10.6012 7.2879 10.5756 7.49954 10.4307 7.61603C9.90658 8.0237 9.40516 8.46261 8.9364 8.93279C8.87105 8.99813 8.78298 9.0308 8.7006 9.0308C8.61253 9.03364 8.5259 9.00095 8.45914 8.93561ZM5.84125 11.866C6.18642 11.2694 6.57562 10.6884 6.99467 10.1387C7.10689 9.98958 7.31853 9.96402 7.46344 10.0734C7.61258 10.1856 7.63815 10.3973 7.52878 10.5422C7.1282 11.0691 6.75463 11.626 6.42365 12.1998C6.36115 12.3092 6.24893 12.3674 6.13246 12.3674C6.07422 12.3674 6.01598 12.3532 5.96484 12.3234C5.80149 12.2339 5.7475 12.0265 5.84125 11.866ZM4.1978 15.8376C4.37536 15.1686 4.59838 14.5067 4.85973 13.8703C4.92933 13.6998 5.12535 13.616 5.2958 13.6842C5.46625 13.7538 5.55006 13.9498 5.48188 14.1203C5.23046 14.7353 5.01599 15.3717 4.84552 16.0123C4.80574 16.1615 4.6708 16.2637 4.52165 16.2637C4.49324 16.2637 4.46341 16.2595 4.43501 16.2524C4.25603 16.2012 4.14666 16.0152 4.1978 15.8376ZM3.97195 20.4344C3.78587 20.4344 3.63672 20.2852 3.63672 20.0991C3.63672 19.4088 3.68075 18.7142 3.7674 18.0267C3.78871 17.8406 3.96058 17.7142 4.14238 17.7355C4.32846 17.7568 4.45488 17.9287 4.43358 18.1105C4.35403 18.7682 4.31 19.4372 4.31 20.0991C4.31 20.2852 4.15803 20.4344 3.97195 20.4344ZM36.0018 24.3606C35.8242 25.0296 35.6012 25.6915 35.3398 26.3279C35.2859 26.4586 35.1623 26.5353 35.0273 26.5353C34.9833 26.5353 34.9435 26.5282 34.8995 26.5097C34.729 26.4401 34.6452 26.2441 34.7134 26.0736C34.9648 25.4628 35.1793 24.8265 35.3498 24.1859C35.3967 24.0083 35.5827 23.8989 35.7603 23.9501C35.9435 23.9969 36.0529 24.183 36.0018 24.3606ZM19.7647 3.97146C19.7647 3.78538 19.9138 3.63623 20.0999 3.63623C26.4264 3.64333 32.1625 7.25838 34.9068 12.9046L35.5034 11.1304C35.5616 10.9557 35.7548 10.862 35.9295 10.9202C36.1043 10.9785 36.198 11.1716 36.1398 11.3464L35.2818 13.8918C35.2534 13.9756 35.1909 14.0452 35.1142 14.085C35.0673 14.1063 35.0162 14.1219 34.965 14.1219C34.9281 14.1219 34.8926 14.1148 34.8599 14.1035L32.3145 13.2455C32.1398 13.1873 32.046 12.9941 32.1042 12.8194C32.1625 12.6446 32.3557 12.5509 32.5304 12.6091L34.3088 13.2086C31.6738 7.78673 26.1724 4.31364 20.1001 4.30928C19.914 4.30928 19.7647 4.15754 19.7647 3.97146ZM36.0716 16.0922C36.2165 16.6774 36.333 17.2783 36.4139 17.8734C36.4395 18.0595 36.3088 18.2257 36.127 18.2513C36.1128 18.2555 36.0986 18.2555 36.0801 18.2555C35.9125 18.2555 35.7705 18.132 35.7491 17.9643C35.6724 17.3905 35.5602 16.8152 35.4224 16.2555C35.3784 16.078 35.4878 15.8919 35.6668 15.8479C35.8415 15.801 36.0233 15.9104 36.0716 16.0922ZM15.6014 4.60491C15.5545 4.42736 15.6596 4.24128 15.8372 4.19441C16.502 4.01685 17.1895 3.87765 17.8741 3.78673C18.056 3.76116 18.2264 3.89185 18.252 4.07366C18.2776 4.25974 18.1469 4.42594 17.9651 4.45152C17.3074 4.53817 16.6526 4.67311 16.0119 4.84355C15.9835 4.85066 15.9537 4.85492 15.9253 4.85492C15.7761 4.85492 15.6412 4.7569 15.6014 4.60491ZM11.7476 6.29953C11.6524 6.13902 11.7107 5.93164 11.8712 5.84073C12.4677 5.49556 13.097 5.18306 13.7291 4.91742C13.8996 4.84498 14.097 4.92453 14.1695 5.09498C14.2419 5.26543 14.1624 5.46287 13.9919 5.53531C13.3811 5.79383 12.7817 6.09211 12.2064 6.42309C12.1524 6.4515 12.097 6.46712 12.0388 6.46712C11.9223 6.46996 11.8087 6.40891 11.7476 6.29953ZM31.7403 31.2624C31.871 31.3931 31.871 31.6076 31.7403 31.7383C31.2531 32.2255 30.729 32.6872 30.1835 33.1133C30.121 33.1602 30.0486 33.1829 29.9761 33.1829C29.8739 33.1829 29.7758 33.1388 29.7105 33.0522C29.5983 32.9073 29.6239 32.6957 29.7687 32.5792C30.2929 32.1715 30.7943 31.7283 31.2631 31.2624C31.3938 31.1317 31.6082 31.1318 31.7403 31.2624ZM36.5614 20.0992C36.5614 20.7895 36.5174 21.4841 36.4307 22.1716C36.4094 22.3421 36.2631 22.4656 36.0955 22.4656C36.0813 22.4656 36.0671 22.4656 36.0515 22.4614C35.8654 22.4401 35.739 22.2682 35.7603 22.0864C35.8441 21.4287 35.8838 20.7597 35.8881 20.0977C35.8881 19.9117 36.0373 19.7625 36.2233 19.7625C36.4123 19.7639 36.5614 19.9131 36.5614 20.0992ZM34.3583 28.3323C34.0131 28.9288 33.6267 29.5098 33.2049 30.0595C33.1395 30.1462 33.0372 30.1902 32.9364 30.1902C32.8639 30.1902 32.7943 30.1689 32.7333 30.1206C32.5841 30.0084 32.5585 29.7967 32.6679 29.6518C33.0713 29.1249 33.4421 28.5652 33.7731 27.9942C33.8682 27.8337 34.0713 27.7797 34.2319 27.8706C34.398 27.9643 34.452 28.1718 34.3583 28.3323ZM20.435 36.2272C20.435 36.4132 20.2859 36.5624 20.0998 36.5624C13.7732 36.5553 8.03723 32.9403 5.29286 27.294L4.69628 29.0682C4.63804 29.2429 4.44486 29.3366 4.27014 29.2784C4.09542 29.2202 4.00167 29.027 4.05991 28.8523L4.91788 26.3068C4.97612 26.1321 5.1693 26.0383 5.34402 26.0966L7.88947 26.9545C8.06419 27.0128 8.15794 27.206 8.0997 27.3807C8.04146 27.5554 7.84828 27.6492 7.67356 27.5909L5.89516 26.9915C8.52585 32.4119 14.0272 35.885 20.0995 35.8893C20.2856 35.8893 20.435 36.0411 20.435 36.2272ZM24.5983 35.5936C24.6452 35.7712 24.54 35.9573 24.3625 36.0042C23.6935 36.1817 23.0102 36.3209 22.3255 36.4118C22.3113 36.4161 22.2971 36.4161 22.2815 36.4161C22.1139 36.4161 21.9718 36.2925 21.9505 36.1249C21.925 35.9388 22.0556 35.7726 22.2375 35.747C22.8923 35.6604 23.55 35.5254 24.1906 35.355C24.3653 35.3067 24.55 35.4118 24.5983 35.5936ZM28.4521 33.899C28.5473 34.0595 28.489 34.2669 28.3285 34.3578C27.7319 34.703 27.1027 35.0155 26.4706 35.2811C26.4265 35.2996 26.3839 35.3067 26.3399 35.3067C26.2092 35.3067 26.0856 35.23 26.0302 35.0993C25.9578 34.9289 26.0373 34.7314 26.2078 34.659C26.8186 34.4005 27.418 34.1022 27.9933 33.7712C28.1538 33.6817 28.3612 33.7357 28.4521 33.899ZM4.12809 24.1063C3.98321 23.5211 3.86673 22.9202 3.78576 22.3251C3.76019 22.139 3.89088 21.9728 4.07269 21.9472C4.25877 21.9216 4.42497 22.0523 4.45055 22.2341C4.52725 22.808 4.63947 23.3833 4.77725 23.9429C4.82129 24.1205 4.71191 24.3066 4.53293 24.3506C4.50452 24.3577 4.47896 24.362 4.44913 24.362C4.30282 24.3606 4.16929 24.2597 4.12809 24.1063ZM23.4194 17.7681C23.5472 17.9031 23.5429 18.1133 23.408 18.244L19.0087 22.4414C18.9434 22.5039 18.8596 22.5366 18.7758 22.5366C18.6891 22.5366 18.6053 22.5039 18.54 22.4386L16.4306 20.3519C16.2999 20.2212 16.2957 20.0096 16.4263 19.8761C16.557 19.7454 16.7687 19.7411 16.9022 19.8718L18.7786 21.7298L22.9419 17.7581C23.0811 17.6303 23.2929 17.6332 23.4194 17.7681Z" stroke="white" stroke-width="0.6" mask="url(#path-1-outside-1_1375_281)"/>
</svg>
