<svg width="40" height="40" viewBox="0 0 40 40" fill="none" xmlns="http://www.w3.org/2000/svg">
<path d="M15.9933 20.6826H12.5842C12.0359 20.6826 11.5898 21.1287 11.5898 21.6769V35.3133C11.5898 35.8616 12.0359 36.3076 12.5842 36.3076H15.9933C16.5416 36.3076 16.9876 35.8616 16.9876 35.3133V21.6769C16.9876 21.1287 16.5416 20.6826 15.9933 20.6826ZM16.1353 35.3132C16.1353 35.3913 16.0714 35.4552 15.9933 35.4552H12.5842C12.506 35.4552 12.4421 35.3913 12.4421 35.3132V21.6768C12.4421 21.5987 12.506 21.5348 12.5842 21.5348H15.9933C16.0714 21.5348 16.1353 21.5987 16.1353 21.6768V35.3132Z" fill="white"/>
<path d="M8.04014 25.2283H4.63105C4.08276 25.2283 3.63672 25.6743 3.63672 26.2226V35.3135C3.63672 35.8618 4.08276 36.3078 4.63105 36.3078H8.04014C8.58843 36.3078 9.03446 35.8618 9.03446 35.3135V26.2226C9.03446 25.6743 8.58843 25.2283 8.04014 25.2283ZM8.18218 35.3134C8.18218 35.3915 8.11826 35.4554 8.04014 35.4554H4.63105C4.55292 35.4554 4.489 35.3915 4.489 35.3134V26.2225C4.489 26.1443 4.55292 26.0804 4.63105 26.0804H8.04014C8.11826 26.0804 8.18218 26.1443 8.18218 26.2225V35.3134Z" fill="white"/>
<path d="M4.0622 19.9784C4.12896 19.9784 4.19714 19.9628 4.26106 19.9287L29.4883 6.59631L28.1176 11.0425C28.048 11.2669 28.1744 11.5055 28.3989 11.5751C28.4401 11.5879 28.4827 11.5936 28.5239 11.5936C28.7057 11.5936 28.8747 11.4757 28.9315 11.2925L30.4386 6.40593C30.5167 6.15167 30.4926 5.88321 30.3676 5.64742C30.2426 5.41305 30.0352 5.23975 29.7809 5.16164L24.8944 3.65455C24.6714 3.58779 24.4313 3.71137 24.3617 3.9358C24.2921 4.16024 24.4186 4.39886 24.643 4.46846L29.0892 5.83918L3.86336 19.1759C3.65598 19.2853 3.57643 19.5438 3.68581 19.7512C3.76251 19.8961 3.9102 19.9784 4.0622 19.9784Z" fill="white"/>
<path d="M35.6509 23.8317L28.8328 18.9608C28.2887 18.573 27.56 18.573 27.016 18.9608L24.9407 20.4423V17.1298C24.9407 16.5815 24.4947 16.1355 23.9464 16.1355H20.5373C19.989 16.1355 19.543 16.5815 19.543 17.1298V34.7436C19.543 35.6044 20.2433 36.3062 21.1055 36.3062H34.7418C35.6041 36.3062 36.3043 35.6044 36.3043 34.7436V25.1015C36.3043 24.5972 36.06 24.1228 35.6495 23.8302L35.6509 23.8317ZM20.5386 16.9895H23.9477C24.0244 16.9895 24.0897 17.0549 24.0897 17.1316V21.0519L20.3966 23.6897V17.1315C20.3966 17.0548 20.4619 16.9895 20.5386 16.9895ZM25.5102 35.4554V29.4895H30.3397V35.4554H25.5102ZM35.4535 34.7451C35.4535 35.1372 35.1353 35.4554 34.7433 35.4554H31.1921V29.0634C31.1921 28.8276 31.0018 28.6372 30.766 28.6372H25.0842C24.8484 28.6372 24.658 28.8275 24.658 29.0634V35.4554H21.1069C20.7149 35.4554 20.3967 35.1372 20.3967 34.7451V25.103C20.3967 24.8743 20.5075 24.6583 20.6936 24.5248L27.5117 19.6539C27.6353 19.5659 27.7788 19.5218 27.9237 19.5218C28.0686 19.5218 28.2134 19.5659 28.337 19.6539L35.1552 24.5248C35.3413 24.6584 35.4521 24.8743 35.4521 25.103V34.7451H35.4535Z" fill="white"/>
</svg>
