<svg width="40" height="40" viewBox="0 0 40 40" fill="none" xmlns="http://www.w3.org/2000/svg">
<path fill-rule="evenodd" clip-rule="evenodd" d="M23.3968 29.6507C22.9849 29.6493 22.6128 29.895 22.4536 30.2743C22.2945 30.6535 22.3798 31.0924 22.6695 31.3851C23.0332 31.7487 23.3713 31.6862 23.8187 31.6862H26.8883C27.4494 31.6862 27.9054 31.2302 27.9054 30.6677C27.9054 30.1066 27.4494 29.6507 26.8883 29.6507L23.3968 29.6507ZM23.8258 32.5598C23.3485 32.5598 22.9608 32.9461 22.9608 33.4248C22.9608 33.9021 23.3485 34.2899 23.8258 34.2899H26.6951C27.1724 34.2899 27.5602 33.9021 27.5602 33.4248C27.5602 32.9461 27.1724 32.5598 26.6951 32.5598H23.8258ZM13.6044 23.3154H10.3316C10.2066 23.3154 10.1058 23.4163 10.1058 23.5413V34.7118C10.1086 34.8354 10.2081 34.9334 10.3316 34.9334H13.6044C13.7279 34.9334 13.8274 34.8354 13.8302 34.7118V23.5413C13.8302 23.4163 13.7294 23.3154 13.6044 23.3154ZM26.9538 25.8609C27.5163 25.8609 27.9709 25.4049 27.9709 24.8424C27.9709 24.2799 27.5163 23.8239 26.9538 23.8239H23.0589C22.6456 23.8197 22.2705 24.0654 22.11 24.4461C21.9509 24.8282 22.0376 25.2685 22.3316 25.5597C22.5234 25.7543 22.7848 25.8637 23.0589 25.8608L26.9538 25.8609ZM22.9538 22.9518H26.9538C27.6655 22.9504 28.3189 23.3481 28.6427 23.983C28.9666 24.6165 28.9069 25.3793 28.4879 25.956C29.1172 26.1535 29.5987 26.6663 29.7564 27.3083C29.9126 27.9489 29.7251 28.6265 29.2592 29.0939C29.0291 29.324 28.745 29.4916 28.4339 29.5811C28.7251 29.9916 28.8388 30.5029 28.7507 30.9987C28.6626 31.4958 28.38 31.9347 27.9638 32.2217C28.4439 32.7231 28.5774 33.4632 28.3061 34.1024C28.0334 34.7402 27.4083 35.1563 26.7138 35.1592C25.4325 35.2316 24.1612 35.4092 22.9098 35.6904C19.8657 36.2728 16.5065 36.9163 14.4439 35.4134C14.238 35.662 13.9311 35.8055 13.6073 35.8069H10.3346C9.7323 35.8069 9.24364 35.3182 9.24364 34.716V23.5414C9.24364 22.9392 9.7323 22.4505 10.3346 22.4505H13.6073C13.9539 22.4477 14.2806 22.6096 14.488 22.8866C15.0704 22.5229 15.5533 22.2176 15.9752 21.959C18.4297 20.4604 18.4439 20.4505 18.434 16.239C18.4027 15.8328 18.5504 15.4336 18.8402 15.1467C19.1286 14.8598 19.5291 14.7149 19.9354 14.7489C20.4738 14.7603 20.9979 14.9151 21.4553 15.1992C22.765 16.0217 23.0874 17.5955 23.1712 19.1083C23.2422 20.0529 23.2522 21.0004 23.201 21.945C23.1726 22.2958 23.0846 22.6381 22.9425 22.9592L22.9538 22.9518ZM21.88 29.5627C21.5561 30.0016 21.4368 30.5599 21.5561 31.0925C21.674 31.6266 22.0177 32.0812 22.4993 32.3411C22.1967 32.7104 22.059 33.1877 22.12 33.6607C22.1797 34.1337 22.4325 34.5613 22.8189 34.8425C19.8076 35.4164 16.4113 36.0826 14.6996 34.5229L14.6982 23.7913C15.3559 23.3623 15.934 23.01 16.4255 22.7004C19.2948 20.9518 19.3133 20.9404 19.3019 16.2385C19.3019 15.9729 19.3644 15.7727 19.5817 15.6789C19.9823 15.5042 20.6357 15.7115 20.9923 15.9331C21.9923 16.5624 22.2366 17.9218 22.2976 19.1007H22.2991C22.3701 20.0198 22.3829 20.9431 22.3346 21.865C22.2479 22.7485 21.8261 23.2542 20.9709 23.774C20.7692 23.8962 20.7025 24.159 20.8232 24.3621C21.1755 24.8905 21.2806 25.5468 21.1101 26.159C20.863 26.8863 20.2479 27.4971 19.2224 28.1007C19.1201 28.159 19.0448 28.2556 19.0164 28.3692C18.9866 28.4828 19.005 28.6036 19.0661 28.7044C19.1897 28.9104 19.4539 28.98 19.6627 28.8607C19.9908 28.6675 20.3061 28.4502 20.6044 28.213C20.7607 28.8607 21.2451 29.3792 21.88 29.5766L21.88 29.5627ZM22.4439 26.7403V26.7417C21.8814 26.7417 21.4254 27.1976 21.4254 27.7587C21.4254 28.3212 21.8814 28.7772 22.4439 28.7772H27.921C28.4835 28.7772 28.938 28.3212 28.938 27.7587C28.938 27.1976 28.4835 26.7417 27.921 26.7417L22.4439 26.7403ZM18.0803 7.29698C18.0632 7.34954 18.0149 7.38363 17.9609 7.38505L14.7422 7.49727C14.3232 7.51289 13.9581 7.78846 13.8274 8.18618C13.6981 8.58534 13.8303 9.02283 14.1612 9.28276L16.7067 11.2685C16.7521 11.2969 16.7706 11.3552 16.7493 11.4063L15.8587 14.5228C15.7536 14.9248 15.9084 15.3495 16.2465 15.5924C16.5831 15.8339 17.0362 15.8424 17.3828 15.6137L20.0518 13.7955C20.0959 13.7657 20.1527 13.7657 20.1967 13.7955L22.8657 15.6137C23.2123 15.8424 23.6654 15.8339 24.0021 15.5924C24.3402 15.3495 24.495 14.9248 24.3899 14.5228L23.5021 11.4248C23.4822 11.3737 23.4993 11.3154 23.5461 11.287L26.0916 9.30123C26.4211 9.04129 26.5546 8.60378 26.424 8.20465C26.2947 7.80549 25.9296 7.53134 25.5092 7.51574L22.2904 7.40353H22.2919C22.2365 7.40211 22.1882 7.36801 22.1711 7.31546L21.0802 4.28989C20.9353 3.89786 20.5617 3.63647 20.1427 3.63647C19.7237 3.63647 19.3487 3.89784 19.2038 4.28989L18.1129 7.31546L18.0803 7.29698ZM19.9964 4.56971L18.9055 7.59527C18.7692 7.98164 18.4098 8.24298 18.0007 8.25437L14.7819 8.36658C14.7279 8.36942 14.6811 8.40493 14.664 8.45607C14.647 8.50862 14.664 8.56544 14.7066 8.59953L17.2521 10.5853C17.5689 10.8382 17.6981 11.2586 17.5788 11.6464L16.6953 14.7416C16.6797 14.7941 16.6981 14.8524 16.7436 14.885C16.789 14.9177 16.8501 14.9177 16.8956 14.8865L19.5646 13.0867C19.9012 12.8538 20.3472 12.8538 20.6839 13.0867L23.3529 14.8865C23.3984 14.9177 23.4594 14.9177 23.5049 14.885C23.5504 14.8524 23.5688 14.7941 23.5532 14.7416L22.6697 11.6464C22.5532 11.2558 22.691 10.8325 23.0148 10.5853L25.5603 8.59953C25.6029 8.56544 25.6199 8.50862 25.6029 8.45607C25.5859 8.40493 25.539 8.36942 25.4836 8.36658L22.2648 8.25437H22.2662C21.8572 8.2501 21.4935 7.99584 21.3501 7.61375L20.2592 4.58818C20.2407 4.53563 20.191 4.50011 20.1356 4.50011C20.0788 4.50011 20.0305 4.53563 20.012 4.58818L19.9964 4.56971ZM27.9426 11.581L25.3602 11.6719C24.9838 11.6818 24.6543 11.929 24.5392 12.2898C24.4241 12.6492 24.5506 13.0412 24.8517 13.2685L26.8886 14.8651L26.1614 17.348C26.0563 17.7074 26.1884 18.0923 26.4909 18.3125C26.7935 18.5326 27.1997 18.5397 27.5094 18.3295L29.6543 16.875L31.7991 18.3295H31.8006C32.1102 18.5397 32.5179 18.5326 32.819 18.3125C33.1216 18.0923 33.2537 17.7073 33.15 17.348L32.4227 14.8651L34.4597 13.2685C34.7523 13.0384 34.8716 12.6506 34.7565 12.2969C34.6415 11.9418 34.3191 11.6975 33.9469 11.6832L31.3616 11.5923L30.4881 9.16335C30.3602 8.81391 30.0279 8.58237 29.6557 8.58237C29.2835 8.58237 28.9511 8.8139 28.8233 9.16335L27.9426 11.581ZM29.6415 9.45742L28.758 11.8793H28.7565C28.6386 12.2231 28.3176 12.4546 27.954 12.4603L25.3716 12.5555V12.5839L27.3972 14.1591C27.6827 14.3807 27.8063 14.7529 27.7068 15.1009L26.9795 17.5881H27.008L29.1429 16.1335C29.4426 15.9304 29.8361 15.9304 30.1358 16.1335L32.2807 17.5881C32.2807 17.5881 32.302 17.5881 32.2807 17.5625L31.5534 15.0867C31.4682 14.733 31.6102 14.3651 31.9099 14.1591L33.9426 12.5767V12.5511L31.3687 12.4602C31.0051 12.4531 30.6855 12.2216 30.5648 11.8792L29.6813 9.45026H29.6528L29.6415 9.45742ZM8.87713 11.581L6.30611 11.6833C5.93396 11.6975 5.61007 11.9418 5.49644 12.2969C5.38138 12.6506 5.5007 13.0384 5.79331 13.2685L7.83026 14.8651L7.10299 17.348C6.99929 17.7074 7.12997 18.0923 7.43253 18.3125C7.73509 18.5327 8.14275 18.5398 8.451 18.3295L10.5959 16.875L12.7407 18.3295H12.7422C13.0518 18.5398 13.4595 18.5327 13.7621 18.3125C14.0632 18.0923 14.1953 17.7074 14.0916 17.348L13.3643 14.8651L15.397 13.2685C15.691 13.0384 15.8089 12.6492 15.6939 12.2941C15.5788 11.9404 15.2535 11.6961 14.8799 11.6833L12.2975 11.5923L11.4098 9.16337H11.4112C11.2833 8.81393 10.951 8.58238 10.5788 8.58238C10.2066 8.58238 9.87423 8.81392 9.74638 9.16337L8.86285 11.581L8.87713 11.581ZM10.576 9.45742L9.69531 11.8793C9.57457 12.2216 9.25498 12.4532 8.89135 12.4603L6.30895 12.5555V12.5839L8.33876 14.1591C8.6257 14.3793 8.74644 14.7543 8.64416 15.1009L7.93536 17.5881H7.96093L10.0959 16.1335C10.3942 15.9304 10.7876 15.9304 11.0874 16.1335L13.2322 17.5881C13.2322 17.5881 13.2535 17.5881 13.2507 17.5625L12.5234 15.0867H12.5249C12.4354 14.7401 12.5646 14.3736 12.8516 14.1591L14.8885 12.5668V12.5412L12.3146 12.4503H12.3132C11.9496 12.4446 11.6286 12.2117 11.5093 11.8679L10.6215 9.43892C10.6229 9.43892 10.5831 9.43182 10.5746 9.45738L10.576 9.45742Z" fill="white"/>
</svg>
