<svg width="40" height="40" viewBox="0 0 40 40" fill="none" xmlns="http://www.w3.org/2000/svg">
<path d="M20 25.2539C17.6055 25.2539 15.3555 24.3203 13.6641 22.6289C11.9727 20.9375 11.0391 18.6875 11.0391 16.293C11.0391 13.8984 11.9727 11.6484 13.6641 9.95703C15.3555 8.26562 17.6055 7.33203 20 7.33203C22.3945 7.33203 24.6445 8.26562 26.3359 9.95703C28.0273 11.6484 28.9609 13.8984 28.9609 16.293C28.9609 18.6875 28.0273 20.9375 26.3359 22.6289C24.6406 24.3242 22.3945 25.2539 20 25.2539ZM20 8.51172C15.707 8.51172 12.2148 12.0039 12.2148 16.2969C12.2148 20.5898 15.707 24.082 20 24.082C24.293 24.082 27.7852 20.5898 27.7852 16.2969C27.7852 12.0039 24.293 8.51172 20 8.51172Z" fill="white"/>
<path d="M18.668 19.8125L15.5391 16.6836L16.3672 15.8555L18.668 18.1562L23.6328 13.1953L24.4609 14.0234L18.668 19.8125Z" fill="white"/>
<path d="M19.999 30.5898C19.4404 30.5898 18.8818 30.4531 18.3701 30.1797C18.2646 30.125 18.1631 30.0625 18.0654 29.9961C17.8818 29.875 17.71 29.7305 17.5537 29.5742L16.0615 28.082C15.6318 27.6523 15.0576 27.4141 14.4482 27.4141H12.3389C10.4326 27.4141 8.88184 25.8633 8.88184 23.957V21.8477C8.88184 21.2461 8.63965 20.6562 8.21387 20.2344L6.72168 18.7422C5.37402 17.3945 5.37402 15.2031 6.72168 13.8555L8.21387 12.3633C8.63965 11.9375 8.88184 11.3477 8.88184 10.75V8.64062C8.88184 6.73438 10.4326 5.18359 12.3389 5.18359H14.4482C15.0576 5.18359 15.6318 4.94531 16.0615 4.51562L17.5537 3.02344C18.2061 2.37109 19.0732 2.01172 19.999 2.01172C20.9248 2.01172 21.7881 2.37109 22.4443 3.02344L23.9365 4.51562C24.3662 4.94922 24.9404 5.18359 25.5498 5.18359H27.6592C29.5654 5.18359 31.1162 6.73438 31.1162 8.64062V10.75C31.1162 11.3594 31.3545 11.9336 31.7842 12.3633L33.2764 13.8555C34.624 15.2031 34.624 17.3945 33.2764 18.7422L31.7842 20.2344C31.3545 20.6641 31.1162 21.2383 31.1162 21.8477V23.957C31.1162 25.8633 29.5654 27.4141 27.6592 27.4141H25.5498C24.9404 27.4141 24.3662 27.6523 23.9365 28.082L22.4443 29.5742C22.2881 29.7305 22.1162 29.875 21.9326 29.9961C21.8389 30.0625 21.7334 30.1211 21.6279 30.1797C21.1162 30.4531 20.5576 30.5898 19.999 30.5898ZM12.335 6.35156C11.0771 6.35156 10.0498 7.375 10.0498 8.63672V10.7461C10.0498 11.668 9.69043 12.5352 9.03809 13.1875L7.5459 14.6797C6.65527 15.5703 6.65527 17.0195 7.5459 17.9102L9.03809 19.4023C9.69043 20.0547 10.0498 20.9219 10.0498 21.8477V23.957C10.0498 25.2148 11.0732 26.2422 12.335 26.2422H14.4443C15.3662 26.2422 16.2334 26.6016 16.8896 27.2539L18.3818 28.7461C18.4873 28.8516 18.6006 28.9453 18.7217 29.0273C18.7842 29.0703 18.8506 29.1094 18.9209 29.1484C19.5967 29.5078 20.4014 29.5078 21.0732 29.1484C21.1436 29.1133 21.21 29.0703 21.2725 29.0312C21.3936 28.9492 21.5107 28.8555 21.6123 28.75L23.1045 27.2578C23.7568 26.6055 24.624 26.2461 25.5498 26.2461H27.6592C28.917 26.2461 29.9443 25.2227 29.9443 23.9609V21.8516C29.9443 20.9297 30.3037 20.0586 30.9561 19.4062L32.4482 17.9141C33.3389 17.0234 33.3389 15.5742 32.4482 14.6836L30.9561 13.1914C30.3037 12.5391 29.9443 11.6719 29.9443 10.7461V8.63672C29.9443 7.37891 28.9209 6.35156 27.6592 6.35156H25.5498C24.6279 6.35156 23.7568 5.99219 23.1045 5.33984L21.6123 3.84766C20.7217 2.95703 19.2725 2.95703 18.3818 3.84766L16.8896 5.33984C16.2373 5.99219 15.3701 6.35156 14.4443 6.35156H12.335Z" fill="white"/>
<path d="M15.7695 37.9375L13.0742 34.625L8.85156 35.2656L12.3359 26.2461H14.4453C15.3672 26.2461 16.2344 26.6055 16.8906 27.2578L18.3828 28.75C18.4883 28.8555 18.6016 28.9492 18.7227 29.0312L19.1094 29.293L15.7695 37.9375ZM13.5625 33.3633L15.4062 35.6289L17.6953 29.707C17.6484 29.6641 17.6016 29.6211 17.5586 29.5781L16.0664 28.0859C15.6367 27.6562 15.0625 27.418 14.4531 27.418H13.1445L10.6758 33.8047L13.5625 33.3633Z" fill="white"/>
<path d="M24.2305 37.9375L20.8906 29.2891L21.2773 29.0273C21.3984 28.9453 21.5117 28.8516 21.6172 28.7461L23.1094 27.2539C23.7617 26.6016 24.6289 26.2422 25.5547 26.2422H27.6641L31.1484 35.2617L26.9258 34.6211L24.2305 37.9375ZM22.3047 29.707L24.5937 35.6328L26.4375 33.3672L29.3242 33.8047L26.8555 27.418H25.5469C24.9375 27.418 24.3633 27.6563 23.9336 28.0859L22.4414 29.5781C22.3984 29.6211 22.3516 29.6641 22.3047 29.707Z" fill="white"/>
</svg>
