<svg width="80" height="80" viewBox="0 0 80 80" fill="none" xmlns="http://www.w3.org/2000/svg">
<path d="M38.0431 7.96535C38.063 7.96535 38.0829 7.96535 38.1028 7.96251C39.3585 7.87444 40.6369 7.87444 41.8925 7.96251C42.384 7.98808 42.7703 7.64148 42.8016 7.17276C42.8357 6.70402 42.4806 6.29495 42.0119 6.26367C40.6767 6.16992 39.3187 6.16992 37.9834 6.26367C37.5147 6.29776 37.1596 6.70402 37.1937 7.17276C37.2249 7.62163 37.5999 7.96535 38.0431 7.96535Z" fill="#1E5724"/>
<path d="M29.5957 9.58967C29.6867 9.58967 29.7804 9.57547 29.8713 9.54422C30.4679 9.33967 31.0673 9.15501 31.6838 8.99024C32.3003 8.82547 32.9139 8.68342 33.5304 8.5641C33.9935 8.47604 34.2947 8.02717 34.2066 7.5641C34.1185 7.10103 33.664 6.79421 33.2094 6.88796C32.5532 7.0158 31.8997 7.16354 31.2435 7.33967C30.5873 7.5158 29.9509 7.71183 29.3174 7.92773C28.8714 8.08114 28.6356 8.5641 28.789 9.01013C28.9112 9.36809 29.2435 9.58967 29.5957 9.58967Z" fill="#1E5724"/>
<path d="M21.8592 13.3493C22.024 13.3493 22.1887 13.301 22.3365 13.2016C22.8592 12.8493 23.3904 12.5169 23.9444 12.1959C24.4984 11.8777 25.0523 11.5822 25.6177 11.3038C26.041 11.0964 26.2171 10.5879 26.0098 10.1646C25.8052 9.74131 25.2938 9.56518 24.8706 9.77257C24.2683 10.068 23.6802 10.3805 23.0922 10.7186C22.5041 11.0595 21.9359 11.4118 21.3819 11.7868C20.9927 12.051 20.8904 12.5794 21.1546 12.9686C21.3194 13.2186 21.5865 13.3493 21.8592 13.3493Z" fill="#1E5724"/>
<path d="M15.3616 18.9802C15.6002 18.9802 15.836 18.8808 16.0064 18.6848C16.4184 18.2104 16.8473 17.7501 17.299 17.2985C17.7507 16.8468 18.211 16.4178 18.6854 16.0059C19.0405 15.6962 19.0774 15.1593 18.7677 14.8042C18.4581 14.4491 17.9211 14.4122 17.5661 14.7218C17.0604 15.1593 16.5717 15.6139 16.0917 16.0968C15.6116 16.5769 15.1541 17.0655 14.7167 17.5712C14.407 17.9263 14.4468 18.4633 14.8019 18.7729C14.9639 18.9121 15.1627 18.9802 15.3616 18.9802Z" fill="#1E5724"/>
<path d="M11.7875 21.3858C11.4125 21.9398 11.0603 22.508 10.7193 23.096C10.3784 23.6841 10.0659 24.2722 9.77328 24.8744C9.56873 25.2977 9.74203 25.8091 10.1653 26.0136C10.2846 26.0733 10.4125 26.0989 10.5375 26.0989C10.8528 26.0989 11.1568 25.9227 11.3045 25.6216C11.5801 25.0563 11.8756 24.4994 12.1938 23.9483C12.512 23.3943 12.8472 22.863 13.1994 22.3404C13.4636 21.9483 13.3614 21.4199 12.9693 21.1585C12.5801 20.8943 12.0517 20.9966 11.7875 21.3858Z" fill="#1E5724"/>
<path d="M9.0153 28.796C8.57212 28.6397 8.08636 28.8784 7.9329 29.3244C7.71415 29.9579 7.51813 30.5971 7.34484 31.2533C7.1687 31.9096 7.01813 32.5602 6.89029 33.2164C6.80223 33.6766 7.10336 34.1255 7.56643 34.2164C7.62041 34.2277 7.67439 34.2306 7.72836 34.2306C8.12893 34.2306 8.48407 33.9465 8.56356 33.5402C8.68288 32.9209 8.82493 32.3101 8.9897 31.6936C9.15447 31.0771 9.33913 30.4749 9.54368 29.8811C9.69709 29.4323 9.46132 28.9494 9.0153 28.796Z" fill="#1E5724"/>
<path d="M7.17152 42.8033C7.64027 42.7692 7.99537 42.363 7.96127 41.8942C7.91865 41.2664 7.89592 40.6385 7.89592 39.9993C7.89592 39.3601 7.91865 38.7322 7.96127 38.1044C7.99536 37.6356 7.64024 37.2266 7.17152 37.1953C6.71129 37.1641 6.2937 37.5135 6.26243 37.985C6.21413 38.6527 6.19141 39.3202 6.19141 39.9992C6.19141 40.6782 6.21413 41.3458 6.26243 42.0134C6.29368 42.4623 6.66868 42.806 7.11188 42.806C7.13177 42.806 7.15163 42.8061 7.17152 42.8033Z" fill="#1E5724"/>
<path d="M8.99063 48.3072C8.82585 47.6907 8.6838 47.0771 8.56449 46.4606C8.47358 45.9975 8.02471 45.6907 7.56449 45.7844C7.10142 45.8754 6.80027 46.3214 6.89119 46.7844C7.01903 47.4407 7.1696 48.0941 7.34574 48.7475C7.52188 49.4038 7.7179 50.0429 7.9338 50.6764C8.05596 51.0287 8.38551 51.2503 8.74064 51.2503C8.83155 51.2503 8.9253 51.2361 9.01621 51.2049C9.46223 51.0514 9.69803 50.5656 9.54462 50.1225C9.34007 49.5259 9.1554 48.9266 8.99063 48.3072Z" fill="#1E5724"/>
<path d="M12.195 56.0503C11.8768 55.4963 11.5814 54.9424 11.3058 54.377C11.0984 53.9566 10.587 53.7776 10.1666 53.985C9.74327 54.1924 9.56713 54.7009 9.77452 55.1242C10.0671 55.7264 10.3825 56.3173 10.7206 56.9026C11.0615 57.4906 11.4137 58.0588 11.7888 58.6128C11.9535 58.8571 12.2234 58.9878 12.4962 58.9878C12.6609 58.9878 12.8257 58.9395 12.9734 58.8401C13.3626 58.5759 13.4649 58.0475 13.2036 57.6583C12.8456 57.1355 12.5132 56.6043 12.195 56.0503Z" fill="#1E5724"/>
<path d="M17.2985 62.6988C16.8468 62.2471 16.4178 61.7869 16.0059 61.3125C15.6962 60.9574 15.1593 60.9204 14.8042 61.2272C14.4491 61.5369 14.4122 62.0739 14.7218 62.4289C15.1593 62.9318 15.6167 63.4233 16.0968 63.9033C16.5769 64.3834 17.0655 64.838 17.5712 65.2783C17.7331 65.4204 17.932 65.4885 18.1309 65.4885C18.3695 65.4885 18.6053 65.3891 18.7757 65.1959C19.0854 64.8408 19.0485 64.3038 18.6934 63.9942C18.2104 63.5795 17.7502 63.1504 17.2985 62.6988Z" fill="#1E5724"/>
<path d="M25.6196 68.69C25.0543 68.4144 24.5003 68.1218 23.9463 67.8008C23.3923 67.4826 22.8611 67.1474 22.3384 66.7951C21.9463 66.5309 21.4179 66.6332 21.1537 67.0252C20.8895 67.4144 20.9946 67.9457 21.3838 68.207C21.9378 68.582 22.506 68.9343 23.0941 69.2753C23.6822 69.6162 24.2731 69.9287 24.8753 70.2213C24.9947 70.2781 25.1225 70.3065 25.2475 70.3065C25.5628 70.3065 25.8668 70.1304 26.0146 69.8264C26.2191 69.406 26.0429 68.8974 25.6196 68.69Z" fill="#1E5724"/>
<path d="M33.5373 71.4343C32.918 71.315 32.3072 71.1729 31.6878 71.0082C31.0713 70.8434 30.4719 70.6587 29.8753 70.4542C29.4293 70.2979 28.9435 70.5366 28.7929 70.9826C28.6395 71.4286 28.8753 71.9115 29.3213 72.0678C29.9548 72.2866 30.5941 72.4826 31.2474 72.6559C31.9037 72.832 32.5543 72.9798 33.2105 73.1104C33.2645 73.1218 33.3213 73.1246 33.3753 73.1246C33.7758 73.1246 34.131 72.8434 34.2105 72.4343C34.3014 71.9712 34.0004 71.5252 33.5373 71.4343Z" fill="#1E5724"/>
<path d="M41.8925 72.0358C40.6368 72.1239 39.3584 72.1239 38.1028 72.0358C37.6397 72.0159 37.2249 72.354 37.1937 72.8256C37.1596 73.2943 37.5147 73.7034 37.9834 73.7347C38.651 73.7801 39.3186 73.8057 39.9976 73.8057C40.6766 73.8057 41.3442 73.783 42.0118 73.7347C42.4805 73.7006 42.8356 73.2943 42.8015 72.8256C42.7674 72.3568 42.3556 71.9989 41.8925 72.0358Z" fill="#1E5724"/>
<path d="M50.1219 70.4542C49.5282 70.6587 48.9259 70.8434 48.3094 71.0082C47.693 71.1758 47.0822 71.315 46.4628 71.4343C46.0026 71.5252 45.6986 71.9712 45.7895 72.4343C45.8691 72.8405 46.227 73.1246 46.6247 73.1246C46.6787 73.1246 46.7327 73.119 46.7895 73.1104C47.4457 72.9826 48.0992 72.832 48.7525 72.6559C49.4088 72.4798 50.048 72.2866 50.6815 72.0678C51.1275 71.9144 51.3605 71.4286 51.2099 70.9826C51.0508 70.5366 50.568 70.2979 50.1219 70.4542Z" fill="#1E5724"/>
<path d="M57.6559 66.7949C57.1331 67.1472 56.6019 67.4796 56.0479 67.8006C55.494 68.1188 54.94 68.4143 54.3746 68.6899C53.9513 68.8972 53.7752 69.4058 53.9798 69.8291C54.1275 70.133 54.4314 70.3092 54.7468 70.3092C54.8718 70.3092 54.9996 70.2808 55.119 70.2239C55.7212 69.9313 56.3093 69.616 56.9002 69.2779C57.4883 68.937 58.0536 68.5847 58.6076 68.2097C58.9997 67.9455 59.1019 67.4171 58.8377 67.0279C58.5764 66.6358 58.0479 66.5336 57.6559 66.7949Z" fill="#1E5724"/>
<path d="M63.9914 61.3125C63.5766 61.7869 63.1505 62.2472 62.6988 62.6988C62.2471 63.1505 61.7869 63.5795 61.3125 63.9914C60.9574 64.3011 60.9204 64.838 61.2272 65.1931C61.3949 65.3863 61.6335 65.4857 61.8721 65.4857C62.071 65.4857 62.2699 65.4175 62.4318 65.2783C62.9375 64.838 63.4261 64.3834 63.9062 63.9033C64.3863 63.4232 64.8409 62.9346 65.2812 62.4289C65.5908 62.0738 65.5539 61.5369 65.1988 61.2273C64.838 60.9204 64.3011 60.9574 63.9914 61.3125Z" fill="#1E5724"/>
<path d="M69.8322 53.9835C69.4117 53.7761 68.8975 53.9523 68.693 54.3755C68.4174 54.9409 68.122 55.4977 67.8009 56.0489C67.4827 56.6028 67.1504 57.1341 66.7953 57.6568C66.5311 58.046 66.6333 58.5772 67.0225 58.8386C67.1703 58.938 67.335 58.9863 67.4998 58.9863C67.7725 58.9863 68.0424 58.8556 68.2072 58.6113C68.5822 58.0574 68.9373 57.4891 69.2754 56.9011C69.6163 56.313 69.9288 55.7249 70.2214 55.1227C70.4288 54.7022 70.2555 54.1909 69.8322 53.9835Z" fill="#1E5724"/>
<path d="M72.4329 45.7868C71.9812 45.6987 71.5238 45.9998 71.4329 46.4629C71.3136 47.0822 71.1715 47.693 71.0068 48.3095C70.842 48.9288 70.6573 49.5283 70.4528 50.1249C70.2994 50.5709 70.538 51.0538 70.9812 51.2073C71.0721 51.2385 71.1659 51.2527 71.2568 51.2527C71.6119 51.2527 71.9414 51.0311 72.0636 50.676C72.2823 50.0425 72.4755 49.4061 72.6517 48.7471C72.8278 48.0937 72.9784 47.4402 73.1034 46.784C73.1971 46.3238 72.8931 45.8777 72.4329 45.7868Z" fill="#1E5724"/>
<path d="M73.7363 37.985C73.705 37.5135 73.2846 37.164 72.8272 37.1953C72.3584 37.2294 72.0033 37.6356 72.0374 38.1044C72.0829 38.7322 72.1028 39.3601 72.1028 39.9993C72.1028 40.6385 72.08 41.2664 72.0374 41.8942C72.0033 42.363 72.3584 42.772 72.8272 42.8033C72.8471 42.8033 72.8669 42.8061 72.8868 42.8061C73.33 42.8061 73.705 42.4624 73.7363 42.0136C73.7817 41.3459 73.8073 40.6784 73.8073 39.9994C73.8073 39.3204 73.7846 38.6526 73.7363 37.985Z" fill="#1E5724"/>
<path d="M71.0081 31.6888C71.1729 32.3053 71.315 32.919 71.4343 33.5383C71.5138 33.9445 71.8689 34.2286 72.2695 34.2286C72.3235 34.2286 72.3774 34.223 72.4314 34.2144C72.8916 34.1264 73.1956 33.6775 73.1076 33.2144C72.9797 32.5582 72.8291 31.9076 72.6559 31.2485C72.4797 30.5951 72.2837 29.956 72.0678 29.3224C71.9144 28.8764 71.4314 28.6378 70.9854 28.794C70.5394 28.9474 70.3036 29.4304 70.457 29.8764C70.6587 30.4702 70.8434 31.0723 71.0081 31.6888Z" fill="#1E5724"/>
<path d="M54.3765 11.306C54.9418 11.5815 55.4987 11.877 56.0498 12.1981C56.6038 12.5162 57.135 12.8486 57.6577 13.2037C57.8054 13.3032 57.9702 13.3514 58.135 13.3514C58.4077 13.3514 58.6776 13.2208 58.8424 12.9765C59.1066 12.5872 59.0043 12.056 58.6151 11.7946C58.0611 11.4196 57.4929 11.0645 56.9049 10.7264C56.3168 10.3855 55.7287 10.073 55.1265 9.78038C54.706 9.57299 54.1918 9.74913 53.9873 10.1724C53.777 10.59 53.9532 11.1014 54.3765 11.306Z" fill="#1E5724"/>
<path d="M46.458 8.56509C47.0773 8.6844 47.6881 8.82645 48.3046 8.99122C48.924 9.15599 49.5234 9.34066 50.12 9.5452C50.2109 9.57645 50.3047 9.59066 50.3984 9.59066C50.7535 9.59066 51.0831 9.36906 51.2052 9.01679C51.3586 8.57077 51.1229 8.08501 50.6768 7.93439C50.0433 7.71565 49.4041 7.52246 48.7479 7.34633C48.0916 7.17019 47.441 7.01962 46.7848 6.89463C46.3104 6.79804 45.8757 7.1077 45.7848 7.57077C45.6968 8.02815 45.9978 8.47701 46.458 8.56509Z" fill="#1E5724"/>
<path d="M61.6865 51.8322V51.8294C62.9138 49.5936 63.7802 47.1958 64.2632 44.71C64.3541 44.2469 64.0502 43.8009 63.5899 43.71C63.1297 43.6191 62.6809 43.9231 62.5899 44.3833C62.249 46.1333 61.7064 47.8322 60.9706 49.4572C60.9621 49.443 60.9535 49.4345 60.945 49.4203C60.7405 49.0623 60.516 48.7441 60.2831 48.4487C60.2291 48.3805 60.1723 48.3152 60.1155 48.2498C59.891 47.9885 59.6552 47.747 59.4052 47.5396C59.3825 47.5197 59.3598 47.4942 59.3371 47.4771C59.0672 47.2612 58.7774 47.0851 58.4819 46.9317C58.4109 46.8947 58.3371 46.8606 58.266 46.8294C57.9592 46.6902 57.6439 46.5737 57.3086 46.4998C54.5388 45.8919 51.445 47.8095 49.6272 49.6249C49.0448 50.2073 47.6783 50.443 46.3601 50.6675C43.5931 51.1419 39.4113 51.8578 40.2977 57.1845C40.3801 57.676 40.5022 58.1447 40.6414 58.6049C40.6755 58.7129 40.7096 58.8208 40.7465 58.9288C40.8999 59.3748 41.0732 59.8123 41.2835 60.2242C41.3062 60.2668 41.3318 60.3066 41.3545 60.3492C41.5534 60.7299 41.7806 61.0907 42.0278 61.4401C42.0874 61.5254 42.1471 61.6134 42.2124 61.6987C42.488 62.0651 42.7892 62.4174 43.1187 62.7441C43.1357 62.7611 43.1471 62.7782 43.1613 62.7952C40.4596 63.1674 37.6841 63.0594 35.002 62.4629C35.1043 62.1788 35.2009 61.8833 35.2918 61.5765C35.3117 61.5083 35.3287 61.4344 35.3486 61.3634C35.4197 61.1105 35.485 60.8577 35.5418 60.5935C35.5674 60.477 35.5844 60.3549 35.6072 60.2355C35.6498 60.0083 35.6867 59.7781 35.7179 59.5452C35.735 59.406 35.7464 59.2668 35.7606 59.1276C35.7804 58.9003 35.7946 58.6702 35.8003 58.4372C35.8032 58.2895 35.806 58.1418 35.8032 57.9941C35.8003 57.7554 35.7861 57.5168 35.7634 57.2753C35.752 57.1276 35.7407 56.9827 35.7208 56.8321C35.6867 56.5679 35.6356 56.3037 35.5787 56.0366C35.5503 55.9088 35.5333 55.781 35.4992 55.6503C35.3969 55.2554 35.2748 54.8577 35.1128 54.4571C33.968 51.5935 31.7378 50.2781 29.7719 49.1162C27.4736 47.7582 25.485 46.5849 24.9338 43.2724C24.8571 42.8207 24.7463 42.3974 24.61 41.994C24.5986 41.9571 24.5873 41.9201 24.5759 41.886C24.4395 41.5053 24.2748 41.1559 24.0844 40.8236C24.0589 40.7781 24.0361 40.7326 24.0106 40.69C23.8202 40.3719 23.6015 40.0821 23.3628 39.8122C23.3259 39.7696 23.2861 39.727 23.2492 39.6844C23.0049 39.4259 22.7407 39.1901 22.4537 38.9798C22.4054 38.9429 22.3543 38.9117 22.306 38.8776C22.0105 38.6759 21.698 38.494 21.3628 38.3406C21.3088 38.3151 21.2491 38.2952 21.1923 38.2696C20.8457 38.1219 20.4849 37.9969 20.0986 37.9031C20.0474 37.8918 19.9963 37.8832 19.9452 37.8719C19.5588 37.7867 19.1583 37.7213 18.7349 37.6872C18.698 37.6844 18.6639 37.6787 18.627 37.6759C18.1838 37.6446 17.7179 37.6503 17.2377 37.6759C17.1951 37.6787 17.1582 37.673 17.1184 37.6759C17.7718 31.2469 21.1809 25.2955 26.4195 21.4489C26.4649 21.5313 26.5189 21.6222 26.5672 21.7103C26.6127 21.7899 26.6553 21.8666 26.7036 21.9489C26.8144 22.1421 26.9337 22.3438 27.0587 22.5512C27.0899 22.6052 27.1212 22.6563 27.1524 22.7103C27.3115 22.9745 27.4792 23.2444 27.6581 23.52C27.7007 23.5853 27.7434 23.6507 27.7888 23.7188C27.9252 23.9291 28.0644 24.1421 28.2121 24.3524C28.2774 24.4461 28.3428 24.5399 28.411 24.6365C28.5417 24.824 28.6752 25.0086 28.8144 25.1933C28.8854 25.2899 28.9593 25.3864 29.0303 25.4802C29.1752 25.6677 29.3201 25.8467 29.4678 26.0257C29.5331 26.1052 29.5985 26.1876 29.6667 26.2671C29.8797 26.5171 30.0985 26.7558 30.3144 26.9745C31.0899 27.7501 31.4195 29.4006 31.7348 30.9915C32.232 33.4859 32.7916 36.3126 35.4621 36.3126C35.5928 36.3126 35.7206 36.3012 35.8144 36.2898C35.9593 36.2898 36.107 36.2756 36.2433 36.2444C36.32 36.2358 36.4053 36.2216 36.5161 36.2018C36.5246 36.1989 36.5331 36.2018 36.5416 36.1989C36.6127 36.1904 36.6837 36.1648 36.7519 36.1393C36.7746 36.1307 36.7973 36.1307 36.8172 36.1194C36.9081 36.0768 36.9905 36.0199 37.0644 35.9489C37.3967 35.6165 37.3967 35.0768 37.0644 34.7444C36.9678 34.6478 36.8513 34.5882 36.7291 34.5455C36.6922 34.5342 36.6553 34.5313 36.6183 34.5228C36.5672 34.5143 36.5161 34.4916 36.4621 34.4916H36.4564C36.4053 34.4973 36.3371 34.4972 36.2774 34.5086C35.9706 34.5711 35.6979 34.6052 35.4621 34.6052C34.2774 34.6052 33.8968 33.1137 33.4081 30.6563C33.0416 28.8125 32.6638 26.9064 31.5217 25.7643C31.3172 25.5597 31.1126 25.3324 30.9081 25.0938C30.8427 25.0143 30.7746 24.9319 30.7092 24.8495C30.5729 24.6819 30.4365 24.5114 30.303 24.3353C30.2291 24.2387 30.1581 24.1393 30.0842 24.0398C29.9592 23.8665 29.8342 23.6932 29.7121 23.5171C29.6439 23.4177 29.5757 23.3211 29.5104 23.2216C29.3825 23.0313 29.2575 22.841 29.1382 22.6535C29.0871 22.5739 29.0331 22.4944 28.9848 22.4148C28.82 22.1563 28.6638 21.9006 28.5189 21.6591C28.4763 21.5881 28.4393 21.5227 28.3996 21.4546C28.3001 21.2841 28.2007 21.1165 28.1126 20.9631C28.0501 20.8551 27.9962 20.7557 27.9393 20.6591C27.9053 20.5966 27.8712 20.5398 27.8399 20.483C30.5502 18.7926 33.607 17.6733 36.7294 17.2329C37.1953 17.1676 37.5191 16.7358 37.4538 16.2699C37.3885 15.804 36.9538 15.4716 36.4907 15.5455C32.8601 16.0568 29.3146 17.4204 26.2377 19.4887H26.2348C19.8456 23.787 15.7744 30.9177 15.3374 38.5628V38.5685V38.5799V38.5827C15.3033 39.0515 15.2891 39.5202 15.2891 40.0032C15.2891 51.1733 22.8287 60.9915 33.6243 63.8839H33.6272C35.7124 64.4379 37.8573 64.7191 40.005 64.7191C41.7919 64.7191 43.5789 64.5259 45.3147 64.1424C52.2777 62.6054 58.2458 58.1193 61.6865 51.8322ZM16.9847 39.9995C16.9847 39.7949 16.9875 39.5904 16.9932 39.3858C17.0273 39.383 17.0614 39.3802 17.0926 39.3773C17.2205 39.3659 17.3483 39.3574 17.479 39.3517C17.4961 39.3517 17.5159 39.3517 17.533 39.3489C18.3398 39.3148 19.158 39.3745 19.9193 39.5875C19.9364 39.5932 19.9562 39.5961 19.9733 39.6017C20.0926 39.6358 20.2119 39.6784 20.3284 39.7211C20.3739 39.7381 20.4165 39.7523 20.4619 39.7694C20.5642 39.8091 20.6636 39.8574 20.7631 39.9057C20.817 39.9313 20.8739 39.9597 20.9278 39.9881C21.0159 40.0364 21.104 40.0875 21.1892 40.1415C21.2489 40.1784 21.3085 40.2182 21.3682 40.258C21.4449 40.312 21.5216 40.3716 21.5954 40.4313C21.6579 40.4824 21.7176 40.5336 21.7773 40.5875C21.8454 40.65 21.9108 40.7125 21.9761 40.7807C22.0358 40.8432 22.0954 40.9114 22.1523 40.9796C22.2091 41.0478 22.2659 41.1188 22.3199 41.1926C22.3767 41.2722 22.4335 41.3574 22.4875 41.4426C22.5358 41.5165 22.5812 41.5904 22.6267 41.6699C22.6807 41.7694 22.729 41.8773 22.7801 41.9853C22.817 42.062 22.854 42.1387 22.8881 42.2182C22.9392 42.3461 22.9818 42.4853 23.0273 42.6216C23.05 42.6955 23.0784 42.7637 23.0983 42.8404C23.158 43.062 23.2119 43.2921 23.2517 43.5392C23.9335 47.6358 26.5756 49.1955 28.9023 50.5733C30.8028 51.6955 32.5983 52.7552 33.5273 55.0819C33.6636 55.4199 33.7659 55.7551 33.8511 56.0932C33.8795 56.204 33.8937 56.3148 33.9165 56.4284C33.9619 56.6529 34.0074 56.8773 34.033 57.0989C34.05 57.2296 34.0557 57.3574 34.0642 57.4852C34.0784 57.687 34.0926 57.8887 34.0926 58.0875C34.0926 58.221 34.0898 58.3517 34.0841 58.4824C34.0756 58.6756 34.0642 58.8659 34.0472 59.0534C34.0358 59.1813 34.0216 59.3091 34.0046 59.4341C33.979 59.6216 33.9477 59.8063 33.9136 59.9881C33.8909 60.1074 33.8682 60.2267 33.8426 60.3404C33.8 60.525 33.7546 60.7068 33.7034 60.8858C33.675 60.9881 33.6494 61.0932 33.6182 61.1926C33.5585 61.3858 33.496 61.5705 33.4307 61.7551C33.4051 61.8319 33.3795 61.9114 33.3511 61.9853C33.3455 61.9995 33.3398 62.0108 33.3369 62.0222C23.6693 59.0989 16.9847 50.1471 16.9847 39.9995ZM45.3141 62.3886C45.2374 62.3317 45.1579 62.2749 45.084 62.2153C44.9789 62.1329 44.8766 62.0505 44.7744 61.9653C44.6579 61.8658 44.5471 61.7607 44.4363 61.6556C44.3426 61.5675 44.2488 61.4766 44.1607 61.3857C44.0556 61.2749 43.9562 61.1613 43.8568 61.0448C43.7744 60.9511 43.692 60.8545 43.6153 60.7579C43.5215 60.6357 43.4335 60.5079 43.3454 60.38C43.2772 60.2806 43.2062 60.184 43.1437 60.0817C43.0585 59.9425 42.9818 59.8005 42.9051 59.6556C42.8511 59.5562 42.7943 59.4596 42.7431 59.3573C42.6664 59.1982 42.5982 59.0335 42.5329 58.8687C42.4931 58.7749 42.4505 58.684 42.4136 58.5874C42.3426 58.3971 42.2857 58.1982 42.2261 57.9994C42.2034 57.9226 42.175 57.8488 42.1551 57.7721C42.0812 57.4908 42.0187 57.2039 41.9704 56.9056C41.3909 53.4284 43.3653 52.9084 46.638 52.3488C48.2914 52.0647 49.854 51.7977 50.8227 50.8318C50.9647 50.6897 51.1324 50.5335 51.3113 50.3772C51.3767 50.3204 51.4505 50.2636 51.5187 50.2039C51.6409 50.1017 51.7659 49.9994 51.8994 49.8943C51.9932 49.8233 52.0926 49.7522 52.192 49.6812C52.3142 49.5932 52.4392 49.5023 52.5699 49.417C52.6835 49.3403 52.8 49.2693 52.9193 49.1983C53.0471 49.1216 53.175 49.0449 53.3057 48.971C53.4307 48.9 53.5585 48.8346 53.6892 48.7721C53.8227 48.7068 53.9591 48.6443 54.0954 48.5875C54.2261 48.5307 54.3596 48.4767 54.4932 48.4284C54.638 48.3772 54.7801 48.3346 54.925 48.2949C55.0557 48.2579 55.1835 48.221 55.3142 48.1926C55.4761 48.1585 55.638 48.1443 55.8 48.1301C55.9108 48.1187 56.0244 48.0988 56.1352 48.0988C56.4051 48.096 56.6721 48.113 56.9335 48.1699C57.1011 48.2068 57.2631 48.2579 57.4193 48.3204C57.4563 48.3346 57.4903 48.3574 57.5244 48.3716C57.6438 48.4255 57.7602 48.4795 57.8739 48.5477C57.9278 48.579 57.9761 48.6187 58.0273 48.6557C58.121 48.7182 58.2148 48.7807 58.3028 48.8545C58.3597 48.9 58.4136 48.954 58.4676 49.0051C58.55 49.079 58.6296 49.1557 58.7091 49.238C58.7631 49.2977 58.8171 49.3631 58.871 49.4284C58.9449 49.5165 59.0188 49.6045 59.0869 49.7011C59.1409 49.775 59.1921 49.8517 59.2432 49.9284C59.3114 50.0307 59.3767 50.1329 59.4392 50.2409C59.4903 50.3261 59.5386 50.417 59.5841 50.5051C59.6466 50.6187 59.7063 50.738 59.7659 50.8602C59.8114 50.9568 59.8568 51.0562 59.8994 51.1585C59.9278 51.2267 59.9563 51.2949 59.9847 51.3659C56.8284 56.9227 51.5134 60.9144 45.3141 62.3886Z" fill="#1E5724"/>
<path d="M56.2766 23.2288C56.2198 23.51 56.1914 23.7913 56.1914 24.0896C56.1914 25.3253 56.7198 26.4219 57.5522 27.1975C57.5664 27.2117 57.5835 27.2231 57.6005 27.2401C58.2994 27.8708 59.1971 28.2856 60.2084 28.3367C60.2993 28.3509 60.3789 28.3509 60.4527 28.3509C62.8022 28.3509 64.7141 26.439 64.7141 24.0895C64.7141 21.7401 62.8022 19.8281 60.4527 19.8281C58.4386 19.8281 56.6829 21.2571 56.2766 23.2288ZM57.9471 23.5697C58.1914 22.3907 59.2454 21.5327 60.4528 21.5327C61.8619 21.5327 63.0096 22.6804 63.0096 24.0895C63.0096 25.4986 61.8619 26.6463 60.5067 26.6606C60.4499 26.6464 60.3931 26.6379 60.3363 26.6379C58.967 26.5867 57.8959 25.4674 57.8959 24.0924C57.8959 23.9077 57.913 23.7373 57.9471 23.5697Z" fill="#1E5724"/>
<path d="M66.9861 36.5907C66.9861 34.8549 66.31 33.2129 65.0714 31.96C64.3071 31.2101 63.4151 30.6674 62.418 30.3493C62.3867 30.3379 62.3555 30.3294 62.3242 30.3237C61.7106 30.1476 61.0799 30.0566 60.4521 30.0566C56.8498 30.0566 53.918 32.9884 53.918 36.5908V38.8635C53.918 39.9601 54.81 40.8521 55.9066 40.8521H64.9975C66.0941 40.8521 66.9862 39.9601 66.9862 38.8635L66.9861 36.5907ZM65.2815 38.8634C65.2815 39.0168 65.1509 39.1475 64.9975 39.1475H55.9065C55.7531 39.1475 55.6225 39.0168 55.6225 38.8634V36.5907C55.6225 33.9259 57.7873 31.7612 60.452 31.7612C60.9037 31.7612 61.3554 31.8237 61.8014 31.9487C61.8668 31.9771 61.935 31.997 62.0031 32.0083C62.702 32.2498 63.3327 32.6419 63.8668 33.1675C64.7787 34.0907 65.2787 35.3038 65.2787 36.5907L65.2815 38.8634Z" fill="#1E5724"/>
<path d="M40.2813 16.1779C40.3097 18.5018 42.2188 20.3939 44.5427 20.3939C46.3041 20.3939 47.8495 19.3456 48.4716 17.7518C48.6932 17.2405 48.804 16.6979 48.804 16.1325C48.804 13.783 46.8921 11.8711 44.5426 11.8711C42.1932 11.8739 40.2813 13.7859 40.2813 16.1779ZM44.5427 13.5785C45.9518 13.5785 47.0995 14.7262 47.0995 16.1353C47.0995 16.4677 47.0341 16.7859 46.8978 17.1097C46.5228 18.0699 45.5995 18.6921 44.5427 18.6921C43.1251 18.6921 42.0029 17.5813 41.9859 16.1353C41.9859 14.7262 43.1336 13.5785 44.5427 13.5785Z" fill="#1E5724"/>
<path d="M49.1641 24.0078C47.9198 22.7805 46.2777 22.1016 44.5419 22.1016C40.9397 22.1016 38.0078 25.0333 38.0078 28.6357V30.9084C38.0078 32.005 38.8999 32.8971 39.9965 32.8971H49.0874C50.184 32.8971 51.076 32.005 51.076 30.9084V28.6357C51.076 27.3544 50.701 26.1101 49.9965 25.0391C49.7607 24.6698 49.4823 24.326 49.1641 24.0078ZM49.3715 30.9084C49.3715 31.0618 49.2408 31.1925 49.0874 31.1925H39.9965C39.8431 31.1925 39.7124 31.0618 39.7124 30.9084V28.6357C39.7124 25.9709 41.88 23.8061 44.5419 23.8061C45.8288 23.8061 47.0419 24.309 47.9624 25.2152C48.1896 25.4454 48.3942 25.6982 48.5703 25.9681C49.0959 26.7664 49.3743 27.6897 49.3743 28.6357L49.3715 30.9084Z" fill="#1E5724"/>
</svg>
