<svg width="80" height="80" viewBox="0 0 80 80" fill="none" xmlns="http://www.w3.org/2000/svg">
<path d="M58.3515 40.9804V34.2531C58.3515 33.8724 58.0419 33.5628 57.6612 33.5628H50.2917V31.5429H57.6612C58.0419 31.5429 58.3515 31.2332 58.3515 30.8526V24.1253C59.8146 23.8071 60.914 22.5059 60.914 20.9491C60.914 19.1537 59.4538 17.6963 57.6611 17.6963C55.8656 17.6963 54.4082 19.1565 54.4082 20.9491C54.4082 22.5059 55.5077 23.8071 56.9707 24.1253V30.1622H50.2917V27.398C50.2917 27.1509 50.161 26.9236 49.9451 26.7986L42.3313 22.4037L42.2688 15.0175H48.3001C48.6183 16.4805 49.9194 17.58 51.4762 17.58C53.2717 17.58 54.7291 16.1197 54.7291 14.3271C54.7291 12.5316 53.2689 11.0742 51.4762 11.0742C49.9194 11.0742 48.6183 12.1736 48.3001 13.6367H41.5728C41.3882 13.6367 41.212 13.7106 41.0813 13.8412C40.9507 13.9719 40.8796 14.1509 40.8796 14.3327L40.9421 21.6026L40.3456 21.2589C40.1325 21.1338 39.8683 21.1338 39.6552 21.2589L38.8626 21.7162V14.3271C38.8626 13.9465 38.553 13.6368 38.1723 13.6368H31.445C31.1268 12.1738 29.8257 11.0743 28.2689 11.0743C26.4734 11.0743 25.016 12.5346 25.016 14.3272C25.016 16.1227 26.4762 17.5801 28.2689 17.5801C29.8257 17.5801 31.1268 16.4807 31.445 15.0176H37.482V22.5151L30.0587 26.802C29.8456 26.927 29.7121 27.1542 29.7121 27.4014V30.4412H23.0331V24.4042C24.4962 24.0861 25.5956 22.7849 25.5956 21.2281C25.5956 19.4326 24.1354 17.9752 22.3427 17.9752C20.5472 17.9752 19.0898 19.4354 19.0898 21.2281C19.0898 22.7849 20.1893 24.0861 21.6523 24.4042V31.1315C21.6523 31.5122 21.962 31.8219 22.3427 31.8219H29.7121V33.8417H22.3427C21.962 33.8417 21.6523 34.1514 21.6523 34.5321V41.2593C20.1893 41.5775 19.0898 42.8787 19.0898 44.4355C19.0898 46.231 20.5501 47.6883 22.3427 47.6883C24.1382 47.6883 25.5956 46.2281 25.5956 44.4355C25.5956 42.8787 24.4962 41.5775 23.0331 41.2593V35.2224H29.7121V38.4809C29.7121 38.7281 29.8428 38.9554 30.0587 39.0804L36.6354 42.8787C36.607 44.7991 36.6184 46.7281 36.6297 48.515V48.7395C36.5019 48.5037 36.3769 48.2594 36.249 48.0122C35.4848 46.5406 34.6951 45.0179 33.4082 44.0889C32.0189 43.0861 30.5189 43.106 29.5786 43.4611C28.9565 43.694 28.5616 44.0605 28.4621 44.4924C27.9593 46.6685 29.8173 49.9327 30.9906 51.518C31.7065 52.4839 32.4764 54.4612 33.1525 56.2055C33.7008 57.6174 34.2208 58.9526 34.7178 59.822C35.0502 60.4015 35.3826 60.8873 35.6752 61.3135C36.7264 62.8447 37.4849 63.9527 37.2917 68.2112C37.2747 68.5919 37.5701 68.9157 37.9508 68.9328H37.9821C38.3486 68.9328 38.6554 68.643 38.6724 68.2737C38.8883 63.5521 37.9736 62.2197 36.8145 60.5297C36.5218 60.1036 36.2207 59.6632 35.9167 59.132C35.4707 58.3536 34.9707 57.0666 34.4395 55.703C33.6952 53.7882 32.9253 51.8053 32.0985 50.6917C30.7434 48.865 29.5361 46.3167 29.786 44.8933C30.0531 44.6916 31.2945 44.2712 32.5929 45.2087C33.6127 45.9445 34.3258 47.3194 35.0161 48.649C35.5815 49.7399 36.1156 50.7684 36.8286 51.5013C37.0247 51.703 37.323 51.7655 37.5844 51.6604C37.8457 51.5553 38.0162 51.3025 38.0162 51.0184C38.0162 50.2315 38.0105 49.3849 38.0048 48.5042C37.9707 43.0212 37.9309 36.2002 39.0304 32.5471C39.1781 32.1011 39.5815 31.7261 39.8599 31.7659C40.3202 31.8369 41.2122 33.1153 41.2804 37.4534C41.2974 38.5414 41.2633 40.7119 41.2321 42.8113C41.2093 44.3539 41.1866 45.8113 41.1866 46.7147L41.1809 48.567C41.1809 48.9477 41.4878 49.2602 41.8713 49.2602H41.8741C42.2548 49.2602 42.5645 48.9534 42.5645 48.5699L42.5701 46.7176C42.5701 46.1721 43.2832 45.604 44.0957 45.4988C44.5815 45.4363 45.4309 45.5017 45.7406 46.5613L45.7094 48.7942C45.7037 49.1749 46.0105 49.4903 46.3912 49.4959H46.4025C46.7804 49.4959 47.0872 49.192 47.0929 48.8141L47.1241 46.5954C47.2946 46.0925 47.8088 45.9476 48.2492 45.9874C48.8372 46.0414 49.5475 46.4419 49.6441 47.3795L49.5588 49.1209C49.5418 49.5016 49.8344 49.8255 50.2151 49.8454H50.2492C50.6157 49.8454 50.9225 49.5584 50.9395 49.1863L51.002 47.8965C51.3827 47.8539 51.6128 47.9704 51.7662 48.0755C52.3088 48.4562 53.2321 49.7971 53.3032 54.4988C53.3344 56.5897 52.0248 58.8567 51.2407 60.0215C49.9907 61.8766 50.0333 64.2005 50.0731 66.4448C50.0788 66.8397 50.0873 67.2488 50.0873 67.6493C50.0873 68.03 50.3969 68.3396 50.7776 68.3396C51.1583 68.3396 51.468 68.03 51.468 67.6493C51.468 67.2374 51.4594 66.8226 51.4538 66.422C51.4168 64.297 51.3799 62.2913 52.3855 60.7942C53.4538 59.2061 54.7207 56.8226 54.6839 54.476C54.6214 50.3624 53.9253 47.8993 52.556 46.9422C52.1895 46.6837 51.6242 46.4393 50.86 46.5189C50.4424 45.3314 49.3515 44.6979 48.3714 44.607C47.6583 44.5388 47.0106 44.7291 46.5305 45.107C45.9339 44.357 44.9964 43.9848 43.9168 44.1211C43.4594 44.178 42.9964 44.3342 42.5873 44.57C42.593 44.1666 42.5986 43.7376 42.6072 43.303L49.9395 39.07C50.1526 38.945 50.2861 38.7177 50.2861 38.4706V34.9365H56.9651V40.9734C55.5021 41.2916 54.4026 42.5928 54.4026 44.1496C54.4026 45.945 55.8629 47.4024 57.6555 47.4024C59.451 47.4024 60.9084 45.9422 60.9084 44.1496C60.9084 42.5928 59.809 41.2916 58.3459 40.9734L58.3515 40.9804ZM55.789 20.9462C55.789 19.9149 56.6271 19.074 57.6612 19.074C58.6925 19.074 59.5333 19.9121 59.5333 20.9462C59.5333 21.9775 58.6953 22.8183 57.6612 22.8183C56.6299 22.8183 55.789 21.9803 55.789 20.9462ZM51.4737 12.4487C52.505 12.4487 53.3458 13.2868 53.3458 14.3209C53.3458 15.3522 52.5078 16.193 51.4737 16.193C50.4424 16.193 49.6015 15.355 49.6015 14.3209C49.6015 13.2896 50.4396 12.4487 51.4737 12.4487ZM28.2635 16.1902C27.2322 16.1902 26.3942 15.3522 26.3942 14.318C26.3942 13.2868 27.2322 12.4459 28.2635 12.4459C29.2948 12.4459 30.1357 13.2839 30.1357 14.318C30.1357 15.3493 29.2976 16.1902 28.2635 16.1902ZM20.465 21.2186C20.465 20.1874 21.303 19.3465 22.3371 19.3465C23.3684 19.3465 24.2064 20.1845 24.2064 21.2186C24.2064 22.2499 23.3684 23.0908 22.3371 23.0908C21.3058 23.0908 20.465 22.2527 20.465 21.2186ZM24.2064 44.4288C24.2064 45.4601 23.3684 46.301 22.3371 46.301C21.3058 46.301 20.465 45.4629 20.465 44.4288C20.465 43.3975 21.303 42.5595 22.3371 42.5595C23.3684 42.5595 24.2064 43.3975 24.2064 44.4288ZM48.9053 38.0765L42.6326 41.6987C42.6582 39.9771 42.6781 38.3407 42.6639 37.4316C42.5957 33.0169 41.7207 30.6504 40.0701 30.3975C38.965 30.2299 38.0332 31.1618 37.7178 32.122C37.715 32.1277 37.715 32.1333 37.7121 32.139C37.0246 34.4174 36.7604 37.7782 36.6638 41.2983L31.09 38.0795V27.7923L38.4027 23.5707C38.4652 23.5479 38.5192 23.511 38.5703 23.4741L39.9992 22.6502L48.9083 27.7922V38.0795L48.9053 38.0765ZM57.6581 46.0256C56.6268 46.0256 55.7859 45.1876 55.7859 44.1535C55.7859 43.1222 56.6239 42.2813 57.6581 42.2813C58.6893 42.2813 59.5302 43.1194 59.5302 44.1535C59.5302 45.1847 58.6922 46.0256 57.6581 46.0256Z" fill="#1E5724"/>
</svg>
