<?xml version="1.0" encoding="utf-8"?>
<!-- Generator: Adobe Illustrator 25.4.1, SVG Export Plug-In . SVG Version: 6.00 Build 0)  -->
<svg version="1.1" id="Layer_1" xmlns="http://www.w3.org/2000/svg" xmlns:xlink="http://www.w3.org/1999/xlink" x="0px" y="0px"
	 viewBox="0 0 24 24" style="enable-background:new 0 0 24 24;" xml:space="preserve">
<style type="text/css">
	.st0{fill:none;stroke:#000000;stroke-width:0.79;stroke-linecap:round;stroke-linejoin:round;}
	.st1{fill:none;stroke:#000000;stroke-width:0.79;stroke-linecap:square;}
	.st2{fill:none;stroke:#000000;stroke-linecap:round;stroke-linejoin:round;}
</style>
<polyline class="st0" points="7.1,21.4 10.4,21.4 7.1,19.4 10.4,16.7 7.1,14.1 10.4,11.8 7.1,9.3 10.4,9.3 "/>
<path class="st1" d="M17.5,16c-0.1,0.2,0,0.3,0.2,0.4c0.5,0.2,0.8,0.8,0.7,1.4c-0.2,0.7-0.8,1.1-1.5,0.9c-0.5-0.1-0.8-0.5-0.9-0.9
	v-0.1"/>
<path class="st2" d="M4.5,21.4h2.6V9.3H5.6v0.4H1.8V6.3h0.1c0.4,0,0.9-0.1,1.2-0.4c1.3-1,2.7-2,4-3.1C7.3,2.6,7.7,2.5,8,2.7l10.3,4
	c0.2,0.1,0.3,0.1,0.5,0.1h1.5c0.2,0,0.4,0.1,0.5,0.2c0.5,0.5,1,1.1,1.5,1.6c0.1,0.1,0.3,0.3,0.2,0.5S22,9.3,21.8,9.3H10.4v12.1h7.5
	 M7.5,2.7L7.6,3l2.2,3.7L10,6.8 M7.5,6.8V2.6"/>
<path class="st2" d="M19.1,10.2l-0.5,3.4c0.4,0.1,0.3,0.4,0.3,0.6c-0.1,0.5-0.2,0.9-0.2,1.4s-0.1,0.5-0.6,0.5h-0.2 M17.1,16.1h-0.4
	c-0.2,0-0.3-0.1-0.4-0.3c-0.1-0.6-0.2-1.2-0.3-1.8c0-0.2,0.1-0.4,0.3-0.4l-0.5-3.4"/>
<polyline class="st2" points="5.5,9.7 5.5,6.3 1.8,6.3 "/>
<line class="st2" x1="16.4" y1="13.6" x2="18.6" y2="13.6"/>
<line class="st2" x1="17.1" y1="16.1" x2="17.9" y2="16.1"/>
<line class="st2" x1="18.8" y1="6.8" x2="5.5" y2="6.8"/>
<line class="st2" x1="11.2" y1="9.3" x2="6.8" y2="9.3"/>
<line class="st2" x1="11" y1="21.4" x2="6.6" y2="21.4"/>
</svg>
