<svg width="22" height="22" viewBox="0 0 22 22" fill="none" xmlns="http://www.w3.org/2000/svg">
<path d="M19.6316 7.6781L11.3816 2.1781C11.2686 2.10273 11.1358 2.0625 11 2.0625C10.8642 2.0625 10.7314 2.10273 10.6184 2.1781L2.36844 7.6781C2.27426 7.74094 2.19706 7.82606 2.14368 7.9259C2.09031 8.02575 2.06243 8.13723 2.0625 8.25045V17.1879C2.0625 17.5526 2.20737 17.9024 2.46523 18.1602C2.72309 18.4181 3.07283 18.5629 3.4375 18.5629H18.5625C18.9272 18.5629 19.2769 18.4181 19.5348 18.1602C19.7926 17.9024 19.9375 17.5526 19.9375 17.1879V8.25045C19.9376 8.13723 19.9097 8.02575 19.8563 7.9259C19.8029 7.82606 19.7257 7.74094 19.6316 7.6781ZM8.31188 13.0629L3.4375 16.5004V9.58506L8.31188 13.0629ZM9.71867 13.7504H12.2813L17.148 17.1879H4.85203L9.71867 13.7504ZM13.6881 13.0629L18.5625 9.58506V16.5004L13.6881 13.0629ZM11 3.57631L18.0391 8.26935L12.2813 12.3754H9.72039L3.96258 8.26935L11 3.57631Z" fill="#1E1E1E"/>
</svg>
