<svg width="80" height="80" viewBox="0 0 80 80" fill="none" xmlns="http://www.w3.org/2000/svg">
<mask id="path-1-inside-1_370_63" fill="white">
<path d="M69.0319 10.0006H30.315C29.7803 10.0006 29.3473 10.4337 29.3473 10.9684V15.8337H29.0618C27.4844 12.3958 24.0102 10.003 19.987 10.003C14.4806 10.003 10 14.4813 10 19.9851C10 24.1778 12.6008 27.7753 16.2709 29.2512V69.0322C16.2709 69.5669 16.704 69.9999 17.2387 69.9999H55.929C56.4636 69.9999 56.8967 69.5669 56.8967 69.0322V64.2032H69.0323C69.5669 64.2032 70 63.7701 70 63.2354L69.9976 10.9677C70 10.4331 69.5669 10 69.0323 10L69.0319 10.0006ZM11.9351 19.9852C11.9351 15.5481 15.5472 11.9386 19.9867 11.9386C24.4262 11.9386 28.0383 15.5482 28.0383 19.9852C28.0383 24.4247 24.4262 28.0368 19.9867 28.0368C15.5472 28.0368 11.9351 24.4247 11.9351 19.9852ZM54.9609 68.0673H18.2061V29.8081C18.7843 29.9121 19.377 29.9702 19.9867 29.9702C25.4931 29.9702 29.9713 25.492 29.9713 19.9856C29.9713 19.2235 29.8818 18.4808 29.7197 17.7671H44.7631V27.0016C44.7631 27.5363 45.1962 27.9694 45.7308 27.9694H54.9604V33.8629L46.7348 48.1104C46.7203 48.1346 46.7082 48.1588 46.6961 48.1854C46.6937 48.1879 46.6937 48.1903 46.6912 48.1927C46.6767 48.2266 46.6622 48.2604 46.6525 48.2967C46.6501 48.3064 46.6477 48.3161 46.6429 48.3282C46.6356 48.3548 46.6283 48.3814 46.6235 48.408C46.6211 48.4201 46.6187 48.4298 46.6187 48.4419C46.6138 48.4758 46.609 48.5072 46.609 48.5411V48.5532V48.5604V48.5629L46.355 54.6258C46.3404 54.9862 46.5267 55.3225 46.8388 55.504C46.9888 55.5911 47.1558 55.6347 47.3227 55.6347C47.5017 55.6347 47.6832 55.5838 47.8404 55.4846L52.9694 52.2282C52.9742 52.2258 52.9767 52.2234 52.9815 52.2185C53.0081 52.2016 53.0347 52.1823 53.0589 52.1629C53.0686 52.1556 53.0759 52.1484 53.0855 52.1411C53.1073 52.1218 53.1267 52.1048 53.146 52.0831C53.1533 52.0758 53.1605 52.0685 53.1678 52.0613C53.192 52.0347 53.2162 52.0056 53.238 51.9742C53.2404 51.9718 53.2428 51.9694 53.2428 51.9645C53.2597 51.9427 53.2742 51.9186 53.2888 51.8944L54.9653 48.9911L54.9609 68.0673ZM50.2262 22.6633L53.5964 26.0334H46.6987V19.1357L50.2262 22.6633ZM64.2583 25.6923C64.28 25.7068 64.2994 25.7261 64.3212 25.7406C64.3478 25.7624 64.3768 25.7818 64.401 25.806C64.4276 25.8302 64.4542 25.8568 64.4784 25.881C64.4954 25.8979 64.5123 25.9148 64.5292 25.9318C64.5631 25.9681 64.5946 26.0068 64.626 26.0479C64.6308 26.0552 64.6381 26.06 64.6429 26.0673C64.7881 26.256 64.8946 26.4761 64.9599 26.7157C65.0881 27.1947 65.0228 27.6906 64.7784 28.1164L63.7236 29.943L60.5252 28.0946L61.5776 26.2681C61.822 25.8422 62.2212 25.5374 62.7002 25.4116C63.1792 25.2834 63.6752 25.3487 64.101 25.5931C64.1566 25.6245 64.2099 25.6584 64.2583 25.6923ZM59.5599 29.7688L62.7583 31.6172L55.1062 44.8751C55.0941 44.8944 55.0845 44.9114 55.0748 44.9307L52.0966 50.0887L50.0401 48.9008L48.8958 48.2403L56.7659 34.6121C56.7731 34.6 56.7804 34.5879 56.7852 34.5783L59.5599 29.7688ZM50.5818 51.4486L48.3609 52.8591L48.4697 50.2317L50.5818 51.4486ZM68.0642 62.273H56.8967V45.6379L64.9049 31.7656C64.9098 31.7584 64.9146 31.7535 64.917 31.7463L66.4582 29.0801C66.7775 28.5261 66.9396 27.9213 66.959 27.3237V27.3213C66.9759 26.7576 66.8694 26.1987 66.6469 25.6834C66.6444 25.6786 66.642 25.6738 66.6396 25.6689C66.6178 25.6205 66.5961 25.5721 66.5719 25.5238C66.5549 25.4875 66.5356 25.4512 66.5162 25.4173C66.5065 25.4004 66.4993 25.3834 66.4896 25.3689C66.4606 25.3181 66.4315 25.2673 66.4001 25.2165C66.2065 24.902 65.9694 24.6165 65.6912 24.3697L65.6888 24.3673C65.6453 24.3286 65.6017 24.2923 65.5582 24.256C65.5533 24.2512 65.5485 24.2463 65.5437 24.2439C65.5025 24.2125 65.4614 24.181 65.4179 24.1496C65.4082 24.1423 65.3985 24.135 65.3912 24.1278C65.3501 24.0988 65.309 24.0697 65.2679 24.0431C65.2558 24.0358 65.2461 24.0286 65.234 24.0189C65.1808 23.985 65.1251 23.9512 65.0695 23.9197C64.1985 23.4165 63.1775 23.281 62.2025 23.5447C62.0816 23.5786 61.9606 23.6149 61.8445 23.6608C61.7671 23.6899 61.6921 23.7213 61.6171 23.7552C60.901 24.077 60.3058 24.6116 59.9042 25.3036L56.8945 30.5173V27.0044C56.8945 26.9923 56.8945 26.9826 56.8921 26.9705C56.8921 26.9608 56.8921 26.9487 56.8897 26.9391C56.8848 26.8544 56.8679 26.7721 56.8413 26.6947C56.8389 26.685 56.834 26.6754 56.8316 26.6657C56.8171 26.6294 56.8026 26.5907 56.7832 26.5568C56.7832 26.5544 56.7808 26.552 56.7808 26.552C56.7614 26.5157 56.7373 26.4794 56.7131 26.4455C56.7058 26.4358 56.701 26.4286 56.6937 26.4189C56.6671 26.385 56.6405 26.3512 56.609 26.3221L46.4114 16.1195C46.3799 16.0881 46.3485 16.0615 46.3146 16.0349C46.3049 16.0276 46.2977 16.0228 46.288 16.0155C46.2541 15.9913 46.2179 15.9671 46.1816 15.9478C46.1791 15.9478 46.1767 15.9453 46.1767 15.9453C46.1404 15.926 46.1041 15.9115 46.0678 15.897C46.0582 15.8921 46.0485 15.8897 46.0388 15.8873C45.959 15.8607 45.8791 15.8437 45.7945 15.8389C45.7848 15.8389 45.7727 15.8389 45.763 15.8365C45.7509 15.8365 45.7412 15.8341 45.7291 15.8341H31.2809V11.9365H68.0648L68.0642 62.273Z"/>
</mask>
<path d="M69.0319 10.0006H30.315C29.7803 10.0006 29.3473 10.4337 29.3473 10.9684V15.8337H29.0618C27.4844 12.3958 24.0102 10.003 19.987 10.003C14.4806 10.003 10 14.4813 10 19.9851C10 24.1778 12.6008 27.7753 16.2709 29.2512V69.0322C16.2709 69.5669 16.704 69.9999 17.2387 69.9999H55.929C56.4636 69.9999 56.8967 69.5669 56.8967 69.0322V64.2032H69.0323C69.5669 64.2032 70 63.7701 70 63.2354L69.9976 10.9677C70 10.4331 69.5669 10 69.0323 10L69.0319 10.0006ZM11.9351 19.9852C11.9351 15.5481 15.5472 11.9386 19.9867 11.9386C24.4262 11.9386 28.0383 15.5482 28.0383 19.9852C28.0383 24.4247 24.4262 28.0368 19.9867 28.0368C15.5472 28.0368 11.9351 24.4247 11.9351 19.9852ZM54.9609 68.0673H18.2061V29.8081C18.7843 29.9121 19.377 29.9702 19.9867 29.9702C25.4931 29.9702 29.9713 25.492 29.9713 19.9856C29.9713 19.2235 29.8818 18.4808 29.7197 17.7671H44.7631V27.0016C44.7631 27.5363 45.1962 27.9694 45.7308 27.9694H54.9604V33.8629L46.7348 48.1104C46.7203 48.1346 46.7082 48.1588 46.6961 48.1854C46.6937 48.1879 46.6937 48.1903 46.6912 48.1927C46.6767 48.2266 46.6622 48.2604 46.6525 48.2967C46.6501 48.3064 46.6477 48.3161 46.6429 48.3282C46.6356 48.3548 46.6283 48.3814 46.6235 48.408C46.6211 48.4201 46.6187 48.4298 46.6187 48.4419C46.6138 48.4758 46.609 48.5072 46.609 48.5411V48.5532V48.5604V48.5629L46.355 54.6258C46.3404 54.9862 46.5267 55.3225 46.8388 55.504C46.9888 55.5911 47.1558 55.6347 47.3227 55.6347C47.5017 55.6347 47.6832 55.5838 47.8404 55.4846L52.9694 52.2282C52.9742 52.2258 52.9767 52.2234 52.9815 52.2185C53.0081 52.2016 53.0347 52.1823 53.0589 52.1629C53.0686 52.1556 53.0759 52.1484 53.0855 52.1411C53.1073 52.1218 53.1267 52.1048 53.146 52.0831C53.1533 52.0758 53.1605 52.0685 53.1678 52.0613C53.192 52.0347 53.2162 52.0056 53.238 51.9742C53.2404 51.9718 53.2428 51.9694 53.2428 51.9645C53.2597 51.9427 53.2742 51.9186 53.2888 51.8944L54.9653 48.9911L54.9609 68.0673ZM50.2262 22.6633L53.5964 26.0334H46.6987V19.1357L50.2262 22.6633ZM64.2583 25.6923C64.28 25.7068 64.2994 25.7261 64.3212 25.7406C64.3478 25.7624 64.3768 25.7818 64.401 25.806C64.4276 25.8302 64.4542 25.8568 64.4784 25.881C64.4954 25.8979 64.5123 25.9148 64.5292 25.9318C64.5631 25.9681 64.5946 26.0068 64.626 26.0479C64.6308 26.0552 64.6381 26.06 64.6429 26.0673C64.7881 26.256 64.8946 26.4761 64.9599 26.7157C65.0881 27.1947 65.0228 27.6906 64.7784 28.1164L63.7236 29.943L60.5252 28.0946L61.5776 26.2681C61.822 25.8422 62.2212 25.5374 62.7002 25.4116C63.1792 25.2834 63.6752 25.3487 64.101 25.5931C64.1566 25.6245 64.2099 25.6584 64.2583 25.6923ZM59.5599 29.7688L62.7583 31.6172L55.1062 44.8751C55.0941 44.8944 55.0845 44.9114 55.0748 44.9307L52.0966 50.0887L50.0401 48.9008L48.8958 48.2403L56.7659 34.6121C56.7731 34.6 56.7804 34.5879 56.7852 34.5783L59.5599 29.7688ZM50.5818 51.4486L48.3609 52.8591L48.4697 50.2317L50.5818 51.4486ZM68.0642 62.273H56.8967V45.6379L64.9049 31.7656C64.9098 31.7584 64.9146 31.7535 64.917 31.7463L66.4582 29.0801C66.7775 28.5261 66.9396 27.9213 66.959 27.3237V27.3213C66.9759 26.7576 66.8694 26.1987 66.6469 25.6834C66.6444 25.6786 66.642 25.6738 66.6396 25.6689C66.6178 25.6205 66.5961 25.5721 66.5719 25.5238C66.5549 25.4875 66.5356 25.4512 66.5162 25.4173C66.5065 25.4004 66.4993 25.3834 66.4896 25.3689C66.4606 25.3181 66.4315 25.2673 66.4001 25.2165C66.2065 24.902 65.9694 24.6165 65.6912 24.3697L65.6888 24.3673C65.6453 24.3286 65.6017 24.2923 65.5582 24.256C65.5533 24.2512 65.5485 24.2463 65.5437 24.2439C65.5025 24.2125 65.4614 24.181 65.4179 24.1496C65.4082 24.1423 65.3985 24.135 65.3912 24.1278C65.3501 24.0988 65.309 24.0697 65.2679 24.0431C65.2558 24.0358 65.2461 24.0286 65.234 24.0189C65.1808 23.985 65.1251 23.9512 65.0695 23.9197C64.1985 23.4165 63.1775 23.281 62.2025 23.5447C62.0816 23.5786 61.9606 23.6149 61.8445 23.6608C61.7671 23.6899 61.6921 23.7213 61.6171 23.7552C60.901 24.077 60.3058 24.6116 59.9042 25.3036L56.8945 30.5173V27.0044C56.8945 26.9923 56.8945 26.9826 56.8921 26.9705C56.8921 26.9608 56.8921 26.9487 56.8897 26.9391C56.8848 26.8544 56.8679 26.7721 56.8413 26.6947C56.8389 26.685 56.834 26.6754 56.8316 26.6657C56.8171 26.6294 56.8026 26.5907 56.7832 26.5568C56.7832 26.5544 56.7808 26.552 56.7808 26.552C56.7614 26.5157 56.7373 26.4794 56.7131 26.4455C56.7058 26.4358 56.701 26.4286 56.6937 26.4189C56.6671 26.385 56.6405 26.3512 56.609 26.3221L46.4114 16.1195C46.3799 16.0881 46.3485 16.0615 46.3146 16.0349C46.3049 16.0276 46.2977 16.0228 46.288 16.0155C46.2541 15.9913 46.2179 15.9671 46.1816 15.9478C46.1791 15.9478 46.1767 15.9453 46.1767 15.9453C46.1404 15.926 46.1041 15.9115 46.0678 15.897C46.0582 15.8921 46.0485 15.8897 46.0388 15.8873C45.959 15.8607 45.8791 15.8437 45.7945 15.8389C45.7848 15.8389 45.7727 15.8389 45.763 15.8365C45.7509 15.8365 45.7412 15.8341 45.7291 15.8341H31.2809V11.9365H68.0648L68.0642 62.273Z" fill="#1E5724" stroke="white" stroke-width="0.4" mask="url(#path-1-inside-1_370_63)"/>
<path d="M39.6412 49.2163H23.538C23.0586 49.2163 22.6703 48.828 22.6703 48.3486C22.6703 47.8692 23.0586 47.4809 23.538 47.4809H39.6412C40.1206 47.4809 40.5089 47.8692 40.5089 48.3486C40.5089 48.828 40.1206 49.2163 39.6412 49.2163Z" fill="#1E5724" stroke="white" stroke-width="0.2"/>
<path d="M23.538 43.6898H44.0832C44.5625 43.6898 44.9512 44.0782 44.9534 44.558C44.9532 45.0373 44.565 45.4253 44.0857 45.4253H23.538C23.0586 45.4253 22.6703 45.037 22.6703 44.5576C22.6703 44.0781 23.0586 43.6898 23.538 43.6898Z" fill="#1E5724" stroke="white" stroke-width="0.2"/>
<path d="M37.222 33.812H23.538C23.0586 33.812 22.6703 33.4237 22.6703 32.9443C22.6703 32.4649 23.0586 32.0766 23.538 32.0766H37.222C37.7015 32.0766 38.0897 32.4649 38.0897 32.9443C38.0897 33.4237 37.7015 33.812 37.222 33.812Z" fill="#1E5724" stroke="white" stroke-width="0.2"/>
<path d="M23.538 59.0902H41.3611C41.8406 59.0902 42.2289 59.4785 42.2289 59.958C42.2289 60.4374 41.8406 60.8257 41.3611 60.8257H23.538C23.0586 60.8257 22.6703 60.4374 22.6703 59.958C22.6703 59.4785 23.0586 59.0902 23.538 59.0902Z" fill="#1E5724" stroke="white" stroke-width="0.2"/>
<path d="M23.538 55.2977L23.5381 55.2977L38.8038 55.2953C39.2833 55.2953 39.6716 55.6836 39.6716 56.163C39.6716 56.6425 39.2833 57.0308 38.8038 57.0308H23.538C23.0584 57.0308 22.6703 56.6423 22.6703 56.1655C22.6703 55.686 23.0586 55.2977 23.538 55.2977Z" fill="#1E5724" stroke="white" stroke-width="0.2"/>
<path d="M46.1927 35.8695C46.6721 35.8695 47.0604 36.2578 47.0604 36.7373C47.0604 37.2167 46.6721 37.605 46.1927 37.605H23.538C23.0586 37.605 22.6703 37.2167 22.6703 36.7373C22.6703 36.2578 23.0586 35.8695 23.538 35.8695H46.1927Z" fill="#1E5724" stroke="white" stroke-width="0.2"/>
<path d="M18.7751 21.4819L18.8458 21.5527L18.9165 21.4819L23.8182 16.5803L23.7474 16.5096L23.8182 16.5803C24.1565 16.242 24.7053 16.242 25.0436 16.5803L25.1104 16.5136L25.0436 16.5803C25.3822 16.9188 25.3819 17.4678 25.0483 17.8036C25.0483 17.8036 25.0483 17.8036 25.0482 17.8036L19.4622 23.3896C19.4622 23.3897 19.4622 23.3897 19.4622 23.3897C19.2996 23.5522 19.0783 23.6434 18.8482 23.6434C18.6182 23.6434 18.3969 23.5523 18.2343 23.3897C18.2343 23.3897 18.2343 23.3897 18.2343 23.3897L14.9319 20.0849L14.9319 20.0848C14.5935 19.7465 14.5936 19.1977 14.9319 18.8594C15.2702 18.521 15.8189 18.521 16.1573 18.8593C16.1573 18.8593 16.1573 18.8593 16.1574 18.8594L18.7751 21.4819Z" fill="#1E5724" stroke="white" stroke-width="0.2"/>
</svg>
