<svg width="24" height="24" viewBox="0 0 24 24" fill="none" xmlns="http://www.w3.org/2000/svg">
<mask id="mask0_1873_52" style="mask-type:luminance" maskUnits="userSpaceOnUse" x="2" y="2" width="20" height="20">
<path d="M22 2H2V22H22V2Z" fill="white"/>
</mask>
<g mask="url(#mask0_1873_52)">
<path d="M2 21.5135C2 21.7838 2.21622 22 2.48649 22H5.91892C6.18919 22 6.40541 21.7838 6.40541 21.5135V9.5946C6.40541 9.32432 6.18919 9.10811 5.91892 9.10811H2.48649C2.21622 9.10811 2 9.32432 2 9.5946V21.5135ZM17 9.56757C15.3243 9.56757 14.1622 10.2432 13.5135 10.9459C13.3784 11.0811 13.1081 10.973 13.1081 10.7568V9.62162C13.1081 9.35135 12.8919 9.13514 12.6216 9.13514H9.16216C8.89189 9.13514 8.67568 9.35135 8.67568 9.62162C8.7027 11.7297 8.67568 19.5405 8.67568 21.5135C8.67568 21.7838 8.89189 22 9.16216 22H12.6757C12.9459 22 13.1622 21.7838 13.1622 21.5135V15.3514C13.1622 14.973 13.1622 14.6216 13.2703 14.3514C13.5676 13.6216 14.2432 12.8378 15.3784 12.8378C16.8919 12.8378 17.5946 13.973 17.5946 15.6486V21.5405C17.5946 21.8108 17.8108 22.027 18.0811 22.027H21.5135C21.7838 22.027 22 21.8108 22 21.5405V15.1622C21.973 11.3514 19.7838 9.56757 17 9.56757ZM4.18919 6.02703C5.59459 6.02703 6.43243 5.13514 6.43243 4.02703C6.40541 2.86486 5.59459 2 4.21622 2C2.83784 2 2 2.86486 2 4C2 5.13514 2.86486 6.02703 4.18919 6.02703Z" fill="black"/>
</g>
</svg>
