<svg width="20" height="20" viewBox="0 0 20 20" fill="none" xmlns="http://www.w3.org/2000/svg">
<path d="M11.2711 3.58812C11.2923 3.5088 11.329 3.43444 11.3789 3.36929C11.4289 3.30413 11.4912 3.24946 11.5623 3.2084C11.6334 3.16733 11.7119 3.14068 11.7933 3.12996C11.8747 3.11925 11.9574 3.12467 12.0367 3.14594C13.1954 3.44824 14.2525 4.05394 15.0992 4.90065C15.9459 5.74736 16.5516 6.80448 16.8539 7.96312C16.8752 8.04243 16.8806 8.12515 16.8699 8.20655C16.8592 8.28796 16.8325 8.36645 16.7915 8.43755C16.7504 8.50866 16.6957 8.57097 16.6306 8.62093C16.5654 8.6709 16.491 8.70753 16.4117 8.72875C16.3589 8.74262 16.3046 8.7497 16.25 8.74984C16.1123 8.74984 15.9784 8.70434 15.8692 8.62042C15.76 8.5365 15.6816 8.41886 15.6461 8.28578C15.3995 7.33994 14.9052 6.47696 14.2141 5.7858C13.5229 5.09464 12.6599 4.6003 11.7141 4.35375C11.6347 4.33262 11.5602 4.29604 11.495 4.24611C11.4298 4.19618 11.375 4.13388 11.3339 4.06277C11.2927 3.99166 11.266 3.91314 11.2552 3.8317C11.2445 3.75025 11.2499 3.66748 11.2711 3.58812ZM11.0891 6.85375C12.1664 7.14125 12.8586 7.83344 13.1461 8.91078C13.1816 9.04386 13.26 9.1615 13.3692 9.24542C13.4784 9.32934 13.6123 9.37484 13.75 9.37484C13.8046 9.3747 13.8589 9.36762 13.9117 9.35375C13.991 9.33253 14.0654 9.2959 14.1306 9.24593C14.1957 9.19597 14.2504 9.13366 14.2915 9.06255C14.3325 8.99145 14.3592 8.91296 14.3699 8.83155C14.3806 8.75015 14.3752 8.66743 14.3539 8.58812C13.9539 7.09125 12.9086 6.04594 11.4117 5.64594C11.2516 5.60315 11.081 5.62574 10.9374 5.70874C10.7939 5.79174 10.6893 5.92835 10.6465 6.08851C10.6037 6.24868 10.6263 6.41928 10.7093 6.56279C10.7923 6.7063 10.9289 6.81096 11.0891 6.85375ZM17.4906 14.303C17.3513 15.3616 16.8314 16.3333 16.0281 17.0366C15.2247 17.7399 14.1927 18.1268 13.125 18.1248C6.92188 18.1248 1.87501 13.078 1.87501 6.87484C1.87309 5.8071 2.25992 4.77517 2.96324 3.97179C3.66655 3.16841 4.63826 2.64852 5.69688 2.50922C5.96458 2.47653 6.23567 2.5313 6.46968 2.66534C6.7037 2.79939 6.88809 3.00552 6.99532 3.25297L8.64532 6.93656V6.94594C8.72742 7.13535 8.76133 7.34215 8.74401 7.54787C8.7267 7.75359 8.6587 7.95181 8.5461 8.12484C8.53204 8.14594 8.51719 8.16547 8.50157 8.185L6.87501 10.1131C7.46016 11.3022 8.70391 12.535 9.9086 13.1217L11.8102 11.5037C11.8288 11.4881 11.8484 11.4734 11.8688 11.46C12.0416 11.3447 12.2405 11.2743 12.4475 11.2552C12.6544 11.2361 12.8628 11.2689 13.0539 11.3506L13.0641 11.3553L16.7445 13.0045C16.9924 13.1114 17.1991 13.2956 17.3335 13.5297C17.468 13.7637 17.5231 14.035 17.4906 14.303ZM16.25 14.1467C16.25 14.1467 16.2445 14.1467 16.2414 14.1467L12.5695 12.5022L10.6672 14.1202C10.6487 14.1358 10.6294 14.1504 10.6094 14.1639C10.4295 14.2839 10.2216 14.3552 10.0059 14.3708C9.79023 14.3864 9.5742 14.3458 9.37891 14.253C7.91563 13.5459 6.45704 12.0983 5.74923 10.6506C5.6555 10.4568 5.61344 10.242 5.62713 10.0271C5.64082 9.81218 5.70978 9.60447 5.82735 9.42406C5.8406 9.40288 5.85549 9.38276 5.87188 9.3639L7.50001 7.43344L5.85938 3.76156C5.85907 3.75844 5.85907 3.7553 5.85938 3.75219C5.10177 3.85101 4.40616 4.22263 3.90283 4.79743C3.3995 5.37224 3.12296 6.11081 3.12501 6.87484C3.1279 9.52612 4.1824 12.068 6.05714 13.9427C7.93187 15.8174 10.4737 16.8719 13.125 16.8748C13.8886 16.8775 14.6269 16.6019 15.2021 16.0997C15.7772 15.5974 16.1497 14.9029 16.25 14.1459V14.1467Z" fill="#1E1E1E"/>
</svg>
