<svg width="56" height="56" viewBox="0 0 56 56" fill="none" xmlns="http://www.w3.org/2000/svg">
<rect width="56" height="56" rx="28" fill="white"/>
<path d="M37.409 25.3533C37.8893 25.6087 38.291 25.99 38.5712 26.4563C38.8514 26.9226 38.9994 27.4563 38.9994 28.0003C38.9994 28.5443 38.8514 29.078 38.5712 29.5443C38.291 30.0106 37.8893 30.3919 37.409 30.6473L24.597 37.6143C22.534 38.7373 20 37.2773 20 34.9683V21.0333C20 18.7233 22.534 17.2643 24.597 18.3853L37.409 25.3533Z" fill="#2E2E2E"/>
<path d="M37.409 25.3533C37.8893 25.6087 38.291 25.99 38.5712 26.4563C38.8514 26.9226 38.9994 27.4563 38.9994 28.0003C38.9994 28.5443 38.8514 29.078 38.5712 29.5443C38.291 30.0106 37.8893 30.3919 37.409 30.6473L24.597 37.6143C22.534 38.7373 20 37.2773 20 34.9683V21.0333C20 18.7233 22.534 17.2643 24.597 18.3853L37.409 25.3533Z" fill="url(#paint0_linear_1348_2)"/>
<defs>
<linearGradient id="paint0_linear_1348_2" x1="29.4997" y1="37.8119" x2="24.0637" y2="19.4178" gradientUnits="userSpaceOnUse">
<stop offset="1" stop-color="#1E5724"/>
</linearGradient>
</defs>
</svg>
