<svg width="32" height="32" viewBox="0 0 32 32" fill="none" xmlns="http://www.w3.org/2000/svg">
<path d="M28 16.001C28 16.2662 27.8946 16.5205 27.7071 16.7081C27.5196 16.8956 27.2652 17.001 27 17.001H17V27.001C17 27.2662 16.8946 27.5205 16.7071 27.7081C16.5196 27.8956 16.2652 28.001 16 28.001C15.7348 28.001 15.4804 27.8956 15.2929 27.7081C15.1054 27.5205 15 27.2662 15 27.001V17.001H5C4.73478 17.001 4.48043 16.8956 4.29289 16.7081C4.10536 16.5205 4 16.2662 4 16.001C4 15.7358 4.10536 15.4814 4.29289 15.2939C4.48043 15.1063 4.73478 15.001 5 15.001H15V5.00098C15 4.73576 15.1054 4.48141 15.2929 4.29387C15.4804 4.10633 15.7348 4.00098 16 4.00098C16.2652 4.00098 16.5196 4.10633 16.7071 4.29387C16.8946 4.48141 17 4.73576 17 5.00098V15.001H27C27.2652 15.001 27.5196 15.1063 27.7071 15.2939C27.8946 15.4814 28 15.7358 28 16.001Z" fill="#1E1E1E"/>
</svg>
