<svg width="19" height="18" viewBox="0 0 19 18" fill="none" xmlns="http://www.w3.org/2000/svg">
<path d="M14.448 17.2753C14.2342 17.2753 14.0213 17.2099 13.8382 17.0795L9.53139 14.0005L5.22463 17.0795C5.04619 17.2075 4.83175 17.276 4.61194 17.2753C4.39212 17.2745 4.17817 17.2045 4.00063 17.0753C3.82292 16.9469 3.69037 16.7658 3.62184 16.5579C3.55331 16.35 3.55229 16.1259 3.61892 15.9174L5.22516 10.7494L0.957038 7.75106C0.780152 7.62092 0.648785 7.43863 0.581521 7.22998C0.514257 7.02133 0.514499 6.79688 0.582214 6.58837C0.650463 6.38037 0.782558 6.19901 0.959828 6.06992C1.1371 5.94084 1.35058 5.87055 1.5701 5.86901L6.85627 5.86109L8.53927 0.821341C8.60873 0.613727 8.74194 0.433157 8.92005 0.305204C9.09815 0.177251 9.31212 0.108398 9.53166 0.108398C9.75119 0.108398 9.96516 0.177251 10.1433 0.305204C10.3214 0.433157 10.4546 0.613727 10.524 0.821341L12.1785 5.86109L17.4916 5.86901C17.7114 5.87024 17.9252 5.94049 18.1027 6.06977C18.2801 6.19905 18.4122 6.38078 18.4801 6.58916C18.548 6.79754 18.5484 7.02195 18.4811 7.23053C18.4138 7.43911 18.2823 7.62125 18.1052 7.75106L13.8371 10.7494L15.4433 15.9174C15.5101 16.1258 15.5092 16.3499 15.4408 16.5579C15.3723 16.7658 15.2398 16.9468 15.0622 17.0753C14.8841 17.2055 14.6689 17.2756 14.448 17.2753Z" fill="#FFAC33"/>
</svg>
