<svg width="80" height="80" viewBox="0 0 80 80" fill="none" xmlns="http://www.w3.org/2000/svg">
<path d="M24.7062 20.134C25.148 20.134 25.5062 19.7762 25.5062 19.334V15.2004C25.5062 14.7582 25.148 14.4004 24.7062 14.4004C24.2645 14.4004 23.9062 14.7582 23.9062 15.2004V19.334C23.9062 19.7762 24.2645 20.134 24.7062 20.134Z" fill="#1E5724"/>
<path d="M28.6633 20.134C29.1051 20.134 29.4633 19.7762 29.4633 19.334V15.2004C29.4633 14.7582 29.1051 14.4004 28.6633 14.4004C28.2215 14.4004 27.8633 14.7582 27.8633 15.2004V19.334C27.8633 19.7762 28.2215 20.134 28.6633 20.134Z" fill="#1E5724"/>
<path d="M32.6184 20.134C33.0602 20.134 33.4184 19.7762 33.4184 19.334V15.2004C33.4184 14.7582 33.0602 14.4004 32.6184 14.4004C32.1766 14.4004 31.8184 14.7582 31.8184 15.2004V19.334C31.8184 19.7762 32.1766 20.134 32.6184 20.134Z" fill="#1E5724"/>
<path d="M24.7062 29.3332C25.148 29.3332 25.5062 28.9754 25.5062 28.5332V24.3996C25.5062 23.9574 25.148 23.5996 24.7062 23.5996C24.2645 23.5996 23.9062 23.9574 23.9062 24.3996V28.5332C23.9062 28.9754 24.2645 29.3332 24.7062 29.3332Z" fill="#1E5724"/>
<path d="M28.6633 29.3332C29.1051 29.3332 29.4633 28.9754 29.4633 28.5332V24.3996C29.4633 23.9574 29.1051 23.5996 28.6633 23.5996C28.2215 23.5996 27.8633 23.9574 27.8633 24.3996V28.5332C27.8633 28.9754 28.2215 29.3332 28.6633 29.3332Z" fill="#1E5724"/>
<path d="M32.6184 29.3332C33.0602 29.3332 33.4184 28.9754 33.4184 28.5332V24.3996C33.4184 23.9574 33.0602 23.5996 32.6184 23.5996C32.1766 23.5996 31.8184 23.9574 31.8184 24.3996V28.5332C31.8184 28.9754 32.1766 29.3332 32.6184 29.3332Z" fill="#1E5724"/>
<path d="M24.7062 38.5336C25.148 38.5336 25.5062 38.1758 25.5062 37.7336V33.6C25.5062 33.1579 25.148 32.8 24.7062 32.8C24.2645 32.8 23.9062 33.1579 23.9062 33.6V37.7336C23.9062 38.1758 24.2645 38.5336 24.7062 38.5336Z" fill="#1E5724"/>
<path d="M28.6633 38.5334C29.1051 38.5334 29.4633 38.1756 29.4633 37.7334V33.5998C29.4633 33.1576 29.1051 32.7998 28.6633 32.7998C28.2215 32.7998 27.8633 33.1576 27.8633 33.5998V37.7334C27.8633 38.1756 28.2215 38.5334 28.6633 38.5334Z" fill="#1E5724"/>
<path d="M32.6184 38.5334C33.0602 38.5334 33.4184 38.1756 33.4184 37.7334V33.5998C33.4184 33.1576 33.0602 32.7998 32.6184 32.7998C32.1766 32.7998 31.8184 33.1576 31.8184 33.5998V37.7334C31.8184 38.1756 32.1766 38.5334 32.6184 38.5334Z" fill="#1E5724"/>
<path d="M24.7062 47.7336C25.148 47.7336 25.5062 47.3758 25.5062 46.9336V42.8C25.5062 42.3578 25.148 42 24.7062 42C24.2645 42 23.9062 42.3578 23.9062 42.8V46.9336C23.9062 47.3758 24.2645 47.7336 24.7062 47.7336Z" fill="#1E5724"/>
<path d="M28.6633 47.7336C29.1051 47.7336 29.4633 47.3758 29.4633 46.9336V42.8C29.4633 42.3578 29.1051 42 28.6633 42C28.2215 42 27.8633 42.3578 27.8633 42.8V46.9336C27.8633 47.3758 28.2215 47.7336 28.6633 47.7336Z" fill="#1E5724"/>
<path d="M32.6184 47.7336C33.0602 47.7336 33.4184 47.3758 33.4184 46.9336V42.8C33.4184 42.3578 33.0602 42 32.6184 42C32.1766 42 31.8184 42.3578 31.8184 42.8V46.9336C31.8184 47.3758 32.1766 47.7336 32.6184 47.7336Z" fill="#1E5724"/>
<path d="M24.7062 56.9335C25.148 56.9335 25.5062 56.5757 25.5062 56.1335V52C25.5062 51.5578 25.148 51.2 24.7062 51.2C24.2645 51.2 23.9062 51.5578 23.9062 52V56.1335C23.9062 56.5757 24.2645 56.9335 24.7062 56.9335Z" fill="#1E5724"/>
<path d="M28.6633 56.9338C29.1051 56.9338 29.4633 56.576 29.4633 56.1338V52.0002C29.4633 51.558 29.1051 51.2002 28.6633 51.2002C28.2215 51.2002 27.8633 51.558 27.8633 52.0002V56.1338C27.8633 56.576 28.2215 56.9338 28.6633 56.9338Z" fill="#1E5724"/>
<path d="M32.6184 56.9338C33.0602 56.9338 33.4184 56.576 33.4184 56.1338V52.0002C33.4184 51.558 33.0602 51.2002 32.6184 51.2002C32.1766 51.2002 31.8184 51.558 31.8184 52.0002V56.1338C31.8184 56.576 32.1766 56.9338 32.6184 56.9338Z" fill="#1E5724"/>
<path d="M24.7062 66.134C25.148 66.134 25.5062 65.7762 25.5062 65.334V61.2004C25.5062 60.7582 25.148 60.4004 24.7062 60.4004C24.2645 60.4004 23.9062 60.7582 23.9062 61.2004V65.334C23.9062 65.7762 24.2645 66.134 24.7062 66.134Z" fill="#1E5724"/>
<path d="M28.6633 66.134C29.1051 66.134 29.4633 65.7762 29.4633 65.334V61.2004C29.4633 60.7582 29.1051 60.4004 28.6633 60.4004C28.2215 60.4004 27.8633 60.7582 27.8633 61.2004V65.334C27.8633 65.7762 28.2215 66.134 28.6633 66.134Z" fill="#1E5724"/>
<path d="M32.6184 66.134C33.0602 66.134 33.4184 65.7762 33.4184 65.334V61.2004C33.4184 60.7582 33.0602 60.4004 32.6184 60.4004C32.1766 60.4004 31.8184 60.7582 31.8184 61.2004V65.334C31.8184 65.7762 32.1766 66.134 32.6184 66.134Z" fill="#1E5724"/>
<path d="M47.0969 20.134C47.5387 20.134 47.8969 19.7762 47.8969 19.334V15.2004C47.8969 14.7582 47.5387 14.4004 47.0969 14.4004C46.6551 14.4004 46.2969 14.7582 46.2969 15.2004V19.334C46.2969 19.7762 46.6551 20.134 47.0969 20.134Z" fill="#1E5724"/>
<path d="M51.0539 20.134C51.4957 20.134 51.8539 19.7762 51.8539 19.334V15.2004C51.8539 14.7582 51.4957 14.4004 51.0539 14.4004C50.6121 14.4004 50.2539 14.7582 50.2539 15.2004V19.334C50.2539 19.7762 50.6121 20.134 51.0539 20.134Z" fill="#1E5724"/>
<path d="M55.009 20.134C55.4508 20.134 55.809 19.7762 55.809 19.334V15.2004C55.809 14.7582 55.4508 14.4004 55.009 14.4004C54.5672 14.4004 54.209 14.7582 54.209 15.2004V19.334C54.209 19.7762 54.5672 20.134 55.009 20.134Z" fill="#1E5724"/>
<path d="M47.0969 29.3332C47.5387 29.3332 47.8969 28.9754 47.8969 28.5332V24.3996C47.8969 23.9574 47.5387 23.5996 47.0969 23.5996C46.6551 23.5996 46.2969 23.9574 46.2969 24.3996V28.5332C46.2969 28.9754 46.6551 29.3332 47.0969 29.3332Z" fill="#1E5724"/>
<path d="M51.0539 29.3332C51.4957 29.3332 51.8539 28.9754 51.8539 28.5332V24.3996C51.8539 23.9574 51.4957 23.5996 51.0539 23.5996C50.6121 23.5996 50.2539 23.9574 50.2539 24.3996V28.5332C50.2539 28.9754 50.6121 29.3332 51.0539 29.3332Z" fill="#1E5724"/>
<path d="M55.009 29.3332C55.4508 29.3332 55.809 28.9754 55.809 28.5332V24.3996C55.809 23.9574 55.4508 23.5996 55.009 23.5996C54.5672 23.5996 54.209 23.9574 54.209 24.3996V28.5332C54.209 28.9754 54.5672 29.3332 55.009 29.3332Z" fill="#1E5724"/>
<path d="M47.0969 38.5336C47.5387 38.5336 47.8969 38.1758 47.8969 37.7336V33.6C47.8969 33.1579 47.5387 32.8 47.0969 32.8C46.6551 32.8 46.2969 33.1579 46.2969 33.6V37.7336C46.2969 38.1758 46.6551 38.5336 47.0969 38.5336Z" fill="#1E5724"/>
<path d="M51.0539 38.5334C51.4957 38.5334 51.8539 38.1756 51.8539 37.7334V33.5998C51.8539 33.1576 51.4957 32.7998 51.0539 32.7998C50.6121 32.7998 50.2539 33.1576 50.2539 33.5998V37.7334C50.2539 38.1756 50.6121 38.5334 51.0539 38.5334Z" fill="#1E5724"/>
<path d="M55.009 38.5334C55.4508 38.5334 55.809 38.1756 55.809 37.7334V33.5998C55.809 33.1576 55.4508 32.7998 55.009 32.7998C54.5672 32.7998 54.209 33.1576 54.209 33.5998V37.7334C54.209 38.1756 54.5672 38.5334 55.009 38.5334Z" fill="#1E5724"/>
<path d="M47.0969 47.7336C47.5387 47.7336 47.8969 47.3758 47.8969 46.9336V42.8C47.8969 42.3578 47.5387 42 47.0969 42C46.6551 42 46.2969 42.3578 46.2969 42.8V46.9336C46.2969 47.3758 46.6551 47.7336 47.0969 47.7336Z" fill="#1E5724"/>
<path d="M51.0539 47.7336C51.4957 47.7336 51.8539 47.3758 51.8539 46.9336V42.8C51.8539 42.3578 51.4957 42 51.0539 42C50.6121 42 50.2539 42.3578 50.2539 42.8V46.9336C50.2539 47.3758 50.6121 47.7336 51.0539 47.7336Z" fill="#1E5724"/>
<path d="M55.009 47.7336C55.4508 47.7336 55.809 47.3758 55.809 46.9336V42.8C55.809 42.3578 55.4508 42 55.009 42C54.5672 42 54.209 42.3578 54.209 42.8V46.9336C54.209 47.3758 54.5672 47.7336 55.009 47.7336Z" fill="#1E5724"/>
<path d="M47.0969 56.9335C47.5387 56.9335 47.8969 56.5757 47.8969 56.1335V52C47.8969 51.5578 47.5387 51.2 47.0969 51.2C46.6551 51.2 46.2969 51.5578 46.2969 52V56.1335C46.2969 56.5757 46.6551 56.9335 47.0969 56.9335Z" fill="#1E5724"/>
<path d="M51.0539 56.9338C51.4957 56.9338 51.8539 56.576 51.8539 56.1338V52.0002C51.8539 51.558 51.4957 51.2002 51.0539 51.2002C50.6121 51.2002 50.2539 51.558 50.2539 52.0002V56.1338C50.2539 56.576 50.6121 56.9338 51.0539 56.9338Z" fill="#1E5724"/>
<path d="M55.009 56.9338C55.4508 56.9338 55.809 56.576 55.809 56.1338V52.0002C55.809 51.558 55.4508 51.2002 55.009 51.2002C54.5672 51.2002 54.209 51.558 54.209 52.0002V56.1338C54.209 56.576 54.5672 56.9338 55.009 56.9338Z" fill="#1E5724"/>
<path d="M47.0969 66.134C47.5387 66.134 47.8969 65.7762 47.8969 65.334V61.2004C47.8969 60.7582 47.5387 60.4004 47.0969 60.4004C46.6551 60.4004 46.2969 60.7582 46.2969 61.2004V65.334C46.2969 65.7762 46.6551 66.134 47.0969 66.134Z" fill="#1E5724"/>
<path d="M51.0539 66.134C51.4957 66.134 51.8539 65.7762 51.8539 65.334V61.2004C51.8539 60.7582 51.4957 60.4004 51.0539 60.4004C50.6121 60.4004 50.2539 60.7582 50.2539 61.2004V65.334C50.2539 65.7762 50.6121 66.134 51.0539 66.134Z" fill="#1E5724"/>
<path d="M55.009 66.134C55.4508 66.134 55.809 65.7762 55.809 65.334V61.2004C55.809 60.7582 55.4508 60.4004 55.009 60.4004C54.5672 60.4004 54.209 60.7582 54.209 61.2004V65.334C54.209 65.7762 54.5672 66.134 55.009 66.134Z" fill="#1E5724"/>
<path d="M72 63.5875C72 62.2355 71.3076 61.044 70.26 60.3441C71.1651 59.6771 71.7605 58.6125 71.7605 57.4047C71.7605 55.3859 70.1184 53.7438 68.1 53.7438C66.0816 53.7438 64.4395 55.3859 64.4395 57.4047C64.4395 58.6125 65.0349 59.6771 65.94 60.3441C64.8924 61.044 64.2 62.2355 64.2 63.5875C64.2 65.4639 65.5323 67.0333 67.3 67.4035V70.4H60.209V8.8C60.209 8.35781 59.8508 8 59.409 8H42.9816C42.5398 8 42.1816 8.35781 42.1816 8.8V70.4H37.8184V8.8C37.8184 8.35781 37.4602 8 37.0184 8H20.591C20.1492 8 19.791 8.35781 19.791 8.8V70.4H12.7V67.4035C14.4677 67.0333 15.8 65.4639 15.8 63.5875C15.8 62.2355 15.1076 61.044 14.06 60.3441C14.9651 59.6771 15.5605 58.6125 15.5605 57.4047C15.5605 55.3859 13.9184 53.7438 11.9 53.7438C9.88164 53.7438 8.23945 55.3859 8.23945 57.4047C8.23945 58.6125 8.83486 59.6771 9.73999 60.3441C8.69238 61.044 8 62.2355 8 63.5875C8 65.4639 9.33232 67.0333 11.1 67.4035V70.4H8.8C8.3582 70.4 8 70.7578 8 71.2C8 71.6422 8.3582 72 8.8 72H71.2C71.6418 72 72 71.6422 72 71.2C72 70.7578 71.6418 70.4 71.2 70.4H68.9V67.4035C70.6677 67.0333 72 65.4639 72 63.5875ZM11.9 55.3438C13.0363 55.3438 13.9605 56.268 13.9605 57.4047C13.9605 58.5406 13.0363 59.4648 11.9 59.4648C10.7637 59.4648 9.83945 58.5406 9.83945 57.4047C9.83945 56.268 10.7637 55.3438 11.9 55.3438ZM9.6 63.5875C9.6 62.3195 10.6316 61.2875 11.9 61.2875C13.1684 61.2875 14.2 62.3195 14.2 63.5875C14.2 64.8555 13.1684 65.8875 11.9 65.8875C10.6316 65.8875 9.6 64.8555 9.6 63.5875ZM36.2184 70.4H21.391V9.6H36.2184V70.4ZM58.609 70.4H43.7816V9.6H58.609V70.4ZM68.1 55.3438C69.2363 55.3438 70.1605 56.268 70.1605 57.4047C70.1605 58.5406 69.2363 59.4648 68.1 59.4648C66.9637 59.4648 66.0395 58.5406 66.0395 57.4047C66.0395 56.268 66.9637 55.3438 68.1 55.3438ZM68.1 65.8875C66.8316 65.8875 65.8 64.8555 65.8 63.5875C65.8 62.3195 66.8316 61.2875 68.1 61.2875C69.3684 61.2875 70.4 62.3195 70.4 63.5875C70.4 64.8555 69.3684 65.8875 68.1 65.8875Z" fill="#1E5724"/>
</svg>
