<svg width="81" height="80" viewBox="0 0 81 80" fill="none" xmlns="http://www.w3.org/2000/svg">
<mask id="path-1-outside-1_2134_897" maskUnits="userSpaceOnUse" x="7.79175" y="8.41016" width="65" height="63" fill="black">
<rect fill="white" x="7.79175" y="8.41016" width="65" height="63"/>
<path d="M59.1824 40.6406C58.3542 40.6406 58.3542 39.3906 59.1824 39.3906H61.6355C62.4636 39.3906 62.4636 40.6406 61.6355 40.6406H59.1824ZM59.1824 51.1406C58.3542 51.1406 58.3542 49.8906 59.1824 49.8906H61.6355C62.4636 49.8906 62.4636 51.1406 61.6355 51.1406H59.1824ZM65.1511 51.1406C64.323 51.1406 64.323 49.8906 65.1511 49.8906H67.6042C68.4324 49.8906 68.4324 51.1406 67.6042 51.1406H65.1511ZM65.1511 54.6875C64.323 54.6875 64.323 53.4375 65.1511 53.4375H67.6042C68.4324 53.4375 68.4324 54.6875 67.6042 54.6875H65.1511ZM59.1824 54.6875C58.3542 54.6875 58.3542 53.4375 59.1824 53.4375H61.6355C62.4636 53.4375 62.4636 54.6875 61.6355 54.6875H59.1824ZM65.1511 40.6406C64.323 40.6406 64.323 39.3906 65.1511 39.3906H67.6042C68.4324 39.3906 68.4324 40.6406 67.6042 40.6406H65.1511ZM65.1511 47.7656C64.323 47.7656 64.323 46.5156 65.1511 46.5156H67.6042C68.4324 46.5156 68.4324 47.7656 67.6042 47.7656H65.1511ZM65.1511 44.2031C64.323 44.2031 64.323 42.9531 65.1511 42.9531H67.6042C68.4324 42.9531 68.4324 44.2031 67.6042 44.2031H65.1511ZM59.1824 47.7656C58.3542 47.7656 58.3542 46.5156 59.1824 46.5156H61.6355C62.4636 46.5156 62.4636 47.7656 61.6355 47.7656H59.1824ZM59.1824 44.2031C58.3542 44.2031 58.3542 42.9531 59.1824 42.9531H61.6355C62.4636 42.9531 62.4636 44.2031 61.6355 44.2031H59.1824ZM59.4324 58.5H67.3542C67.698 58.5 67.9792 58.7812 67.9792 59.125V63.8594H71.2917V35.5H55.4949V63.8594H58.7917V59.125C58.8074 58.7812 59.0886 58.5 59.4324 58.5ZM66.7292 59.75H60.0574V63.8594H66.7292V59.75ZM54.8699 34.25H71.9167C72.2605 34.25 72.5417 34.5312 72.5417 34.875V69.9844C72.5417 70.3281 72.2605 70.6094 71.9167 70.6094H9.41675C9.073 70.6094 8.79175 70.3281 8.79175 69.9844V64.4844C8.79175 64.1406 9.073 63.8594 9.41675 63.8594H10.1199L17.6042 32.9688C15.6355 32.6875 14.7917 30.25 16.2292 28.8125C16.6824 28.375 17.2917 28.0938 17.9636 28.0938H29.073C31.2292 28.0938 32.3542 30.7344 30.8074 32.2812C30.4792 32.6094 30.0574 32.8437 29.5886 32.9531L33.6511 49.75H33.8699V40.1094C33.8699 39.625 34.4011 39.3281 34.8074 39.5781L45.2449 45.9062V40.125C45.2449 39.6406 45.7761 39.3437 46.1824 39.5937L54.2449 44.4844V34.9375C54.2449 34.5312 54.5261 34.25 54.8699 34.25ZM54.2449 63.8594V45.8906L46.4792 41.1875V46.9688C46.4792 47.4219 45.9636 47.7969 45.4792 47.4687L35.1042 41.1719V50.3281C35.1042 50.6719 34.823 50.9531 34.4792 50.9531H25.6355V63.8438H54.2449V63.8594ZM60.0574 11.6875C61.5886 11.6875 63.2136 12.4531 63.6824 13.8594C65.573 13.6562 67.698 14.7344 67.698 16.5625C67.698 18.6562 64.9792 19.7969 62.7917 19.0937C61.7136 20.875 58.7292 21.2031 56.9949 19.9219C54.1511 21.3906 50.1042 19.9844 49.9324 17.2031C47.2136 16.1406 46.573 13.2812 48.8699 11.5937C51.5417 9.65625 56.0417 10.8437 56.4949 13.6719C57.0417 12.3906 58.5886 11.6875 60.0574 11.6875ZM61.9011 13.4844C60.2292 12.2656 57.3386 13.25 57.5886 14.7656C57.6667 15.2812 57.1042 15.6719 56.6511 15.3906C56.3855 15.2344 56.0417 15.0937 55.7292 15C55.4324 14.9219 55.2449 14.625 55.2761 14.3125C55.5417 12.2656 51.7761 11.0312 49.6199 12.6094C47.9792 13.7969 48.7449 15.5937 50.7605 16.1719C51.0574 16.25 51.2449 16.5469 51.2136 16.8594C51.1355 17.5156 51.4949 18.125 52.0886 18.5625C53.323 19.4688 55.448 19.5156 56.7292 18.6562C56.9792 18.4844 57.3074 18.5156 57.5261 18.7344C58.3855 19.6094 60.0886 19.6719 61.1199 19.0469C61.823 18.625 61.7917 18.2656 61.9324 18C62.0886 17.6875 62.4792 17.5781 62.7761 17.7344C64.2761 18.5156 66.4636 17.7969 66.4636 16.5625C66.4636 15.4531 64.698 14.8281 63.3542 15.1875C62.9636 15.2969 62.573 15 62.573 14.5781C62.573 14.1562 62.3074 13.7812 61.9011 13.4844ZM31.7761 22C29.4324 23.875 25.5574 23.8906 23.1824 22.1563C19.9167 19.7813 21.1824 15.6562 25.3855 14.5469C25.1355 13.0312 25.8855 11.625 27.1824 10.6875C29.5261 8.98437 33.2449 8.98437 35.573 10.6875C36.698 11.5 37.4011 12.6406 37.4167 13.9219C38.448 14.2969 39.4011 14.9219 40.0417 15.7812C41.7605 15.2656 43.7449 15.5469 45.1199 16.5469C47.0886 17.9844 47.0886 20.4219 45.1199 21.8594C43.2292 23.2344 40.1824 23.2188 38.323 21.75C36.3855 22.7969 33.8074 22.875 31.7761 22ZM29.5574 21.8125C30.2136 21.5781 30.7917 21.2344 31.2292 20.8125C31.4167 20.625 31.7136 20.5781 31.948 20.7031C33.7605 21.6406 36.3855 21.5781 38.0417 20.4531C38.2917 20.2812 38.6199 20.3125 38.8386 20.5312C40.1824 21.875 42.8699 21.9375 44.3855 20.8437C46.5417 19.2812 44.8386 16.7656 41.7917 16.7656C41.2293 16.7656 40.5417 16.875 40.0417 17.0781C39.7449 17.2031 39.4011 17.0937 39.2449 16.8125C38.7136 15.875 37.6667 15.25 36.5886 14.9375C36.2917 14.8594 36.1042 14.5625 36.1355 14.25C36.2761 13.25 35.7292 12.3125 34.823 11.6562C31.8074 9.45312 26.5574 11 26.5574 13.9375C26.5574 14.4844 26.698 14.6406 26.7449 14.875C26.8074 15.2187 26.573 15.5312 26.2292 15.5938C22.7449 16.1719 21.2761 19.2031 23.8855 21.1094C25.4167 22.2344 27.7292 22.4688 29.5574 21.8125ZM47.7449 53.2344H52.1042C52.448 53.2344 52.7292 53.5156 52.7292 53.8594V56.3281C52.7292 56.6719 52.448 56.9531 52.1042 56.9531H47.7449C47.4011 56.9531 47.1199 56.6719 47.1199 56.3281V53.8594C47.1199 53.5156 47.4011 53.2344 47.7449 53.2344ZM51.4792 54.4844H48.3699V55.7188H51.4792V54.4844ZM38.9167 53.2344H43.2761C43.6199 53.2344 43.9011 53.5156 43.9011 53.8594V56.3281C43.9011 56.6719 43.6199 56.9531 43.2761 56.9531H38.9167C38.573 56.9531 38.2917 56.6719 38.2917 56.3281V53.8594C38.2917 53.5156 38.573 53.2344 38.9167 53.2344ZM42.6511 54.4844H39.5417V55.7188H42.6511V54.4844ZM30.0886 53.2344H34.448C34.7917 53.2344 35.073 53.5156 35.073 53.8594V56.3281C35.073 56.6719 34.7917 56.9531 34.448 56.9531H30.0886C29.7449 56.9531 29.4636 56.6719 29.4636 56.3281V53.8594C29.4636 53.5156 29.7449 53.2344 30.0886 53.2344ZM33.823 54.4844H30.7136V55.7188H33.823V54.4844ZM24.3855 63.8594V50.3438C24.3855 50 24.6667 49.7188 25.0105 49.7188H32.3699L28.323 32.9844H18.8855L11.4011 63.8594H24.3855ZM29.073 29.3438H17.9636C16.9167 29.3438 16.3542 30.625 17.1199 31.3906C17.3386 31.6094 17.6355 31.75 17.9636 31.75H29.073C30.1199 31.75 30.6824 30.4688 29.9167 29.7031C29.7136 29.4688 29.4011 29.3438 29.073 29.3438ZM71.2917 65.1094C50.8699 65.1094 30.4636 65.1094 10.0417 65.1094V69.3594H71.2917V65.1094Z"/>
</mask>
<path d="M59.1824 40.6406C58.3542 40.6406 58.3542 39.3906 59.1824 39.3906H61.6355C62.4636 39.3906 62.4636 40.6406 61.6355 40.6406H59.1824ZM59.1824 51.1406C58.3542 51.1406 58.3542 49.8906 59.1824 49.8906H61.6355C62.4636 49.8906 62.4636 51.1406 61.6355 51.1406H59.1824ZM65.1511 51.1406C64.323 51.1406 64.323 49.8906 65.1511 49.8906H67.6042C68.4324 49.8906 68.4324 51.1406 67.6042 51.1406H65.1511ZM65.1511 54.6875C64.323 54.6875 64.323 53.4375 65.1511 53.4375H67.6042C68.4324 53.4375 68.4324 54.6875 67.6042 54.6875H65.1511ZM59.1824 54.6875C58.3542 54.6875 58.3542 53.4375 59.1824 53.4375H61.6355C62.4636 53.4375 62.4636 54.6875 61.6355 54.6875H59.1824ZM65.1511 40.6406C64.323 40.6406 64.323 39.3906 65.1511 39.3906H67.6042C68.4324 39.3906 68.4324 40.6406 67.6042 40.6406H65.1511ZM65.1511 47.7656C64.323 47.7656 64.323 46.5156 65.1511 46.5156H67.6042C68.4324 46.5156 68.4324 47.7656 67.6042 47.7656H65.1511ZM65.1511 44.2031C64.323 44.2031 64.323 42.9531 65.1511 42.9531H67.6042C68.4324 42.9531 68.4324 44.2031 67.6042 44.2031H65.1511ZM59.1824 47.7656C58.3542 47.7656 58.3542 46.5156 59.1824 46.5156H61.6355C62.4636 46.5156 62.4636 47.7656 61.6355 47.7656H59.1824ZM59.1824 44.2031C58.3542 44.2031 58.3542 42.9531 59.1824 42.9531H61.6355C62.4636 42.9531 62.4636 44.2031 61.6355 44.2031H59.1824ZM59.4324 58.5H67.3542C67.698 58.5 67.9792 58.7812 67.9792 59.125V63.8594H71.2917V35.5H55.4949V63.8594H58.7917V59.125C58.8074 58.7812 59.0886 58.5 59.4324 58.5ZM66.7292 59.75H60.0574V63.8594H66.7292V59.75ZM54.8699 34.25H71.9167C72.2605 34.25 72.5417 34.5312 72.5417 34.875V69.9844C72.5417 70.3281 72.2605 70.6094 71.9167 70.6094H9.41675C9.073 70.6094 8.79175 70.3281 8.79175 69.9844V64.4844C8.79175 64.1406 9.073 63.8594 9.41675 63.8594H10.1199L17.6042 32.9688C15.6355 32.6875 14.7917 30.25 16.2292 28.8125C16.6824 28.375 17.2917 28.0938 17.9636 28.0938H29.073C31.2292 28.0938 32.3542 30.7344 30.8074 32.2812C30.4792 32.6094 30.0574 32.8437 29.5886 32.9531L33.6511 49.75H33.8699V40.1094C33.8699 39.625 34.4011 39.3281 34.8074 39.5781L45.2449 45.9062V40.125C45.2449 39.6406 45.7761 39.3437 46.1824 39.5937L54.2449 44.4844V34.9375C54.2449 34.5312 54.5261 34.25 54.8699 34.25ZM54.2449 63.8594V45.8906L46.4792 41.1875V46.9688C46.4792 47.4219 45.9636 47.7969 45.4792 47.4687L35.1042 41.1719V50.3281C35.1042 50.6719 34.823 50.9531 34.4792 50.9531H25.6355V63.8438H54.2449V63.8594ZM60.0574 11.6875C61.5886 11.6875 63.2136 12.4531 63.6824 13.8594C65.573 13.6562 67.698 14.7344 67.698 16.5625C67.698 18.6562 64.9792 19.7969 62.7917 19.0937C61.7136 20.875 58.7292 21.2031 56.9949 19.9219C54.1511 21.3906 50.1042 19.9844 49.9324 17.2031C47.2136 16.1406 46.573 13.2812 48.8699 11.5937C51.5417 9.65625 56.0417 10.8437 56.4949 13.6719C57.0417 12.3906 58.5886 11.6875 60.0574 11.6875ZM61.9011 13.4844C60.2292 12.2656 57.3386 13.25 57.5886 14.7656C57.6667 15.2812 57.1042 15.6719 56.6511 15.3906C56.3855 15.2344 56.0417 15.0937 55.7292 15C55.4324 14.9219 55.2449 14.625 55.2761 14.3125C55.5417 12.2656 51.7761 11.0312 49.6199 12.6094C47.9792 13.7969 48.7449 15.5937 50.7605 16.1719C51.0574 16.25 51.2449 16.5469 51.2136 16.8594C51.1355 17.5156 51.4949 18.125 52.0886 18.5625C53.323 19.4688 55.448 19.5156 56.7292 18.6562C56.9792 18.4844 57.3074 18.5156 57.5261 18.7344C58.3855 19.6094 60.0886 19.6719 61.1199 19.0469C61.823 18.625 61.7917 18.2656 61.9324 18C62.0886 17.6875 62.4792 17.5781 62.7761 17.7344C64.2761 18.5156 66.4636 17.7969 66.4636 16.5625C66.4636 15.4531 64.698 14.8281 63.3542 15.1875C62.9636 15.2969 62.573 15 62.573 14.5781C62.573 14.1562 62.3074 13.7812 61.9011 13.4844ZM31.7761 22C29.4324 23.875 25.5574 23.8906 23.1824 22.1563C19.9167 19.7813 21.1824 15.6562 25.3855 14.5469C25.1355 13.0312 25.8855 11.625 27.1824 10.6875C29.5261 8.98437 33.2449 8.98437 35.573 10.6875C36.698 11.5 37.4011 12.6406 37.4167 13.9219C38.448 14.2969 39.4011 14.9219 40.0417 15.7812C41.7605 15.2656 43.7449 15.5469 45.1199 16.5469C47.0886 17.9844 47.0886 20.4219 45.1199 21.8594C43.2292 23.2344 40.1824 23.2188 38.323 21.75C36.3855 22.7969 33.8074 22.875 31.7761 22ZM29.5574 21.8125C30.2136 21.5781 30.7917 21.2344 31.2292 20.8125C31.4167 20.625 31.7136 20.5781 31.948 20.7031C33.7605 21.6406 36.3855 21.5781 38.0417 20.4531C38.2917 20.2812 38.6199 20.3125 38.8386 20.5312C40.1824 21.875 42.8699 21.9375 44.3855 20.8437C46.5417 19.2812 44.8386 16.7656 41.7917 16.7656C41.2293 16.7656 40.5417 16.875 40.0417 17.0781C39.7449 17.2031 39.4011 17.0937 39.2449 16.8125C38.7136 15.875 37.6667 15.25 36.5886 14.9375C36.2917 14.8594 36.1042 14.5625 36.1355 14.25C36.2761 13.25 35.7292 12.3125 34.823 11.6562C31.8074 9.45312 26.5574 11 26.5574 13.9375C26.5574 14.4844 26.698 14.6406 26.7449 14.875C26.8074 15.2187 26.573 15.5312 26.2292 15.5938C22.7449 16.1719 21.2761 19.2031 23.8855 21.1094C25.4167 22.2344 27.7292 22.4688 29.5574 21.8125ZM47.7449 53.2344H52.1042C52.448 53.2344 52.7292 53.5156 52.7292 53.8594V56.3281C52.7292 56.6719 52.448 56.9531 52.1042 56.9531H47.7449C47.4011 56.9531 47.1199 56.6719 47.1199 56.3281V53.8594C47.1199 53.5156 47.4011 53.2344 47.7449 53.2344ZM51.4792 54.4844H48.3699V55.7188H51.4792V54.4844ZM38.9167 53.2344H43.2761C43.6199 53.2344 43.9011 53.5156 43.9011 53.8594V56.3281C43.9011 56.6719 43.6199 56.9531 43.2761 56.9531H38.9167C38.573 56.9531 38.2917 56.6719 38.2917 56.3281V53.8594C38.2917 53.5156 38.573 53.2344 38.9167 53.2344ZM42.6511 54.4844H39.5417V55.7188H42.6511V54.4844ZM30.0886 53.2344H34.448C34.7917 53.2344 35.073 53.5156 35.073 53.8594V56.3281C35.073 56.6719 34.7917 56.9531 34.448 56.9531H30.0886C29.7449 56.9531 29.4636 56.6719 29.4636 56.3281V53.8594C29.4636 53.5156 29.7449 53.2344 30.0886 53.2344ZM33.823 54.4844H30.7136V55.7188H33.823V54.4844ZM24.3855 63.8594V50.3438C24.3855 50 24.6667 49.7188 25.0105 49.7188H32.3699L28.323 32.9844H18.8855L11.4011 63.8594H24.3855ZM29.073 29.3438H17.9636C16.9167 29.3438 16.3542 30.625 17.1199 31.3906C17.3386 31.6094 17.6355 31.75 17.9636 31.75H29.073C30.1199 31.75 30.6824 30.4688 29.9167 29.7031C29.7136 29.4688 29.4011 29.3438 29.073 29.3438ZM71.2917 65.1094C50.8699 65.1094 30.4636 65.1094 10.0417 65.1094V69.3594H71.2917V65.1094Z" fill="#1E5724"/>
<path d="M59.1824 40.6406C58.3542 40.6406 58.3542 39.3906 59.1824 39.3906H61.6355C62.4636 39.3906 62.4636 40.6406 61.6355 40.6406H59.1824ZM59.1824 51.1406C58.3542 51.1406 58.3542 49.8906 59.1824 49.8906H61.6355C62.4636 49.8906 62.4636 51.1406 61.6355 51.1406H59.1824ZM65.1511 51.1406C64.323 51.1406 64.323 49.8906 65.1511 49.8906H67.6042C68.4324 49.8906 68.4324 51.1406 67.6042 51.1406H65.1511ZM65.1511 54.6875C64.323 54.6875 64.323 53.4375 65.1511 53.4375H67.6042C68.4324 53.4375 68.4324 54.6875 67.6042 54.6875H65.1511ZM59.1824 54.6875C58.3542 54.6875 58.3542 53.4375 59.1824 53.4375H61.6355C62.4636 53.4375 62.4636 54.6875 61.6355 54.6875H59.1824ZM65.1511 40.6406C64.323 40.6406 64.323 39.3906 65.1511 39.3906H67.6042C68.4324 39.3906 68.4324 40.6406 67.6042 40.6406H65.1511ZM65.1511 47.7656C64.323 47.7656 64.323 46.5156 65.1511 46.5156H67.6042C68.4324 46.5156 68.4324 47.7656 67.6042 47.7656H65.1511ZM65.1511 44.2031C64.323 44.2031 64.323 42.9531 65.1511 42.9531H67.6042C68.4324 42.9531 68.4324 44.2031 67.6042 44.2031H65.1511ZM59.1824 47.7656C58.3542 47.7656 58.3542 46.5156 59.1824 46.5156H61.6355C62.4636 46.5156 62.4636 47.7656 61.6355 47.7656H59.1824ZM59.1824 44.2031C58.3542 44.2031 58.3542 42.9531 59.1824 42.9531H61.6355C62.4636 42.9531 62.4636 44.2031 61.6355 44.2031H59.1824ZM59.4324 58.5H67.3542C67.698 58.5 67.9792 58.7812 67.9792 59.125V63.8594H71.2917V35.5H55.4949V63.8594H58.7917V59.125C58.8074 58.7812 59.0886 58.5 59.4324 58.5ZM66.7292 59.75H60.0574V63.8594H66.7292V59.75ZM54.8699 34.25H71.9167C72.2605 34.25 72.5417 34.5312 72.5417 34.875V69.9844C72.5417 70.3281 72.2605 70.6094 71.9167 70.6094H9.41675C9.073 70.6094 8.79175 70.3281 8.79175 69.9844V64.4844C8.79175 64.1406 9.073 63.8594 9.41675 63.8594H10.1199L17.6042 32.9688C15.6355 32.6875 14.7917 30.25 16.2292 28.8125C16.6824 28.375 17.2917 28.0938 17.9636 28.0938H29.073C31.2292 28.0938 32.3542 30.7344 30.8074 32.2812C30.4792 32.6094 30.0574 32.8437 29.5886 32.9531L33.6511 49.75H33.8699V40.1094C33.8699 39.625 34.4011 39.3281 34.8074 39.5781L45.2449 45.9062V40.125C45.2449 39.6406 45.7761 39.3437 46.1824 39.5937L54.2449 44.4844V34.9375C54.2449 34.5312 54.5261 34.25 54.8699 34.25ZM54.2449 63.8594V45.8906L46.4792 41.1875V46.9688C46.4792 47.4219 45.9636 47.7969 45.4792 47.4687L35.1042 41.1719V50.3281C35.1042 50.6719 34.823 50.9531 34.4792 50.9531H25.6355V63.8438H54.2449V63.8594ZM60.0574 11.6875C61.5886 11.6875 63.2136 12.4531 63.6824 13.8594C65.573 13.6562 67.698 14.7344 67.698 16.5625C67.698 18.6562 64.9792 19.7969 62.7917 19.0937C61.7136 20.875 58.7292 21.2031 56.9949 19.9219C54.1511 21.3906 50.1042 19.9844 49.9324 17.2031C47.2136 16.1406 46.573 13.2812 48.8699 11.5937C51.5417 9.65625 56.0417 10.8437 56.4949 13.6719C57.0417 12.3906 58.5886 11.6875 60.0574 11.6875ZM61.9011 13.4844C60.2292 12.2656 57.3386 13.25 57.5886 14.7656C57.6667 15.2812 57.1042 15.6719 56.6511 15.3906C56.3855 15.2344 56.0417 15.0937 55.7292 15C55.4324 14.9219 55.2449 14.625 55.2761 14.3125C55.5417 12.2656 51.7761 11.0312 49.6199 12.6094C47.9792 13.7969 48.7449 15.5937 50.7605 16.1719C51.0574 16.25 51.2449 16.5469 51.2136 16.8594C51.1355 17.5156 51.4949 18.125 52.0886 18.5625C53.323 19.4688 55.448 19.5156 56.7292 18.6562C56.9792 18.4844 57.3074 18.5156 57.5261 18.7344C58.3855 19.6094 60.0886 19.6719 61.1199 19.0469C61.823 18.625 61.7917 18.2656 61.9324 18C62.0886 17.6875 62.4792 17.5781 62.7761 17.7344C64.2761 18.5156 66.4636 17.7969 66.4636 16.5625C66.4636 15.4531 64.698 14.8281 63.3542 15.1875C62.9636 15.2969 62.573 15 62.573 14.5781C62.573 14.1562 62.3074 13.7812 61.9011 13.4844ZM31.7761 22C29.4324 23.875 25.5574 23.8906 23.1824 22.1563C19.9167 19.7813 21.1824 15.6562 25.3855 14.5469C25.1355 13.0312 25.8855 11.625 27.1824 10.6875C29.5261 8.98437 33.2449 8.98437 35.573 10.6875C36.698 11.5 37.4011 12.6406 37.4167 13.9219C38.448 14.2969 39.4011 14.9219 40.0417 15.7812C41.7605 15.2656 43.7449 15.5469 45.1199 16.5469C47.0886 17.9844 47.0886 20.4219 45.1199 21.8594C43.2292 23.2344 40.1824 23.2188 38.323 21.75C36.3855 22.7969 33.8074 22.875 31.7761 22ZM29.5574 21.8125C30.2136 21.5781 30.7917 21.2344 31.2292 20.8125C31.4167 20.625 31.7136 20.5781 31.948 20.7031C33.7605 21.6406 36.3855 21.5781 38.0417 20.4531C38.2917 20.2812 38.6199 20.3125 38.8386 20.5312C40.1824 21.875 42.8699 21.9375 44.3855 20.8437C46.5417 19.2812 44.8386 16.7656 41.7917 16.7656C41.2293 16.7656 40.5417 16.875 40.0417 17.0781C39.7449 17.2031 39.4011 17.0937 39.2449 16.8125C38.7136 15.875 37.6667 15.25 36.5886 14.9375C36.2917 14.8594 36.1042 14.5625 36.1355 14.25C36.2761 13.25 35.7292 12.3125 34.823 11.6562C31.8074 9.45312 26.5574 11 26.5574 13.9375C26.5574 14.4844 26.698 14.6406 26.7449 14.875C26.8074 15.2187 26.573 15.5312 26.2292 15.5938C22.7449 16.1719 21.2761 19.2031 23.8855 21.1094C25.4167 22.2344 27.7292 22.4688 29.5574 21.8125ZM47.7449 53.2344H52.1042C52.448 53.2344 52.7292 53.5156 52.7292 53.8594V56.3281C52.7292 56.6719 52.448 56.9531 52.1042 56.9531H47.7449C47.4011 56.9531 47.1199 56.6719 47.1199 56.3281V53.8594C47.1199 53.5156 47.4011 53.2344 47.7449 53.2344ZM51.4792 54.4844H48.3699V55.7188H51.4792V54.4844ZM38.9167 53.2344H43.2761C43.6199 53.2344 43.9011 53.5156 43.9011 53.8594V56.3281C43.9011 56.6719 43.6199 56.9531 43.2761 56.9531H38.9167C38.573 56.9531 38.2917 56.6719 38.2917 56.3281V53.8594C38.2917 53.5156 38.573 53.2344 38.9167 53.2344ZM42.6511 54.4844H39.5417V55.7188H42.6511V54.4844ZM30.0886 53.2344H34.448C34.7917 53.2344 35.073 53.5156 35.073 53.8594V56.3281C35.073 56.6719 34.7917 56.9531 34.448 56.9531H30.0886C29.7449 56.9531 29.4636 56.6719 29.4636 56.3281V53.8594C29.4636 53.5156 29.7449 53.2344 30.0886 53.2344ZM33.823 54.4844H30.7136V55.7188H33.823V54.4844ZM24.3855 63.8594V50.3438C24.3855 50 24.6667 49.7188 25.0105 49.7188H32.3699L28.323 32.9844H18.8855L11.4011 63.8594H24.3855ZM29.073 29.3438H17.9636C16.9167 29.3438 16.3542 30.625 17.1199 31.3906C17.3386 31.6094 17.6355 31.75 17.9636 31.75H29.073C30.1199 31.75 30.6824 30.4688 29.9167 29.7031C29.7136 29.4688 29.4011 29.3438 29.073 29.3438ZM71.2917 65.1094C50.8699 65.1094 30.4636 65.1094 10.0417 65.1094V69.3594H71.2917V65.1094Z" stroke="#1E5724" stroke-width="0.4" mask="url(#path-1-outside-1_2134_897)"/>
</svg>
