<svg width="81" height="80" viewBox="0 0 81 80" fill="none" xmlns="http://www.w3.org/2000/svg">
<path d="M18.651 48.0384L18.6506 48.0376C18.3595 47.3123 18.2996 46.4405 18.4955 45.5209C18.4955 45.5209 18.4955 45.5209 18.4955 45.5208L22.8222 25.3168C22.8222 25.3168 22.8222 25.3168 22.8222 25.3167C23.2264 23.4326 24.9224 22.0684 26.8476 22.0684H54.484C56.412 22.0684 58.1053 23.4325 58.5094 25.3168L62.836 45.5211L62.8361 45.5213C63.0318 46.4317 62.9722 47.3066 62.6807 48.0382L62.6806 48.0384C62.0506 49.6229 60.5399 50.6506 58.8476 50.6506H42.1203H41.8703V50.9006V62.537V62.787H42.1203H56.6658C57.3288 62.787 57.8703 63.3284 57.8703 63.9915C57.8703 64.6546 57.3289 65.1961 56.6658 65.1961H24.6658C24.0027 65.1961 23.4612 64.6546 23.4612 63.9915C23.4612 63.3285 24.0027 62.787 24.6658 62.787H39.2112H39.4612V62.537V50.9006V50.6506H39.2112H22.484C20.7913 50.6506 19.2837 49.631 18.651 48.0384ZM44.7976 24.7033L44.7757 24.4775H44.5488H37.0575H36.7821H36.7735V24.7266L36.5333 24.7033L35.5446 34.8851L35.518 35.1593H35.7934H45.5374H45.8129L45.7863 34.8851L44.7976 24.7033ZM31.7814 48.1754L32.1989 47.7502H31.8759L32.8376 37.8455L32.8643 37.5713H32.5888H22.8645H22.6623L22.62 37.7689L20.8163 46.1878C20.8163 46.188 20.8162 46.1883 20.8162 46.1886C20.7031 46.7018 20.8337 47.222 21.1558 47.6204L21.1574 47.6224C21.4854 48.02 21.9648 48.2502 22.4838 48.2502H31.325L31.283 48.6829L31.7785 48.1783L31.7814 48.1754ZM32.8701 35.1593V35.1594L32.876 35.1592L32.8792 35.1591L33.1006 35.1539L33.122 34.9334L34.1107 24.7516L34.1373 24.4774H33.8619H26.8505C26.0491 24.4774 25.35 25.0359 25.18 25.8223L25.18 25.8228L23.2453 34.8569L23.1805 35.1593H23.4897H32.8701ZM34.2775 47.976L34.2508 48.2502H34.5263H46.8105H47.086L47.0593 47.976L46.0707 37.7942L46.0488 37.5684H45.8219H35.515H35.2881L35.2661 37.7942L34.2775 47.976ZM47.4725 24.4775L47.4695 24.7281L47.2268 24.7517L48.2154 34.9335L48.2374 35.1594H48.4643H57.8446H58.1538L58.0891 34.857L56.1544 25.8228L56.1542 25.8222C55.9843 25.0392 55.2857 24.4775 54.4838 24.4775H47.4725ZM60.1753 47.6206L60.3153 47.4473L60.3009 47.4326C60.5262 47.0599 60.6063 46.6178 60.5121 46.186C60.512 46.1858 60.512 46.1857 60.512 46.1856L58.7082 37.7662L58.6659 37.5686H58.4638H48.7394H48.4639L48.4906 37.8427L49.4792 48.0246L49.5011 48.2504H49.728H58.8473C59.3648 48.2504 59.8515 48.0212 60.1753 47.6206Z" fill="#1E5724" stroke="#EDF2ED" stroke-width="0.5"/>
</svg>
