<svg width="81" height="80" viewBox="0 0 81 80" fill="none" xmlns="http://www.w3.org/2000/svg">
<mask id="path-1-inside-1_2134_903" fill="white">
<path fill-rule="evenodd" clip-rule="evenodd" d="M11.119 10.4625C9.57204 10.4625 8.17691 11.1832 7.25233 12.3029C7.14979 12.4273 7.05233 12.5568 6.96215 12.6906C6.87124 12.8244 6.78688 12.9626 6.70906 13.1051C6.63124 13.2477 6.55997 13.3938 6.49597 13.5437C6.46688 13.6186 6.43051 13.6949 6.40579 13.7713C6.20724 14.3088 6.09888 14.8875 6.09888 15.489V45.7591V50.8834C6.09888 53.6328 8.36906 55.9102 11.1192 55.9102H30.041V62.6626H21.9211C21.4107 62.6626 20.9213 62.8654 20.5604 63.2262C20.1996 63.5871 19.9968 64.0765 19.9968 64.5869C19.9968 65.0972 20.1996 65.5866 20.5604 65.9475C20.9213 66.3083 21.4107 66.5111 21.9211 66.5111H55.7008C56.2112 66.5111 56.7006 66.3083 57.0615 65.9475C57.4223 65.5866 57.6251 65.0972 57.6251 64.5869C57.6251 64.0765 57.4223 63.5871 57.0615 63.2262C56.7006 62.8654 56.2112 62.6626 55.7008 62.6626H47.5809V55.9102H66.5026C69.2528 55.9102 71.523 53.6328 71.523 50.8834V45.7591V15.489C71.523 15.4032 71.5208 15.3173 71.5164 15.2322C71.4946 14.8075 71.4182 14.3957 71.2953 14.0037C71.2444 13.8466 71.1891 13.6932 71.1251 13.5434C71.096 13.4685 71.0597 13.3943 71.024 13.3208C70.9513 13.1746 70.875 13.0321 70.7906 12.8939C70.7062 12.7557 70.6153 12.6219 70.5186 12.4925C70.3251 12.2343 70.107 11.9943 69.8691 11.7768C69.6306 11.5594 69.3717 11.3645 69.0958 11.1957C69.0303 11.1521 68.9568 11.1128 68.8856 11.0736C68.6725 10.9565 68.4499 10.8546 68.2194 10.7696C67.6827 10.5703 67.1038 10.4619 66.5022 10.4619L11.119 10.4625ZM11.119 14.311H66.5024C66.7147 14.311 66.9089 14.3619 67.0755 14.4456C67.442 14.6368 67.6741 15.0157 67.6741 15.4892V20.6135V45.7594V50.8837C67.6741 51.5717 67.1824 52.062 66.5022 52.062H11.1188C10.4381 52.062 9.94688 51.5718 9.94688 50.8837V45.7594V15.4892C9.94688 15.4456 9.94884 15.4041 9.95255 15.3626C9.9671 15.2383 9.98891 15.1219 10.034 15.015C10.0486 14.9786 10.0631 14.9423 10.0849 14.911C10.1358 14.8106 10.2027 14.7205 10.2813 14.6419C10.3322 14.591 10.3904 14.543 10.4529 14.5023C10.5184 14.4586 10.5816 14.4266 10.6522 14.3983C10.794 14.3401 10.9488 14.311 11.119 14.311ZM33.2834 23.5394C32.7731 23.5394 32.2836 23.7422 31.9228 24.103C31.5619 24.4639 31.3592 24.9533 31.3591 25.4636V27.9472C30.9089 28.1167 30.4644 28.3014 30.0265 28.5014L28.2664 26.7428C27.9056 26.3823 27.4164 26.1798 26.9063 26.1798C26.3963 26.1798 25.9071 26.3823 25.5462 26.7428L17.7297 34.553C17.5509 34.7318 17.409 34.944 17.3122 35.1775C17.2155 35.4111 17.1656 35.6614 17.1656 35.9142C17.1656 36.1671 17.2155 36.4174 17.3122 36.651C17.409 36.8845 17.5509 37.0967 17.7297 37.2754L19.4883 39.0326C19.2891 39.4697 19.1043 39.9126 18.9349 40.3619H16.4475C15.9371 40.362 15.4477 40.5647 15.0869 40.9256C14.7261 41.2864 14.5233 41.7758 14.5232 42.2861V48.3719C14.5233 48.8823 14.726 49.3717 15.0868 49.7326C15.4477 50.0934 15.9371 50.2962 16.4475 50.2962C16.7002 50.2962 16.9504 50.2464 17.1839 50.1497C17.4173 50.053 17.6295 49.9113 17.8082 49.7326C17.9869 49.5539 18.1286 49.3418 18.2253 49.1083C18.322 48.8749 18.3718 48.6247 18.3718 48.3719V44.2104H20.3071C20.7206 44.2104 21.1231 44.0772 21.455 43.8305C21.7868 43.5838 22.0304 43.2368 22.1496 42.8409C22.4915 41.7048 22.9492 40.6067 23.5152 39.5637C23.7131 39.199 23.7879 38.78 23.7282 38.3692C23.6686 37.9585 23.4778 37.5781 23.1843 37.2847L21.8126 35.9142L26.9067 30.8242L28.2806 32.1969C28.5738 32.4899 28.9538 32.6804 29.364 32.74C29.7742 32.7996 30.1928 32.7252 30.5573 32.5278C31.6013 31.962 32.7005 31.5049 33.8377 31.1631C34.2338 31.044 34.581 30.8004 34.8279 30.4685C35.0747 30.1366 35.208 29.734 35.208 29.3203V27.388H42.4142V29.3164C42.4143 29.7306 42.548 30.1338 42.7955 30.466C43.043 30.7982 43.3911 31.0416 43.788 31.1602C44.9276 31.5005 46.0292 31.9565 47.0756 32.5213C47.44 32.7179 47.858 32.7917 48.2677 32.7318C48.6774 32.672 49.0568 32.4816 49.3497 32.1889L50.7155 30.8242L55.8096 35.9141L54.446 37.2767C54.1529 37.5697 53.9622 37.9496 53.9023 38.3597C53.8424 38.7698 53.9165 39.1884 54.1136 39.553C54.6787 40.5984 55.1352 41.6989 55.4756 42.8373C55.5943 43.2341 55.8378 43.582 56.1699 43.8294C56.502 44.0767 56.9051 44.2103 57.3192 44.2104H59.2507V48.3719C59.2507 48.8822 59.4534 49.3716 59.8143 49.7325C60.1751 50.0934 60.6646 50.2961 61.1749 50.2961C61.6852 50.2961 62.1747 50.0934 62.5355 49.7325C62.8964 49.3717 63.0992 48.8822 63.0992 48.3719V42.2861C63.0991 41.7757 62.8964 41.2863 62.5355 40.9255C62.1746 40.5646 61.6852 40.3619 61.1749 40.3618H58.6941C58.5246 39.9102 58.3399 39.4651 58.1399 39.0262L59.8921 37.2754C60.0709 37.0967 60.2128 36.8845 60.3096 36.6509C60.4064 36.4173 60.4562 36.167 60.4562 35.9142C60.4562 35.6613 60.4064 35.411 60.3096 35.1774C60.2128 34.9439 60.0709 34.7317 59.8921 34.553L52.0757 26.7427C51.7148 26.3822 51.2256 26.1797 50.7155 26.1797C50.2055 26.1797 49.7162 26.3822 49.3554 26.7427L47.6019 28.4949C47.1619 28.2949 46.7154 28.1102 46.2627 27.9408V25.4637C46.2627 24.9533 46.0599 24.4639 45.6991 24.1031C45.3382 23.7422 44.8488 23.5395 44.3384 23.5394L33.2834 23.5394ZM38.8107 37.8373C33.3235 37.8373 28.8323 42.3238 28.8324 47.8092C28.8324 48.0448 28.8397 48.2797 28.8542 48.5139C28.8721 48.766 28.9394 49.0121 29.0524 49.2381C29.1654 49.4641 29.3218 49.6657 29.5127 49.8313C29.7035 49.9969 29.9252 50.1233 30.1649 50.2032C30.4046 50.2832 30.6577 50.3151 30.9098 50.2973C31.1619 50.2794 31.4079 50.212 31.634 50.0991C31.86 49.9861 32.0616 49.8297 32.2272 49.6388C32.3928 49.4479 32.5192 49.2263 32.5991 48.9866C32.6791 48.7469 32.711 48.4938 32.6931 48.2417C32.6859 48.0977 32.6786 47.9537 32.6786 47.809C32.6786 44.4052 35.3995 41.6857 38.8085 41.6857C42.2175 41.6857 44.9383 44.4052 44.9383 47.809C44.9383 47.9537 44.9331 48.0977 44.9238 48.2417C44.9059 48.4938 44.9378 48.7469 45.0178 48.9866C45.0977 49.2263 45.2241 49.4479 45.3897 49.6388C45.5553 49.8297 45.7569 49.9861 45.9829 50.0991C46.209 50.212 46.455 50.2794 46.7071 50.2973C46.9592 50.3151 47.2123 50.2832 47.452 50.2032C47.6917 50.1233 47.9133 49.9969 48.1042 49.8313C48.2951 49.6657 48.4515 49.4641 48.5645 49.2381C48.6774 49.0121 48.7448 48.766 48.7627 48.5139C48.7772 48.279 48.7845 48.0441 48.7845 47.8092C48.7845 42.3238 44.298 37.8373 38.8107 37.8373ZM33.8892 55.9106H43.7322V62.663H33.8892V55.9106Z"/>
</mask>
<path fill-rule="evenodd" clip-rule="evenodd" d="M11.119 10.4625C9.57204 10.4625 8.17691 11.1832 7.25233 12.3029C7.14979 12.4273 7.05233 12.5568 6.96215 12.6906C6.87124 12.8244 6.78688 12.9626 6.70906 13.1051C6.63124 13.2477 6.55997 13.3938 6.49597 13.5437C6.46688 13.6186 6.43051 13.6949 6.40579 13.7713C6.20724 14.3088 6.09888 14.8875 6.09888 15.489V45.7591V50.8834C6.09888 53.6328 8.36906 55.9102 11.1192 55.9102H30.041V62.6626H21.9211C21.4107 62.6626 20.9213 62.8654 20.5604 63.2262C20.1996 63.5871 19.9968 64.0765 19.9968 64.5869C19.9968 65.0972 20.1996 65.5866 20.5604 65.9475C20.9213 66.3083 21.4107 66.5111 21.9211 66.5111H55.7008C56.2112 66.5111 56.7006 66.3083 57.0615 65.9475C57.4223 65.5866 57.6251 65.0972 57.6251 64.5869C57.6251 64.0765 57.4223 63.5871 57.0615 63.2262C56.7006 62.8654 56.2112 62.6626 55.7008 62.6626H47.5809V55.9102H66.5026C69.2528 55.9102 71.523 53.6328 71.523 50.8834V45.7591V15.489C71.523 15.4032 71.5208 15.3173 71.5164 15.2322C71.4946 14.8075 71.4182 14.3957 71.2953 14.0037C71.2444 13.8466 71.1891 13.6932 71.1251 13.5434C71.096 13.4685 71.0597 13.3943 71.024 13.3208C70.9513 13.1746 70.875 13.0321 70.7906 12.8939C70.7062 12.7557 70.6153 12.6219 70.5186 12.4925C70.3251 12.2343 70.107 11.9943 69.8691 11.7768C69.6306 11.5594 69.3717 11.3645 69.0958 11.1957C69.0303 11.1521 68.9568 11.1128 68.8856 11.0736C68.6725 10.9565 68.4499 10.8546 68.2194 10.7696C67.6827 10.5703 67.1038 10.4619 66.5022 10.4619L11.119 10.4625ZM11.119 14.311H66.5024C66.7147 14.311 66.9089 14.3619 67.0755 14.4456C67.442 14.6368 67.6741 15.0157 67.6741 15.4892V20.6135V45.7594V50.8837C67.6741 51.5717 67.1824 52.062 66.5022 52.062H11.1188C10.4381 52.062 9.94688 51.5718 9.94688 50.8837V45.7594V15.4892C9.94688 15.4456 9.94884 15.4041 9.95255 15.3626C9.9671 15.2383 9.98891 15.1219 10.034 15.015C10.0486 14.9786 10.0631 14.9423 10.0849 14.911C10.1358 14.8106 10.2027 14.7205 10.2813 14.6419C10.3322 14.591 10.3904 14.543 10.4529 14.5023C10.5184 14.4586 10.5816 14.4266 10.6522 14.3983C10.794 14.3401 10.9488 14.311 11.119 14.311ZM33.2834 23.5394C32.7731 23.5394 32.2836 23.7422 31.9228 24.103C31.5619 24.4639 31.3592 24.9533 31.3591 25.4636V27.9472C30.9089 28.1167 30.4644 28.3014 30.0265 28.5014L28.2664 26.7428C27.9056 26.3823 27.4164 26.1798 26.9063 26.1798C26.3963 26.1798 25.9071 26.3823 25.5462 26.7428L17.7297 34.553C17.5509 34.7318 17.409 34.944 17.3122 35.1775C17.2155 35.4111 17.1656 35.6614 17.1656 35.9142C17.1656 36.1671 17.2155 36.4174 17.3122 36.651C17.409 36.8845 17.5509 37.0967 17.7297 37.2754L19.4883 39.0326C19.2891 39.4697 19.1043 39.9126 18.9349 40.3619H16.4475C15.9371 40.362 15.4477 40.5647 15.0869 40.9256C14.7261 41.2864 14.5233 41.7758 14.5232 42.2861V48.3719C14.5233 48.8823 14.726 49.3717 15.0868 49.7326C15.4477 50.0934 15.9371 50.2962 16.4475 50.2962C16.7002 50.2962 16.9504 50.2464 17.1839 50.1497C17.4173 50.053 17.6295 49.9113 17.8082 49.7326C17.9869 49.5539 18.1286 49.3418 18.2253 49.1083C18.322 48.8749 18.3718 48.6247 18.3718 48.3719V44.2104H20.3071C20.7206 44.2104 21.1231 44.0772 21.455 43.8305C21.7868 43.5838 22.0304 43.2368 22.1496 42.8409C22.4915 41.7048 22.9492 40.6067 23.5152 39.5637C23.7131 39.199 23.7879 38.78 23.7282 38.3692C23.6686 37.9585 23.4778 37.5781 23.1843 37.2847L21.8126 35.9142L26.9067 30.8242L28.2806 32.1969C28.5738 32.4899 28.9538 32.6804 29.364 32.74C29.7742 32.7996 30.1928 32.7252 30.5573 32.5278C31.6013 31.962 32.7005 31.5049 33.8377 31.1631C34.2338 31.044 34.581 30.8004 34.8279 30.4685C35.0747 30.1366 35.208 29.734 35.208 29.3203V27.388H42.4142V29.3164C42.4143 29.7306 42.548 30.1338 42.7955 30.466C43.043 30.7982 43.3911 31.0416 43.788 31.1602C44.9276 31.5005 46.0292 31.9565 47.0756 32.5213C47.44 32.7179 47.858 32.7917 48.2677 32.7318C48.6774 32.672 49.0568 32.4816 49.3497 32.1889L50.7155 30.8242L55.8096 35.9141L54.446 37.2767C54.1529 37.5697 53.9622 37.9496 53.9023 38.3597C53.8424 38.7698 53.9165 39.1884 54.1136 39.553C54.6787 40.5984 55.1352 41.6989 55.4756 42.8373C55.5943 43.2341 55.8378 43.582 56.1699 43.8294C56.502 44.0767 56.9051 44.2103 57.3192 44.2104H59.2507V48.3719C59.2507 48.8822 59.4534 49.3716 59.8143 49.7325C60.1751 50.0934 60.6646 50.2961 61.1749 50.2961C61.6852 50.2961 62.1747 50.0934 62.5355 49.7325C62.8964 49.3717 63.0992 48.8822 63.0992 48.3719V42.2861C63.0991 41.7757 62.8964 41.2863 62.5355 40.9255C62.1746 40.5646 61.6852 40.3619 61.1749 40.3618H58.6941C58.5246 39.9102 58.3399 39.4651 58.1399 39.0262L59.8921 37.2754C60.0709 37.0967 60.2128 36.8845 60.3096 36.6509C60.4064 36.4173 60.4562 36.167 60.4562 35.9142C60.4562 35.6613 60.4064 35.411 60.3096 35.1774C60.2128 34.9439 60.0709 34.7317 59.8921 34.553L52.0757 26.7427C51.7148 26.3822 51.2256 26.1797 50.7155 26.1797C50.2055 26.1797 49.7162 26.3822 49.3554 26.7427L47.6019 28.4949C47.1619 28.2949 46.7154 28.1102 46.2627 27.9408V25.4637C46.2627 24.9533 46.0599 24.4639 45.6991 24.1031C45.3382 23.7422 44.8488 23.5395 44.3384 23.5394L33.2834 23.5394ZM38.8107 37.8373C33.3235 37.8373 28.8323 42.3238 28.8324 47.8092C28.8324 48.0448 28.8397 48.2797 28.8542 48.5139C28.8721 48.766 28.9394 49.0121 29.0524 49.2381C29.1654 49.4641 29.3218 49.6657 29.5127 49.8313C29.7035 49.9969 29.9252 50.1233 30.1649 50.2032C30.4046 50.2832 30.6577 50.3151 30.9098 50.2973C31.1619 50.2794 31.4079 50.212 31.634 50.0991C31.86 49.9861 32.0616 49.8297 32.2272 49.6388C32.3928 49.4479 32.5192 49.2263 32.5991 48.9866C32.6791 48.7469 32.711 48.4938 32.6931 48.2417C32.6859 48.0977 32.6786 47.9537 32.6786 47.809C32.6786 44.4052 35.3995 41.6857 38.8085 41.6857C42.2175 41.6857 44.9383 44.4052 44.9383 47.809C44.9383 47.9537 44.9331 48.0977 44.9238 48.2417C44.9059 48.4938 44.9378 48.7469 45.0178 48.9866C45.0977 49.2263 45.2241 49.4479 45.3897 49.6388C45.5553 49.8297 45.7569 49.9861 45.9829 50.0991C46.209 50.212 46.455 50.2794 46.7071 50.2973C46.9592 50.3151 47.2123 50.2832 47.452 50.2032C47.6917 50.1233 47.9133 49.9969 48.1042 49.8313C48.2951 49.6657 48.4515 49.4641 48.5645 49.2381C48.6774 49.0121 48.7448 48.766 48.7627 48.5139C48.7772 48.279 48.7845 48.0441 48.7845 47.8092C48.7845 42.3238 44.298 37.8373 38.8107 37.8373ZM33.8892 55.9106H43.7322V62.663H33.8892V55.9106Z" fill="#1E5724" stroke="#EDF2ED" stroke-width="2" mask="url(#path-1-inside-1_2134_903)"/>
</svg>
