<svg width="80" height="80" viewBox="0 0 80 80" fill="none" xmlns="http://www.w3.org/2000/svg">
<path d="M47.2199 69.1013L47.2221 69.1019C49.0297 69.558 50.3866 70.1486 51.2803 70.8177C52.1694 71.4834 52.554 72.1872 52.554 72.8919C52.554 73.5478 52.2384 74.1598 51.5947 74.7309C50.9448 75.3075 49.988 75.8143 48.7947 76.2317C46.4112 77.0654 43.2076 77.5002 40.0006 77.5002C36.7937 77.5002 33.59 77.0654 31.2066 76.2317C30.0132 75.8143 29.0564 75.3075 28.4065 74.7309C27.7629 74.1598 27.4473 73.5478 27.4473 72.8919C27.4473 72.1872 27.8318 71.4834 28.721 70.8177C29.6146 70.1486 30.9715 69.558 32.7792 69.1019L32.7802 69.1016C32.808 69.0946 32.8353 69.0913 32.8619 69.0913C32.9188 69.0913 32.9757 69.1064 33.0286 69.138L33.0291 69.1383C33.1053 69.1839 33.1581 69.2544 33.1802 69.3412C33.2017 69.4274 33.189 69.5146 33.1433 69.5916C33.0971 69.6685 33.0264 69.7208 32.9408 69.7424L32.9406 69.7424C31.3689 70.1391 30.199 70.6312 29.4091 71.1439C29.0144 71.4001 28.6994 71.6712 28.4784 71.952C28.2596 72.2298 28.1079 72.55 28.1079 72.8919C28.1079 73.5504 28.605 74.0957 29.1984 74.5123C29.8212 74.9496 30.6952 75.3495 31.7441 75.6891C33.8477 76.3703 36.7489 76.8394 40.0006 76.8394C43.2523 76.8394 46.1535 76.3703 48.2571 75.6891C49.306 75.3495 50.18 74.9496 50.8028 74.5123C51.3962 74.0957 51.8934 73.5504 51.8934 72.8919C51.8934 72.55 51.7417 72.2299 51.5229 71.952C51.3018 71.6712 50.9869 71.4002 50.5922 71.144C49.8023 70.6313 48.6324 70.1392 47.0607 69.7425L47.0603 69.7423C46.9741 69.7207 46.9036 69.6682 46.8582 69.5919L46.8577 69.5912C46.8123 69.5153 46.7993 69.4283 46.821 69.3415C46.8437 69.2532 46.8969 69.1826 46.973 69.1374L46.9737 69.137C47.0498 69.0917 47.135 69.0795 47.2199 69.1013Z" fill="#1E5724" stroke="#1E5724"/>
<path d="M61.9349 34.8489L61.9349 34.8489C61.6906 30.2802 60.0592 25.9807 57.2144 22.3988C57.1836 21.9736 57.1705 21.5964 57.174 21.2619C60.4407 25.0496 62.3629 29.7961 62.6308 34.8119C63.0051 41.8174 60.2009 48.4815 54.9365 53.1004C48.9513 58.3503 44.3508 64.7754 41.638 71.6871L41.6379 71.6872C41.374 72.3603 40.738 72.7956 40.0012 72.7959C39.2727 72.7929 38.6384 72.355 38.3784 71.678C35.6468 64.5612 31.1666 58.2422 25.4189 53.404C20.2828 49.0806 17.3379 42.758 17.3379 36.0562C17.3379 32.4753 18.1824 28.9815 19.8008 25.8047C19.8481 26.23 19.9051 26.6531 19.9715 27.073C18.7044 29.8997 18.0352 32.9983 18.0352 36.0562C18.0352 42.5516 20.8907 48.6807 25.868 52.8705C31.7031 57.7825 36.255 64.1996 39.0294 71.428C39.2624 72.0361 39.8202 72.098 40.0072 72.0987H40.0089C40.1955 72.0987 40.7522 72.0378 40.9892 71.4318C43.7379 64.4287 48.3995 57.9066 54.4765 52.5762L54.4765 52.5761C59.5783 48.1003 62.2972 41.6373 61.9349 34.8489Z" fill="#1E5724" stroke="#1E5724"/>
<path d="M39.9987 50.9134C46.1931 50.9134 51.7994 47.0528 54.0273 41.2806C54.4313 40.9116 54.8042 40.5267 55.1464 40.1248C53.2903 46.7433 47.2015 51.6106 39.9987 51.6106C31.8607 51.6106 25.1458 45.3977 24.3487 37.4665C24.6159 37.7908 24.8928 38.101 25.1788 38.3963C26.3913 45.5557 32.7062 50.9134 39.9987 50.9134Z" fill="#1E5724" stroke="#1E5724"/>
<mask id="path-4-inside-1_2134_911" fill="white">
<path d="M35.3404 39.184L35.5371 39.186L35.6628 39.3375C35.8042 39.5078 35.9457 39.6782 36.0976 39.8467C36.8512 40.6901 37.7766 41.5383 38.849 42.3694L39.0209 42.5026L39.0132 42.7199C38.9731 43.8439 38.9955 44.9906 39.08 46.1279C39.1137 46.584 39.5123 46.9385 39.977 46.9026C40.44 46.8683 40.7878 46.465 40.7535 46.0035C40.68 45.0151 40.6554 44.0218 40.6803 43.0515L40.6894 42.6856L41.0529 42.6413C41.3999 42.5989 41.7328 42.5538 42.0491 42.5066C46.0871 41.9157 49.0493 40.8397 51.1063 39.2168C55.4889 35.7585 54.7729 30.5583 54.1411 25.97C53.7312 22.9911 53.3439 20.1774 54.2986 18.1077C54.4127 17.8606 54.3994 17.5723 54.263 17.3362C54.1268 17.1004 53.8837 16.9451 53.6127 16.9208C52.7698 16.8441 51.806 16.8894 50.7471 17.0548L50.3035 17.1241L50.2592 16.6771C49.9778 13.8149 49.2026 11.5415 48.5797 9.71466C47.7106 7.16876 47.0827 5.32907 47.7545 3.07887C47.8365 2.80416 47.7744 2.51051 47.5879 2.29293C47.4015 2.0757 47.1205 1.9693 46.8357 2.00773C41.6922 2.71549 37.0592 5.59108 34.1257 9.89713C32.7978 11.8472 31.9663 13.9077 31.7845 15.6991L31.7329 16.209L31.2414 16.063C30.2135 15.7573 29.0687 15.3898 28.3723 14.9801C27.6038 14.5279 27.006 14.0529 26.5452 13.5279C26.3844 13.3444 26.1562 13.2423 25.9123 13.2423C25.8941 13.2423 25.8758 13.2428 25.8576 13.2439C25.6004 13.2609 25.3603 13.3998 25.2164 13.6156C22.5091 17.6756 22.1014 26.9003 25.6081 33.1683C27.788 37.0639 31.1533 39.1441 35.3404 39.184ZM51.7723 18.6154L52.3411 18.5588L52.2306 19.1197C51.8029 21.2905 52.1469 23.7857 52.4795 26.1989C53.1047 30.7448 53.695 35.0368 50.0664 37.8997C48.2753 39.313 45.5031 40.3034 41.8265 40.8432L41.803 40.8467C41.7022 40.8618 41.5952 40.876 41.4886 40.8903L40.8077 40.9825L40.8905 40.3115C40.8974 40.2494 40.9046 40.1872 40.9129 40.1253C40.972 39.6919 41.0455 39.2524 41.1309 38.8187C41.2267 38.306 41.3439 37.7802 41.4776 37.2598C41.4903 37.2185 41.4955 37.2016 41.4997 37.1842C41.5312 37.0611 41.5637 36.9414 41.5988 36.8241C41.6049 36.8038 41.6096 36.7844 41.6137 36.7646L41.6212 36.7349C41.9013 35.7537 42.2453 34.7918 42.6433 33.8763C44.295 30.0828 46.4506 28.1194 46.4721 28.1001C46.6429 27.9492 46.7432 27.7444 46.757 27.5208C46.7708 27.2971 46.6965 27.0815 46.5481 26.9135C46.3998 26.7453 46.1948 26.6452 45.9711 26.6314C45.7462 26.6173 45.5321 26.6919 45.3644 26.8401C45.2652 26.9275 42.9287 29.0175 41.1046 33.2068C40.6646 34.219 40.2878 35.2787 39.9847 36.3563L39.9734 36.4012C39.9411 36.5152 39.9165 36.6053 39.8924 36.6969L39.8726 36.7652C39.719 37.3547 39.588 37.9387 39.483 38.502C39.4145 38.8484 39.3529 39.2181 39.2825 39.7054L39.1681 40.4965L38.5769 39.9585C38.1167 39.5397 37.7026 39.1249 37.346 38.7258C35.9824 37.2131 35.1285 35.6418 34.8089 34.0569C34.6236 33.1442 34.6136 32.214 34.7794 31.2926C35.3017 28.3542 37.6236 25.337 41.3174 22.7979C44.5672 20.5663 48.6708 18.9246 51.7723 18.6154ZM33.4213 16.369C33.4218 14.8298 34.2039 12.7635 35.5131 10.8418C36.5985 9.24796 39.7242 5.39205 45.2901 4.01066L45.8511 3.87145L45.8158 4.44855C45.6928 6.4527 46.3236 8.3004 46.9915 10.2567C47.6454 12.174 48.3866 14.3471 48.6189 17.1637L48.6473 17.5093L48.3145 17.606C46.2597 18.203 44.1163 19.1371 42.1157 20.3075L41.593 20.6131L41.4839 20.0175C41.2944 18.9824 41.2054 17.286 41.8571 15.0823C41.9883 14.6388 41.7339 14.1713 41.2903 14.0399C40.8461 13.9084 40.3789 14.1631 40.248 14.6067C39.8706 15.8822 39.6783 17.1514 39.6761 18.3791L39.6748 19.0924L39.0488 18.7509C37.5363 17.9262 35.5979 17.3147 33.7282 16.7769L33.421 16.6884L33.4213 16.369ZM25.883 15.9524L26.0899 15.4446L26.5294 15.772C26.8294 15.9953 27.1632 16.2155 27.5217 16.4263C28.6195 17.0722 30.3292 17.5563 32.3091 18.117C35.0216 18.8851 38.3974 19.841 39.7173 21.2963L40.0328 21.6441L39.6549 21.9228C37.4239 23.5683 35.7084 25.3809 34.5564 27.3104L34.3072 27.7274L33.9274 27.4246C32.303 26.1294 31.5154 25.0996 31.4829 25.0563C31.3464 24.8708 31.1511 24.7527 30.9295 24.719C30.708 24.6845 30.4867 24.7396 30.3063 24.8722C29.9337 25.1464 29.8535 25.6725 30.1276 26.0452C30.1693 26.1022 31.179 27.4604 33.353 29.1014L33.5978 29.2861L33.4995 29.5765C33.3329 30.0665 33.2078 30.5447 33.1271 30.9976C32.9243 32.1277 32.9367 33.2685 33.1641 34.3894C33.3183 35.1549 33.5865 35.9382 33.9611 36.7181L34.3279 37.4814L33.497 37.3184C30.7806 36.7852 28.6193 35.1133 27.0725 32.3489C24.2606 27.3233 24.2658 19.9249 25.883 15.9524Z"/>
</mask>
<path d="M35.3404 39.184L35.5371 39.186L35.6628 39.3375C35.8042 39.5078 35.9457 39.6782 36.0976 39.8467C36.8512 40.6901 37.7766 41.5383 38.849 42.3694L39.0209 42.5026L39.0132 42.7199C38.9731 43.8439 38.9955 44.9906 39.08 46.1279C39.1137 46.584 39.5123 46.9385 39.977 46.9026C40.44 46.8683 40.7878 46.465 40.7535 46.0035C40.68 45.0151 40.6554 44.0218 40.6803 43.0515L40.6894 42.6856L41.0529 42.6413C41.3999 42.5989 41.7328 42.5538 42.0491 42.5066C46.0871 41.9157 49.0493 40.8397 51.1063 39.2168C55.4889 35.7585 54.7729 30.5583 54.1411 25.97C53.7312 22.9911 53.3439 20.1774 54.2986 18.1077C54.4127 17.8606 54.3994 17.5723 54.263 17.3362C54.1268 17.1004 53.8837 16.9451 53.6127 16.9208C52.7698 16.8441 51.806 16.8894 50.7471 17.0548L50.3035 17.1241L50.2592 16.6771C49.9778 13.8149 49.2026 11.5415 48.5797 9.71466C47.7106 7.16876 47.0827 5.32907 47.7545 3.07887C47.8365 2.80416 47.7744 2.51051 47.5879 2.29293C47.4015 2.0757 47.1205 1.9693 46.8357 2.00773C41.6922 2.71549 37.0592 5.59108 34.1257 9.89713C32.7978 11.8472 31.9663 13.9077 31.7845 15.6991L31.7329 16.209L31.2414 16.063C30.2135 15.7573 29.0687 15.3898 28.3723 14.9801C27.6038 14.5279 27.006 14.0529 26.5452 13.5279C26.3844 13.3444 26.1562 13.2423 25.9123 13.2423C25.8941 13.2423 25.8758 13.2428 25.8576 13.2439C25.6004 13.2609 25.3603 13.3998 25.2164 13.6156C22.5091 17.6756 22.1014 26.9003 25.6081 33.1683C27.788 37.0639 31.1533 39.1441 35.3404 39.184ZM51.7723 18.6154L52.3411 18.5588L52.2306 19.1197C51.8029 21.2905 52.1469 23.7857 52.4795 26.1989C53.1047 30.7448 53.695 35.0368 50.0664 37.8997C48.2753 39.313 45.5031 40.3034 41.8265 40.8432L41.803 40.8467C41.7022 40.8618 41.5952 40.876 41.4886 40.8903L40.8077 40.9825L40.8905 40.3115C40.8974 40.2494 40.9046 40.1872 40.9129 40.1253C40.972 39.6919 41.0455 39.2524 41.1309 38.8187C41.2267 38.306 41.3439 37.7802 41.4776 37.2598C41.4903 37.2185 41.4955 37.2016 41.4997 37.1842C41.5312 37.0611 41.5637 36.9414 41.5988 36.8241C41.6049 36.8038 41.6096 36.7844 41.6137 36.7646L41.6212 36.7349C41.9013 35.7537 42.2453 34.7918 42.6433 33.8763C44.295 30.0828 46.4506 28.1194 46.4721 28.1001C46.6429 27.9492 46.7432 27.7444 46.757 27.5208C46.7708 27.2971 46.6965 27.0815 46.5481 26.9135C46.3998 26.7453 46.1948 26.6452 45.9711 26.6314C45.7462 26.6173 45.5321 26.6919 45.3644 26.8401C45.2652 26.9275 42.9287 29.0175 41.1046 33.2068C40.6646 34.219 40.2878 35.2787 39.9847 36.3563L39.9734 36.4012C39.9411 36.5152 39.9165 36.6053 39.8924 36.6969L39.8726 36.7652C39.719 37.3547 39.588 37.9387 39.483 38.502C39.4145 38.8484 39.3529 39.2181 39.2825 39.7054L39.1681 40.4965L38.5769 39.9585C38.1167 39.5397 37.7026 39.1249 37.346 38.7258C35.9824 37.2131 35.1285 35.6418 34.8089 34.0569C34.6236 33.1442 34.6136 32.214 34.7794 31.2926C35.3017 28.3542 37.6236 25.337 41.3174 22.7979C44.5672 20.5663 48.6708 18.9246 51.7723 18.6154ZM33.4213 16.369C33.4218 14.8298 34.2039 12.7635 35.5131 10.8418C36.5985 9.24796 39.7242 5.39205 45.2901 4.01066L45.8511 3.87145L45.8158 4.44855C45.6928 6.4527 46.3236 8.3004 46.9915 10.2567C47.6454 12.174 48.3866 14.3471 48.6189 17.1637L48.6473 17.5093L48.3145 17.606C46.2597 18.203 44.1163 19.1371 42.1157 20.3075L41.593 20.6131L41.4839 20.0175C41.2944 18.9824 41.2054 17.286 41.8571 15.0823C41.9883 14.6388 41.7339 14.1713 41.2903 14.0399C40.8461 13.9084 40.3789 14.1631 40.248 14.6067C39.8706 15.8822 39.6783 17.1514 39.6761 18.3791L39.6748 19.0924L39.0488 18.7509C37.5363 17.9262 35.5979 17.3147 33.7282 16.7769L33.421 16.6884L33.4213 16.369ZM25.883 15.9524L26.0899 15.4446L26.5294 15.772C26.8294 15.9953 27.1632 16.2155 27.5217 16.4263C28.6195 17.0722 30.3292 17.5563 32.3091 18.117C35.0216 18.8851 38.3974 19.841 39.7173 21.2963L40.0328 21.6441L39.6549 21.9228C37.4239 23.5683 35.7084 25.3809 34.5564 27.3104L34.3072 27.7274L33.9274 27.4246C32.303 26.1294 31.5154 25.0996 31.4829 25.0563C31.3464 24.8708 31.1511 24.7527 30.9295 24.719C30.708 24.6845 30.4867 24.7396 30.3063 24.8722C29.9337 25.1464 29.8535 25.6725 30.1276 26.0452C30.1693 26.1022 31.179 27.4604 33.353 29.1014L33.5978 29.2861L33.4995 29.5765C33.3329 30.0665 33.2078 30.5447 33.1271 30.9976C32.9243 32.1277 32.9367 33.2685 33.1641 34.3894C33.3183 35.1549 33.5865 35.9382 33.9611 36.7181L34.3279 37.4814L33.497 37.3184C30.7806 36.7852 28.6193 35.1133 27.0725 32.3489C24.2606 27.3233 24.2658 19.9249 25.883 15.9524Z" fill="#1E5724" stroke="#1E5724" stroke-width="2" mask="url(#path-4-inside-1_2134_911)"/>
</svg>
