<svg width="81" height="80" viewBox="0 0 81 80" fill="none" xmlns="http://www.w3.org/2000/svg">
<path d="M69.6679 22.5H11.0012V57.5H69.6679V22.5Z" stroke="#1E5724" stroke-width="2" stroke-miterlimit="10" stroke-linecap="round" stroke-linejoin="round"/>
<path d="M69.67 28.7256H58.7629V51.2763H69.67V28.7256Z" stroke="#1E5724" stroke-width="2" stroke-miterlimit="10" stroke-linecap="round" stroke-linejoin="round"/>
<path d="M21.9083 28.7256H11.0012V51.2763H21.9083V28.7256Z" stroke="#1E5724" stroke-width="2" stroke-miterlimit="10" stroke-linecap="round" stroke-linejoin="round"/>
<path d="M40.7551 22.5V57.5" stroke="#1E5724" stroke-width="2" stroke-miterlimit="10" stroke-linecap="round" stroke-linejoin="round"/>
<path d="M40.7553 50.3034C46.0517 50.3034 50.3453 45.9732 50.3453 40.6317C50.3453 35.2901 46.0517 30.96 40.7553 30.96C35.4589 30.96 31.1653 35.2901 31.1653 40.6317C31.1653 45.9732 35.4589 50.3034 40.7553 50.3034Z" stroke="#1E5724" stroke-width="2" stroke-miterlimit="10" stroke-linecap="round" stroke-linejoin="round"/>
<path d="M69.6679 22.5H11.0012V57.5H69.6679V22.5Z" stroke="#1E5724" stroke-width="2" stroke-miterlimit="10" stroke-linecap="round" stroke-linejoin="round"/>
<path d="M69.67 28.7256H58.7629V51.2763H69.67V28.7256Z" stroke="#1E5724" stroke-width="2" stroke-miterlimit="10" stroke-linecap="round" stroke-linejoin="round"/>
<path d="M21.9083 28.7256H11.0012V51.2763H21.9083V28.7256Z" stroke="#1E5724" stroke-width="2" stroke-miterlimit="10" stroke-linecap="round" stroke-linejoin="round"/>
<path d="M40.7551 22.5V57.5" stroke="#1E5724" stroke-width="2" stroke-miterlimit="10" stroke-linecap="round" stroke-linejoin="round"/>
<path d="M40.7553 50.3034C46.0517 50.3034 50.3453 45.9732 50.3453 40.6317C50.3453 35.2901 46.0517 30.96 40.7553 30.96C35.4589 30.96 31.1653 35.2901 31.1653 40.6317C31.1653 45.9732 35.4589 50.3034 40.7553 50.3034Z" stroke="#1E5724" stroke-width="2" stroke-miterlimit="10" stroke-linecap="round" stroke-linejoin="round"/>
</svg>
