<svg width="81" height="80" viewBox="0 0 81 80" fill="none" xmlns="http://www.w3.org/2000/svg">
<path fill-rule="evenodd" clip-rule="evenodd" d="M28.7703 12.3634C33.6339 12.3662 37.7535 15.9543 38.4212 20.7721C38.6598 22.5676 37.441 25.9567 36.4951 27.6215H67.6711C70.6455 27.6301 73.0517 30.0363 73.0603 33.0108V61.9962C73.0518 64.9678 70.6455 67.3769 67.6711 67.3855H12.9947C10.0203 67.3769 7.61405 64.9679 7.60547 61.9962V33.0108C7.61399 30.0364 10.0202 27.6301 12.9947 27.6215H21.0347C18.458 23.0959 18.137 18.4484 22.3757 14.7554L22.3785 14.7582C24.1484 13.2099 26.4211 12.3605 28.7734 12.3633L28.7703 12.3634ZM30.0061 47.2324C29.6623 47.4881 29.1964 47.4967 28.8441 47.2523L9.58809 36.1331V44.3178L46.1081 65.4029H60.2812L37.5314 52.2669C37.216 52.122 37.0001 51.818 36.9632 51.4714C36.9291 51.1248 37.0797 50.7839 37.3581 50.5765L65.4577 29.6048H53.6199L30.0061 47.2324ZM29.3384 45.2551L50.3101 29.6042H35.2643C35.1052 29.8429 34.9404 30.0815 34.7756 30.3201C38.5682 32.5048 38.8239 36.5161 34.912 38.8656C31.0768 40.9252 26.4662 40.9252 22.6305 38.8656C18.7243 36.519 18.9771 32.5105 22.7612 30.3231C22.5936 30.0844 22.4288 29.8429 22.2697 29.6015L12.9941 29.6043C11.1134 29.61 9.59351 31.1327 9.58784 33.0106V33.8543L29.3384 45.2551ZM68.5966 29.7322L39.7443 51.266L64.2301 65.4028H67.6704C69.5511 65.3942 71.071 63.8743 71.0767 61.9937V33.0104C71.071 31.4876 70.0597 30.1527 68.5966 29.7322ZM42.1617 65.4028L9.58789 46.5962V61.997C9.59357 63.8748 11.1163 65.3947 12.9941 65.4032L42.1617 65.4028ZM36.4571 20.9882C35.9003 17.1729 32.6276 14.3462 28.7728 14.3462C24.9179 14.3462 21.6449 17.1729 21.0884 20.9882C20.935 23.278 22.0543 25.6359 23.6054 28.028C24.0713 28.707 24.5032 29.3916 25.0259 30.0933L26.1509 31.6416C26.3185 31.8689 28.1424 34.3689 28.1139 34.3859V34.3831C28.2645 34.6018 28.5088 34.7297 28.773 34.7297C29.0372 34.7297 29.2844 34.6018 29.4321 34.3831C31.7588 30.9938 36.7499 25.3489 36.4605 20.9911L36.4571 20.9882ZM28.7699 18.6104C27.571 18.6104 26.4517 19.207 25.7869 20.2042C25.1193 21.1985 24.9943 22.4627 25.4545 23.5706C25.9119 24.6757 26.892 25.4826 28.0682 25.7155C29.2443 25.9485 30.4574 25.582 31.3068 24.7325C32.3295 23.7069 32.6363 22.1644 32.0823 20.8234C31.5255 19.4854 30.2187 18.6104 28.7699 18.6104ZM29.9034 21.0621C29.446 20.6019 28.7528 20.4655 28.1534 20.7127C27.554 20.9627 27.1619 21.5479 27.1619 22.1957C27.1619 22.8462 27.554 23.4315 28.1534 23.6815C28.7528 23.9286 29.446 23.7923 29.9034 23.3321C30.5312 22.7042 30.5312 21.69 29.9034 21.0621ZM33.6193 31.9428C32.7699 33.119 31.8949 34.3263 31.0653 35.4968C29.9005 37.1388 27.2841 37.278 26.4829 35.4968C26.4829 35.4968 24.1335 32.2411 23.9176 31.9428C21.3409 33.3292 20.9517 35.5536 23.6449 37.1701V37.173C26.8552 38.8519 30.6875 38.8519 33.898 37.173C35.6423 36.1218 36.3895 34.5536 35.0883 33.0679V33.065C34.6707 32.6076 34.1736 32.227 33.6224 31.9428H33.6193Z" fill="white"/>
</svg>
