<svg width="81" height="80" viewBox="0 0 81 80" fill="none" xmlns="http://www.w3.org/2000/svg">
<path fill-rule="evenodd" clip-rule="evenodd" d="M25.8315 51.352V76.2237C25.8315 76.8918 25.2905 77.4328 24.6225 77.4328H12.1507C11.4827 77.4328 10.9416 76.8918 10.9416 76.2237V51.352C10.9416 50.6848 11.4827 50.1429 12.1507 50.1429H24.6225C25.2905 50.1429 25.8315 50.6848 25.8315 51.352ZM23.4134 52.5611H13.3598V75.0147H23.4134V52.5611ZM47.8777 31.3355V76.2237C47.8777 76.8918 47.3359 77.4328 46.6686 77.4328H34.1961C33.5288 77.4328 32.987 76.8918 32.987 76.2237V31.3355C32.987 30.6683 33.5288 30.1264 34.1961 30.1264H46.6686C47.3359 30.1264 47.8777 30.6683 47.8777 31.3355ZM45.4596 32.5446H35.4051C35.4051 38.9256 35.4051 68.6336 35.4051 75.0147H45.4596V32.5446ZM69.9231 44.5149V76.2237C69.9231 76.8918 69.382 77.4328 68.714 77.4328H56.2422C55.5742 77.4328 55.0332 76.8918 55.0332 76.2237V44.5149C55.0332 43.8477 55.5742 43.3058 56.2422 43.3058H68.714C69.382 43.3058 69.9231 43.8477 69.9231 44.5149ZM67.5049 45.7239H57.4513C57.4513 50.7532 57.4513 69.9862 57.4513 75.0147H67.5049V45.7239ZM40.4328 29.1697C34.7552 29.1697 30.1243 24.5388 30.1243 18.8613C30.1243 13.1837 34.7552 8.55281 40.4328 8.55281C46.1103 8.55281 50.7404 13.1837 50.7404 18.8613C50.7404 24.5388 46.1103 29.1697 40.4328 29.1697ZM40.4328 26.7516C44.7783 26.7516 48.3231 23.2068 48.3231 18.8613C48.3231 14.5157 44.7783 10.971 40.4328 10.971C36.0864 10.971 32.5425 14.5157 32.5425 18.8613C32.5425 23.2068 36.0864 26.7516 40.4328 26.7516ZM39.2237 13.3569V13.1054C39.2237 12.4382 39.7647 11.8963 40.4328 11.8963C41.1 11.8963 41.6418 12.4382 41.6418 13.1054V13.3446C42.7255 13.6472 43.7062 14.387 44.2274 15.6307C44.4864 16.246 44.1961 16.9553 43.5808 17.2134C42.9655 17.4716 42.2563 17.1821 41.9981 16.5668C41.5956 15.6068 40.5128 15.4287 39.7408 15.7322C39.3425 15.8889 39.0027 16.1949 39.0266 16.6617V16.665C39.0431 17.0105 39.2847 17.1936 39.5519 17.3239C39.8851 17.4872 40.2719 17.5755 40.6356 17.6349H40.6381C42.3924 17.9235 44.2843 18.7615 44.535 20.8472C44.7734 22.8159 43.2921 24.0175 41.6418 24.4052V24.6204C41.6418 25.2877 41.1 25.8295 40.4328 25.8295C39.7647 25.8295 39.2237 25.2877 39.2237 24.6204V24.387C37.8579 24.0332 36.7099 23.0815 36.3412 21.6027C36.1804 20.9553 36.5754 20.2988 37.2229 20.138C37.8703 19.9763 38.5268 20.3714 38.6884 21.0188C38.8897 21.8287 39.7293 22.1429 40.521 22.1231H40.5235C40.8938 22.1149 41.2963 22.0382 41.6369 21.8716C41.9247 21.7305 42.1796 21.5112 42.1342 21.1376V21.1359C42.0839 20.7169 41.782 20.5008 41.4505 20.3499C41.0736 20.1792 40.6455 20.0868 40.2472 20.0208C38.5177 19.7396 36.7082 18.8299 36.6109 16.7788C36.5334 15.1903 37.5008 14.0151 38.855 13.4823C38.9754 13.4353 39.0983 13.3932 39.2237 13.3569ZM62.4781 42.4984C56.8006 42.4984 52.1697 37.8683 52.1697 32.1907C52.1697 26.5132 56.8006 21.8823 62.4781 21.8823C68.1556 21.8823 72.7866 26.5132 72.7866 32.1907C72.7866 37.8683 68.1556 42.4984 62.4781 42.4984ZM62.4781 40.0811C66.8237 40.0811 70.3684 36.5363 70.3684 32.1907C70.3684 27.8444 66.8237 24.3004 62.4781 24.3004C58.1326 24.3004 54.5878 27.8444 54.5878 32.1907C54.5878 36.5363 58.1326 40.0811 62.4781 40.0811ZM61.269 26.6864V26.434C61.269 25.7668 61.8109 25.225 62.4781 25.225C63.1453 25.225 63.6872 25.7668 63.6872 26.434V26.674C64.7709 26.9767 65.7515 27.7157 66.2736 28.9602C66.5317 29.5755 66.2422 30.2848 65.627 30.5429C65.0109 30.8011 64.3025 30.5107 64.0443 29.8955C63.641 28.9355 62.559 28.7582 61.7862 29.0617C61.3886 29.2184 61.0488 29.5235 61.0719 29.9912V29.9936C61.0884 30.3392 61.3309 30.5223 61.5981 30.6534C61.9313 30.8159 62.3181 30.9041 62.6818 30.9635L62.6835 30.9644C64.4385 31.253 66.3297 32.0901 66.5812 34.1759C66.8196 36.1446 65.3375 37.347 63.6872 37.7338V37.9499C63.6872 38.6171 63.1453 39.159 62.4781 39.159C61.8109 39.159 61.269 38.6171 61.269 37.9499V37.7157C59.9041 37.3619 58.7552 36.4101 58.3874 34.9322C58.2266 34.2848 58.6208 33.6283 59.2682 33.4666C59.9165 33.3058 60.573 33.7008 60.7338 34.3483C60.935 35.1573 61.7754 35.4724 62.5672 35.4526H62.5697C62.9392 35.4444 63.3425 35.3677 63.6822 35.2011C63.9701 35.0592 64.2258 34.8398 64.1804 34.4662C64.1301 34.0464 63.8282 33.8295 63.4967 33.6786C63.1198 33.5079 62.6917 33.4155 62.2934 33.3503C60.5631 33.0683 58.7536 32.1594 58.6571 30.1083C58.5787 28.519 59.547 27.3446 60.9012 26.8118C61.0208 26.7639 61.1437 26.7227 61.269 26.6864ZM18.3866 49.1813C12.7091 49.1813 8.07812 44.5512 8.07812 38.8736C8.07812 33.1961 12.7091 28.5652 18.3866 28.5652C24.0641 28.5652 28.695 33.1961 28.695 38.8736C28.695 44.5512 24.0641 49.1813 18.3866 49.1813ZM18.3866 46.7639C22.7321 46.7639 26.2769 43.2192 26.2769 38.8736C26.2769 34.5272 22.7321 30.9833 18.3866 30.9833C14.041 30.9833 10.4963 34.5272 10.4963 38.8736C10.4963 43.2192 14.041 46.7639 18.3866 46.7639ZM17.1775 33.3693V33.1169C17.1775 32.4497 17.7194 31.9079 18.3866 31.9079C19.0538 31.9079 19.5957 32.4497 19.5957 33.1169V33.3569C20.6794 33.6596 21.66 34.3986 22.182 35.6431C22.4402 36.2584 22.1507 36.9677 21.5346 37.2258C20.9194 37.4839 20.2109 37.1936 19.9519 36.5784C19.5495 35.6184 18.4674 35.4411 17.6946 35.7446C17.2971 35.9013 16.9573 36.2064 16.9804 36.674V36.6765C16.9969 37.0221 17.2394 37.2052 17.5066 37.3363C17.8398 37.4988 18.2258 37.587 18.5903 37.6464L18.5919 37.6472C20.347 37.9359 22.2381 38.773 22.4897 40.8588C22.728 42.8274 21.246 44.0299 19.5957 44.4167V44.6328C19.5957 45.3 19.0538 45.8419 18.3866 45.8419C17.7194 45.8419 17.1775 45.3 17.1775 44.6328V44.3986C15.8126 44.0448 14.6637 43.093 14.2959 41.6151C14.1342 40.9677 14.5293 40.3112 15.1767 40.1495C15.8241 39.9887 16.4814 40.3837 16.6422 41.0312C16.8435 41.8402 17.6831 42.1553 18.4748 42.1355H18.4781C18.8476 42.1272 19.2509 42.0505 19.5907 41.8839C19.8785 41.7421 20.1342 41.5227 20.0888 41.1491V41.1483C20.0385 40.7285 19.7367 40.5124 19.4051 40.3615C19.0282 40.1907 18.5994 40.0984 18.201 40.0332C16.4715 39.7512 14.662 38.8423 14.5655 36.7912C14.4872 35.2019 15.4554 34.0274 16.8097 33.4947C16.9293 33.4468 17.0521 33.4056 17.1775 33.3693ZM39.2237 3.68271C39.2237 3.01549 39.7647 2.47363 40.4328 2.47363C41.1 2.47363 41.6418 3.01549 41.6418 3.68271V6.38703C41.6418 7.05425 41.1 7.59611 40.4328 7.59611C39.7647 7.59611 39.2237 7.05425 39.2237 6.38703V3.68271ZM31.7952 6.32106C31.4612 5.74291 31.66 5.00312 32.2381 4.6691C32.8154 4.3359 33.5552 4.53384 33.8893 5.11198L35.2418 7.45425C35.575 8.03157 35.3771 8.77219 34.7989 9.10539C34.2208 9.43941 33.481 9.24064 33.147 8.6625L31.7952 6.32106ZM26.681 12.3194C26.1037 11.9862 25.9049 11.2464 26.239 10.6683C26.5721 10.0901 27.3128 9.89219 27.8901 10.2254L30.2324 11.578C30.8105 11.9112 31.0084 12.6518 30.6752 13.2291C30.3412 13.8072 29.6014 14.0052 29.0233 13.672L26.681 12.3194ZM46.9754 5.11198C47.3095 4.53384 48.0493 4.3359 48.6274 4.6691C49.2047 5.00312 49.4035 5.74291 49.0695 6.32106L47.7177 8.6625C47.3837 9.24064 46.6439 9.43941 46.0658 9.10539C45.4876 8.77219 45.2897 8.03157 45.6237 7.45425L46.9754 5.11198ZM52.9746 10.2254C53.5528 9.89219 54.2926 10.0901 54.6258 10.6683C54.9598 11.2464 54.761 11.9862 54.1837 12.3194L51.8414 13.672C51.2633 14.0052 50.5235 13.8072 50.1895 13.2291C49.8563 12.6518 50.0542 11.9112 50.6324 11.578L52.9746 10.2254Z" fill="white"/>
</svg>
