<svg width="80" height="80" viewBox="0 0 80 80" fill="none" xmlns="http://www.w3.org/2000/svg">
<path d="M71.8899 32.3142C76.2425 29.9373 79.2022 25.3174 79.2022 20.0186C79.2022 12.299 72.9218 6.01855 65.2022 6.01855C57.4827 6.01855 51.2022 12.299 51.2022 20.0186C51.2022 21.4015 51.4112 22.7352 51.7865 23.9979C48.8021 23.9623 46.57 23.4967 46.4046 21.9072C46.0788 18.7826 43.9171 16.792 40.4733 16.4459C39.3796 16.335 38.2729 16.5549 37.2729 17.0803L31.419 20.1514C30.9245 20.4107 30.3682 20.549 29.8171 20.5334C27.6096 20.4951 22.9311 20.3967 19.8753 20.3311C17.6366 20.2889 15.5741 21.5584 14.5682 23.5779L11.953 28.8287C11.635 29.4678 11.1436 29.985 10.5327 30.3244C9.0616 31.142 8.24636 33.126 7.59089 34.7205C7.3491 35.3092 7.01824 36.115 6.89949 36.2596C6.728 36.3826 6.13347 36.4596 5.69949 36.5158C4.31902 36.6939 1.74988 37.026 1.4823 40.1342C1.42136 40.8447 1.31667 41.6338 1.20652 42.4697C0.795581 45.5736 0.371362 48.783 1.70105 50.6471C2.79246 52.176 6.90417 58.1439 8.62175 60.6393C9.05535 61.2697 9.60027 61.8018 10.2405 62.2213C10.9737 62.7025 12.2276 63.1041 13.6792 63.5689C15.2401 64.0689 18.8944 65.24 19.0694 66.1713C19.4944 68.4385 22.9163 70.5205 25.712 71.8682C26.8667 72.4252 30.2843 73.9814 32.3663 73.9814C32.7885 73.9814 33.1565 73.9174 33.4389 73.7674C37.8616 71.4268 41.0514 71.9236 44.1358 72.4025C45.3639 72.5939 46.528 72.7658 47.7139 72.7643C47.8694 72.7697 48.3483 72.7799 48.9952 72.8025C55.2218 73.0143 56.1522 72.9064 56.6835 72.6229C57.153 72.3729 57.846 72.1158 58.6483 71.8182C61.8491 70.6322 66.685 68.8393 69.6288 63.2736C72.8475 57.1869 72.3944 54.4049 71.9569 51.7143C71.7678 50.5541 71.5897 49.4588 71.6858 48.0361C71.7905 46.5033 72.5655 45.2463 73.3858 43.9166C74.946 41.3861 76.7147 38.5178 73.0577 34.142C72.5281 33.5085 72.162 32.9015 71.8899 32.3142ZM65.2022 8.41855C71.5983 8.41855 76.8022 13.6225 76.8022 20.0186C76.8022 26.4146 71.5983 31.6186 65.2022 31.6186C58.8061 31.6186 53.6022 26.4146 53.6022 20.0186C53.6022 13.6225 58.8061 8.41855 65.2022 8.41855ZM45.5593 24.9755C47.1227 26.1484 49.722 26.4346 52.7532 26.3936C54.181 29.17 56.5066 31.4034 59.3475 32.7186V37.192H45.5593V24.9755ZM44.3593 39.592H59.3475V50.7814H40.8491V35.208H43.1593V38.392C43.1593 39.0549 43.6968 39.592 44.3593 39.592ZM19.7921 22.7299C19.8026 22.7301 19.8132 22.7301 19.8237 22.7303C22.8827 22.7959 27.5659 22.8943 29.7749 22.9334C30.7257 22.9428 31.6846 22.7229 32.5343 22.2764L38.3878 19.2053C38.9706 18.8998 39.6085 18.7697 40.2335 18.8342C41.5534 18.9668 42.5228 19.3998 43.1593 20.1073V32.808H19.7921V22.7299ZM35.8854 53.1814V61.3783H27.9624V53.1814H35.8854ZM9.81082 35.6326C10.2694 34.5174 10.962 32.8314 11.6983 32.4221C12.735 31.8463 13.5659 30.9736 14.1014 29.899L16.7167 24.6482C16.8935 24.293 17.1258 23.9848 17.3921 23.7187V34.008C17.3921 34.6709 17.9292 35.208 18.5921 35.208H20.8108V36.308H9.52781C9.61965 36.0929 9.7113 35.8749 9.81082 35.6326ZM3.58542 42.7846C3.69988 41.9205 3.80769 41.1057 3.87371 40.3396C3.96511 39.2744 4.3866 39.1053 6.00691 38.8959C6.38088 38.8476 6.75984 38.7952 7.1262 38.708H20.8108V45.2893H3.29192C3.36833 44.4498 3.47961 43.5854 3.58542 42.7846ZM20.4003 64.0205C19.0459 62.7728 16.6257 61.9929 14.4116 61.2838C13.2343 60.9064 12.0171 60.5166 11.5565 60.2143C11.1772 59.9658 10.855 59.651 10.5987 59.2783C8.878 56.7783 4.75652 50.7971 3.65496 49.2533C3.40486 48.9028 3.2844 48.3459 3.2344 47.6893H20.8108V51.9814C20.8108 52.6439 21.3479 53.1814 22.0108 53.1814H25.5624V64.0205H20.4003ZM44.7819 70.0729C44.689 70.0588 44.5985 70.046 44.5046 70.0314C41.3772 69.5447 37.4878 68.9385 32.4038 71.6002C30.7196 71.8035 23.5384 68.5714 21.7991 66.4205H26.7624C27.4253 66.4205 27.9624 65.883 27.9624 65.2205V63.7783H44.7819V70.0729ZM67.5069 62.1518C64.9921 66.9072 60.8436 68.4447 57.8139 69.5682C56.9803 69.8768 56.2538 70.1463 55.6593 70.4502C54.785 70.5994 50.5061 70.4533 49.078 70.4033C48.378 70.3799 47.8608 70.3689 47.6913 70.3643C47.524 70.3628 47.3526 70.3523 47.1819 70.3435V63.7783H55.2764C55.9389 63.7783 56.4764 63.2408 56.4764 62.5783V60.1096H68.5025C68.2241 60.7374 67.8983 61.4116 67.5069 62.1518ZM69.3979 57.7096H56.4764V53.1814H60.5475C61.21 53.1814 61.7475 52.6439 61.7475 51.9814V48.1549H69.2852C69.2117 49.7163 69.4064 50.9831 69.5882 52.0994C69.8601 53.7704 70.1016 55.2951 69.3979 57.7096ZM61.7475 39.1627V33.5695C62.8549 33.8521 64.0081 34.0186 65.2022 34.0186C66.7684 34.0186 68.27 33.7486 69.6774 33.272C70.031 34.0445 70.5219 34.8505 71.2163 35.6811C72.3871 37.0818 72.8111 38.1676 72.7919 39.1627H61.7475Z" fill="white"/>
<path d="M67.6796 17.7596C67.2796 19.6796 65.9996 20.4796 64.2396 20.7196C64.4796 20.9596 64.6396 21.1196 64.7996 21.3596C65.9196 22.6396 66.9596 23.9196 68.0796 25.1996C68.1596 25.2796 68.2396 25.5196 68.2396 25.5996C68.1596 25.6796 67.9996 25.7596 67.8396 25.7596C67.3596 25.7596 66.8796 25.7596 66.4796 25.7596C66.3196 25.7596 66.1596 25.6796 65.9996 25.5196C64.6396 23.9196 63.1996 22.3996 61.8396 20.7996C61.6796 20.6396 61.6796 20.3996 61.6796 20.1596C61.6796 19.1196 61.5196 19.1996 62.6396 19.1196C63.1996 19.1196 63.8396 19.0396 64.3996 18.8796C64.9596 18.7196 65.3596 18.3196 65.5996 17.6796C65.4396 17.6796 65.3596 17.6796 65.1996 17.6796C64.1596 17.6796 63.1196 17.6796 62.0796 17.6796C61.7596 17.6796 61.6796 17.5996 61.6796 17.2796C61.6796 16.1596 61.5196 16.2396 62.7196 16.2396C63.5996 16.2396 64.5596 16.2396 65.5196 16.2396C65.1196 15.5996 64.6396 15.4396 63.9996 15.3596C63.3596 15.2796 62.7196 15.2796 62.0796 15.2796C61.7596 15.2796 61.5996 15.1196 61.5996 14.7996C61.5996 14.5596 61.5996 14.3196 61.5996 14.0796C61.5996 13.5996 61.5996 13.5996 62.0796 13.5996C63.7596 13.5996 65.5196 13.5996 67.1996 13.5996C67.7596 13.5996 68.3196 13.5996 68.8796 13.5996C69.1996 13.5996 69.2796 13.7596 69.2796 13.9996C69.2796 15.1196 69.3596 15.0396 68.3196 15.0396C67.9196 15.0396 67.5196 15.0396 67.1196 15.0396C67.2796 15.4396 67.4396 15.7596 67.5996 16.1596C67.5996 16.2396 67.7596 16.2396 67.8396 16.2396C68.2396 16.2396 68.5596 16.2396 68.9596 16.2396C69.1996 16.2396 69.3596 16.3196 69.3596 16.6396C69.3596 17.8396 69.5196 17.6796 68.3196 17.6796C68.1596 17.7596 67.9196 17.7596 67.6796 17.7596Z" fill="white"/>
</svg>
