<svg width="80" height="80" viewBox="0 0 80 80" fill="none" xmlns="http://www.w3.org/2000/svg">
<path fill-rule="evenodd" clip-rule="evenodd" d="M57.0515 72.0761C61.2958 72.0761 65.1395 70.3545 67.9206 67.5733C70.7018 64.7921 72.4234 60.9511 72.4234 56.7042C72.4234 52.4599 70.7018 48.6162 67.9206 45.8351C65.1393 43.0539 61.2984 41.3323 57.0515 41.3323C52.8072 41.3323 48.9635 43.0539 46.1824 45.8351C43.4012 48.6164 41.6796 52.4601 41.6796 56.7042C41.6796 60.9483 43.4012 64.7922 46.1824 67.5733C48.9636 70.3574 52.8074 72.0761 57.0515 72.0761ZM57.7504 62.1103L57.8611 62.8291C57.9208 63.2069 57.6594 63.562 57.2816 63.6188C56.9038 63.6785 56.5487 63.4171 56.4919 63.0393L56.2759 61.6558C54.6538 62.2041 53.1538 62.491 51.7788 62.474C50.1197 62.4541 48.6566 61.9995 47.4066 61.0364C45.1282 59.2807 44.9151 57.6501 44.6311 55.474C44.5231 54.6501 44.4038 53.741 44.1396 52.7183C44.1254 52.6728 44.114 52.6273 44.1083 52.5791C44.0657 52.1984 44.3385 51.8546 44.7191 51.8092C45.7902 51.6842 46.6935 51.4626 47.5089 51.2609C49.6396 50.7353 51.239 50.3404 53.702 51.8234C55.0543 52.6387 56.0089 53.8347 56.631 55.3717C56.7247 55.6046 56.81 55.8461 56.8895 56.0932C56.9378 55.9597 56.9861 55.829 57.0401 55.6984C57.6622 54.1642 58.6196 52.9682 59.9748 52.1557C62.4407 50.6756 64.0372 51.0705 66.1651 51.5989C66.9804 51.8006 67.8839 52.0251 68.9548 52.1529C69.3355 52.1955 69.6111 52.5421 69.5656 52.9228C69.56 52.9654 69.5514 53.008 69.5401 53.0506C69.2702 54.0819 69.1509 54.9938 69.0401 55.8177C68.7531 57.9938 68.5372 59.6274 66.2532 61.3802C65.0031 62.3404 63.5401 62.7949 61.881 62.8091C60.6111 62.8262 59.2305 62.5819 57.7504 62.1103ZM55.6083 60.4172C54.2162 60.8689 52.9407 61.1047 51.7901 61.0905C50.4378 61.0734 49.2532 60.7098 48.256 59.9399C46.4322 58.5336 46.2504 57.1473 46.0089 55.295C45.9208 54.6217 45.8242 53.8916 45.6538 53.0819C46.4691 52.9484 47.1851 52.7723 47.8441 52.6104C49.6566 52.1643 51.0146 51.8291 52.9862 53.0166C54.0686 53.6672 54.8384 54.6388 55.3441 55.8916C55.6907 56.7524 55.918 57.7467 56.0373 58.8631C55.1026 57.9086 54.1424 57.0251 53.1509 56.2524C51.6622 55.0933 50.0969 54.1757 48.4151 53.6274C48.0515 53.508 47.6594 53.7097 47.5401 54.0734C47.4208 54.437 47.6225 54.8291 47.9862 54.9484C49.506 55.4455 50.9322 56.2836 52.2958 57.3461C53.4379 58.2325 54.5344 59.2779 55.6083 60.4172ZM57.6253 59.2353C57.7447 58.1046 57.9748 57.099 58.327 56.2268C58.8356 54.9711 59.6054 54.0024 60.6878 53.3518C62.6622 52.1672 64.023 52.5052 65.8355 52.9541C66.4946 53.1189 67.2077 53.295 68.0259 53.4285C67.8526 54.2382 67.756 54.9683 67.6679 55.6416C67.4236 57.4911 67.2389 58.8774 65.415 60.2808C64.4122 61.0507 63.2276 61.4144 61.8753 61.4285C60.7304 61.4399 59.4605 61.2041 58.0741 60.7524C59.0656 59.7354 60.0826 58.7979 61.1281 57.9768C62.415 56.9683 63.7417 56.1388 65.1025 55.5677C65.4547 55.42 65.6195 55.0138 65.4718 54.6615C65.3241 54.3092 64.9178 54.1445 64.5655 54.2922C63.0854 54.9143 61.6564 55.8064 60.2758 56.8859C59.3695 57.5933 58.4861 58.383 57.6253 59.2353ZM40.3752 58.4143H6.88352C6.5 58.4143 6.1875 58.1018 6.1875 57.7183V36.8092C6.1875 36.4257 6.5 36.1132 6.88352 36.1132H9.03123L10.0625 22.0135C10.071 21.6357 10.3778 21.3317 10.7585 21.3317H18.8778C19.2386 21.3317 19.5454 21.6101 19.571 21.9766L20.1278 29.5904H25.0682L25.6221 22.0137C25.6307 21.6359 25.9375 21.3319 26.3182 21.3319H34.4403C34.8011 21.3319 35.108 21.6103 35.1335 21.9768L36.1676 36.1106H40.1222L41.1534 22.011C41.1534 21.9854 41.1563 21.9598 41.1591 21.9343L41.7273 14.159C41.7273 14.1334 41.7301 14.1078 41.733 14.0851L42.2358 7.21014C42.2444 6.8323 42.5512 6.52832 42.9319 6.52832L53.1049 6.53116C53.4657 6.53116 53.7726 6.80957 53.7981 7.17605L54.3038 14.0851C54.3066 14.1107 54.3095 14.1363 54.3095 14.159L54.8777 21.9343C54.8805 21.9598 54.8833 21.9826 54.8833 22.0081L55.9146 36.1078H57.2215C57.605 36.1078 57.9175 36.4203 57.9175 36.8038V39.9629C62.2015 40.1817 66.0622 42.0084 68.9029 44.8493C71.937 47.8834 73.812 52.0738 73.812 56.7017C73.812 61.3295 71.937 65.5199 68.9029 68.5541C65.8688 71.5882 61.6785 73.4631 57.0506 73.4631C52.4227 73.4631 48.2324 71.5853 45.1982 68.5541C42.542 65.9035 40.7749 62.3609 40.3743 58.4151L40.3752 58.4143ZM56.5257 39.954C52.1053 40.0903 48.117 41.9369 45.1992 44.8545C42.165 47.8886 40.2901 52.079 40.2901 56.7069C40.2901 56.812 40.2929 56.9171 40.2929 57.0222L7.58018 57.0251V37.5051H56.5293L56.5257 39.954ZM20.2304 30.9823L20.6054 36.113H24.5912L24.9662 30.9823H20.2304ZM18.7929 30.3744C18.7901 30.3516 18.7872 30.3261 18.7872 30.3005L18.2332 22.7238H11.4037L10.4236 36.1129H19.2105L18.7929 30.3744ZM26.4096 30.3005C26.4096 30.3261 26.4068 30.3516 26.4039 30.3744L25.9863 36.113H34.7732L33.7931 22.7239H26.9636L26.4096 30.3005ZM42.5944 21.3318H53.4409L52.9693 14.8716H43.066L42.5944 21.3318ZM53.5434 22.7238H42.4925L41.5152 36.1129H54.524L53.5434 22.7238ZM43.1682 13.4795H52.8671L52.4608 7.91985H43.5743L43.1682 13.4795Z" fill="white"/>
</svg>
