<svg width="80" height="80" viewBox="0 0 80 80" fill="none" xmlns="http://www.w3.org/2000/svg">
<path fill-rule="evenodd" clip-rule="evenodd" d="M60.6463 57.2212C60.6435 57.2951 60.652 57.3689 60.6662 57.4428C60.6804 57.5366 60.7088 57.6218 60.7457 57.7042L63.9134 65.2154C64.0895 65.6359 64.5014 65.9086 64.9588 65.9086C65.4162 65.9086 65.8281 65.6359 66.0071 65.2154L69.1747 57.7042C69.2117 57.6218 69.2372 57.5366 69.2543 57.4428C69.2685 57.3689 69.2742 57.2951 69.2713 57.2212V29.491H70.027C70.3907 29.4939 70.6833 29.7865 70.6833 30.1501V41.9967C70.6833 42.6245 71.1918 43.133 71.8197 43.133C72.4475 43.133 72.956 42.6245 72.956 41.9967V30.1501C72.956 28.5308 71.6435 27.2212 70.0271 27.2183H69.2714V24.7951C69.2714 23.886 68.9106 23.011 68.2685 22.3661C67.6236 21.7241 66.7515 21.3633 65.8396 21.3633H64.0754C63.1663 21.3633 62.2941 21.7241 61.6521 22.3661C61.0072 23.011 60.6464 23.886 60.6464 24.7951L60.6463 57.2212ZM56.6207 22.4998C56.6207 21.8719 56.1093 21.3634 55.4843 21.3634H8.18324C7.5554 21.3634 7.04688 21.8719 7.04688 22.4998V64.7725C7.04688 65.4003 7.5554 65.9088 8.18324 65.9088H55.4843C56.1093 65.9088 56.6207 65.4003 56.6207 64.7725V22.4998ZM54.348 23.6361V63.6361H9.3196V23.6361H54.348ZM66.4243 58.3779H63.4954L64.9584 61.8495L66.4243 58.3779ZM49.8701 27.0427H13.796C13.1681 27.0427 12.6596 27.5483 12.6596 28.179V54.7841C12.6596 55.412 13.1681 55.9205 13.796 55.9205H19.6596C20.2874 55.9205 20.796 55.412 20.796 54.7841C20.796 54.1591 20.2874 53.6478 19.6596 53.6478H14.9323V44.9459H26.4211C27.0461 44.9459 27.5574 44.4346 27.5574 43.8096C27.5574 43.1817 27.0461 42.6732 26.4211 42.6732H14.9323V29.3154H30.6967V59.0936C30.6967 59.7214 31.2052 60.2299 31.8331 60.2299H37.6967C38.3245 60.2299 38.8331 59.7214 38.8331 59.0936C38.8331 58.4686 38.3245 57.9572 37.6967 57.9572H32.9694V29.315H48.7338V42.4998H37.2451C36.6172 42.4998 36.1087 43.0083 36.1087 43.6361C36.1087 44.264 36.6172 44.7725 37.2451 44.7725H48.7338V57.9572H44.2934C43.6656 57.9572 43.1571 58.4686 43.1571 59.0936C43.1571 59.7214 43.6656 60.2299 44.2934 60.2299H49.8701C50.4951 60.2299 51.0065 59.7214 51.0065 59.0936V28.1787C51.0065 27.548 50.4951 27.0427 49.8701 27.0427ZM66.9981 29.4915V56.1054H62.9186V29.4915H66.9981ZM66.9981 27.2188H62.9186V24.7955C62.9186 24.4887 63.0407 24.1933 63.2566 23.9745C63.4754 23.7586 63.768 23.6365 64.0748 23.6365H65.839C66.1459 23.6365 66.4413 23.7586 66.6601 23.9745C66.876 24.1933 66.9981 24.4887 66.9981 24.7955L66.9981 27.2188Z" fill="white"/>
</svg>
