<?xml version="1.0" encoding="UTF-8"?>
<svg id="Layer_2" data-name="Layer 2" xmlns="http://www.w3.org/2000/svg" viewBox="0 0 300.28 165.4">
  <defs>
    <style>
      .cls-1 {
        fill: #004a18;
      }

      .cls-2 {
        fill: #ba501b;
      }

      .cls-3 {
        fill: #231f20;
      }

      .cls-4 {
        fill: none;
        stroke: #231f20;
        stroke-linecap: round;
        stroke-linejoin: round;
        stroke-width: .24px;
      }

      .cls-5 {
        fill: #1a4c1f;
      }

      .cls-5, .cls-6, .cls-7, .cls-8, .cls-9 {
        fill-rule: evenodd;
      }

      .cls-6 {
        fill: #dd610d;
      }

      .cls-7 {
        fill: #aa773e;
      }

      .cls-8 {
        fill: #b94c19;
      }

      .cls-9 {
        fill: #fff;
      }
    </style>
  </defs>
  <g id="Layer_1-2" data-name="Layer 1">
    <g>
      <path class="cls-2" d="M136.98,77.76v4.61h-7.59v23.86h-5.71v-23.86h-7.59v-4.61h20.89Zm-39.81,13.09h4.77c1.55,0,2.71-.37,3.47-1.12,.76-.75,1.14-1.79,1.14-3.12s-.38-2.32-1.14-3.04c-.76-.72-1.92-1.08-3.47-1.08h-4.77v8.36Zm8.97,15.38l-6.28-11.1h-2.69v11.1h-5.71v-28.47h10.69c2.2,0,4.08,.39,5.63,1.16,1.55,.78,2.71,1.82,3.49,3.14,.77,1.32,1.16,2.79,1.16,4.43,0,1.88-.54,3.57-1.63,5.08-1.09,1.51-2.71,2.55-4.85,3.12l6.81,11.54h-6.61Zm-27.98-9.99l-4.12-11.91-4.12,11.91h8.24Zm1.55,4.57h-11.34l-1.88,5.43h-6l10.24-28.51h6.65l10.24,28.51h-6.04l-1.88-5.43Zm-23.09-23.05v28.47h-5.71v-18.52l-7.63,18.52h-4.32l-7.67-18.52v18.52h-5.71v-28.47h6.49l9.06,21.17,9.06-21.17h6.45ZM10.57,106.52c-1.99,0-3.77-.34-5.36-1.02-1.59-.68-2.85-1.66-3.77-2.94-.92-1.28-1.4-2.79-1.43-4.53H6.12c.08,1.17,.5,2.09,1.24,2.77,.75,.68,1.77,1.02,3.08,1.02s2.38-.32,3.14-.96c.76-.64,1.14-1.48,1.14-2.51,0-.84-.26-1.54-.77-2.08-.52-.54-1.16-.97-1.94-1.28-.77-.31-1.84-.66-3.2-1.04-1.85-.54-3.35-1.08-4.51-1.61-1.16-.53-2.15-1.33-2.98-2.41-.83-1.07-1.24-2.51-1.24-4.3,0-1.69,.42-3.15,1.26-4.41,.84-1.25,2.03-2.21,3.55-2.88,1.52-.67,3.26-1,5.22-1,2.94,0,5.32,.71,7.16,2.14,1.84,1.43,2.85,3.42,3.04,5.98h-6.28c-.05-.98-.47-1.79-1.24-2.43-.77-.64-1.8-.96-3.08-.96-1.12,0-2.01,.29-2.67,.86-.67,.57-1,1.4-1,2.49,0,.76,.25,1.39,.75,1.9,.5,.5,1.13,.91,1.88,1.22,.75,.31,1.8,.67,3.16,1.08,1.85,.54,3.36,1.09,4.53,1.63,1.17,.54,2.18,1.36,3.02,2.45,.84,1.09,1.26,2.52,1.26,4.28,0,1.52-.39,2.94-1.18,4.24-.79,1.31-1.94,2.35-3.47,3.12-1.52,.77-3.33,1.16-5.43,1.16Z"/>
      <path class="cls-1" d="M280.33,106.52c-1.99,0-3.77-.34-5.36-1.02-1.59-.68-2.85-1.66-3.77-2.94-.92-1.28-1.4-2.79-1.43-4.53h6.12c.08,1.17,.5,2.09,1.24,2.77,.75,.68,1.77,1.02,3.08,1.02s2.38-.32,3.14-.96c.76-.64,1.14-1.48,1.14-2.51,0-.84-.26-1.54-.77-2.08-.52-.54-1.16-.97-1.94-1.28-.77-.31-1.84-.66-3.2-1.04-1.85-.54-3.35-1.08-4.51-1.61-1.16-.53-2.15-1.33-2.98-2.41-.83-1.07-1.24-2.51-1.24-4.3,0-1.69,.42-3.15,1.26-4.41,.84-1.25,2.03-2.21,3.55-2.88,1.52-.67,3.26-1,5.22-1,2.94,0,5.32,.71,7.16,2.14,1.84,1.43,2.85,3.42,3.04,5.98h-6.28c-.05-.98-.47-1.79-1.24-2.43-.78-.64-1.8-.96-3.08-.96-1.12,0-2.01,.29-2.67,.86-.67,.57-1,1.4-1,2.49,0,.76,.25,1.39,.75,1.9,.5,.5,1.13,.91,1.88,1.22,.75,.31,1.8,.67,3.16,1.08,1.85,.54,3.36,1.09,4.53,1.63,1.17,.54,2.18,1.36,3.02,2.45,.84,1.09,1.26,2.52,1.26,4.28,0,1.52-.39,2.94-1.18,4.24-.79,1.31-1.94,2.35-3.47,3.12-1.52,.77-3.33,1.16-5.43,1.16m-25.82-24.15v7.14h9.59v4.53h-9.59v7.55h10.81v4.65h-16.52v-28.51h16.52v4.65h-10.81Zm-11.34-4.61v28.47h-5.71v-18.52l-7.63,18.52h-4.32l-7.67-18.52v18.52h-5.71v-28.47h6.49l9.06,21.17,9.06-21.17h6.45Zm-49.85,23.66c1.71,0,3.22-.39,4.53-1.16,1.31-.77,2.33-1.88,3.06-3.32,.73-1.44,1.1-3.11,1.1-5.02s-.37-3.57-1.1-5c-.73-1.43-1.75-2.52-3.06-3.28-1.31-.76-2.81-1.14-4.53-1.14s-3.23,.38-4.55,1.14c-1.32,.76-2.35,1.86-3.08,3.28-.73,1.43-1.1,3.09-1.1,5s.37,3.58,1.1,5.02c.73,1.44,1.76,2.55,3.08,3.32,1.32,.78,2.83,1.16,4.55,1.16Zm0,5.1c-2.67,0-5.11-.63-7.34-1.88-2.23-1.25-4-2.98-5.3-5.2-1.31-2.22-1.96-4.73-1.96-7.53s.65-5.27,1.96-7.49c1.31-2.22,3.07-3.95,5.3-5.2,2.23-1.25,4.68-1.88,7.34-1.88s5.15,.63,7.36,1.88c2.22,1.25,3.97,2.98,5.26,5.2,1.29,2.22,1.94,4.71,1.94,7.49s-.65,5.31-1.94,7.53c-1.29,2.22-3.05,3.95-5.28,5.2-2.23,1.25-4.68,1.88-7.34,1.88Zm-18.85-28.76v28.47h-5.71v-12.12h-12.2v12.12h-5.71v-28.47h5.71v11.71h12.2v-11.71h5.71Z"/>
      <path class="cls-3" d="M254.11,123.74c0-.92-.25-1.64-.76-2.17-.51-.53-1.13-.8-1.86-.8s-1.35,.26-1.86,.78c-.51,.52-.76,1.24-.76,2.16s.25,1.64,.76,2.18c.51,.54,1.13,.81,1.86,.81s1.35-.27,1.86-.8c.51-.53,.76-1.25,.76-2.17m-8.99-.02c0-1.23,.23-2.31,.7-3.25,.47-.93,1.1-1.65,1.9-2.15,.8-.5,1.7-.75,2.69-.75,.85,0,1.59,.17,2.22,.52,.64,.34,1.13,.8,1.47,1.35v-1.7h3.68v11.99h-3.68v-1.7c-.36,.56-.86,1.01-1.49,1.35-.64,.34-1.38,.52-2.22,.52-.97,0-1.86-.25-2.67-.76-.8-.51-1.44-1.23-1.9-2.17-.47-.94-.7-2.02-.7-3.26Zm-1.93-5.98v11.99h-3.68v-11.99h3.68Zm-1.83-1.25c-.64,0-1.17-.19-1.58-.57-.41-.38-.61-.85-.61-1.41s.2-1.05,.61-1.43c.41-.38,.93-.57,1.58-.57s1.15,.19,1.56,.57c.41,.38,.61,.86,.61,1.43s-.2,1.03-.61,1.41c-.41,.38-.93,.57-1.56,.57Zm-8.19,7.24c0-.92-.25-1.64-.76-2.17-.51-.53-1.13-.8-1.86-.8s-1.35,.26-1.86,.78c-.51,.52-.76,1.24-.76,2.16s.25,1.64,.76,2.18c.51,.54,1.13,.81,1.86,.81s1.35-.27,1.86-.8c.51-.53,.76-1.25,.76-2.17Zm-8.99-.02c0-1.23,.23-2.31,.7-3.25,.47-.93,1.1-1.65,1.9-2.15,.8-.5,1.7-.75,2.69-.75,.79,0,1.51,.16,2.16,.49,.65,.33,1.16,.77,1.54,1.33v-5.57h3.68v15.91h-3.68v-1.72c-.34,.57-.83,1.03-1.47,1.38-.64,.34-1.38,.52-2.22,.52-.99,0-1.88-.25-2.69-.76-.8-.51-1.44-1.23-1.9-2.17-.47-.94-.7-2.02-.7-3.26Zm-6.45-6.11c1.4,0,2.53,.45,3.36,1.37,.84,.91,1.26,2.16,1.26,3.75v7.01h-3.65v-6.51c0-.8-.21-1.43-.62-1.87-.42-.44-.97-.67-1.68-.67s-1.26,.22-1.68,.67c-.42,.44-.62,1.07-.62,1.87v6.51h-3.68v-11.99h3.68v1.59c.37-.53,.87-.95,1.5-1.26,.63-.31,1.34-.46,2.13-.46Zm-9.97-2.97v15.09h-3.68v-15.09h3.68Zm-10.28,11.97v3.12h-1.87c-1.33,0-2.37-.33-3.12-.98-.74-.65-1.12-1.72-1.12-3.19v-4.77h-1.46v-3.05h1.46v-2.92h3.68v2.92h2.41v3.05h-2.41v4.82c0,.36,.09,.62,.26,.77,.17,.16,.46,.24,.86,.24h1.31Zm-12.21-6.88c.43-.66,.97-1.18,1.61-1.56,.64-.38,1.36-.57,2.15-.57v3.89h-1.01c-.92,0-1.61,.2-2.06,.59-.46,.39-.69,1.09-.69,2.07v5.57h-3.68v-11.99h3.68v2Zm-10.02,4c0-.92-.25-1.64-.76-2.17-.51-.53-1.13-.8-1.86-.8s-1.35,.26-1.86,.78c-.51,.52-.76,1.24-.76,2.16s.25,1.64,.76,2.18c.51,.54,1.13,.81,1.86,.81s1.35-.27,1.86-.8c.51-.53,.76-1.25,.76-2.17Zm-8.99-.02c0-1.23,.23-2.31,.7-3.25,.47-.93,1.1-1.65,1.9-2.15,.8-.5,1.7-.75,2.69-.75,.85,0,1.59,.17,2.22,.52,.64,.34,1.13,.8,1.47,1.35v-1.7h3.68v11.99h-3.68v-1.7c-.36,.56-.86,1.01-1.49,1.35-.64,.34-1.38,.52-2.22,.52-.97,0-1.86-.25-2.67-.76-.8-.51-1.44-1.23-1.9-2.17-.47-.94-.7-2.02-.7-3.26Zm-6.73-6.11c1.49,0,2.68,.45,3.56,1.35,.88,.9,1.32,2.16,1.32,3.76v7.01h-3.65v-6.51c0-.77-.2-1.37-.61-1.79-.41-.42-.97-.63-1.69-.63s-1.28,.21-1.69,.63c-.41,.42-.61,1.02-.61,1.79v6.51h-3.65v-6.51c0-.77-.2-1.37-.61-1.79-.41-.42-.97-.63-1.69-.63s-1.28,.21-1.69,.63c-.41,.42-.61,1.02-.61,1.79v6.51h-3.68v-11.99h3.68v1.5c.37-.5,.86-.9,1.46-1.19,.6-.29,1.28-.44,2.04-.44,.9,0,1.71,.19,2.42,.58,.71,.39,1.26,.94,1.67,1.66,.42-.66,.98-1.2,1.7-1.61,.72-.42,1.5-.62,2.34-.62Zm-23.07,12.27c-1.1,0-2.09-.18-2.97-.54-.87-.36-1.57-.89-2.1-1.59-.52-.7-.8-1.55-.83-2.54h3.91c.06,.56,.25,.99,.58,1.28,.33,.29,.76,.44,1.29,.44s.97-.13,1.29-.38c.32-.25,.47-.6,.47-1.04,0-.37-.13-.68-.38-.92-.25-.24-.56-.44-.92-.6-.37-.16-.88-.34-1.56-.54-.97-.3-1.77-.6-2.39-.9-.62-.3-1.15-.75-1.59-1.33-.44-.59-.67-1.35-.67-2.3,0-1.4,.51-2.5,1.53-3.3,1.02-.8,2.34-1.19,3.98-1.19s3,.4,4.02,1.19c1.02,.8,1.56,1.9,1.63,3.32h-3.98c-.03-.49-.21-.87-.54-1.15-.33-.28-.75-.42-1.27-.42-.44,0-.8,.12-1.07,.35-.27,.24-.41,.58-.41,1.02,0,.49,.23,.87,.69,1.14,.46,.27,1.18,.57,2.15,.88,.97,.33,1.77,.64,2.38,.95,.61,.3,1.14,.74,1.58,1.31,.44,.57,.67,1.31,.67,2.21s-.22,1.64-.66,2.34c-.44,.7-1.07,1.26-1.9,1.68-.83,.42-1.81,.62-2.94,.62Zm-16.36-6.15c0-.92-.25-1.64-.76-2.17-.51-.53-1.13-.8-1.86-.8s-1.35,.26-1.86,.78c-.51,.52-.76,1.24-.76,2.16s.25,1.64,.76,2.18c.51,.54,1.13,.81,1.86,.81s1.35-.27,1.86-.8c.51-.53,.76-1.25,.76-2.17Zm-3.7-6.17c.85,0,1.59,.17,2.23,.52,.64,.34,1.13,.8,1.47,1.35v-1.7h3.68v11.97c0,1.1-.22,2.1-.66,3-.44,.9-1.1,1.61-2,2.14-.9,.53-2.01,.8-3.34,.8-1.78,0-3.22-.42-4.32-1.26-1.1-.84-1.73-1.97-1.89-3.41h3.63c.11,.46,.39,.82,.82,1.09,.43,.27,.96,.4,1.59,.4,.76,0,1.36-.22,1.82-.66,.45-.44,.68-1.14,.68-2.1v-1.7c-.36,.56-.85,1.01-1.48,1.37-.63,.35-1.37,.53-2.21,.53-.99,0-1.88-.25-2.69-.76-.8-.51-1.44-1.23-1.9-2.17-.47-.94-.7-2.02-.7-3.26s.23-2.31,.7-3.25c.47-.93,1.1-1.65,1.9-2.15,.8-.5,1.7-.75,2.69-.75Zm-11.74,.04c1.4,0,2.53,.45,3.36,1.37,.84,.91,1.26,2.16,1.26,3.75v7.01h-3.65v-6.51c0-.8-.21-1.43-.62-1.87-.42-.44-.97-.67-1.68-.67s-1.26,.22-1.68,.67c-.42,.44-.62,1.07-.62,1.87v6.51h-3.68v-11.99h3.68v1.59c.37-.53,.87-.95,1.5-1.26,.63-.31,1.34-.46,2.13-.46Zm-9.97,.13v11.99h-3.68v-11.99h3.68Zm-1.83-1.25c-.64,0-1.17-.19-1.58-.57-.41-.38-.61-.85-.61-1.41s.2-1.05,.61-1.43c.41-.38,.93-.57,1.58-.57s1.15,.19,1.56,.57c.41,.38,.61,.86,.61,1.43s-.2,1.03-.61,1.41c-.41,.38-.93,.57-1.56,.57Zm-8.19,7.24c0-.92-.25-1.64-.76-2.17-.51-.53-1.13-.8-1.86-.8s-1.35,.26-1.86,.78c-.51,.52-.76,1.24-.76,2.16s.25,1.64,.76,2.18c.51,.54,1.13,.81,1.86,.81s1.35-.27,1.86-.8c.51-.53,.76-1.25,.76-2.17Zm-8.99-.02c0-1.23,.23-2.31,.7-3.25,.47-.93,1.1-1.65,1.9-2.15,.8-.5,1.7-.75,2.69-.75,.79,0,1.51,.16,2.16,.49,.65,.33,1.16,.77,1.54,1.33v-5.57h3.68v15.91h-3.68v-1.72c-.34,.57-.83,1.03-1.47,1.38-.64,.34-1.38,.52-2.22,.52-.99,0-1.88-.25-2.69-.76-.8-.51-1.44-1.23-1.9-2.17-.47-.94-.7-2.02-.7-3.26Zm-1.93-9.89v15.91h-3.68v-15.91h3.68Zm-6.34,3.91v11.99h-3.68v-11.99h3.68Zm-1.83-1.25c-.64,0-1.17-.19-1.58-.57-.41-.38-.61-.85-.61-1.41s.2-1.05,.61-1.43c.41-.38,.93-.57,1.58-.57s1.15,.19,1.56,.57c.41,.38,.61,.86,.61,1.43s-.2,1.03-.61,1.41c-.41,.38-.93,.57-1.56,.57Zm-4.49,1.25v11.99h-3.68v-1.63c-.37,.53-.88,.96-1.52,1.28-.64,.32-1.34,.48-2.12,.48-.92,0-1.73-.2-2.43-.61-.7-.41-1.25-1-1.63-1.77-.39-.77-.58-1.68-.58-2.73v-7.01h3.65v6.51c0,.8,.21,1.43,.62,1.87,.42,.44,.97,.67,1.68,.67s1.28-.22,1.7-.67c.42-.44,.62-1.07,.62-1.87v-6.51h3.68Zm-19.63,9.03c.62,0,1.09-.14,1.43-.42,.34-.28,.51-.68,.51-1.21s-.18-.95-.53-1.25c-.35-.3-.83-.45-1.45-.45h-2.67v3.33h2.71Zm-2.71-6.02h2.41c.6,0,1.06-.13,1.39-.4,.32-.27,.48-.66,.48-1.17s-.16-.91-.48-1.18c-.32-.27-.78-.41-1.39-.41h-2.41v3.16Zm5.46,1.25c.87,.19,1.58,.62,2.11,1.3,.53,.68,.8,1.46,.8,2.33,0,1.26-.44,2.26-1.32,3-.88,.74-2.11,1.11-3.69,1.11h-7.03v-15.09h6.79c1.53,0,2.73,.35,3.6,1.05,.87,.7,1.3,1.66,1.3,2.86,0,.89-.23,1.63-.7,2.21-.47,.59-1.09,1-1.86,1.23Z"/>
      <path class="cls-3" d="M288.99,151.39l-5.82,13.96h-2.03l1.93-4.62-3.74-9.34h2.19l2.67,7.24,2.77-7.24h2.03Zm-14.94-.15c.75,0,1.42,.15,2.01,.47,.59,.31,1.05,.77,1.39,1.38,.33,.61,.5,1.34,.5,2.21v5.6h-1.95v-5.31c0-.85-.21-1.5-.64-1.96-.42-.45-1-.68-1.74-.68s-1.32,.23-1.75,.68c-.43,.45-.65,1.11-.65,1.96v5.31h-1.96v-9.49h1.96v1.09c.32-.39,.73-.7,1.23-.91,.5-.22,1.03-.33,1.59-.33Zm-9.36,4.89c0-.65-.13-1.22-.4-1.71-.27-.48-.62-.85-1.06-1.1-.44-.25-.91-.38-1.41-.38s-.98,.12-1.41,.37c-.44,.25-.79,.61-1.06,1.09-.27,.48-.4,1.04-.4,1.7s.13,1.23,.4,1.72c.27,.49,.63,.87,1.07,1.13,.44,.26,.91,.39,1.4,.39s.98-.13,1.41-.38c.44-.25,.79-.62,1.06-1.11,.27-.49,.4-1.06,.4-1.71Zm-7.77-.03c0-.95,.2-1.8,.59-2.53,.4-.73,.94-1.31,1.62-1.71,.68-.41,1.44-.61,2.27-.61,.75,0,1.4,.15,1.96,.44,.56,.29,1,.66,1.34,1.09v-1.38h1.98v9.49h-1.98v-1.41c-.33,.45-.79,.82-1.36,1.12-.57,.3-1.23,.45-1.96,.45-.82,0-1.56-.21-2.24-.63-.68-.42-1.21-1.01-1.61-1.76-.4-.75-.59-1.6-.59-2.56Zm-3.29,0c0-.65-.13-1.22-.4-1.7-.27-.48-.63-.84-1.07-1.09-.44-.25-.92-.37-1.42-.37s-.96,.13-1.4,.38-.8,.62-1.07,1.1c-.27,.48-.41,1.05-.41,1.71s.13,1.23,.41,1.71c.27,.49,.63,.86,1.07,1.11,.44,.25,.91,.38,1.4,.38s.98-.13,1.42-.39c.44-.26,.8-.63,1.07-1.13,.27-.49,.4-1.07,.4-1.72Zm-5.77-3.31c.33-.44,.79-.8,1.36-1.1,.57-.3,1.22-.45,1.95-.45,.83,0,1.58,.2,2.27,.61,.68,.41,1.22,.98,1.61,1.71,.39,.74,.59,1.58,.59,2.53s-.2,1.81-.59,2.56c-.39,.75-.93,1.34-1.61,1.76-.68,.42-1.44,.63-2.27,.63-.72,0-1.37-.15-1.93-.44-.56-.29-1.02-.66-1.38-1.09v5.89h-1.96v-14.01h1.96v1.4Zm-8.37-1.55c.75,0,1.42,.15,2.01,.47,.59,.31,1.06,.77,1.4,1.38,.34,.61,.51,1.34,.51,2.21v5.6h-1.95v-5.31c0-.85-.21-1.5-.64-1.96-.42-.45-1-.68-1.74-.68s-1.32,.23-1.75,.68c-.43,.45-.65,1.11-.65,1.96v5.31h-1.95v-5.31c0-.85-.21-1.5-.64-1.96-.42-.45-1-.68-1.74-.68s-1.32,.23-1.75,.68c-.43,.45-.65,1.11-.65,1.96v5.31h-1.96v-9.49h1.96v1.09c.32-.39,.73-.7,1.22-.91,.49-.22,1.02-.33,1.58-.33,.76,0,1.44,.16,2.03,.48,.6,.32,1.06,.79,1.38,1.4,.29-.57,.74-1.03,1.34-1.37,.61-.34,1.26-.51,1.96-.51Zm-18.37,8.1c.51,0,.98-.12,1.42-.36,.44-.24,.8-.6,1.08-1.09,.28-.48,.41-1.07,.41-1.76s-.13-1.27-.4-1.75c-.26-.48-.61-.84-1.05-1.08-.44-.24-.91-.36-1.41-.36s-.97,.12-1.4,.36c-.43,.24-.77,.6-1.03,1.08-.25,.48-.38,1.06-.38,1.75,0,1.02,.26,1.81,.78,2.37,.52,.56,1.18,.84,1.97,.84Zm0,1.71c-.9,0-1.71-.2-2.43-.61-.72-.41-1.29-.98-1.71-1.72-.41-.74-.62-1.6-.62-2.58s.21-1.82,.64-2.57c.43-.75,1.01-1.32,1.74-1.72,.74-.4,1.56-.6,2.46-.6s1.73,.2,2.46,.6c.73,.4,1.32,.98,1.74,1.72,.42,.75,.64,1.6,.64,2.57s-.22,1.82-.65,2.57c-.44,.75-1.03,1.32-1.78,1.73-.75,.41-1.58,.61-2.49,.61Zm-18.09-6.17c0-1.17,.27-2.22,.82-3.15,.55-.93,1.29-1.66,2.22-2.18,.94-.52,1.96-.78,3.08-.78,1.28,0,2.41,.31,3.4,.94,.99,.63,1.71,1.51,2.16,2.66h-2.36c-.31-.63-.74-1.1-1.29-1.41-.55-.31-1.19-.47-1.91-.47-.79,0-1.5,.18-2.12,.53-.62,.36-1.11,.87-1.46,1.53-.35,.67-.53,1.44-.53,2.33s.18,1.66,.53,2.33c.35,.67,.84,1.18,1.46,1.54,.62,.36,1.33,.54,2.12,.54,.72,0,1.36-.15,1.91-.47,.55-.31,.98-.78,1.29-1.41h2.36c-.45,1.15-1.17,2.03-2.16,2.65-.99,.62-2.13,.93-3.4,.93-1.13,0-2.15-.26-3.08-.78-.93-.52-1.67-1.25-2.21-2.18-.55-.93-.82-1.98-.82-3.15Zm-8.39,1.26c0-.65-.14-1.22-.4-1.71-.27-.48-.62-.85-1.06-1.1-.44-.25-.91-.38-1.41-.38s-.98,.12-1.41,.37c-.44,.25-.79,.61-1.06,1.09-.27,.48-.4,1.04-.4,1.7s.13,1.23,.4,1.72c.27,.49,.63,.87,1.07,1.13,.44,.26,.91,.39,1.4,.39s.98-.13,1.41-.38c.44-.25,.79-.62,1.06-1.11,.27-.49,.4-1.06,.4-1.71Zm-7.77-.03c0-.95,.2-1.8,.59-2.53,.4-.73,.94-1.31,1.62-1.71,.68-.41,1.44-.61,2.28-.61,.62,0,1.23,.13,1.83,.4,.6,.27,1.08,.63,1.44,1.08v-4.58h1.98v12.75h-1.98v-1.43c-.32,.46-.77,.84-1.34,1.14-.57,.3-1.22,.45-1.96,.45-.83,0-1.58-.21-2.27-.63-.68-.42-1.22-1.01-1.62-1.76-.4-.75-.59-1.6-.59-2.56Zm-3.33-.81c-.01-.72-.27-1.3-.78-1.74-.51-.44-1.13-.65-1.88-.65-.68,0-1.26,.22-1.74,.65-.48,.43-.77,1.01-.86,1.75h5.25Zm2.05,.62c0,.36-.02,.68-.07,.96h-7.25c.06,.76,.34,1.37,.84,1.83,.51,.46,1.13,.69,1.86,.69,1.06,0,1.8-.44,2.24-1.33h2.12c-.29,.87-.81,1.59-1.56,2.14-.75,.56-1.69,.84-2.8,.84-.91,0-1.72-.2-2.44-.61-.72-.41-1.28-.98-1.69-1.72-.41-.74-.61-1.6-.61-2.58s.2-1.83,.59-2.58c.4-.74,.95-1.31,1.67-1.71,.72-.4,1.54-.6,2.47-.6s1.69,.2,2.39,.59c.7,.39,1.25,.94,1.64,1.65,.39,.71,.59,1.52,.59,2.44Zm-12.27-5.77c-.34,0-.64-.12-.88-.36-.24-.24-.36-.54-.36-.9s.12-.65,.36-.9c.24-.24,.53-.36,.88-.36s.65,.12,.9,.36c.24,.24,.36,.54,.36,.9s-.12,.65-.36,.9c-.24,.24-.54,.36-.9,.36Zm-4.48,1.26h5.46v9.49h-1.96v-7.89h-3.5v7.89h-1.98v-7.89h-1.12v-1.6h1.12v-.67c0-1.09,.29-1.89,.87-2.39,.58-.5,1.49-.75,2.73-.75v1.64c-.6,0-1.02,.11-1.26,.34-.24,.22-.36,.61-.36,1.16v.67Zm-4.81,0v9.49h-1.96v-9.49h1.96Zm-.96-1.26c-.36,0-.65-.12-.9-.36-.24-.24-.36-.54-.36-.9s.12-.65,.36-.9c.24-.24,.54-.36,.9-.36s.64,.12,.88,.36c.24,.24,.36,.54,.36,.9s-.12,.65-.36,.9c-.24,.24-.53,.36-.88,.36Zm-5.12,2.86v5.25c0,.36,.08,.61,.25,.77,.17,.16,.45,.23,.85,.23h1.21v1.64h-1.55c-.88,0-1.56-.21-2.03-.62-.47-.41-.71-1.09-.71-2.02v-5.25h-1.12v-1.6h1.12v-2.36h1.98v2.36h2.31v1.6h-2.31Zm-6.94-.22c.29-.48,.67-.86,1.15-1.13,.48-.27,1.04-.4,1.7-.4v2.03h-.5c-.77,0-1.35,.2-1.75,.59-.4,.39-.59,1.07-.59,2.03v5h-1.96v-9.49h1.96v1.38Zm-5.94,2.52c-.01-.72-.27-1.3-.78-1.74-.51-.44-1.13-.65-1.88-.65-.68,0-1.26,.22-1.74,.65-.48,.43-.77,1.01-.86,1.75h5.25Zm2.05,.62c0,.36-.02,.68-.07,.96h-7.25c.06,.76,.34,1.37,.84,1.83,.51,.46,1.13,.69,1.86,.69,1.06,0,1.8-.44,2.24-1.33h2.12c-.29,.87-.81,1.59-1.56,2.14-.75,.56-1.69,.84-2.8,.84-.91,0-1.72-.2-2.44-.61-.72-.41-1.28-.98-1.69-1.72-.41-.74-.61-1.6-.61-2.58s.2-1.83,.59-2.58c.4-.74,.95-1.31,1.67-1.71,.72-.4,1.54-.6,2.47-.6s1.69,.2,2.39,.59c.7,.39,1.25,.94,1.64,1.65,.39,.71,.59,1.52,.59,2.44Zm-22.67-1.03c0-1.17,.27-2.22,.82-3.15,.55-.93,1.29-1.66,2.22-2.18,.94-.52,1.96-.78,3.08-.78,1.28,0,2.41,.31,3.4,.94,.99,.63,1.71,1.51,2.16,2.66h-2.36c-.31-.63-.74-1.1-1.29-1.41-.55-.31-1.19-.47-1.91-.47-.79,0-1.5,.18-2.12,.53-.62,.36-1.11,.87-1.46,1.53-.35,.67-.53,1.44-.53,2.33s.18,1.66,.53,2.33c.35,.67,.84,1.18,1.46,1.54,.62,.36,1.33,.54,2.12,.54,.72,0,1.36-.15,1.91-.47,.55-.31,.98-.78,1.29-1.41h2.36c-.45,1.15-1.17,2.03-2.16,2.65-.99,.62-2.13,.93-3.4,.93-1.13,0-2.15-.26-3.08-.78-.93-.52-1.67-1.25-2.21-2.18-.55-.93-.82-1.98-.82-3.15Zm-7-4.86h-5.77v3.43c.24-.32,.6-.59,1.08-.81,.48-.22,.98-.33,1.52-.33,.96,0,1.75,.21,2.35,.62,.6,.41,1.03,.94,1.29,1.57,.26,.63,.39,1.3,.39,2,0,.85-.16,1.61-.49,2.27-.33,.66-.82,1.18-1.46,1.56-.65,.38-1.44,.57-2.39,.57-1.25,0-2.26-.31-3.02-.93-.76-.62-1.21-1.44-1.36-2.46h1.91c.13,.54,.41,.97,.84,1.28,.44,.32,.98,.47,1.64,.47,.82,0,1.43-.25,1.83-.74,.41-.49,.61-1.15,.61-1.96s-.21-1.46-.62-1.9c-.41-.44-1.02-.66-1.83-.66-.56,0-1.04,.14-1.42,.42-.38,.28-.66,.66-.84,1.15h-1.86v-7.25h7.58v1.72Zm-14.39,.1v-1.79h3.58v12.56h-1.98v-10.77h-1.6Zm-3.76,4.32c0-.93-.06-1.72-.18-2.36-.12-.64-.36-1.17-.73-1.58-.37-.41-.91-.61-1.64-.61s-1.27,.2-1.64,.61c-.37,.41-.61,.93-.73,1.58-.12,.64-.18,1.43-.18,2.36s.06,1.77,.17,2.43c.11,.65,.36,1.18,.73,1.59,.37,.4,.92,.6,1.65,.6s1.27-.2,1.65-.6c.37-.4,.62-.93,.73-1.59,.11-.65,.17-1.46,.17-2.43Zm-7.03,0c0-1.99,.34-3.54,1.01-4.66,.67-1.12,1.83-1.68,3.47-1.68s2.8,.56,3.47,1.68c.67,1.12,1.01,2.67,1.01,4.66s-.34,3.58-1.01,4.71c-.67,1.13-1.83,1.7-3.47,1.7s-2.8-.57-3.47-1.7c-.67-1.13-1.01-2.7-1.01-4.71Zm-8.86,3.77c1.1-.95,1.97-1.74,2.61-2.35,.64-.61,1.17-1.25,1.59-1.92,.42-.67,.64-1.33,.64-2s-.16-1.23-.49-1.62c-.33-.39-.84-.59-1.54-.59s-1.2,.22-1.58,.65c-.37,.43-.57,1.01-.59,1.73h-1.9c.03-1.31,.43-2.31,1.18-3.01,.75-.7,1.71-1.04,2.87-1.04,1.25,0,2.23,.34,2.94,1.03,.71,.69,1.06,1.61,1.06,2.76,0,.83-.21,1.62-.63,2.39-.42,.76-.92,1.45-1.5,2.05-.58,.6-1.32,1.3-2.21,2.09l-.78,.69h5.46v1.64h-8.37v-1.43l1.24-1.07Zm-4.26-4.44c-.36,0-.65-.12-.9-.36-.24-.24-.36-.54-.36-.9s.12-.65,.36-.9c.24-.24,.54-.36,.9-.36s.64,.12,.88,.36c.24,.24,.36,.54,.36,.9s-.12,.65-.36,.9c-.24,.24-.53,.36-.88,.36Zm0,7.24c-.36,0-.65-.12-.9-.36-.24-.24-.36-.54-.36-.9s.12-.65,.36-.9c.24-.24,.54-.36,.9-.36s.64,.12,.88,.36,.36,.54,.36,.9-.12,.65-.36,.9c-.24,.24-.53,.36-.88,.36Zm-7.34-10.89v-1.79h3.58v12.56h-1.98v-10.77h-1.6Zm-3.76,4.32c0-.93-.06-1.72-.18-2.36-.12-.64-.36-1.17-.73-1.58-.37-.41-.91-.61-1.64-.61s-1.27,.2-1.64,.61c-.37,.41-.61,.93-.73,1.58-.12,.64-.18,1.43-.18,2.36s.06,1.77,.17,2.43c.11,.65,.36,1.18,.73,1.59,.37,.4,.92,.6,1.65,.6s1.27-.2,1.65-.6c.37-.4,.62-.93,.73-1.59,.11-.65,.17-1.46,.17-2.43Zm-7.03,0c0-1.99,.34-3.54,1.01-4.66,.67-1.12,1.83-1.68,3.47-1.68s2.8,.56,3.47,1.68c.67,1.12,1.01,2.67,1.01,4.66s-.34,3.58-1.01,4.71c-.67,1.13-1.83,1.7-3.47,1.7s-2.8-.57-3.47-1.7c-.67-1.13-1.01-2.7-1.01-4.71Zm-4.01,0c0-.93-.06-1.72-.18-2.36-.12-.64-.36-1.17-.73-1.58-.37-.41-.91-.61-1.64-.61s-1.27,.2-1.64,.61c-.37,.41-.61,.93-.73,1.58-.12,.64-.18,1.43-.18,2.36s.06,1.77,.17,2.43c.11,.65,.36,1.18,.73,1.59,.37,.4,.92,.6,1.65,.6s1.27-.2,1.65-.6c.37-.4,.62-.93,.73-1.59,.11-.65,.17-1.46,.17-2.43Zm-7.03,0c0-1.99,.34-3.54,1.01-4.66,.67-1.12,1.83-1.68,3.47-1.68s2.8,.56,3.47,1.68c.67,1.12,1.01,2.67,1.01,4.66s-.34,3.58-1.01,4.71c-.67,1.13-1.83,1.7-3.47,1.7s-2.8-.57-3.47-1.7c-.67-1.13-1.01-2.7-1.01-4.71Zm-6.31,.1c.69,0,1.23-.22,1.63-.65,.4-.43,.59-1,.59-1.71,0-.79-.21-1.41-.63-1.85-.42-.44-.99-.66-1.71-.66s-1.3,.23-1.71,.68c-.42,.45-.63,1.05-.63,1.78s.2,1.28,.61,1.73c.41,.45,1.02,.68,1.85,.68Zm-2.19,2.93c.12,.57,.36,1.01,.74,1.31,.38,.3,.89,.45,1.53,.45,.82,0,1.41-.32,1.79-.96,.38-.64,.57-1.74,.57-3.29-.28,.39-.66,.69-1.16,.9-.5,.21-1.04,.32-1.63,.32-.75,0-1.42-.15-2.03-.46-.61-.3-1.09-.76-1.44-1.36-.35-.6-.53-1.34-.53-2.2,0-1.26,.37-2.27,1.11-3.02,.74-.75,1.76-1.13,3.06-1.13,1.56,0,2.67,.52,3.33,1.56,.66,1.04,.99,2.63,.99,4.78,0,1.48-.12,2.69-.37,3.64-.25,.94-.67,1.65-1.28,2.14-.61,.48-1.45,.72-2.53,.72-1.23,0-2.18-.32-2.84-.96-.67-.64-1.04-1.45-1.12-2.43h1.81Zm-14.71,1.83c.79,0,1.5-.18,2.12-.54,.62-.36,1.11-.88,1.46-1.55,.35-.67,.53-1.45,.53-2.33s-.18-1.66-.53-2.33c-.35-.67-.84-1.18-1.46-1.53-.62-.36-1.33-.53-2.12-.53s-1.5,.18-2.12,.53c-.62,.36-1.11,.87-1.46,1.53-.35,.67-.53,1.44-.53,2.33s.18,1.66,.53,2.33c.35,.67,.84,1.19,1.46,1.55,.62,.36,1.33,.54,2.12,.54Zm0,1.71c-1.11,0-2.14-.26-3.08-.78-.94-.52-1.68-1.25-2.22-2.19-.55-.94-.82-1.99-.82-3.16s.27-2.22,.82-3.15c.55-.93,1.29-1.66,2.22-2.18,.94-.52,1.96-.78,3.08-.78s2.16,.26,3.09,.78c.94,.52,1.67,1.25,2.21,2.18,.54,.93,.81,1.98,.81,3.15s-.27,2.23-.81,3.16c-.54,.94-1.28,1.67-2.21,2.19-.94,.52-1.97,.78-3.09,.78Zm-11.92,0c-.8,0-1.53-.14-2.17-.42-.64-.28-1.15-.68-1.52-1.2-.37-.52-.55-1.12-.55-1.81h2.1c.05,.52,.25,.94,.61,1.27,.36,.33,.87,.5,1.52,.5s1.21-.16,1.58-.49c.38-.33,.57-.75,.57-1.27,0-.4-.12-.73-.35-.98-.24-.25-.53-.45-.88-.59-.35-.14-.84-.29-1.46-.45-.78-.21-1.42-.42-1.9-.63-.49-.21-.9-.54-1.25-.99-.34-.45-.52-1.05-.52-1.79,0-.69,.17-1.29,.52-1.81,.34-.52,.83-.91,1.45-1.19,.62-.28,1.34-.41,2.15-.41,1.16,0,2.11,.29,2.85,.87,.74,.58,1.15,1.38,1.23,2.39h-2.17c-.03-.44-.24-.81-.62-1.12-.38-.31-.88-.47-1.5-.47-.56,0-1.02,.14-1.38,.43-.36,.29-.53,.7-.53,1.24,0,.37,.11,.67,.34,.9,.22,.24,.51,.42,.85,.56,.34,.14,.82,.29,1.41,.45,.79,.22,1.44,.44,1.94,.65,.5,.22,.92,.55,1.28,1.01,.35,.45,.53,1.06,.53,1.82,0,.61-.16,1.18-.49,1.72-.33,.54-.8,.97-1.43,1.3-.63,.33-1.36,.49-2.21,.49Zm-6.53-12.09v11.97h-1.96v-11.97h1.96Z"/>
      <polygon class="cls-8" points="153.54 71.06 184.39 54.39 184.39 42.7 199.1 42.7 199.28 48.01 220.56 38.08 287.93 70.35 275.87 73.19 219.49 46.24 194.67 58.65 194.67 47.54 188.66 47.54 189 60.78 163.47 73.9 153.54 71.06"/>
      <path class="cls-4" d="M265.59,26.38h27.13c4.1,0,7.45,3.35,7.45,7.45s-3.35,7.45-7.45,7.45h-27.13c-4.1,0-7.45-3.35-7.45-7.45s3.35-7.45,7.45-7.45Z"/>
      <path class="cls-3" d="M288.55,28.76v9.68h-1.94v-6.29l-2.59,6.29h-1.47l-2.61-6.29v6.29h-1.94v-9.68h2.2l3.08,7.2,3.08-7.2h2.19Zm-11.97,0v1.57h-2.58v8.11h-1.94v-8.11h-2.58v-1.57h7.1Z"/>
      <path class="cls-6" d="M250.44,18.63c.63,.31,.43,.36,.43,.36,0,0-.52-3.72-1.51-4.35-3.72-2.36-4.8,3.17-9.32,2.55-3.21-.44-3.76-2.1-5.31-4.98-1.55-2.88-2.66-4.32-5.98-5.87-3.32-1.55-5.09-3.76-6.42-4.98-1.33-1.22-1.71-1.37-1.71-1.37,0,0,.83,2.25,2.71,4.02,1.88,1.77,2.55,2.32,2.55,2.32,0,0,.33,.44-.22,.33-.55-.11-2.88-1.99-3.21-2.32-.33-.33,.11,1.22,.89,2.32,.77,1.11,2.28,2.04,2.55,2.32,1.59,1.73,3.8,1.15,5.2,2.55,1.44,1.44,1.99,3.76,2.88,4.98,.59,.82,1.69,1.36,2.62,1.96,1.8,1.14,2.47,1.14,3.34,1.24,0,0-.65,2.01-2.53,2.67-1.88,.66-4.43,.11-4.43,.11,0,0-1.22,1.44-1.99,2.77-.77,1.33-1.22,1.66-1.66,1.99-.44,.33-.77,.44-.77,.44,0,0-.11,.78,.33,1.44,.44,.66,.77,.78,.77,.78,0,0,3.54-1.66,5.98-2.21,2.43-.55,4.76-.33,6.97-1.66,2.21-1.33,3.25-2.86,3.98-5.09,.29-.89,1.33-2.33,1.99-2.99,.22-.22,1.25,.35,1.88,.66"/>
      <path class="cls-8" d="M236.86,18.81s.58-1.37,1.3-1.62c.71-.25,.89-.2,.89-.2,0,0-1.61,.23-3.28-2.83-4.17-7.67-3.99-5.2-9.9-9.84-3.21-2.52-5.25-4.33-5.25-4.33,0,0,.01,.77,1.64,2.84,1.62,2.07,3.49,3.4,3.49,3.4,0,0,.35,.55-.1,.44-.44-.11-1.66-1-2.43-1.77-.77-.78-.81-.58-.81-.58,0,0,.03,1.81,1.52,3.06,1.5,1.25,1.83,1.56,2.17,1.84,.34,.28,.22,.44,.22,.44,0,0,3.75,.64,5.47,2.75,1.72,2.12,1.15,3.3,2.6,4.59,1.45,1.29,2.48,1.8,2.48,1.8"/>
      <path class="cls-5" d="M240.4,19.39s-2.1,.24-4.05-1.15c-2.09-1.49-2.26-1.98-3.84-5.06-.45-.88-1.09-1.37-1.65-1.8-.53-.41-1.2-.86-2.39-1.16-.82-.2-1.84-.33-2.4-.55-1.49-.6-2.87-1.77-2.87-1.77,.15,1.77,3.3,3.2,4.79,4.3,0,0,.57,.55-.11,.44-.68-.11-1.37-.44-2.17-.88-.8-.44-.91-.55-.91-.55,0,0,.46,.99,1.94,2.21,1.48,1.21,2.62,1.54,2.62,1.54,0,0,.34,.44,0,.44s-.46,.11-1.6-.33c-1.14-.44-1.14-.66-1.14-.66,0,0,.46,1.43,2.51,2.1,2.05,.66,3.53,1.21,3.53,1.21,1.35,1.09-1.88,.34-1.94,.33-1.6-.22-2.05-.66-2.05-.66,0,0,.68,.88,1.71,1.43,1.03,.55,2.73,.88,2.73,.88,1.03,.33-.51,.96-2.39,.11,0,0,.57,.88,2.17,1.1,3.97,.55-.78,.46-.68,.55,1.81,1.76,4.95,1.7,6.3,.68,1.36-1.02,1.89-2.76,1.89-2.76"/>
      <path class="cls-8" d="M240.26,16.31s.51,.04,1.11-.03c.37-.04,.77-.13,1.1-.3,.89-.44,2.1-1.55,3.1-1.99,1-.44,1.44-.47,1.44-.47,0,0,1-3.84,1.11-4.51,.11-.66,0-1.22,0-1.22,0,0-.44,.22-1.11,1.44-.66,1.22-.89,1.22-.89,1.22,0,0-.11-.44-.11-.66s.44-1.22,.44-1.22c0,0-.55,.11-1.44,2.32-.89,2.21-1,2.88-1,2.88l-.22,.55s-.11,0-.11-.44-.11-1.11,0-1.66c.11-.55,.33-1,.33-1,0,0-.89,1.22-1.22,2.21-.33,1-.22,1.66-.22,1.66,0,0-.33,.33-.44,.11-.11-.22,0-1.11,0-1.11,0,0-.25,.44-.57,1.11-.32,.66-.32,.77-.32,.77,0,0-.41-.3-.48-.48s-.18-.3-.18-.3c0,0-.22,.33-.33,.66-.11,.33,0,.44,0,.44"/>
      <path class="cls-9" d="M247.78,15.64c.31,0,.55,.25,.55,.55s-.25,.55-.55,.55-.55-.25-.55-.55,.25-.55,.55-.55"/>
      <path class="cls-7" d="M228.52,27.71s0,1,.33,1.44c.34,.44,.77,.77,.77,.77,0,0-.89,1.99-1.77,2.99s-1.38,1.25-2.46,1.51c-1.08,.26-2.23,0-2.23,0,0,0,2.58-.3,3.36-.74,1.4-.8,.33-1.33-.66-.83-.5,.25-.89,.39-1.66,.5-.77,.11-1.55,0-1.55,0,0,0,2.1-.33,2.99-.77,.89-.44,1.77-1,1.77-1,0,0,.4-.82-.64-.64-1.04,.18-.8,.64-2.24,1.19-1.44,.55-3.1,.44-3.76,.33-.66-.11-1.55-.66-1.55-.66,0,0,1.19,.11,3.19,0,2.01-.11,2.89-.55,2.89-.55,0,0,.44-.55-.22-.55s-1.88,.33-3.54,.33-2.44-1.33-2.44-1.33c0,0,1.88,.66,3.43,.66s2.99-.22,2.99-.22c0,0,.11-.66-.22-.66s-1.66,.22-3.1,0c-1.44-.22-1.77-.23-2.55-.55-.77-.32-.89-1.11-.89-1.11,0,0,1.44,.66,2.99,.89,1.55,.22,4.43,.22,4.43,.22,0,0,.22-.55-.11-.77-.33-.22-.77,.11-3.1-.33-2.32-.44-3.1-.89-3.1-.89,0,0,4.1,.66,5.64,.66s2.99,.11,2.99,.11"/>
      <path class="cls-8" d="M17.18,135.75c32.11,11.9,116.85,3.44,168.72,1.69,40.52-1.36,78.78,3.27,78.78,3.27,0,0-36.52-7.09-78.72-5.32-42.2,1.77-57.11,2.76-73.75,3.9-38.6,2.65-84.2,1.26-95.03-3.55"/>
      <path class="cls-5" d="M17.02,138.93c32.11,11.9,116.84,3.44,168.72,1.69,40.52-1.36,78.78,3.27,78.78,3.27,0,0-36.52-7.09-78.72-5.32-42.2,1.77-57.11,2.76-73.76,3.9-38.6,2.65-84.2,1.26-95.03-3.55"/>
    </g>
  </g>
</svg>