<svg width="166" height="85" viewBox="0 0 166 85" fill="none" xmlns="http://www.w3.org/2000/svg">
<path d="M21.9859 36.8458V38.6982C21.2685 38.3557 20.5929 38.097 19.9591 37.9293C19.3252 37.7615 18.7123 37.6776 18.1133 37.6776C17.0824 37.6776 16.2884 37.8803 15.7312 38.2788C15.174 38.6772 14.8954 39.2504 14.8954 39.9844C14.8954 40.6065 15.0834 41.0679 15.4526 41.3894C15.8217 41.711 16.5252 41.9627 17.563 42.1514L18.7053 42.3891C20.1123 42.6547 21.1571 43.13 21.8257 43.8081C22.4944 44.4861 22.8287 45.3949 22.8287 46.5343C22.8287 47.8904 22.376 48.925 21.4705 49.624C20.565 50.323 19.2347 50.6726 17.4795 50.6726C16.8178 50.6726 16.1143 50.5957 15.369 50.4489C14.6237 50.3021 13.8506 50.0784 13.0566 49.7848V47.8345C13.8227 48.2679 14.575 48.5894 15.3133 48.8131C16.0516 49.0298 16.769 49.1417 17.4864 49.1417C18.566 49.1417 19.3949 48.932 19.9869 48.5056C20.572 48.0792 20.8645 47.471 20.8645 46.6811C20.8645 45.996 20.6556 45.4578 20.2307 45.0663C19.8128 44.6819 19.1163 44.3883 18.162 44.1926L17.0128 43.9689C15.6058 43.6893 14.5819 43.2489 13.9551 42.6477C13.3282 42.0465 13.0078 41.2147 13.0078 40.1452C13.0078 38.9079 13.4397 37.9293 14.3103 37.2162C15.1809 36.5032 16.379 36.1467 17.9043 36.1467C18.5591 36.1467 19.2277 36.2027 19.9033 36.3215C20.5859 36.4403 21.2755 36.6221 21.9859 36.8597V36.8458Z" fill="#BC4B10"/>
<path d="M25.7745 36.3843H28.5885L32.1546 45.919L35.7347 36.3843H38.5487V50.3998H36.7029V38.0969L33.1019 47.7086H31.2004L27.5994 38.0969V50.3998H25.7676V36.3843H25.7745Z" fill="#BC4B10"/>
<path d="M45.9048 36.3843H48.0431L53.3645 50.3998H51.4003L50.1257 46.8068H43.8292L42.5545 50.3998H40.5625L45.8909 36.3843H45.9048ZM46.9705 38.2507L44.4073 45.227H49.5406L46.9705 38.2507Z" fill="#BC4B10"/>
<path d="M62.0279 43.8289C62.4319 43.9687 62.8289 44.2623 63.212 44.7097C63.5951 45.1571 63.9782 45.7792 64.3682 46.5691L66.2836 50.3998H64.2568L62.4737 46.8068C62.014 45.8701 61.5682 45.248 61.1294 44.9404C60.6976 44.6328 60.1055 44.479 59.3603 44.479H57.3055V50.3998H55.418V36.3843H59.6807C61.2757 36.3843 62.4667 36.7198 63.2538 37.3909C64.0409 38.0619 64.4309 39.0686 64.4309 40.4247C64.4309 41.3054 64.2289 42.0394 63.818 42.6196C63.407 43.1998 62.815 43.6052 62.0349 43.8289H62.0279ZM57.2986 37.9431V42.9202H59.6737C60.5861 42.9202 61.2687 42.7105 61.7354 42.2841C62.202 41.8577 62.4319 41.2425 62.4319 40.4177C62.4319 39.5928 62.202 38.9777 61.7354 38.5652C61.2687 38.1528 60.5861 37.9431 59.6737 37.9431H57.2986Z" fill="#BC4B10"/>
<path d="M65.3781 36.3843H77.191V37.9781H72.2318V50.3928H70.3303V37.9781H65.3711V36.3843H65.3781Z" fill="#BC4B10"/>
<path d="M85.1035 36.3843H86.9911V42.1303H93.8587V36.3843H95.7463V50.3998H93.8587V43.7241H86.9911V50.3998H85.1035V36.3843Z" fill="#BC4B10"/>
<path d="M105.178 36.1257C107.135 36.1257 108.702 36.7828 109.872 38.104C111.042 39.4182 111.627 41.1867 111.627 43.4026C111.627 45.6185 111.042 47.3731 109.872 48.6943C108.702 50.0085 107.135 50.6725 105.178 50.6725C103.22 50.6725 101.646 50.0154 100.469 48.7013C99.2921 47.3871 98.707 45.6255 98.707 43.4096C98.707 41.1937 99.2921 39.4251 100.469 38.111C101.646 36.7968 103.213 36.1327 105.178 36.1327V36.1257ZM105.178 37.6636C103.806 37.6636 102.719 38.1739 101.911 39.2015C101.103 40.229 100.699 41.6271 100.699 43.3956C100.699 45.1642 101.103 46.5552 101.911 47.5828C102.719 48.6104 103.806 49.1207 105.178 49.1207C106.55 49.1207 107.636 48.6104 108.437 47.5828C109.238 46.5552 109.642 45.1642 109.642 43.3956C109.642 41.6271 109.238 40.229 108.437 39.2015C107.636 38.1739 106.55 37.6636 105.178 37.6636Z" fill="#BC4B10"/>
<path d="M114.588 36.3843H117.402L120.968 45.919L124.548 36.3843H127.362V50.3998H125.523V38.0969L121.922 47.7086H120.021L116.42 38.0969V50.3998H114.588V36.3843Z" fill="#BC4B10"/>
<path d="M131.109 36.3843H139.941V37.9781H133.004V42.1234H139.656V43.7172H133.004V48.7921H140.115V50.3859H131.116V36.3704L131.109 36.3843Z" fill="#BC4B10"/>
<path d="M151.586 36.8458V38.6982C150.869 38.3557 150.193 38.097 149.56 37.9293C148.926 37.7615 148.313 37.6776 147.721 37.6776C146.69 37.6776 145.896 37.8803 145.339 38.2788C144.781 38.6772 144.503 39.2504 144.503 39.9844C144.503 40.6065 144.691 41.0679 145.06 41.3894C145.429 41.704 146.133 41.9627 147.17 42.1514L148.313 42.3891C149.72 42.6547 150.764 43.13 151.433 43.8081C152.102 44.4861 152.436 45.3949 152.436 46.5343C152.436 47.8904 151.983 48.925 151.078 49.624C150.172 50.323 148.842 50.6726 147.087 50.6726C146.425 50.6726 145.722 50.5957 144.976 50.4489C144.231 50.3021 143.458 50.0784 142.664 49.7848V47.8345C143.43 48.2679 144.182 48.5894 144.921 48.8131C145.659 49.0298 146.383 49.1417 147.094 49.1417C148.173 49.1417 149.002 48.932 149.594 48.5056C150.179 48.0792 150.472 47.471 150.472 46.6811C150.472 45.996 150.263 45.4578 149.838 45.0663C149.42 44.6819 148.724 44.3883 147.769 44.1926L146.62 43.9689C145.213 43.6893 144.189 43.2489 143.562 42.6477C142.936 42.0465 142.615 41.2147 142.615 40.1452C142.615 38.9079 143.047 37.9293 143.918 37.2162C144.788 36.5032 145.986 36.1467 147.512 36.1467C148.166 36.1467 148.835 36.2027 149.511 36.3215C150.186 36.4403 150.883 36.6221 151.593 36.8597L151.586 36.8458Z" fill="#BC4B10"/>
<path d="M29.2793 56.7892H31.8216C32.5808 56.7892 33.1659 56.95 33.5768 57.2646C33.9878 57.5791 34.1967 58.0335 34.1967 58.6137C34.1967 59.068 34.0922 59.4246 33.8833 59.6902C33.6743 59.9558 33.3609 60.1236 32.9569 60.1935C33.4445 60.2983 33.8276 60.522 34.0992 60.8506C34.3708 61.1861 34.5032 61.6055 34.5032 62.1018C34.5032 62.7589 34.2803 63.2692 33.8345 63.6327C33.3887 63.9962 32.748 64.171 31.9261 64.171H29.2863V56.7822L29.2793 56.7892ZM30.2753 57.6071V59.837H31.7519C32.2395 59.837 32.6017 59.7461 32.8385 59.5644C33.0753 59.3826 33.1937 59.103 33.1937 58.7255C33.1937 58.3481 33.0753 58.0754 32.8385 57.8867C32.6017 57.7049 32.2395 57.6071 31.7519 57.6071H30.2753ZM30.2753 60.6479V63.3531H31.8703C32.4067 63.3531 32.8037 63.2413 33.0614 63.0176C33.3191 62.7939 33.4514 62.4514 33.4514 61.997C33.4514 61.5426 33.3191 61.1931 33.0614 60.9764C32.8037 60.7597 32.4067 60.6479 31.8703 60.6479H30.2753Z" fill="#1B1918"/>
<path d="M36.0781 61.9899V58.6345H36.9836V61.9549C36.9836 62.4792 37.0881 62.8706 37.2901 63.1363C37.4921 63.4019 37.7985 63.5277 38.2095 63.5277C38.697 63.5277 39.0871 63.3739 39.3727 63.0594C39.6582 62.7448 39.7975 62.3184 39.7975 61.7802V58.6345H40.703V64.1778H39.7975V63.325C39.5746 63.6605 39.3239 63.9122 39.0314 64.073C38.7388 64.2337 38.4045 64.3176 38.0214 64.3176C37.3876 64.3176 36.907 64.1219 36.5796 63.7235C36.2523 63.325 36.0851 62.7518 36.0851 61.9899H36.0781Z" fill="#1B1918"/>
<path d="M42.5684 56.4746H43.4738V57.628H42.5684V56.4746ZM42.5684 58.6346H43.4738V64.1779H42.5684V58.6346Z" fill="#1B1918"/>
<path d="M45.375 56.4746H46.2805V64.1779H45.375V56.4746Z" fill="#1B1918"/>
<path d="M51.8188 59.4805V56.4817H52.7243V64.185H51.8188V63.3531C51.6308 63.6817 51.387 63.9263 51.0945 64.0871C50.8019 64.2479 50.4537 64.3248 50.0497 64.3248C49.381 64.3248 48.8377 64.0592 48.4198 63.5209C48.0019 62.9897 47.793 62.2836 47.793 61.4098C47.793 60.5361 48.0019 59.837 48.4198 59.2988C48.8377 58.7675 49.381 58.4949 50.0497 58.4949C50.4537 58.4949 50.8089 58.5718 51.0945 58.7326C51.387 58.8933 51.6238 59.138 51.8188 59.4665V59.4805ZM48.7263 61.4168C48.7263 62.0879 48.8656 62.6122 49.1372 62.9966C49.4089 63.3741 49.792 63.5698 50.2656 63.5698C50.7392 63.5698 51.1223 63.3811 51.4009 62.9966C51.6795 62.6122 51.8119 62.0879 51.8119 61.4168C51.8119 60.7458 51.6726 60.2215 51.4009 59.844C51.1223 59.4665 50.7462 59.2708 50.2656 59.2708C49.785 59.2708 49.4089 59.4596 49.1372 59.844C48.8656 60.2285 48.7263 60.7528 48.7263 61.4168Z" fill="#1B1918"/>
<path d="M54.5898 56.4746H55.4953V57.628H54.5898V56.4746ZM54.5898 58.6346H55.4953V64.1779H54.5898V58.6346Z" fill="#1B1918"/>
<path d="M61.9882 60.8365V64.1848H61.0827V60.8714C61.0827 60.3471 60.9782 59.9557 60.7762 59.6901C60.5742 59.4244 60.2678 59.2986 59.8568 59.2986C59.3693 59.2986 58.9792 59.4524 58.7006 59.767C58.415 60.0815 58.2757 60.5079 58.2757 61.0462V64.1778H57.3633V58.6345H58.2757V59.4943C58.4916 59.1588 58.7494 58.9141 59.0419 58.7464C59.3344 58.5786 59.6757 58.5017 60.0588 58.5017C60.6926 58.5017 61.1732 58.6974 61.5006 59.0959C61.828 59.4873 61.9882 60.0675 61.9882 60.8365Z" fill="#1B1918"/>
<path d="M68.3395 63.493C68.3395 64.4366 68.1306 65.1357 67.7127 65.597C67.2948 66.0584 66.654 66.2891 65.7973 66.2891C65.4769 66.2891 65.1774 66.2681 64.8918 66.2192C64.6062 66.1702 64.3346 66.1003 64.0699 66.0025V65.1147C64.3346 65.2615 64.5992 65.3664 64.857 65.4363C65.1147 65.5062 65.3793 65.5411 65.651 65.5411C66.243 65.5411 66.6888 65.3873 66.9883 65.0728C67.2808 64.7582 67.4341 64.2899 67.4341 63.6607V63.2133C67.246 63.5419 67.0092 63.7866 66.7167 63.9473C66.4241 64.1081 66.0759 64.192 65.6649 64.192C64.9893 64.192 64.439 63.9333 64.0281 63.4161C63.6172 62.8988 63.4082 62.2137 63.4082 61.3539C63.4082 60.4941 63.6172 59.8091 64.0281 59.2918C64.439 58.7745 64.9893 58.5159 65.6649 58.5159C66.0689 58.5159 66.4241 58.5998 66.7167 58.7605C67.0092 58.9213 67.246 59.166 67.4341 59.4945V58.6557H68.3395V63.5139V63.493ZM67.4341 61.3469C67.4341 60.6899 67.3017 60.1726 67.0301 59.8091C66.7584 59.4456 66.3754 59.2638 65.8878 59.2638C65.4002 59.2638 65.0241 59.4456 64.7525 59.8091C64.4808 60.1726 64.3485 60.6829 64.3485 61.3469C64.3485 62.011 64.4808 62.5143 64.7525 62.8778C65.0241 63.2413 65.4002 63.4231 65.8878 63.4231C66.3754 63.4231 66.7584 63.2413 67.0301 62.8778C67.3017 62.5143 67.4341 62.004 67.4341 61.3469Z" fill="#1B1918"/>
<path d="M77.8761 57.0338V58.0055C77.5 57.8237 77.1448 57.6909 76.8035 57.6C76.4691 57.5092 76.1418 57.4672 75.8283 57.4672C75.285 57.4672 74.8671 57.5721 74.5746 57.7818C74.2821 57.9915 74.1358 58.2921 74.1358 58.6835C74.1358 59.0121 74.2333 59.2567 74.4283 59.4245C74.6234 59.5923 74.9925 59.7251 75.5428 59.8299L76.1418 59.9558C76.887 60.0956 77.4303 60.3472 77.7855 60.7037C78.1408 61.0602 78.3149 61.5426 78.3149 62.1437C78.3149 62.8567 78.0781 63.402 77.5975 63.7725C77.1169 64.1429 76.4204 64.3247 75.494 64.3247C75.1457 64.3247 74.7766 64.2827 74.3796 64.2059C73.9826 64.129 73.5786 64.0101 73.1607 63.8563V62.8288C73.5647 63.0594 73.9617 63.2272 74.3517 63.3461C74.7418 63.4649 75.1179 63.5208 75.494 63.5208C76.0652 63.5208 76.504 63.409 76.8104 63.1853C77.1169 62.9616 77.2771 62.64 77.2771 62.2276C77.2771 61.8641 77.1656 61.5775 76.9428 61.3748C76.7199 61.1721 76.3577 61.0183 75.8492 60.9134L75.2433 60.7946C74.498 60.6478 73.9617 60.4101 73.6273 60.0956C73.293 59.781 73.1328 59.3406 73.1328 58.7744C73.1328 58.1243 73.3627 57.607 73.8224 57.2295C74.2821 56.8521 74.9159 56.6633 75.7169 56.6633C76.0652 56.6633 76.4134 56.6913 76.7686 56.7542C77.1239 56.8171 77.493 56.908 77.8691 57.0338H77.8761Z" fill="#1B1918"/>
<path d="M84.1303 59.6972C84.3602 59.2848 84.6318 58.9842 84.9452 58.7885C85.2587 58.5927 85.6348 58.4949 86.0597 58.4949C86.6378 58.4949 87.0766 58.6976 87.39 59.103C87.7035 59.5085 87.8567 60.0817 87.8567 60.8296V64.178H86.9443V60.8646C86.9443 60.3333 86.8537 59.9419 86.6656 59.6832C86.4776 59.4246 86.192 59.2988 85.8089 59.2988C85.3423 59.2988 84.9661 59.4525 84.6945 59.7671C84.4229 60.0817 84.2836 60.5081 84.2836 61.0463V64.178H83.3711V60.8646C83.3711 60.3333 83.2806 59.9349 83.0925 59.6762C82.9044 59.4176 82.6189 59.2918 82.2219 59.2918C81.7552 59.2918 81.393 59.4525 81.1144 59.7671C80.8358 60.0817 80.7035 60.5081 80.7035 61.0463V64.178H79.791V58.6347H80.7035V59.4945C80.9124 59.152 81.1562 58.9073 81.4487 58.7395C81.7413 58.5718 82.0826 58.4949 82.4796 58.4949C82.8766 58.4949 83.2248 58.5997 83.5035 58.8024C83.7821 59.0052 83.991 59.3057 84.1303 59.6902V59.6972Z" fill="#1B1918"/>
<path d="M93.9928 61.0183V64.1779H93.0874V63.3391C92.8784 63.6746 92.6207 63.9263 92.3142 64.087C92.0078 64.2478 91.6247 64.3247 91.1789 64.3247C90.6147 64.3247 90.162 64.1639 89.8277 63.8494C89.4933 63.5278 89.3262 63.1014 89.3262 62.5702C89.3262 61.948 89.5351 61.4797 89.953 61.1581C90.3709 60.8435 90.9908 60.6828 91.8127 60.6828H93.0874V60.5919C93.0874 60.1725 92.9481 59.8509 92.6764 59.6202C92.4048 59.3896 92.0147 59.2777 91.5202 59.2777C91.2068 59.2777 90.9003 59.3127 90.6008 59.3896C90.3013 59.4665 90.0157 59.5783 89.7371 59.7321V58.8933C90.0714 58.7674 90.3918 58.6696 90.7053 58.6067C91.0187 58.5437 91.3252 58.5088 91.6177 58.5088C92.4187 58.5088 93.0107 58.7185 93.4078 59.1309C93.8048 59.5434 93.9998 60.1795 93.9998 61.0183H93.9928ZM92.1819 61.3958C91.4505 61.3958 90.9421 61.4797 90.6565 61.6474C90.3709 61.8152 90.2316 62.1018 90.2316 62.5072C90.2316 62.8288 90.3361 63.0874 90.552 63.2762C90.761 63.4649 91.0535 63.5628 91.4157 63.5628C91.9172 63.5628 92.3212 63.381 92.6277 63.0245C92.9341 62.668 93.0804 62.1927 93.0804 61.5985V61.3958H92.1819Z" fill="#1B1918"/>
<path d="M99.0572 59.4873C98.9527 59.4314 98.8482 59.3825 98.7228 59.3545C98.6044 59.3266 98.4721 59.3126 98.3258 59.3126C97.8104 59.3126 97.4204 59.4803 97.1417 59.8159C96.8701 60.1514 96.7308 60.6337 96.7308 61.2559V64.1778H95.8184V58.6345H96.7308V59.4943C96.9189 59.1588 97.1696 58.9071 97.4761 58.7464C97.7825 58.5856 98.1517 58.5017 98.5905 58.5017C98.6532 58.5017 98.7228 58.5017 98.7995 58.5157C98.8761 58.5227 98.9597 58.5367 99.0502 58.5506V59.4873H99.0572Z" fill="#1B1918"/>
<path d="M100.91 57.0618V58.6346H102.777V59.3406H100.91V62.3464C100.91 62.8008 100.973 63.0874 101.098 63.2202C101.224 63.346 101.474 63.4159 101.85 63.4159H102.784V64.1779H101.85C101.154 64.1779 100.666 64.0451 100.402 63.7864C100.137 63.5208 100.005 63.0455 100.005 62.3534V59.3476H99.3359V58.6416H100.005V57.0688H100.917L100.91 57.0618Z" fill="#1B1918"/>
<path d="M107.219 56.7891H108.215V64.1778H107.219V56.7891Z" fill="#1B1918"/>
<path d="M114.75 60.8365V64.1848H113.844V60.8714C113.844 60.3471 113.74 59.9557 113.538 59.6901C113.336 59.4314 113.029 59.2986 112.619 59.2986C112.131 59.2986 111.741 59.4524 111.462 59.767C111.177 60.0815 111.037 60.5079 111.037 61.0462V64.1778H110.125V58.6345H111.037V59.4943C111.253 59.1588 111.511 58.9141 111.804 58.7464C112.096 58.5786 112.437 58.5017 112.821 58.5017C113.454 58.5017 113.935 58.6974 114.262 59.0959C114.59 59.4873 114.75 60.0675 114.75 60.8365Z" fill="#1B1918"/>
<path d="M120.196 59.4805V56.4817H121.101V64.185H120.196V63.3531C120.008 63.6817 119.764 63.9263 119.471 64.0871C119.179 64.2479 118.831 64.3248 118.427 64.3248C117.758 64.3248 117.215 64.0592 116.797 63.5209C116.379 62.9897 116.17 62.2836 116.17 61.4098C116.17 60.5361 116.379 59.837 116.797 59.2988C117.215 58.7675 117.758 58.4949 118.427 58.4949C118.831 58.4949 119.186 58.5718 119.471 58.7326C119.764 58.8933 120.001 59.138 120.196 59.4665V59.4805ZM117.103 61.4168C117.103 62.0879 117.243 62.6122 117.514 62.9966C117.786 63.3741 118.169 63.5698 118.643 63.5698C119.116 63.5698 119.499 63.3811 119.778 62.9966C120.056 62.6122 120.189 62.0879 120.189 61.4168C120.189 60.7458 120.05 60.2215 119.778 59.844C119.499 59.4665 119.123 59.2708 118.643 59.2708C118.162 59.2708 117.786 59.4596 117.514 59.844C117.243 60.2285 117.103 60.7528 117.103 61.4168Z" fill="#1B1918"/>
<path d="M122.969 56.4746H123.874V57.628H122.969V56.4746ZM122.969 58.6346H123.874V64.1779H122.969V58.6346Z" fill="#1B1918"/>
<path d="M130.1 61.0183V64.1779H129.195V63.3391C128.986 63.6746 128.728 63.9263 128.422 64.087C128.115 64.2478 127.732 64.3247 127.286 64.3247C126.722 64.3247 126.269 64.1639 125.935 63.8494C125.601 63.5278 125.434 63.1014 125.434 62.5702C125.434 61.948 125.643 61.4797 126.06 61.1581C126.478 60.8435 127.098 60.6828 127.92 60.6828H129.195V60.5919C129.195 60.1725 129.055 59.8509 128.784 59.6202C128.512 59.3896 128.122 59.2777 127.628 59.2777C127.314 59.2777 127.008 59.3127 126.708 59.3896C126.409 59.4665 126.123 59.5783 125.845 59.7321V58.8933C126.179 58.7674 126.499 58.6696 126.813 58.6067C127.126 58.5437 127.433 58.5088 127.725 58.5088C128.526 58.5088 129.118 58.7185 129.515 59.1309C129.912 59.5434 130.107 60.1795 130.107 61.0183H130.1ZM128.289 61.3958C127.558 61.3958 127.05 61.4797 126.764 61.6474C126.478 61.8152 126.339 62.1018 126.339 62.5072C126.339 62.8288 126.444 63.0874 126.659 63.2762C126.868 63.4649 127.161 63.5628 127.523 63.5628C128.025 63.5628 128.429 63.381 128.735 63.0245C129.042 62.668 129.188 62.1927 129.188 61.5985V61.3958H128.289Z" fill="#1B1918"/>
<path d="M15.5371 74.5654H16.3242V80.4233H15.5371V74.5654Z" fill="#1B1918"/>
<path d="M21.3943 74.7612V75.5371C21.0948 75.3903 20.8092 75.2855 20.5445 75.2156C20.2798 75.1457 20.0221 75.1107 19.7714 75.1107C19.3395 75.1107 19.0122 75.1946 18.7754 75.3624C18.5455 75.5301 18.4271 75.7678 18.4271 76.0754C18.4271 76.334 18.5037 76.5298 18.657 76.6626C18.8102 76.7954 19.1097 76.9002 19.5415 76.9841L20.0221 77.082C20.6142 77.1938 21.046 77.3896 21.3246 77.6762C21.6032 77.9628 21.7425 78.3402 21.7425 78.8156C21.7425 79.3818 21.5545 79.8152 21.1714 80.1088C20.7953 80.4024 20.238 80.5492 19.4997 80.5492C19.2211 80.5492 18.9286 80.5212 18.6152 80.4583C18.3017 80.3954 17.9813 80.3045 17.647 80.1787V79.3608C17.9674 79.5426 18.2808 79.6754 18.5873 79.7663C18.8938 79.8571 19.2002 79.9061 19.4928 79.9061C19.9455 79.9061 20.2938 79.8152 20.5375 79.6404C20.7813 79.4657 20.9067 79.207 20.9067 78.8785C20.9067 78.5919 20.8162 78.3682 20.642 78.2004C20.4679 78.0397 20.1754 77.9138 19.7783 77.8369L19.2977 77.7461C18.7057 77.6272 18.2808 77.4455 18.0162 77.1938C17.7515 76.9422 17.6191 76.5927 17.6191 76.1453C17.6191 75.628 17.8002 75.2156 18.1624 74.922C18.5246 74.6214 19.0261 74.4746 19.6669 74.4746C19.9385 74.4746 20.2172 74.5026 20.5027 74.5515C20.7883 74.6004 21.0808 74.6773 21.3734 74.7752L21.3943 74.7612Z" fill="#1B1918"/>
<path d="M25.3501 74.4607C26.172 74.4607 26.8267 74.7333 27.3143 75.2855C27.8018 75.8378 28.0526 76.5718 28.0526 77.5015C28.0526 78.4312 27.8088 79.1652 27.3143 79.7174C26.8267 80.2696 26.172 80.5423 25.3501 80.5423C24.5282 80.5423 23.8735 80.2696 23.3789 79.7174C22.8844 79.1652 22.6406 78.4312 22.6406 77.5015C22.6406 76.5718 22.8844 75.8378 23.3789 75.2855C23.8735 74.7333 24.5282 74.4607 25.3501 74.4607ZM25.3501 75.1038C24.7789 75.1038 24.3192 75.3205 23.9849 75.7469C23.6506 76.1733 23.4764 76.7605 23.4764 77.5015C23.4764 78.2424 23.6436 78.8226 23.9849 79.249C24.3262 79.6755 24.7789 79.8922 25.3501 79.8922C25.9212 79.8922 26.3809 79.6755 26.7153 79.249C27.0496 78.8226 27.2167 78.2355 27.2167 77.5015C27.2167 76.7675 27.0496 76.1733 26.7153 75.7469C26.3809 75.3205 25.9282 75.1038 25.3501 75.1038Z" fill="#1B1918"/>
<path d="M31.9269 80.3045V79.5845C32.1219 79.6754 32.3239 79.7523 32.5259 79.8012C32.7279 79.8501 32.9299 79.8781 33.1249 79.8781C33.6473 79.8781 34.0443 79.7033 34.3229 79.3538C34.6015 79.0043 34.7548 78.4661 34.7966 77.7531C34.6433 77.9767 34.4553 78.1515 34.2184 78.2703C33.9886 78.3892 33.7309 78.4521 33.4453 78.4521C32.8602 78.4521 32.4005 78.2773 32.0592 77.9208C31.7179 77.5643 31.5508 77.082 31.5508 76.4668C31.5508 75.8517 31.7249 75.3833 32.0801 75.0199C32.4354 74.6564 32.909 74.4746 33.4941 74.4746C34.1697 74.4746 34.6851 74.7333 35.0403 75.2575C35.3956 75.7748 35.5767 76.5298 35.5767 77.5224C35.5767 78.4451 35.3607 79.1861 34.9219 79.7383C34.4831 80.2905 33.898 80.5632 33.1597 80.5632C32.9647 80.5632 32.7627 80.5422 32.5538 80.5072C32.3518 80.4653 32.1428 80.4094 31.9199 80.3325L31.9269 80.3045ZM33.501 77.823C33.8563 77.823 34.1349 77.7041 34.3438 77.4595C34.5528 77.2148 34.6572 76.8793 34.6572 76.4598C34.6572 76.0404 34.5528 75.7049 34.3438 75.4602C34.1349 75.2156 33.8563 75.0898 33.501 75.0898C33.1458 75.0898 32.8672 75.2086 32.6582 75.4602C32.4493 75.7049 32.3448 76.0404 32.3448 76.4598C32.3448 76.8793 32.4493 77.2148 32.6582 77.4595C32.8672 77.7041 33.1458 77.823 33.501 77.823Z" fill="#1B1918"/>
<path d="M38.6887 74.4607C39.3434 74.4607 39.8449 74.7193 40.1862 75.2436C40.5275 75.7679 40.7017 76.5158 40.7017 77.5085C40.7017 78.5011 40.5275 79.249 40.1862 79.7663C39.8449 80.2836 39.3434 80.5423 38.6887 80.5423C38.034 80.5423 37.5325 80.2836 37.1912 79.7663C36.8499 79.249 36.6758 78.4941 36.6758 77.5085C36.6758 76.5228 36.8499 75.7679 37.1912 75.2436C37.5325 74.7193 38.034 74.4607 38.6887 74.4607ZM38.6887 75.0898C38.2847 75.0898 37.9783 75.2925 37.7693 75.691C37.5673 76.0894 37.4628 76.6976 37.4628 77.5015C37.4628 78.3054 37.5673 78.9065 37.7693 79.312C37.9713 79.7174 38.2778 79.9131 38.6887 79.9131C39.0997 79.9131 39.4061 79.7104 39.6081 79.312C39.8101 78.9135 39.9146 78.3054 39.9146 77.5015C39.9146 76.6976 39.8101 76.0894 39.6081 75.691C39.4061 75.2855 39.0997 75.0898 38.6887 75.0898Z" fill="#1B1918"/>
<path d="M43.7805 74.4607C44.4352 74.4607 44.9367 74.7193 45.278 75.2436C45.6193 75.7679 45.7935 76.5158 45.7935 77.5085C45.7935 78.5011 45.6193 79.249 45.278 79.7663C44.9367 80.2836 44.4352 80.5423 43.7805 80.5423C43.1258 80.5423 42.6243 80.2836 42.283 79.7663C41.9417 79.249 41.7676 78.4941 41.7676 77.5085C41.7676 76.5228 41.9417 75.7679 42.283 75.2436C42.6243 74.7193 43.1258 74.4607 43.7805 74.4607ZM43.7805 75.0898C43.3765 75.0898 43.0701 75.2925 42.8611 75.691C42.6591 76.0894 42.5546 76.6976 42.5546 77.5015C42.5546 78.3054 42.6591 78.9065 42.8611 79.312C43.0631 79.7174 43.3696 79.9131 43.7805 79.9131C44.1915 79.9131 44.4979 79.7104 44.6999 79.312C44.9019 78.9135 45.0064 78.3054 45.0064 77.5015C45.0064 76.6976 44.9019 76.0894 44.6999 75.691C44.4979 75.2855 44.1915 75.0898 43.7805 75.0898Z" fill="#1B1918"/>
<path d="M47.3254 79.7592H48.614V75.2854L47.207 75.565V74.845L48.6001 74.5654H49.3871V79.7592H50.6757V80.4233H47.3115V79.7592H47.3254Z" fill="#1B1918"/>
<path d="M52.3691 76.271H53.191V77.2706H52.3691V76.271ZM52.3691 79.4306H53.191V80.4302H52.3691V79.4306Z" fill="#1B1918"/>
<path d="M55.6641 79.7592H58.4223V80.4233H54.7168V79.7592C55.0163 79.4447 55.4272 79.0323 55.9427 78.508C56.4581 77.9837 56.7855 77.6482 56.9178 77.4944C57.1685 77.2078 57.3496 76.9701 57.4471 76.7674C57.5447 76.5717 57.6004 76.3759 57.6004 76.1872C57.6004 75.8726 57.4889 75.621 57.273 75.4253C57.0571 75.2295 56.7715 75.1317 56.4233 75.1317C56.1725 75.1317 55.9148 75.1736 55.6362 75.2575C55.3576 75.3414 55.0651 75.4742 54.7516 75.649V74.8451C55.072 74.7192 55.3646 74.6214 55.6432 74.5515C55.9218 74.4816 56.1725 74.4536 56.4024 74.4536C57.0083 74.4536 57.4889 74.6074 57.8511 74.908C58.2133 75.2086 58.3874 75.614 58.3874 76.1243C58.3874 76.362 58.3457 76.5926 58.2551 76.8093C58.1646 77.026 58.0044 77.2777 57.7675 77.5713C57.7049 77.6482 57.4959 77.8649 57.1476 78.2284C56.7994 78.5919 56.3049 79.0952 55.671 79.7523L55.6641 79.7592Z" fill="#1B1918"/>
<path d="M61.7727 74.4607C62.4274 74.4607 62.9289 74.7193 63.2702 75.2436C63.6115 75.7679 63.7856 76.5158 63.7856 77.5085C63.7856 78.5011 63.6115 79.249 63.2702 79.7663C62.9289 80.2836 62.4274 80.5423 61.7727 80.5423C61.118 80.5423 60.6165 80.2836 60.2752 79.7663C59.9339 79.249 59.7598 78.4941 59.7598 77.5085C59.7598 76.5228 59.9339 75.7679 60.2752 75.2436C60.6165 74.7193 61.118 74.4607 61.7727 74.4607ZM61.7727 75.0898C61.3687 75.0898 61.0623 75.2925 60.8533 75.691C60.6513 76.0894 60.5468 76.6976 60.5468 77.5015C60.5468 78.3054 60.6513 78.9065 60.8533 79.312C61.0553 79.7174 61.3618 79.9131 61.7727 79.9131C62.1836 79.9131 62.4901 79.7104 62.6921 79.312C62.8941 78.9135 62.9986 78.3054 62.9986 77.5015C62.9986 76.6976 62.8941 76.0894 62.6921 75.691C62.4901 75.2855 62.1836 75.0898 61.7727 75.0898Z" fill="#1B1918"/>
<path d="M65.3176 79.7592H66.6062V75.2854L65.1992 75.565V74.845L66.5923 74.5654H67.3793V79.7592H68.6679V80.4233H65.3037V79.7592H65.3176Z" fill="#1B1918"/>
<path d="M70.2831 74.5655H73.3826V75.2366H71.0075V76.6696C71.1189 76.6276 71.2373 76.5997 71.3488 76.5787C71.4602 76.5577 71.5786 76.5507 71.6901 76.5507C72.3448 76.5507 72.8602 76.7325 73.2363 77.089C73.6125 77.4455 73.8075 77.9348 73.8075 78.543C73.8075 79.1511 73.6125 79.6614 73.2224 80.0109C72.8324 80.3604 72.2821 80.5352 71.5647 80.5352C71.3209 80.5352 71.0702 80.5142 70.8125 80.4723C70.5617 80.4303 70.297 80.3674 70.0254 80.2836V79.4867C70.2622 79.6125 70.506 79.7103 70.7498 79.7733C70.9936 79.8362 71.2652 79.8641 71.5438 79.8641C71.9965 79.8641 72.3518 79.7453 72.6164 79.5076C72.8811 79.27 73.0135 78.9484 73.0135 78.536C73.0135 78.1236 72.8811 77.802 72.6164 77.5643C72.3518 77.3267 71.9965 77.2078 71.5438 77.2078C71.3348 77.2078 71.1189 77.2288 70.91 77.2777C70.701 77.3267 70.4851 77.3966 70.2692 77.4944V74.5515L70.2831 74.5655Z" fill="#1B1918"/>
<path d="M82.2213 75.0199V75.8588C81.9566 75.6071 81.671 75.4254 81.3715 75.2995C81.072 75.1737 80.7516 75.1178 80.4103 75.1178C79.7417 75.1178 79.2332 75.3205 78.878 75.7329C78.5228 76.1454 78.3486 76.7325 78.3486 77.5085C78.3486 78.2844 78.5228 78.8716 78.878 79.284C79.2332 79.6964 79.7417 79.8991 80.4103 79.8991C80.7516 79.8991 81.072 79.8362 81.3715 79.7174C81.671 79.5916 81.9566 79.4098 82.2213 79.1582V79.983C81.9427 80.1718 81.6501 80.3116 81.3437 80.4094C81.0372 80.5003 80.7098 80.5492 80.3616 80.5492C79.477 80.5492 78.7805 80.2766 78.272 79.7314C77.7636 79.1861 77.5059 78.4452 77.5059 77.5085C77.5059 76.5718 77.7636 75.8238 78.272 75.2786C78.7805 74.7333 79.477 74.4607 80.3616 74.4607C80.7098 74.4607 81.0372 74.5096 81.3506 74.6005C81.6571 74.6914 81.9496 74.8312 82.2213 75.0199Z" fill="#1B1918"/>
<path d="M87.1536 78.0466V78.3961H83.8451C83.873 78.8924 84.0262 79.2699 84.2909 79.5355C84.5556 79.7942 84.9317 79.927 85.4053 79.927C85.6839 79.927 85.9486 79.892 86.2063 79.8221C86.464 79.7522 86.7218 79.6544 86.9795 79.5146V80.1996C86.7218 80.3114 86.4571 80.3953 86.1854 80.4512C85.9138 80.5072 85.6352 80.5351 85.3566 80.5351C84.6601 80.5351 84.1029 80.3324 83.6989 79.92C83.2949 79.5076 83.0859 78.9623 83.0859 78.2633C83.0859 77.5643 83.281 76.9701 83.664 76.5507C84.0541 76.1313 84.5765 75.9146 85.2312 75.9146C85.8232 75.9146 86.2899 76.1033 86.6312 76.4878C86.9725 76.8652 87.1466 77.3825 87.1466 78.0396L87.1536 78.0466ZM86.4362 77.8369C86.4362 77.4384 86.3178 77.1239 86.1088 76.8932C85.8929 76.6555 85.6073 76.5437 85.2521 76.5437C84.8481 76.5437 84.5277 76.6555 84.2909 76.8862C84.0471 77.1169 83.9078 77.4314 83.873 77.8509H86.4362V77.8369Z" fill="#1B1918"/>
<path d="M90.8718 76.7045C90.7882 76.6556 90.7046 76.6207 90.6071 76.5997C90.5096 76.5787 90.4051 76.5647 90.2937 76.5647C89.8897 76.5647 89.5763 76.6976 89.3603 76.9632C89.1444 77.2288 89.033 77.6063 89.033 78.1096V80.4234H88.3086V76.0265H89.033V76.7115C89.1862 76.4459 89.3812 76.2432 89.625 76.1174C89.8688 75.9845 90.1613 75.9216 90.5096 75.9216C90.5583 75.9216 90.6141 75.9216 90.6767 75.9286C90.7394 75.9286 90.8021 75.9426 90.8787 75.9566V76.6976L90.8718 76.7045Z" fill="#1B1918"/>
<path d="M92.3416 74.7821V76.0334H93.8252V76.5926H92.3416V78.9763C92.3416 79.3328 92.3904 79.5635 92.4879 79.6684C92.5854 79.7732 92.7874 79.8221 93.0869 79.8221H93.8252V80.4233H93.0869C92.5297 80.4233 92.1466 80.3184 91.9376 80.1087C91.7287 79.899 91.6172 79.5216 91.6172 78.9693V76.5856H91.0879V76.0264H91.6172V74.7751H92.3416V74.7821Z" fill="#1B1918"/>
<path d="M94.7734 74.3208H95.4908V75.2365H94.7734V74.3208ZM94.7734 76.0334H95.4908V80.4303H94.7734V76.0334Z" fill="#1B1918"/>
<path d="M99.209 74.3208V74.922H98.5195C98.2618 74.922 98.0807 74.9779 97.9832 75.0758C97.8857 75.1806 97.8299 75.3693 97.8299 75.642V76.0334H99.014V76.5926H97.8299V80.4303H97.1056V76.5926H96.416V76.0334H97.1056V75.7259C97.1056 75.2365 97.217 74.88 97.4469 74.6563C97.6767 74.4326 98.0319 74.3208 98.5265 74.3208H99.209Z" fill="#1B1918"/>
<path d="M99.8164 74.3208H100.534V75.2365H99.8164V74.3208ZM99.8164 76.0334H100.534V80.4303H99.8164V76.0334Z" fill="#1B1918"/>
<path d="M105.784 78.0466V78.3961H102.476C102.504 78.8924 102.657 79.2699 102.922 79.5355C103.186 79.7942 103.563 79.927 104.036 79.927C104.315 79.927 104.579 79.892 104.837 79.8221C105.095 79.7522 105.353 79.6544 105.61 79.5146V80.1996C105.353 80.3114 105.088 80.3953 104.816 80.4512C104.545 80.5072 104.273 80.5351 103.987 80.5351C103.291 80.5351 102.734 80.3324 102.33 79.92C101.926 79.5076 101.717 78.9623 101.717 78.2633C101.717 77.5643 101.912 76.9701 102.295 76.5507C102.685 76.1313 103.2 75.9146 103.862 75.9146C104.454 75.9146 104.921 76.1033 105.262 76.4878C105.603 76.8652 105.777 77.3825 105.777 78.0396L105.784 78.0466ZM105.067 77.8369C105.067 77.4384 104.949 77.1239 104.74 76.8932C104.524 76.6555 104.238 76.5437 103.883 76.5437C103.479 76.5437 103.159 76.6555 102.922 76.8862C102.678 77.1169 102.539 77.4314 102.504 77.8509H105.067V77.8369Z" fill="#1B1918"/>
<path d="M109.853 76.6975V74.3208H110.571V80.4303H109.853V79.7732C109.7 80.0389 109.512 80.2276 109.282 80.3534C109.052 80.4792 108.774 80.5422 108.453 80.5422C107.924 80.5422 107.492 80.3324 107.158 79.906C106.823 79.4796 106.656 78.9274 106.656 78.2354C106.656 77.5433 106.823 76.9841 107.158 76.5647C107.492 76.1453 107.924 75.9286 108.453 75.9286C108.774 75.9286 109.052 75.9915 109.282 76.1173C109.512 76.2431 109.707 76.4389 109.853 76.6975ZM107.402 78.2354C107.402 78.7666 107.513 79.186 107.729 79.4866C107.945 79.7872 108.244 79.941 108.627 79.941C109.01 79.941 109.31 79.7872 109.526 79.4866C109.742 79.186 109.853 78.7666 109.853 78.2354C109.853 77.7041 109.742 77.2847 109.526 76.9841C109.31 76.6835 109.01 76.5297 108.627 76.5297C108.244 76.5297 107.945 76.6835 107.729 76.9841C107.513 77.2847 107.402 77.7041 107.402 78.2354Z" fill="#1B1918"/>
<path d="M119.005 75.0199V75.8588C118.741 75.6071 118.455 75.4254 118.156 75.2995C117.856 75.1737 117.536 75.1178 117.194 75.1178C116.526 75.1178 116.017 75.3205 115.662 75.7329C115.307 76.1454 115.133 76.7325 115.133 77.5085C115.133 78.2844 115.307 78.8716 115.662 79.284C116.017 79.6964 116.526 79.8991 117.194 79.8991C117.536 79.8991 117.856 79.8362 118.156 79.7174C118.455 79.5916 118.741 79.4098 119.005 79.1582V79.983C118.727 80.1718 118.434 80.3116 118.128 80.4094C117.821 80.5003 117.494 80.5492 117.146 80.5492C116.261 80.5492 115.565 80.2766 115.056 79.7314C114.548 79.1861 114.297 78.4452 114.297 77.5085C114.297 76.5718 114.555 75.8238 115.056 75.2786C115.565 74.7333 116.261 74.4607 117.146 74.4607C117.494 74.4607 117.821 74.5096 118.135 74.6005C118.448 74.6914 118.734 74.8312 119.005 75.0199Z" fill="#1B1918"/>
<path d="M121.888 75.9216C122.515 75.9216 123.002 76.1243 123.365 76.5368C123.727 76.9492 123.901 77.5084 123.901 78.2354C123.901 78.9624 123.72 79.5216 123.365 79.9271C123.009 80.3325 122.515 80.5422 121.888 80.5422C121.261 80.5422 120.767 80.3395 120.411 79.9271C120.056 79.5146 119.875 78.9554 119.875 78.2354C119.875 77.5154 120.049 76.9492 120.411 76.5368C120.767 76.1313 121.261 75.9216 121.888 75.9216ZM121.888 76.5368C121.505 76.5368 121.198 76.6906 120.975 76.9911C120.753 77.2917 120.641 77.7042 120.641 78.2354C120.641 78.7667 120.753 79.1721 120.975 79.4797C121.198 79.7873 121.505 79.9341 121.895 79.9341C122.285 79.9341 122.584 79.7803 122.807 79.4797C123.03 79.1791 123.142 78.7597 123.142 78.2424C123.142 77.7251 123.03 77.3057 122.807 77.0051C122.584 76.6976 122.278 76.5508 121.895 76.5508L121.888 76.5368Z" fill="#1B1918"/>
<path d="M128.504 76.8723C128.685 76.5508 128.901 76.3061 129.152 76.1523C129.403 75.9985 129.695 75.9216 130.037 75.9216C130.496 75.9216 130.845 76.0824 131.095 76.404C131.346 76.7255 131.465 77.1799 131.465 77.7741V80.4304H130.74V77.802C130.74 77.3826 130.664 77.068 130.517 76.8653C130.371 76.6626 130.141 76.5577 129.835 76.5577C129.459 76.5577 129.166 76.6836 128.95 76.9282C128.734 77.1729 128.623 77.5154 128.623 77.9418V80.4234H127.898V77.795C127.898 77.3686 127.822 77.061 127.676 76.8583C127.529 76.6556 127.299 76.5508 126.986 76.5508C126.617 76.5508 126.324 76.6766 126.108 76.9282C125.892 77.1799 125.781 77.5154 125.781 77.9418V80.4234H125.057V76.0265H125.781V76.7115C125.948 76.4389 126.143 76.2432 126.373 76.1174C126.603 75.9915 126.875 75.9216 127.188 75.9216C127.501 75.9216 127.78 76.0055 128.003 76.1663C128.226 76.3271 128.393 76.5647 128.497 76.8723H128.504Z" fill="#1B1918"/>
<path d="M133.59 79.7662V82.101H132.865V76.0334H133.59V76.7045C133.743 76.4389 133.931 76.2501 134.161 76.1243C134.391 75.9985 134.669 75.9355 134.99 75.9355C135.519 75.9355 135.951 76.1453 136.285 76.5717C136.619 76.9981 136.787 77.5503 136.787 78.2423C136.787 78.9344 136.619 79.4936 136.285 79.913C135.951 80.3324 135.519 80.5491 134.99 80.5491C134.669 80.5491 134.391 80.4862 134.161 80.3604C133.931 80.2346 133.736 80.0388 133.59 79.7802V79.7662ZM136.041 78.2284C136.041 77.6971 135.93 77.2777 135.714 76.9771C135.498 76.6765 135.199 76.5227 134.815 76.5227C134.432 76.5227 134.133 76.6765 133.917 76.9771C133.701 77.2777 133.59 77.6971 133.59 78.2284C133.59 78.7596 133.701 79.179 133.917 79.4796C134.133 79.7802 134.432 79.934 134.815 79.934C135.199 79.934 135.498 79.7802 135.714 79.4796C135.93 79.179 136.041 78.7596 136.041 78.2284Z" fill="#1B1918"/>
<path d="M141.406 77.9207V80.4302H140.688V79.7661C140.521 80.0318 140.319 80.2275 140.075 80.3533C139.831 80.4791 139.532 80.5421 139.177 80.5421C138.731 80.5421 138.369 80.4162 138.104 80.1646C137.839 79.9129 137.707 79.5774 137.707 79.151C137.707 78.6547 137.874 78.2842 138.202 78.0325C138.529 77.7809 139.023 77.6551 139.678 77.6551H140.688V77.5852C140.688 77.2566 140.577 76.998 140.361 76.8162C140.145 76.6345 139.838 76.5436 139.441 76.5436C139.191 76.5436 138.947 76.5716 138.71 76.6345C138.473 76.6974 138.243 76.7883 138.027 76.9071V76.236C138.292 76.1312 138.55 76.0613 138.794 76.0054C139.037 75.9494 139.281 75.9285 139.518 75.9285C140.152 75.9285 140.625 76.0962 140.939 76.4248C141.252 76.7533 141.406 77.2566 141.406 77.9277V77.9207ZM139.971 78.2213C139.393 78.2213 138.989 78.2912 138.766 78.424C138.543 78.5568 138.431 78.7875 138.431 79.109C138.431 79.3677 138.515 79.5704 138.682 79.7172C138.849 79.864 139.079 79.9409 139.372 79.9409C139.769 79.9409 140.089 79.8011 140.333 79.5145C140.577 79.2279 140.695 78.8504 140.695 78.3821V78.2213H139.978H139.971Z" fill="#1B1918"/>
<path d="M146.531 77.7741V80.4304H145.813V77.802C145.813 77.3826 145.73 77.075 145.57 76.8653C145.409 76.6556 145.166 76.5577 144.845 76.5577C144.455 76.5577 144.149 76.6836 143.926 76.9282C143.703 77.1799 143.592 77.5154 143.592 77.9418V80.4234H142.867V76.0265H143.592V76.7115C143.766 76.4459 143.968 76.2502 144.198 76.1174C144.427 75.9845 144.699 75.9216 145.006 75.9216C145.507 75.9216 145.89 76.0754 146.148 76.39C146.406 76.7045 146.538 77.1659 146.538 77.7671L146.531 77.7741Z" fill="#1B1918"/>
<path d="M149.785 80.8358C149.583 81.3601 149.381 81.7026 149.192 81.8634C148.997 82.0241 148.74 82.101 148.419 82.101H147.841V81.4929H148.266C148.468 81.4929 148.621 81.4439 148.726 81.3531C148.83 81.2622 148.956 81.0385 149.088 80.689L149.22 80.3604L147.451 76.0334H148.21L149.576 79.4727L150.948 76.0334H151.707L149.785 80.8358Z" fill="#1B1918"/>
<path fill-rule="evenodd" clip-rule="evenodd" d="M84.123 33.6162L98.6663 25.7382V20.2019H105.604L105.687 22.7184L115.717 18.0139L147.478 33.2807L141.795 34.6298L115.216 21.8726L103.514 27.7514V22.4947H100.679L100.839 28.751L88.8036 34.9654L84.123 33.6162Z" fill="#BA4C19"/>
<path d="M138.764 13.3445H142.845V13.8967H141.132V18.1888H140.477V13.8967H138.764V13.3445Z" fill="#1B1918"/>
<path d="M143.473 13.3445H144.448L145.681 16.6369L146.92 13.3445H147.896V18.1888H147.262V13.9387L146.015 17.259H145.36L144.113 13.9387V18.1888H143.48V13.3445H143.473Z" fill="#1B1918"/>
<path fill-rule="evenodd" clip-rule="evenodd" d="M129.8 8.81476C130.093 8.96155 129.995 8.98252 129.995 8.98252C129.995 8.98252 129.751 7.22097 129.285 6.92039C127.529 5.80194 127.021 8.4233 124.89 8.12971C123.378 7.92 123.114 7.1301 122.382 5.77398C121.651 4.41087 121.128 3.73282 119.568 2.99884C118.001 2.26485 117.165 1.21631 116.538 0.643107C115.912 0.0699029 115.73 0 115.73 0C115.73 0 116.121 1.06252 117.005 1.90136C117.89 2.7332 118.203 2.99884 118.203 2.99884C118.203 2.99884 118.363 3.20854 118.099 3.15961C117.834 3.11068 116.74 2.21592 116.587 2.06214C116.427 1.90835 116.636 2.63534 117.005 3.15961C117.367 3.68388 118.085 4.12427 118.203 4.25709C118.955 5.06796 119.993 4.80233 120.655 5.45942C121.33 6.13748 121.595 7.24194 122.013 7.81515C122.292 8.19961 122.807 8.45825 123.253 8.73786C124.103 9.27612 124.416 9.27612 124.827 9.32505C124.827 9.32505 124.521 10.2757 123.636 10.5903C122.751 10.9049 121.546 10.6392 121.546 10.6392C121.546 10.6392 120.975 11.3243 120.606 11.9534C120.244 12.5825 120.035 12.7363 119.826 12.8971C119.617 13.0509 119.457 13.1068 119.457 13.1068C119.457 13.1068 119.408 13.4703 119.617 13.7849C119.826 14.0994 119.979 14.1483 119.979 14.1483C119.979 14.1483 121.651 13.3654 122.8 13.0998C123.949 12.8342 125.043 12.939 126.088 12.3169C127.132 11.6878 127.62 10.9608 127.968 9.91223C128.108 9.49282 128.602 8.80777 128.909 8.50019C129.013 8.39534 129.501 8.66796 129.793 8.81476H129.8Z" fill="#DE610D"/>
<path fill-rule="evenodd" clip-rule="evenodd" d="M123.398 8.89864C123.398 8.89864 123.677 8.24854 124.011 8.1367C124.345 8.01786 124.429 8.04583 124.429 8.04583C124.429 8.04583 123.67 8.15767 122.883 6.70369C120.918 3.07573 121.002 4.24311 118.216 2.04816C116.704 0.859806 115.736 0 115.736 0C115.736 0 115.736 0.363495 116.509 1.34214C117.276 2.32078 118.153 2.9499 118.153 2.9499C118.153 2.9499 118.313 3.20854 118.111 3.15961C117.902 3.11068 117.331 2.68427 116.962 2.32078C116.6 1.95728 116.579 2.04816 116.579 2.04816C116.579 2.04816 116.586 2.90097 117.297 3.49515C118 4.08932 118.153 4.23612 118.32 4.36893C118.481 4.50175 118.418 4.57864 118.418 4.57864C118.418 4.57864 120.187 4.87922 120.995 5.87884C121.803 6.87845 121.538 7.43767 122.221 8.05282C122.903 8.66097 123.391 8.90563 123.391 8.90563L123.398 8.89864Z" fill="#BA4C19"/>
<path fill-rule="evenodd" clip-rule="evenodd" d="M125.07 9.17136C125.07 9.17136 124.081 9.2832 123.162 8.62611C122.173 7.92009 122.096 7.68941 121.351 6.22844C121.135 5.80903 120.836 5.57835 120.571 5.37563C120.32 5.1799 120.007 4.9632 119.443 4.8234C119.059 4.72553 118.572 4.66961 118.314 4.56475C117.611 4.27815 116.963 3.73291 116.963 3.73291C117.033 4.56475 118.516 5.24281 119.22 5.76708C119.22 5.76708 119.491 6.03272 119.164 5.97679C118.843 5.92087 118.516 5.76708 118.147 5.55738C117.771 5.34767 117.715 5.29175 117.715 5.29175C117.715 5.29175 117.931 5.76009 118.628 6.3333C119.324 6.9065 119.86 7.06728 119.86 7.06728C119.86 7.06728 120.021 7.27699 119.86 7.27699C119.7 7.27699 119.644 7.33291 119.108 7.1232C118.572 6.91349 118.572 6.80864 118.572 6.80864C118.572 6.80864 118.788 7.4867 119.756 7.80126C120.724 8.11582 121.421 8.37446 121.421 8.37446C122.054 8.89174 120.536 8.53524 120.508 8.52825C119.756 8.4234 119.54 8.21369 119.54 8.21369C119.54 8.21369 119.86 8.6331 120.348 8.89175C120.829 9.15738 121.637 9.31116 121.637 9.31116C122.117 9.46495 121.393 9.76553 120.508 9.36009C120.508 9.36009 120.78 9.77951 121.532 9.88437C123.406 10.143 121.17 10.1011 121.212 10.15C122.068 10.9818 123.545 10.9539 124.179 10.4716C124.82 9.98922 125.07 9.16437 125.07 9.16437V9.17136Z" fill="#1A4C1F"/>
<path fill-rule="evenodd" clip-rule="evenodd" d="M125.001 7.71733C125.001 7.71733 125.245 7.7383 125.523 7.70335C125.698 7.68237 125.886 7.64043 126.046 7.56354C126.464 7.35383 127.035 6.82956 127.508 6.61985C127.975 6.41014 128.184 6.39616 128.184 6.39616C128.184 6.39616 128.658 4.57868 128.707 4.26412C128.755 3.94956 128.707 3.69092 128.707 3.69092C128.707 3.69092 128.498 3.79577 128.184 4.36898C127.871 4.94218 127.766 4.94218 127.766 4.94218C127.766 4.94218 127.717 4.73247 127.717 4.62762C127.717 4.52276 127.926 4.05441 127.926 4.05441C127.926 4.05441 127.662 4.10334 127.251 5.15189C126.833 6.20043 126.784 6.515 126.784 6.515L126.68 6.78063C126.68 6.78063 126.631 6.78063 126.631 6.57092C126.631 6.36121 126.582 6.04665 126.631 5.78801C126.68 5.52936 126.784 5.31267 126.784 5.31267C126.784 5.31267 126.366 5.88587 126.206 6.36121C126.053 6.82956 126.102 7.14412 126.102 7.14412C126.102 7.14412 125.941 7.3049 125.893 7.19305C125.844 7.0882 125.893 6.66878 125.893 6.66878C125.893 6.66878 125.774 6.87849 125.628 7.19305C125.482 7.50762 125.482 7.56354 125.482 7.56354C125.482 7.56354 125.294 7.42373 125.252 7.33985C125.217 7.25597 125.168 7.20004 125.168 7.20004C125.168 7.20004 125.064 7.36082 125.008 7.51461C124.959 7.66839 125.008 7.72432 125.008 7.72432L125.001 7.71733Z" fill="#BA4C19"/>
<path fill-rule="evenodd" clip-rule="evenodd" d="M128.547 7.40283C128.693 7.40283 128.811 7.52167 128.811 7.66846C128.811 7.89914 128.533 8.01798 128.366 7.8572C128.198 7.68943 128.317 7.40982 128.547 7.40982V7.40283Z" fill="white"/>
<path fill-rule="evenodd" clip-rule="evenodd" d="M119.47 13.1067C119.47 13.1067 119.47 13.5821 119.631 13.7848C119.791 13.9945 119.993 14.1483 119.993 14.1483C119.993 14.1483 119.575 15.092 119.157 15.5603C118.739 16.0357 118.509 16.1545 118.001 16.2733C117.492 16.3992 116.949 16.2733 116.949 16.2733C116.949 16.2733 118.168 16.1335 118.53 15.9238C119.192 15.5463 118.69 15.2947 118.217 15.5324C117.98 15.6512 117.799 15.7141 117.43 15.77C117.067 15.819 116.698 15.77 116.698 15.77C116.698 15.77 117.687 15.6092 118.105 15.3995C118.523 15.1898 118.941 14.9312 118.941 14.9312C118.941 14.9312 119.129 14.5467 118.641 14.6306C118.154 14.7145 118.265 14.9312 117.583 15.1968C116.907 15.4625 116.12 15.4065 115.807 15.3506C115.493 15.3017 115.075 15.036 115.075 15.036C115.075 15.036 115.639 15.085 116.58 15.036C117.527 14.9871 117.945 14.7704 117.945 14.7704C117.945 14.7704 118.154 14.5048 117.84 14.5048C117.527 14.5048 116.956 14.6656 116.169 14.6656C115.382 14.6656 115.02 14.0364 115.02 14.0364C115.02 14.0364 115.904 14.351 116.635 14.351C117.367 14.351 118.042 14.2461 118.042 14.2461C118.042 14.2461 118.091 13.9316 117.938 13.9316C117.785 13.9316 117.158 14.0364 116.475 13.9316C115.8 13.8267 115.639 13.8267 115.277 13.6729C114.915 13.5192 114.859 13.1487 114.859 13.1487C114.859 13.1487 115.535 13.4632 116.266 13.5681C116.998 13.6729 118.356 13.6729 118.356 13.6729C118.356 13.6729 118.46 13.4073 118.3 13.3025C118.147 13.1976 117.938 13.3514 116.837 13.1487C115.744 12.939 115.382 12.7292 115.382 12.7292C115.382 12.7292 117.311 13.0438 118.042 13.0438C118.774 13.0438 119.449 13.0997 119.449 13.0997L119.47 13.1067Z" fill="#AB773E"/>
<path fill-rule="evenodd" clip-rule="evenodd" d="M19.8398 66.4008C34.9752 72.028 74.9274 68.0295 99.3821 67.2047C118.481 66.5616 136.52 68.7495 136.52 68.7495C136.52 68.7495 119.303 65.3942 99.41 66.233C79.5175 67.0719 72.4826 67.5402 64.6398 68.0785C46.4398 69.3297 24.9453 68.6726 19.8398 66.4008Z" fill="#BA4C19"/>
<path fill-rule="evenodd" clip-rule="evenodd" d="M19.7637 67.9037C34.899 73.5379 74.8512 69.5325 99.306 68.7076C118.404 68.0575 136.444 70.2524 136.444 70.2524C136.444 70.2524 119.226 66.8971 99.3338 67.7359C79.4413 68.5748 72.4065 69.0361 64.5637 69.5814C46.3706 70.8396 24.8761 70.1825 19.7637 67.9037Z" fill="#1A4C1F"/>
<path d="M148.948 11.9114H138.799C136.691 11.9114 134.982 13.6264 134.982 15.7421C134.982 17.8577 136.691 19.5727 138.799 19.5727H148.948C151.056 19.5727 152.765 17.8577 152.765 15.7421C152.765 13.6264 151.056 11.9114 148.948 11.9114Z" stroke="#231F20" stroke-width="0.5" stroke-miterlimit="10"/>
</svg>
