<svg width="17" height="17" viewBox="0 0 17 17" fill="none" xmlns="http://www.w3.org/2000/svg">
<path d="M10.2711 1.58812C10.2923 1.5088 10.329 1.43444 10.3789 1.36929C10.4289 1.30413 10.4912 1.24946 10.5623 1.2084C10.6334 1.16733 10.7119 1.14068 10.7933 1.12996C10.8747 1.11925 10.9574 1.12467 11.0367 1.14594C12.1954 1.44824 13.2525 2.05394 14.0992 2.90065C14.9459 3.74736 15.5516 4.80448 15.8539 5.96312C15.8752 6.04243 15.8806 6.12515 15.8699 6.20655C15.8592 6.28796 15.8325 6.36645 15.7915 6.43755C15.7504 6.50866 15.6957 6.57097 15.6306 6.62093C15.5654 6.6709 15.491 6.70753 15.4117 6.72875C15.3589 6.74262 15.3046 6.7497 15.25 6.74984C15.1123 6.74984 14.9784 6.70434 14.8692 6.62042C14.76 6.5365 14.6816 6.41886 14.6461 6.28578C14.3995 5.33994 13.9052 4.47696 13.2141 3.7858C12.5229 3.09464 11.6599 2.6003 10.7141 2.35375C10.6347 2.33262 10.5602 2.29604 10.495 2.24611C10.4298 2.19618 10.375 2.13388 10.3339 2.06277C10.2927 1.99166 10.266 1.91314 10.2552 1.8317C10.2445 1.75025 10.2499 1.66748 10.2711 1.58812ZM10.0891 4.85375C11.1664 5.14125 11.8586 5.83344 12.1461 6.91078C12.1816 7.04386 12.26 7.1615 12.3692 7.24542C12.4784 7.32934 12.6123 7.37484 12.75 7.37484C12.8046 7.3747 12.8589 7.36762 12.9117 7.35375C12.991 7.33253 13.0654 7.2959 13.1306 7.24593C13.1957 7.19597 13.2504 7.13366 13.2915 7.06255C13.3325 6.99145 13.3592 6.91296 13.3699 6.83155C13.3806 6.75015 13.3752 6.66743 13.3539 6.58812C12.9539 5.09125 11.9086 4.04594 10.4117 3.64594C10.2516 3.60315 10.081 3.62574 9.93745 3.70874C9.79394 3.79174 9.68928 3.92835 9.64649 4.08851C9.6037 4.24868 9.6263 4.41928 9.7093 4.56279C9.79229 4.7063 9.9289 4.81096 10.0891 4.85375ZM16.4906 12.303C16.3513 13.3616 15.8314 14.3333 15.0281 15.0366C14.2247 15.7399 13.1927 16.1268 12.125 16.1248C5.92188 16.1248 0.875007 11.078 0.875007 4.87484C0.873093 3.8071 1.25992 2.77517 1.96324 1.97179C2.66655 1.16841 3.63826 0.648519 4.69688 0.509217C4.96458 0.47653 5.23567 0.531297 5.46968 0.665341C5.7037 0.799385 5.88809 1.00552 5.99532 1.25297L7.64532 4.93656V4.94594C7.72742 5.13535 7.76133 5.34215 7.74401 5.54787C7.7267 5.75359 7.6587 5.95181 7.5461 6.12484C7.53204 6.14594 7.51719 6.16547 7.50157 6.185L5.87501 8.11312C6.46016 9.30219 7.70391 10.535 8.9086 11.1217L10.8102 9.50375C10.8288 9.48805 10.8484 9.47344 10.8688 9.46C11.0416 9.34469 11.2405 9.2743 11.4475 9.2552C11.6544 9.23611 11.8628 9.2689 12.0539 9.35062L12.0641 9.35531L15.7445 11.0045C15.9924 11.1114 16.1991 11.2956 16.3335 11.5297C16.468 11.7637 16.5231 12.035 16.4906 12.303ZM15.25 12.1467C15.25 12.1467 15.2445 12.1467 15.2414 12.1467L11.5695 10.5022L9.66719 12.1202C9.64874 12.1358 9.62944 12.1504 9.60938 12.1639C9.4295 12.2839 9.22157 12.3552 9.0059 12.3708C8.79023 12.3864 8.5742 12.3458 8.37891 12.253C6.91563 11.5459 5.45704 10.0983 4.74923 8.65062C4.6555 8.45676 4.61344 8.24197 4.62713 8.02708C4.64082 7.81218 4.70978 7.60447 4.82735 7.42406C4.8406 7.40288 4.85549 7.38276 4.87188 7.3639L6.50001 5.43344L4.85938 1.76156C4.85907 1.75844 4.85907 1.7553 4.85938 1.75219C4.10177 1.85101 3.40616 2.22263 2.90283 2.79743C2.3995 3.37224 2.12296 4.11081 2.12501 4.87484C2.1279 7.52612 3.1824 10.068 5.05714 11.9427C6.93187 13.8174 9.47373 14.8719 12.125 14.8748C12.8886 14.8775 13.6269 14.6019 14.2021 14.0997C14.7772 13.5974 15.1497 12.9029 15.25 12.1459V12.1467Z" fill="#1E5724"/>
</svg>
