<svg width="18" height="17" viewBox="0 0 18 17" fill="none" xmlns="http://www.w3.org/2000/svg">
<path d="M17.6316 5.6781L9.38156 0.178103C9.26859 0.102726 9.13581 0.0625 9 0.0625C8.86419 0.0625 8.73141 0.102726 8.61844 0.178103L0.368438 5.6781C0.274259 5.74094 0.197056 5.82606 0.143685 5.9259C0.0903138 6.02575 0.0624266 6.13723 0.0625001 6.25045V15.1879C0.0625001 15.5526 0.207366 15.9024 0.465228 16.1602C0.723091 16.4181 1.07283 16.5629 1.4375 16.5629H16.5625C16.9272 16.5629 17.2769 16.4181 17.5348 16.1602C17.7926 15.9024 17.9375 15.5526 17.9375 15.1879V6.25045C17.9376 6.13723 17.9097 6.02575 17.8563 5.9259C17.8029 5.82606 17.7257 5.74094 17.6316 5.6781ZM6.31188 11.0629L1.4375 14.5004V7.58506L6.31188 11.0629ZM7.71867 11.7504H10.2813L15.148 15.1879H2.85203L7.71867 11.7504ZM11.6881 11.0629L16.5625 7.58506V14.5004L11.6881 11.0629ZM9 1.57631L16.0391 6.26935L10.2813 10.3754H7.72039L1.96258 6.26935L9 1.57631Z" fill="#1E5724"/>
</svg>
