<svg width="18" height="18" viewBox="0 0 18 18" fill="none" xmlns="http://www.w3.org/2000/svg">
<path d="M7.75 5.25C7.75 5.00277 7.82331 4.7611 7.96066 4.55554C8.09801 4.34998 8.29324 4.18976 8.52165 4.09515C8.75005 4.00054 9.00139 3.97579 9.24386 4.02402C9.48634 4.07225 9.70907 4.1913 9.88388 4.36612C10.0587 4.54093 10.1778 4.76366 10.226 5.00614C10.2742 5.24861 10.2495 5.49995 10.1549 5.72835C10.0602 5.95676 9.90002 6.15199 9.69446 6.28934C9.4889 6.42669 9.24723 6.5 9 6.5C8.66848 6.5 8.35054 6.3683 8.11612 6.13388C7.8817 5.89946 7.75 5.58152 7.75 5.25ZM4 5.25C4 3.92392 4.52678 2.65215 5.46447 1.71447C6.40215 0.776784 7.67392 0.25 9 0.25C10.3261 0.25 11.5979 0.776784 12.5355 1.71447C13.4732 2.65215 14 3.92392 14 5.25C14 9.93359 9.50156 12.5578 9.3125 12.668C9.21805 12.722 9.11114 12.7504 9.00234 12.7504C8.89355 12.7504 8.78664 12.722 8.69219 12.668C8.49844 12.5578 4 9.9375 4 5.25ZM5.25 5.25C5.25 8.54688 8.05 10.7352 9 11.3828C9.94922 10.7359 12.75 8.54688 12.75 5.25C12.75 4.25544 12.3549 3.30161 11.6517 2.59835C10.9484 1.89509 9.99456 1.5 9 1.5C8.00544 1.5 7.05161 1.89509 6.34835 2.59835C5.64509 3.30161 5.25 4.25544 5.25 5.25ZM14.8414 10.5336C14.6876 10.4828 14.52 10.4937 14.3741 10.564C14.2281 10.6343 14.1152 10.7585 14.0591 10.9105C14.0029 11.0625 14.008 11.2303 14.0732 11.3786C14.1384 11.5269 14.2587 11.6441 14.4086 11.7055C15.6984 12.1828 16.5 12.8219 16.5 13.375C16.5 14.4187 13.6469 15.875 9 15.875C4.35313 15.875 1.5 14.4187 1.5 13.375C1.5 12.8219 2.30156 12.1828 3.59141 11.7063C3.74134 11.6449 3.86158 11.5277 3.92679 11.3794C3.99199 11.2311 3.99707 11.0633 3.94094 10.9113C3.88481 10.7593 3.77187 10.6351 3.62592 10.5648C3.47997 10.4945 3.31242 10.4836 3.15859 10.5344C1.28281 11.2258 0.25 12.2352 0.25 13.375C0.25 15.8109 4.75859 17.125 9 17.125C13.2414 17.125 17.75 15.8109 17.75 13.375C17.75 12.2352 16.7172 11.2258 14.8414 10.5336Z" fill="#1E5724"/>
</svg>
