<svg width="24" height="24" viewBox="0 0 24 24" fill="none" xmlns="http://www.w3.org/2000/svg">
<path d="M20.9 2H3.1C2.80827 2 2.52847 2.11589 2.32218 2.32218C2.11589 2.52847 2 2.80827 2 3.1V20.9C2 21.1918 2.11589 21.4715 2.32218 21.6778C2.52847 21.8841 2.80827 22 3.1 22H12.68V14.2499H10.08V11.25H12.68V9C12.6262 8.47176 12.6885 7.93812 12.8627 7.43653C13.037 6.93495 13.3188 6.47754 13.6885 6.09641C14.0582 5.71527 14.5068 5.41964 15.0028 5.23024C15.4989 5.04084 16.0303 4.96225 16.56 5C17.3383 4.99463 18.1164 5.03469 18.8899 5.12V7.82H17.3C16.04 7.82 15.8 8.42 15.8 9.29V11.22H18.8L18.4099 14.22H15.8V22H20.9C21.0445 22 21.1875 21.9715 21.321 21.9162C21.4544 21.861 21.5756 21.78 21.6778 21.6778C21.78 21.5756 21.861 21.4544 21.9162 21.321C21.9715 21.1875 22 21.0445 22 20.9V3.1C22 2.95555 21.9715 2.81251 21.9162 2.67904C21.861 2.54559 21.78 2.42433 21.6778 2.32218C21.5756 2.22004 21.4544 2.13902 21.321 2.08373C21.1875 2.02845 21.0445 2 20.9 2Z" fill="#1E5724"/>
</svg>
