<svg width="24" height="24" viewBox="0 0 24 24" fill="none" xmlns="http://www.w3.org/2000/svg">
<path d="M13.0281 2C14.1531 2.00301 14.7241 2.00901 15.2171 2.02301L15.4111 2.03C15.6351 2.038 15.8561 2.048 16.1231 2.06C17.1871 2.11 17.9131 2.278 18.5501 2.52501C19.2101 2.77901 19.7661 3.12299 20.3221 3.678C20.8308 4.17773 21.2242 4.78247 21.4751 5.45C21.7221 6.08699 21.8901 6.81299 21.9401 7.878C21.9521 8.144 21.9621 8.36501 21.9701 8.59L21.9761 8.784C21.9911 9.276 21.9971 9.84701 21.9991 10.972L22.0001 11.718V13.028C22.0025 13.7575 21.9949 14.4868 21.9771 15.216L21.9711 15.4099C21.9631 15.635 21.9531 15.856 21.9411 16.1219C21.8911 17.187 21.7211 17.912 21.4751 18.5499C21.2242 19.2176 20.8308 19.8223 20.3221 20.3221C19.8223 20.8307 19.2176 21.2242 18.5501 21.475C17.9131 21.7221 17.1871 21.8901 16.1231 21.94L15.4111 21.9699L15.2171 21.976C14.7241 21.9899 14.1531 21.997 13.0281 21.999L12.2821 22H10.9731C10.2434 22.0025 9.51362 21.9949 8.78409 21.977L8.59009 21.971C8.3527 21.9621 8.11537 21.9516 7.87809 21.94C6.81409 21.8901 6.08809 21.7221 5.45009 21.475C4.78292 21.224 4.17853 20.8305 3.67909 20.3221C3.17003 19.8224 2.7762 19.2176 2.52509 18.5499C2.27809 17.913 2.11009 17.187 2.06009 16.1219L2.03009 15.4099L2.02509 15.216C2.00666 14.4868 1.99832 13.7575 2.00009 13.028V10.972C1.99733 10.2426 2.00466 9.5132 2.02209 8.784L2.02909 8.59C2.03709 8.36501 2.04709 8.144 2.05909 7.878C2.10909 6.81299 2.27709 6.088 2.52409 5.45C2.77579 4.78219 3.17031 4.17743 3.68009 3.678C4.17925 3.16955 4.78328 2.77607 5.45009 2.52501C6.08809 2.278 6.81309 2.11 7.87809 2.06C8.14409 2.048 8.36609 2.038 8.59009 2.03L8.78409 2.024C9.51328 2.00623 10.2427 1.99857 10.9721 2.00099L13.0281 2ZM12.0001 7C10.674 7 9.40224 7.52679 8.46456 8.46446C7.52688 9.40215 7.00009 10.6739 7.00009 12C7.00009 13.3261 7.52688 14.5978 8.46456 15.5355C9.40224 16.4732 10.674 17 12.0001 17C13.3262 17 14.5979 16.4732 15.5356 15.5355C16.4733 14.5978 17.0001 13.3261 17.0001 12C17.0001 10.6739 16.4733 9.40215 15.5356 8.46446C14.5979 7.52679 13.3262 7 12.0001 7ZM12.0001 9C12.3941 8.99994 12.7841 9.07747 13.1482 9.22817C13.5122 9.37887 13.8429 9.59979 14.1216 9.87833C14.4002 10.1569 14.6212 10.4875 14.772 10.8515C14.9229 11.2154 15.0005 11.6055 15.0006 11.9995C15.0006 12.3935 14.9231 12.7836 14.7725 13.1476C14.6217 13.5116 14.4008 13.8423 14.1223 14.121C13.8438 14.3996 13.5131 14.6206 13.1491 14.7714C12.7852 14.9223 12.395 14.9999 12.0011 15C11.2054 15 10.4424 14.6839 9.87977 14.1213C9.31716 13.5587 9.00109 12.7956 9.00109 12C9.00109 11.2044 9.31716 10.4413 9.87977 9.87868C10.4424 9.31607 11.2054 9 12.0011 9M17.2511 5.5C16.9195 5.5 16.6016 5.6317 16.3671 5.86612C16.1328 6.10053 16.0011 6.41848 16.0011 6.75C16.0011 7.08151 16.1328 7.39947 16.3671 7.63388C16.6016 7.8683 16.9195 8 17.2511 8C17.5827 8 17.9006 7.8683 18.135 7.63388C18.3695 7.39947 18.5011 7.08151 18.5011 6.75C18.5011 6.41848 18.3695 6.10053 18.135 5.86612C17.9006 5.6317 17.5827 5.5 17.2511 5.5Z" fill="#1E5724"/>
</svg>
