<svg width="24" height="24" viewBox="0 0 24 24" fill="none" xmlns="http://www.w3.org/2000/svg">
<path d="M20.4702 2.00014H3.53013C3.33971 1.99749 3.15063 2.03238 2.9737 2.10282C2.79677 2.17326 2.63543 2.27785 2.49893 2.41065C2.36243 2.54344 2.25342 2.70181 2.17812 2.87675C2.10284 3.05167 2.06274 3.23972 2.06013 3.43014V20.5702C2.06274 20.7606 2.10284 20.9486 2.17812 21.1235C2.25342 21.2984 2.36243 21.4568 2.49893 21.5896C2.63543 21.7224 2.79677 21.827 2.9737 21.8975C3.15063 21.9679 3.33971 22.0028 3.53013 22.0001H20.4702C20.6606 22.0028 20.8496 21.9679 21.0265 21.8975C21.2035 21.827 21.3649 21.7224 21.5013 21.5896C21.6378 21.4568 21.7469 21.2984 21.8222 21.1235C21.8975 20.9486 21.9376 20.7606 21.9401 20.5702V3.43014C21.9376 3.23972 21.8975 3.05167 21.8222 2.87675C21.7469 2.70181 21.6378 2.54344 21.5013 2.41065C21.3649 2.27785 21.2035 2.17326 21.0265 2.10282C20.8496 2.03238 20.6606 1.99749 20.4702 2.00014ZM8.09013 18.7401H5.09013V9.74014H8.09013V18.7401ZM6.59013 8.48013C6.1764 8.48013 5.7796 8.31578 5.48704 8.02322C5.19449 7.73066 5.03013 7.33387 5.03013 6.92014C5.03013 6.5064 5.19449 6.10961 5.48704 5.81705C5.7796 5.52449 6.1764 5.36014 6.59013 5.36014C6.80983 5.33522 7.0323 5.35699 7.24301 5.42402C7.45371 5.49105 7.64787 5.60183 7.81279 5.7491C7.97771 5.89637 8.10966 6.07682 8.2 6.27861C8.29035 6.48042 8.33706 6.69903 8.33706 6.92014C8.33706 7.14124 8.29035 7.35985 8.2 7.56166C8.10966 7.76346 7.97771 7.9439 7.81279 8.09117C7.64787 8.23844 7.45371 8.34922 7.24301 8.41625C7.0323 8.48328 6.80983 8.50505 6.59013 8.48013ZM18.9102 18.7401H15.9102V13.9102C15.9102 12.7001 15.4801 11.9101 14.3902 11.9101C14.0528 11.9126 13.7244 12.0184 13.449 12.2133C13.1736 12.4082 12.9646 12.6828 12.8502 13.0001C12.7719 13.2351 12.7379 13.4827 12.7502 13.7302V18.7302H9.75013V9.73013H12.7502V11.0001C13.0227 10.5272 13.419 10.1377 13.8966 9.87334C14.3741 9.60903 14.9147 9.47998 15.4601 9.50014C17.4601 9.50014 18.9102 10.7901 18.9102 13.5601V18.7401Z" fill="#1E5724"/>
</svg>
