<svg width="24" height="24" viewBox="0 0 24 24" fill="none" xmlns="http://www.w3.org/2000/svg">
<mask id="mask0_327_7" style="mask-type:luminance" maskUnits="userSpaceOnUse" x="2" y="2" width="20" height="20">
<path d="M22 2H2V22H22V2Z" fill="white"/>
</mask>
<g mask="url(#mask0_327_7)">
<path d="M3.89189 9.9736C3.94595 9.9736 3.94595 9.9736 3.89189 9.9736C3.54054 9.9736 3.21622 9.89251 2.89189 9.81143C2.40541 9.64927 1.94595 10.1087 2.08108 10.5682C2.54054 12.2168 3.83784 13.5141 5.45946 13.8385C5.08108 13.9466 4.7027 14.0006 4.32432 14.0006C3.94595 14.0006 3.67568 14.406 3.86487 14.7574C4.59459 16.0817 6 17.0006 7.56757 17.0547H7.94595C8.35135 17.0547 8.7027 17.406 8.7027 17.8114C8.7027 18.2168 8.35135 18.5682 7.94595 18.5682C7.45946 18.5682 6.83784 18.5412 6.24324 18.379C5.86487 18.2979 5.48649 18.2979 5.13514 18.406C4.48649 18.6222 3.81081 18.8114 3.08108 18.8925C2.81081 18.9195 2.62162 19.1087 2.62162 19.379C2.62162 19.5682 2.72973 19.7574 2.91892 19.8385C4.40541 20.4871 6.08108 20.8655 7.83784 20.8655C15.8649 20.8655 20.2703 14.0547 20.2703 8.10873C20.2703 7.75738 20.4324 7.43306 20.7027 7.18981C21.1622 6.81143 21.5676 6.379 21.973 5.89251C22.1351 5.70333 21.9459 5.43306 21.7027 5.51414C21.2432 5.6763 20.7838 5.78441 20.2973 5.86549C20.2162 5.86549 20.1892 5.78441 20.2703 5.70332C20.8378 5.27089 21.3243 4.70334 21.6486 4.05469C21.7027 3.91955 21.6757 3.78442 21.5405 3.70334C21.4595 3.64928 21.3784 3.64928 21.2973 3.70334C20.8649 3.91955 20.4324 4.08171 19.973 4.24388C19.5135 4.40604 18.973 4.2709 18.5946 3.97361C17.8649 3.40604 16.9189 3.05469 15.9189 3.05469C13.8919 3.05469 12.1892 4.46009 11.7027 6.40603C11.6216 6.75738 11.8919 7.05468 12.2432 7.05468C12.8378 7.02765 13.4595 6.94657 13.9189 6.86549C14.2973 6.78441 14.6757 6.9736 14.8378 7.32495C15.027 7.78441 14.7568 8.24387 14.3514 8.35197C12.5946 8.83846 10.6486 8.51414 10.6486 8.51414C7.72973 8.13576 5.05405 6.75738 3.10811 4.59523C2.83784 4.29793 2.35135 4.40604 2.24324 4.75738C2.08108 5.21684 2 5.70332 2 6.24387C2 7.78441 2.75676 9.16278 3.89189 9.9736Z" fill="#1E5724"/>
</g>
</svg>
