<svg width="24" height="24" viewBox="0 0 24 24" fill="none" xmlns="http://www.w3.org/2000/svg">
<path fill-rule="evenodd" clip-rule="evenodd" d="M21.6999 8.03719C21.6063 7.32657 21.3349 6.65105 20.9109 6.07319C20.3854 5.54383 19.6727 5.24246 18.9269 5.23419C16.1599 5.03419 12.0009 5.03418 12.0009 5.03418C12.0009 5.03418 7.8439 5.03419 5.07291 5.23419C4.3274 5.24273 3.61515 5.54407 3.0899 6.07319C2.66304 6.64995 2.39106 7.32646 2.2999 8.03819C2.17603 9.10252 2.10927 10.1727 2.0999 11.2442V12.7442C2.10927 13.8156 2.17603 14.8859 2.2999 15.9502C2.3939 16.6622 2.6639 17.3402 3.0839 17.9222C3.6879 18.4582 4.4639 18.7592 5.27091 18.7702C6.8539 18.9212 12.0019 18.9702 12.0019 18.9702C12.0019 18.9702 16.1629 18.9702 18.9299 18.7702C19.6762 18.7619 20.3893 18.4601 20.9149 17.9302C21.3368 17.351 21.6074 16.6755 21.7019 15.9652C21.8258 14.9008 21.8925 13.8306 21.9019 12.7591V11.2432C21.8901 10.1717 21.8225 9.10165 21.6999 8.03719ZM10.0079 14.5911V8.97119L15.4079 11.7902L10.0079 14.5911Z" fill="#1E5724"/>
</svg>
