<svg width="32" height="32" viewBox="0 0 32 32" fill="none" xmlns="http://www.w3.org/2000/svg">
<path d="M19.8672 8.93359V20.1336" stroke="#1E5724" stroke-linecap="round" stroke-linejoin="round"/>
<path d="M19.8672 26.9336V18.9336" stroke="#1E5724" stroke-linecap="round" stroke-linejoin="round"/>
<path d="M19.8672 18.9336L24.0005 20.9336" stroke="#1E5724" stroke-linecap="round" stroke-linejoin="round"/>
<path d="M24.001 26.8003V8.93363C24.001 8.4003 23.8677 8.0003 23.601 7.6003C22.6677 6.8003 21.601 6.13363 20.5344 5.46697C20.1344 5.2003 19.601 4.93363 19.0677 5.2003L8.80104 10.267C8.26771 10.667 7.86771 11.2003 7.73438 11.867V21.7336" stroke="#1E5724" stroke-linecap="round" stroke-linejoin="round"/>
<path d="M7.86719 16.2671L19.8672 12.4004" stroke="#1E5724" stroke-linecap="round" stroke-linejoin="round"/>
<path d="M5.33594 26.9336V23.7336C5.33594 22.9336 5.73594 22.2669 6.4026 22.0003L7.73594 21.7336L19.8693 18.9336" stroke="#1E5724" stroke-linecap="round" stroke-linejoin="round"/>
<path d="M24 12.4004L26.2667 14.6671C26.6667 15.0671 26.8 15.4671 26.8 16.0004V26.6671" stroke="#1E5724" stroke-linecap="round" stroke-linejoin="round"/>
<path d="M28 26.9336H4" stroke="#1E5724" stroke-linecap="round" stroke-linejoin="round"/>
</svg>
