<svg width="32" height="32" viewBox="0 0 32 32" fill="none" xmlns="http://www.w3.org/2000/svg">
<path fill-rule="evenodd" clip-rule="evenodd" d="M16 4.93374C11.3588 4.93374 7.59634 8.69618 7.59634 13.3374C7.59634 16.7453 9.71817 20.1512 11.9211 22.754C13.0137 24.045 14.1076 25.1166 14.9286 25.8657C15.3388 26.2399 15.6802 26.5329 15.9181 26.7317C15.9433 26.7527 15.9673 26.7727 15.9902 26.7916C16.0156 26.7692 16.0425 26.7454 16.071 26.7201C16.3096 26.508 16.6516 26.1966 17.0626 25.8019C17.8852 25.0119 18.9809 23.891 20.0753 22.5664C22.2863 19.8903 24.4036 16.4866 24.4036 13.3374C24.4036 8.69618 20.6412 4.93374 16 4.93374ZM16 27.4004C15.7134 27.769 15.7133 27.7689 15.7131 27.7687L15.7126 27.7684L15.711 27.7671L15.7055 27.7628L15.685 27.7466C15.6672 27.7326 15.6412 27.7119 15.6077 27.685C15.5406 27.631 15.4431 27.5516 15.3195 27.4483C15.0724 27.2419 14.7207 26.9399 14.2993 26.5555C13.4572 25.7872 12.3334 24.6865 11.2084 23.3573C8.97603 20.7197 6.6626 17.0941 6.6626 13.3374C6.6626 8.18051 10.8431 4 16 4C21.1569 4 25.3374 8.18051 25.3374 13.3374C25.3374 16.8411 23.0194 20.4689 20.7952 23.1611C19.672 24.5206 18.5501 25.668 17.7094 26.4754C17.2888 26.8793 16.9378 27.1989 16.6913 27.418C16.5681 27.5275 16.4709 27.612 16.4041 27.6695C16.3707 27.6982 16.3449 27.7202 16.3273 27.7351L16.307 27.7523L16.3015 27.7569L16.3 27.7581L16.2996 27.7585C16.2994 27.7586 16.2993 27.7587 16 27.4004ZM16 27.4004L16.2993 27.7587L16.0105 28L15.7134 27.769L16 27.4004ZM16.2164 10.1263C14.3235 10.1263 12.7889 11.6609 12.7889 13.5538C12.7889 15.4468 14.3235 16.9813 16.2164 16.9813C18.1094 16.9813 19.6439 15.4468 19.6439 13.5538C19.6439 11.6609 18.1094 10.1263 16.2164 10.1263ZM11.8552 13.5538C11.8552 11.1452 13.8078 9.19259 16.2164 9.19259C18.6251 9.19259 20.5777 11.1452 20.5777 13.5538C20.5777 15.9625 18.6251 17.9151 16.2164 17.9151C13.8078 17.9151 11.8552 15.9625 11.8552 13.5538Z" fill="#1E5724"/>
</svg>
