<?xml version="1.0" encoding="utf-8"?>
<!-- Generator: Adobe Illustrator 26.0.1, SVG Export Plug-In . SVG Version: 6.00 Build 0)  -->
<svg version="1.1" id="Layer_1" xmlns="http://www.w3.org/2000/svg" xmlns:xlink="http://www.w3.org/1999/xlink" x="0px" y="0px"
	 viewBox="0 0 32 32" style="enable-background:new 0 0 32 32;" xml:space="preserve">
<style type="text/css">
	.st0{fill:#333333;}
	.st1{fill:#FFFFFF;}
	.st2{fill:none;stroke:#FFFFFF;stroke-width:1.5;stroke-miterlimit:10;}
</style>
<g id="Flat_copy">
	<g>
		<path class="st0" d="M16,0C7.2,0,0,7.2,0,16c0,8.8,7.2,16,16,16s16-7.2,16-16C32,7.2,24.8,0,16,0z"/>
	</g>
</g>
<g id="Instagram_1_">
	<circle class="st1" cx="20.6" cy="11.4" r="1"/>
	<circle class="st2" cx="16" cy="16" r="3.8"/>
	<path class="st2" d="M8,19.1c0,2.8,2.3,5.1,5.1,5.1h5.7c2.8,0,5.1-2.3,5.1-5.1v-6.3c0-2.8-2.3-5.1-5.1-5.1h-5.7
		C10.3,7.7,8,10,8,12.9V19.1z"/>
</g>
</svg>
