<?xml version="1.0" encoding="utf-8"?>
<!-- Generator: Adobe Illustrator 26.0.1, SVG Export Plug-In . SVG Version: 6.00 Build 0)  -->
<svg version="1.1" id="Layer_1" xmlns="http://www.w3.org/2000/svg" xmlns:xlink="http://www.w3.org/1999/xlink" x="0px" y="0px"
	 viewBox="0 0 32 32" style="enable-background:new 0 0 32 32;" xml:space="preserve">
<style type="text/css">
	.st0{fill:#333333;}
</style>
<g id="OUTLINE_copy_2">
	<g>
		<g>
			<polygon points="13.8,19.3 19.3,16 13.8,12.7 			"/>
		</g>
		<g>
			<path class="st0" d="M16,0C7.2,0,0,7.2,0,16s7.2,16,16,16s16-7.2,16-16S24.8,0,16,0z M24.7,16.7c0,1.5-0.2,3-0.2,3
				s-0.2,1.3-0.7,1.8c-0.7,0.7-1.4,0.7-1.7,0.8c-2.4,0.2-6.1,0.2-6.1,0.2s-4.5,0-5.9-0.2c-0.4-0.1-1.3-0.1-1.9-0.8
				c-0.5-0.6-0.7-1.8-0.7-1.8s-0.2-1.5-0.2-3v-1.4c0-1.5,0.2-3,0.2-3s0.2-1.3,0.7-1.8c0.7-0.7,1.4-0.7,1.7-0.8
				C12.3,9.5,16,9.5,16,9.5h0c0,0,3.6,0,6.1,0.2c0.3,0,1.1,0,1.7,0.8c0.5,0.6,0.7,1.8,0.7,1.8s0.2,1.5,0.2,3V16.7z"/>
		</g>
	</g>
</g>
</svg>
